<svg width="76" height="76" viewBox="0 0 76 76" fill="none" xmlns="http://www.w3.org/2000/svg">
<path d="M67.1825 15.2393C66.804 15.9332 66.2679 16.5325 65.574 16.9741C65.1324 17.8257 64.47 18.5827 63.6184 19.0873C67.5295 24.4178 69.8636 31.0099 69.8636 38.1382C69.8636 55.9904 55.3862 70.4678 37.5339 70.4678C19.6817 70.4678 5.20431 55.9904 5.20431 38.1382C5.20431 20.2859 19.6817 5.80853 37.5339 5.80853C41.5712 5.80853 45.4192 6.56551 48.9834 7.92178C49.2357 6.59706 49.8665 5.36695 50.9389 4.51534C51.0966 4.10531 51.2859 3.69528 51.5382 3.34832C47.2171 1.61356 42.4859 0.604248 37.5339 0.604248C16.8114 0.604248 0 17.4157 0 38.1382C0 58.8607 16.8114 75.6721 37.5339 75.6721C58.2564 75.6721 75.0678 58.8607 75.0678 38.1382C75.0678 29.4959 72.1345 21.5475 67.2141 15.1762L67.1825 15.2393Z" fill="black"/>
<mask id="mask0_2660_733" style="mask-type:alpha" maskUnits="userSpaceOnUse" x="15" y="15" width="46" height="45">
<circle cx="37.8672" cy="37.5" r="22.5" fill="#D9D9D9"/>
</mask>
<g mask="url(#mask0_2660_733)">
<path d="M26.9058 35.2583C27.0005 34.9744 27.0951 34.7221 27.2213 34.5013C27.3474 34.2805 27.5051 34.0913 27.6628 33.9336C27.8521 33.7759 28.0728 33.6812 28.3252 33.5866C28.5775 33.492 28.8929 33.4604 29.2399 33.4604C29.5868 33.4604 29.8707 33.492 30.123 33.5866C30.3754 33.6497 30.5646 33.7759 30.7539 33.9336C30.9116 34.0913 31.0693 34.249 31.1639 34.4698C31.2585 34.6906 31.3847 34.9113 31.4478 35.1952L33.6556 42.4812L31.7632 42.8912L30.9431 40.1156H27.379L26.5589 42.8912L24.7295 42.4812L26.9058 35.2583ZM30.5015 38.5386L29.6499 35.5106C29.5869 35.3529 29.5237 35.2268 29.4607 35.1637C29.3976 35.1006 29.3029 35.069 29.2083 35.069C29.1137 35.069 29.0191 35.069 28.9245 35.1637C28.8614 35.2268 28.7983 35.3214 28.7352 35.4791L27.8206 38.507H30.47L30.5015 38.5386Z" fill="black"/>
<path d="M34.917 33.6162H38.5127C38.9543 33.6162 39.3643 33.6478 39.7428 33.7424C40.1213 33.837 40.4367 33.9632 40.7205 34.1524C41.0044 34.3417 41.2252 34.5624 41.3829 34.8779C41.5406 35.1617 41.6352 35.5087 41.6352 35.9187C41.6352 36.1395 41.6352 36.3603 41.5406 36.5495C41.4775 36.7388 41.4144 36.928 41.2883 37.0857C41.1936 37.2434 41.0675 37.4011 40.9413 37.5273C40.8151 37.6535 40.689 37.7481 40.5628 37.8427C40.7521 37.9058 40.9413 38.032 41.1306 38.1581C41.3198 38.2843 41.4775 38.442 41.6037 38.6312C41.7299 38.8205 41.856 39.0097 41.9506 39.2621C42.0453 39.4829 42.0768 39.7352 42.0768 40.0506C42.0768 40.4922 42.0137 40.8707 41.856 41.2176C41.6983 41.5646 41.4775 41.8484 41.1936 42.0692C40.9098 42.29 40.5628 42.4793 40.1843 42.6054C39.8059 42.7316 39.3643 42.7947 38.8912 42.7947H34.917V33.7424V33.6162ZM38.355 37.275C38.7335 37.275 39.0489 37.1804 39.3012 37.0226C39.5535 36.8649 39.6797 36.5811 39.6797 36.2026C39.6797 35.8241 39.5535 35.5087 39.2696 35.3825C38.9858 35.2563 38.5757 35.1933 38.0395 35.1933H36.7779V37.275H38.355ZM38.7334 41.123C39.1119 41.123 39.4589 41.0284 39.7112 40.8391C39.9635 40.6499 40.1213 40.366 40.1213 39.956C40.1213 39.7352 40.0897 39.5144 39.9951 39.3567C39.9005 39.199 39.7743 39.0728 39.6482 38.9782C39.4905 38.8836 39.3328 38.8205 39.112 38.789C38.8912 38.7574 38.6704 38.7259 38.4496 38.7259H36.8094V41.0599H38.7334V41.123Z" fill="black"/>
<path d="M43.4647 40.6163C44.5371 41.0579 45.5149 41.2787 46.4296 41.2787C47.1235 41.2787 47.5966 41.1841 47.912 40.9633C48.2274 40.7425 48.3851 40.4586 48.3851 40.1117C48.3851 39.9224 48.3536 39.7332 48.2589 39.607C48.1643 39.4808 48.0382 39.3547 47.8805 39.2601C47.7228 39.1654 47.502 39.1024 47.2812 39.0393C47.0289 38.9762 46.7765 38.9131 46.4927 38.8816C46.1142 38.8185 45.7357 38.7239 45.3572 38.6292C44.9787 38.5346 44.6633 38.3769 44.3794 38.1877C44.0955 37.9984 43.8432 37.7461 43.6855 37.4307C43.4963 37.1153 43.4016 36.7368 43.4016 36.2952C43.4016 35.8852 43.4647 35.5067 43.5909 35.1913C43.717 34.8443 43.9378 34.5604 44.2532 34.3081C44.5371 34.0558 44.9472 33.8665 45.4203 33.7088C45.8934 33.5827 46.4611 33.488 47.155 33.488C47.7543 33.488 48.322 33.5511 48.8582 33.6773C49.3944 33.8034 49.8675 33.9612 50.2776 34.1189L49.8045 35.6644C49.2998 35.4751 48.8267 35.349 48.3851 35.2543C47.9435 35.1597 47.5019 35.0966 47.0604 35.0966C46.4926 35.0966 46.0511 35.1913 45.7987 35.349C45.5149 35.5067 45.3887 35.759 45.3887 36.1059C45.3887 36.4529 45.5464 36.7052 45.8618 36.8629C46.1773 37.0206 46.6188 37.1468 47.1866 37.2414C47.5651 37.3045 47.9435 37.3991 48.3536 37.5253C48.7321 37.6199 49.079 37.7776 49.3944 37.9984C49.7098 38.1877 49.9622 38.4715 50.1514 38.7869C50.3407 39.1024 50.4353 39.5124 50.4353 40.0486C50.4353 40.4902 50.3407 40.9002 50.183 41.2471C50.0253 41.5941 49.7729 41.9095 49.426 42.1618C49.1105 42.4142 48.7005 42.6034 48.1959 42.7611C47.7227 42.8873 47.155 42.9819 46.5242 42.9819C46.1457 42.9819 45.7672 42.9819 45.4203 42.9188C45.0733 42.8873 44.7579 42.8242 44.4425 42.7611C44.1586 42.698 43.8747 42.635 43.6539 42.5403C43.4016 42.4457 43.2124 42.3826 43.0547 42.3195L43.5909 40.7109L43.4647 40.6163Z" fill="black"/>
<path d="M37.5346 55.8446C27.7884 55.8446 19.8716 47.9278 19.8716 38.1816C19.8716 28.4354 27.7884 20.5186 37.5346 20.5186C47.2808 20.5186 55.1976 28.4354 55.1976 38.1816C55.1976 47.9278 47.2808 55.8446 37.5346 55.8446ZM37.5346 22.0325C28.64 22.0325 21.4171 29.2554 21.4171 38.15C21.4171 47.0446 28.64 54.2991 37.5346 54.2991C46.4292 54.2991 53.6521 47.0762 53.6521 38.15C53.6521 29.2239 46.4292 22.0325 37.5346 22.0325Z" fill="black"/>
<path d="M51.5711 53.2849L50.5303 52.1495C54.3467 48.5538 56.5546 43.5072 56.5546 38.2714C56.5546 33.4456 54.7252 28.8091 51.4449 25.2765L52.5804 24.2356C56.1446 28.0521 58.1317 33.0356 58.1317 38.2714C58.1317 43.9488 55.7661 49.4054 51.6027 53.2849H51.5711Z" fill="black"/>
<path d="M23.3104 53.006C19.2416 49.0949 16.9707 43.8275 16.9707 38.1817C16.9707 33.1666 18.8001 28.3093 22.1434 24.5559L23.2789 25.5652C20.1879 29.0347 18.4847 33.5136 18.4847 38.1817C18.4847 43.4175 20.5664 48.2748 24.3513 51.902L23.2789 53.006H23.3104Z" fill="black"/>
</g>
</svg>
