<svg width="76" height="76" viewBox="0 0 76 76" fill="none" xmlns="http://www.w3.org/2000/svg">
<path d="M67.1826 15.2393C66.8041 15.9332 66.2679 16.5325 65.574 16.9741C65.1324 17.8257 64.4701 18.5827 63.6184 19.0873C67.5295 24.4178 69.8635 31.0099 69.8635 38.1382C69.8635 55.9904 55.3862 70.4678 37.5339 70.4678C19.6816 70.4678 5.20426 55.9904 5.20426 38.1382C5.20426 20.2859 19.6816 5.80853 37.5339 5.80853C41.5712 5.80853 45.4192 6.56551 48.9833 7.92178C49.2357 6.59706 49.8665 5.36695 50.9389 4.51534C51.0966 4.10531 51.2858 3.69528 51.5382 3.34832C47.217 1.61356 42.4858 0.604248 37.5339 0.604248C16.8114 0.604248 0 17.4157 0 38.1382C0 58.8607 16.8114 75.6721 37.5339 75.6721C58.2564 75.6721 75.0679 58.8607 75.0679 38.1382C75.0679 29.4959 72.1345 21.5475 67.2141 15.1762L67.1826 15.2393Z" fill="black"/>
<path d="M38.2305 28.9834C38.2305 23.8738 34.0671 19.6788 28.989 19.6157C23.8794 19.5526 19.4951 23.653 19.4951 28.8888C19.4951 34.1562 23.627 38.3196 28.8628 38.3511C34.0356 38.3511 38.2305 34.1877 38.2305 28.9834ZM38.8298 44.2493C38.1044 43.1454 37.3158 42.073 36.6535 40.906C36.3696 40.4013 36.0227 40.2436 35.518 40.1805C34.3195 40.0228 33.1209 39.8336 31.9539 39.6443C30.913 39.4866 30.1245 39.8966 29.5567 40.7798C28.4213 42.5461 27.2858 44.3439 26.1503 46.1102C25.2356 47.5611 24.2894 49.012 23.3747 50.4629C22.5546 51.7876 23.1855 53.4593 24.6679 53.9009C25.6457 54.1847 26.6234 53.8063 27.2227 52.8916C27.9166 51.8507 28.579 50.7783 29.2414 49.7059C30.3138 48.0027 31.4177 46.331 32.4901 44.6278C32.6163 44.407 32.7424 44.3439 33.0263 44.3755C34.9503 44.6909 36.9058 44.9747 38.8614 45.2902C39.0822 45.3217 39.3345 45.3532 39.6499 45.4163C39.3661 44.9747 39.1137 44.5963 38.8614 44.2493H38.8298ZM43.7188 43.5869C44.7596 41.7891 45.6743 39.8966 46.1474 37.8465C46.4943 36.2694 46.7782 34.6608 46.6836 33.0522C46.589 31.6013 45.9581 30.4028 44.6649 29.6458C43.4664 28.9519 42.2993 29.1411 41.3846 30.182C40.7223 30.939 40.4385 31.8537 40.2492 32.8314C39.8707 34.8185 39.4607 36.8371 38.7983 38.7612C38.7983 38.8558 38.7668 38.9819 38.7983 39.045C40.06 40.9375 41.3216 42.83 42.5832 44.6909C42.5832 44.6909 42.6148 44.6909 42.7094 44.7855C43.0564 44.3755 43.4349 43.997 43.7188 43.5554V43.5869ZM43.561 19.9311C41.3216 19.9311 39.4923 21.7605 39.4923 23.9684C39.4923 26.2709 41.3216 28.1003 43.5926 28.1003C45.832 28.1003 47.6614 26.2393 47.6614 23.9999C47.6614 21.729 45.832 19.9311 43.5926 19.9311H43.561Z" fill="black"/>
<path d="M47.8502 56.7737C48.3233 56.4267 48.7964 56.1113 49.2695 55.7643C49.2064 55.6382 49.1434 55.5436 49.0488 55.4174C45.5793 50.1816 42.0782 44.9142 38.6087 39.6784C38.3879 39.3314 38.104 39.0791 37.694 39.0791C37.0316 39.0791 36.6215 39.8045 36.9369 40.4038C37.0946 40.6877 37.2839 40.94 37.4732 41.2239C40.8481 46.302 44.2229 51.3801 47.5978 56.4582C47.6609 56.5529 47.6925 56.679 47.7556 56.7737H47.9133H47.8502Z" fill="black"/>
<path d="M55.546 27.4368C55.2937 26.9322 55.0413 26.4275 54.7575 25.9229C51.8241 27.2791 48.9223 28.6354 46.0205 29.9917C46.3359 30.5279 46.6514 31.0325 46.9668 31.5687C47.6922 31.2218 48.4492 30.8748 49.2062 30.5279C51.3194 29.5501 53.4327 28.5723 55.546 27.5945V27.4368Z" fill="black"/>
<path d="M28.8306 38.3511C34.0033 38.3511 38.1983 34.1877 38.1983 28.9834C38.1983 23.8738 34.0348 19.6788 28.9567 19.6157C23.847 19.5526 19.4629 23.653 19.4629 28.8888C19.4629 34.1562 23.5948 38.3196 28.8306 38.3511Z" fill="black"/>
<path d="M39.5857 45.4152C39.3019 44.9737 39.0495 44.5952 38.7972 44.2482C38.0718 43.1443 37.2832 42.0719 36.6209 40.9049C36.337 40.4002 35.99 40.2425 35.4853 40.1794C34.2868 40.0217 33.0882 39.8325 31.9212 39.6432C30.8803 39.4855 30.0919 39.8956 29.5241 40.7787C28.3886 42.545 27.2531 44.3428 26.1176 46.1091C25.2029 47.56 24.2567 49.0109 23.342 50.4618C22.5219 51.7865 23.1528 53.4582 24.6352 53.8998C25.613 54.1837 26.5907 53.8052 27.19 52.8905C27.8839 51.8496 28.5463 50.7772 29.2087 49.7048C30.2811 48.0016 31.385 46.3299 32.4574 44.6267C32.5836 44.4059 32.7097 44.3428 32.9936 44.3744C34.9176 44.6898 36.8731 44.9737 38.8287 45.2891C39.0495 45.3206 39.3018 45.3522 39.6172 45.4152H39.5857Z" fill="black"/>
<path d="M42.7401 44.7828C43.0871 44.3728 43.4655 43.9943 43.7494 43.5527C44.7902 41.7548 45.705 39.8624 46.1781 37.8122C46.525 36.2352 46.8089 34.6266 46.7142 33.018C46.6196 31.5671 45.9888 30.3685 44.6957 29.6115C43.4971 28.9176 42.33 29.1069 41.4154 30.1477C40.753 30.9047 40.4692 31.8194 40.2799 32.7972C39.9014 34.7843 39.4913 36.8029 38.829 38.7269C38.829 38.8215 38.7974 38.9477 38.829 39.0108C40.0906 40.9032 41.3523 42.7957 42.6139 44.6566C42.6139 44.6566 42.6455 44.6566 42.7401 44.7512V44.7828Z" fill="black"/>
<path d="M47.6606 23.9677C47.6606 21.6968 45.8312 19.8989 43.5918 19.8989C41.3524 19.8989 39.5229 21.7283 39.5229 23.9362C39.5229 26.2387 41.3524 28.0681 43.6233 28.0681C45.8628 28.0681 47.6921 26.2071 47.6921 23.9677H47.6606Z" fill="black"/>
</svg>
