<svg width="564" height="316" viewBox="0 0 564 316" fill="none" xmlns="http://www.w3.org/2000/svg">
<g filter="url(#filter0_d_8663_454)">
<path d="M42.4629 63.1102C42.2077 55.6004 48.1125 49.3173 55.6236 49.1062L507.534 36.4065C515.365 36.1865 521.75 42.6332 521.454 50.4613L513.793 253.447C513.511 260.93 507.212 266.765 499.729 266.475L61.3702 249.502C54.2742 249.227 48.5943 243.52 48.3531 236.423L42.4629 63.1102Z" fill="#9BD2E5"/>
<path d="M507.415 32.1738C517.693 31.885 526.073 40.3467 525.686 50.6211L518.024 253.607C517.653 263.428 509.386 271.086 499.565 270.706L61.2061 253.733C51.8928 253.373 44.4378 245.882 44.1211 236.567L38.2314 63.2539C37.8965 53.3974 45.6466 45.1511 55.5049 44.874L507.415 32.1738Z" stroke="white" stroke-width="8.46821"/>
</g>
<defs>
<filter id="filter0_d_8663_454" x="0.115452" y="0.834476" width="563.691" height="314.767" filterUnits="userSpaceOnUse" color-interpolation-filters="sRGB">
<feFlood flood-opacity="0" result="BackgroundImageFix"/>
<feColorMatrix in="SourceAlpha" type="matrix" values="0 0 0 0 0 0 0 0 0 0 0 0 0 0 0 0 0 0 127 0" result="hardAlpha"/>
<feOffset dy="6.77457"/>
<feGaussianBlur stdDeviation="16.9364"/>
<feComposite in2="hardAlpha" operator="out"/>
<feColorMatrix type="matrix" values="0 0 0 0 0.112238 0 0 0 0 0.405432 0 0 0 0 0.949936 0 0 0 0.25 0"/>
<feBlend mode="normal" in2="BackgroundImageFix" result="effect1_dropShadow_8663_454"/>
<feBlend mode="normal" in="SourceGraphic" in2="effect1_dropShadow_8663_454" result="shape"/>
</filter>
</defs>
</svg>
