<svg width="29" height="26" viewBox="0 0 29 26" fill="none" xmlns="http://www.w3.org/2000/svg">
<path d="M2.7776 22.0875V24.4529C2.7776 24.7496 2.67482 24.9982 2.46926 25.1988C2.26399 25.3996 2.00953 25.5 1.70588 25.5H1.07172C0.768074 25.5 0.513613 25.3996 0.308338 25.1988C0.102779 24.9982 0 24.7496 0 24.4529V11.5854L3.50132 1.54708C3.61676 1.22431 3.81691 0.969167 4.10179 0.781667C4.38696 0.593889 4.70667 0.5 5.06093 0.5H24.0048C24.3505 0.5 24.6574 0.593611 24.9255 0.780833C25.1933 0.968333 25.3844 1.22375 25.4987 1.54708L29 11.5854V24.4529C29 24.7496 28.8972 24.9982 28.6917 25.1988C28.4864 25.3996 28.2319 25.5 27.9283 25.5H27.2766C26.9653 25.5 26.7117 25.3996 26.5158 25.1988C26.3202 24.9982 26.2224 24.7496 26.2224 24.4529V22.0875H2.7776ZM2.98956 9.49167H26.0104L23.5872 2.59417H5.41277L2.98956 9.49167ZM6.46444 17.8675C7.06036 17.8675 7.56076 17.6661 7.96562 17.2633C8.37048 16.8606 8.57291 16.3737 8.57291 15.8029C8.57291 15.2165 8.36678 14.7214 7.95453 14.3175C7.54227 13.9136 7.04529 13.7117 6.46359 13.7117C5.86568 13.7117 5.35889 13.9142 4.94322 14.3192C4.52727 14.7244 4.31929 15.2193 4.31929 15.8038C4.31929 16.3882 4.52784 16.8783 4.94493 17.2742C5.36201 17.6697 5.86852 17.8675 6.46444 17.8675ZM22.5616 17.8675C23.1572 17.8675 23.6623 17.6661 24.0768 17.2633C24.4911 16.8606 24.6982 16.3737 24.6982 15.8029C24.6982 15.2165 24.4904 14.7214 24.0747 14.3175C23.659 13.9136 23.1544 13.7117 22.5607 13.7117C21.9671 13.7117 21.466 13.9142 21.0574 14.3192C20.6489 14.7244 20.4446 15.2193 20.4446 15.8038C20.4446 16.3882 20.6524 16.8783 21.0681 17.2742C21.484 17.6697 21.9819 17.8675 22.5616 17.8675ZM2.14344 19.9938H26.8566V11.5854H2.14344V19.9938Z" fill="white"/>
</svg>
