<svg width="60" height="60" viewBox="0 0 60 60" fill="none" xmlns="http://www.w3.org/2000/svg">
<circle cx="29.9644" cy="29.9644" r="29.9644" fill="#1F2C40"/>
<path d="M33.133 22.7648C32.6204 22.7648 32.1079 22.9505 31.7032 23.2598L28.5737 19.6404C28.8435 19.1764 29.0054 18.6195 29.0054 18.0008C29.0054 16.3613 27.8453 15.0001 26.3885 15.0001C24.9316 15.0001 23.7716 16.3303 23.7716 18.0008C23.7716 18.5886 23.9334 19.1764 24.2032 19.6404L21.0467 23.2289C20.6421 22.9195 20.1565 22.7339 19.6169 22.7339C18.187 22.7339 17 24.0641 17 25.7346C17 27.4051 18.1601 28.7353 19.6169 28.7353C21.0737 28.7353 22.2338 27.4051 22.2338 25.7346C22.2338 25.1468 22.0719 24.5591 21.8021 24.095L24.9316 20.5066C25.3363 20.8159 25.8219 21.0015 26.3615 21.0015C26.8741 21.0015 27.3867 20.8159 27.7913 20.5066L30.9208 24.095C30.651 24.5591 30.4892 25.1159 30.4892 25.7346C30.4892 27.3742 31.6492 28.7353 33.1061 28.7353C34.5359 28.7353 35.7229 27.4051 35.7229 25.7346C35.7229 24.0641 34.5629 22.7648 33.133 22.7648Z" fill="white"/>
<path d="M39.8795 30.4977C38.4496 30.4977 37.2626 31.8279 37.2626 33.4984C37.2626 34.0862 37.4245 34.674 37.6942 35.138L34.5378 38.6955C34.1331 38.3862 33.6475 38.2006 33.1079 38.2006C32.5953 38.2006 32.0828 38.3862 31.6781 38.6955L28.5756 35.1071C28.8454 34.643 29.0072 34.0862 29.0072 33.4675C29.0072 31.8279 27.8472 30.4668 26.3903 30.4668C24.9335 30.4668 23.7734 31.797 23.7734 33.4675C23.7734 35.1071 24.9335 36.4682 26.3903 36.4682C26.9029 36.4682 27.4155 36.2826 27.8202 35.9732L30.9497 39.5617C30.6799 40.0258 30.518 40.5826 30.518 41.2013C30.518 42.8408 31.6781 44.202 33.1349 44.202C34.5648 44.202 35.7518 42.8718 35.7518 41.2013C35.7518 40.6135 35.5899 40.0258 35.3202 39.5617L38.4496 35.9732C38.8543 36.2826 39.3399 36.4682 39.8795 36.4682C41.3093 36.4682 42.4964 35.138 42.4964 33.4675C42.4694 31.8279 41.3093 30.4977 39.8795 30.4977Z" fill="white"/>
<path d="M26.3885 38.2319C25.8759 38.2319 25.3633 38.4175 24.9586 38.7269L21.8291 35.1074C22.0989 34.6434 22.2608 34.0866 22.2608 33.4679C22.2608 32.8801 22.0989 32.2924 21.8291 31.8283L24.9586 28.2399C25.3633 28.5492 25.8489 28.7348 26.3885 28.7348C27.8183 28.7348 29.0053 27.4046 29.0053 25.7341C29.0053 24.0636 27.8453 22.7334 26.3885 22.7334C24.9316 22.7334 23.7716 24.0636 23.7716 25.7341C23.7716 26.3219 23.9334 26.9096 24.2032 27.3737L21.0467 30.9621C20.6421 30.6528 20.1565 30.4672 19.6169 30.4672C18.187 30.4672 17 31.7974 17 33.4679C17 35.1074 18.1601 36.4686 19.6169 36.4686C20.1295 36.4686 20.6421 36.283 21.0467 35.9736L24.1762 39.5621C23.9064 40.0261 23.7446 40.583 23.7446 41.2017C23.7446 42.8412 24.9046 44.2024 26.3615 44.2024C27.8183 44.2024 28.9784 42.8722 28.9784 41.2017C28.9784 39.5621 27.8183 38.2319 26.3885 38.2319Z" fill="white"/>
<path d="M39.8767 22.7647C39.3641 22.7647 38.8516 22.9503 38.4469 23.2597L35.3174 19.6403C35.5872 19.1762 35.7491 18.6194 35.7491 18.0007C35.7491 16.3611 34.589 15 33.1322 15C31.7023 15 30.5153 16.3302 30.5153 18.0007C30.5153 19.6712 31.6753 21.0014 33.1322 21.0014C33.6447 21.0014 34.1573 20.8158 34.562 20.5065L37.6915 24.0949C37.4217 24.559 37.2598 25.1158 37.2598 25.7345C37.2598 26.3223 37.4217 26.91 37.6915 27.3741L34.535 30.9625C34.1304 30.6532 33.6447 30.4676 33.1052 30.4676C31.6753 30.4676 30.4883 31.7978 30.4883 33.4683C30.4883 35.1078 31.6483 36.469 33.1052 36.469C34.535 36.469 35.7221 35.1388 35.7221 33.4683C35.7221 32.8805 35.5602 32.2927 35.2904 31.8287L38.4199 28.2402C38.8246 28.5496 39.3102 28.7352 39.8498 28.7352C41.2796 28.7352 42.4667 27.405 42.4667 25.7345C42.4667 24.064 41.3066 22.7647 39.8767 22.7647Z" fill="white"/>
</svg>
