<svg width="60" height="60" viewBox="0 0 60 60" fill="none" xmlns="http://www.w3.org/2000/svg">
<circle cx="29.9644" cy="29.9644" r="29.9644" fill="#2A5B59"/>
<path d="M19 41.3869V20.5356H32.5753V21.9274H20.4956V39.9953H39.9144V31.209H41.4102V41.3869H19ZM24.1893 36.8557H25.6848V28.9895H24.1893V36.8557ZM29.4573 36.8557H30.9529V25.0667H29.4573V36.8557ZM34.7251 36.8557H36.2206V32.8246H34.7251V36.8557ZM40.7511 29.2039C40.0615 29.2039 39.4015 29.0935 38.7711 28.8727C38.1408 28.6517 37.5441 28.3541 36.9813 27.9798L35.577 29.1827L34.5553 28.2322L35.9471 26.9424C35.587 26.4483 35.2942 25.9195 35.0688 25.3559C34.8432 24.7921 34.7303 24.2074 34.7303 23.6019C34.7303 22.0522 35.3173 20.7311 36.4912 19.6387C37.6653 18.5462 39.0853 18 40.7511 18H46.7719V23.6019C46.7719 25.1519 46.1848 26.4731 45.0107 27.5655C43.8366 28.6578 42.4167 29.2039 40.7511 29.2039ZM40.7511 27.8124C42.0081 27.8124 43.0765 27.403 43.9564 26.5843C44.8364 25.7656 45.2763 24.7715 45.2763 23.6019V19.3915H40.7511C39.4942 19.3915 38.4257 19.8009 37.5458 20.6196C36.6659 21.4383 36.2259 22.4324 36.2259 23.6019C36.2259 24.0222 36.2985 24.428 36.4437 24.8193C36.5892 25.2108 36.7642 25.5999 36.9687 25.9867L41.4762 21.7928L42.5637 22.774L38.0563 26.9679C38.4551 27.2179 38.8815 27.4212 39.3357 27.5778C39.7896 27.7342 40.2614 27.8124 40.7511 27.8124Z" fill="white"/>
</svg>
