<svg width="41" height="40" viewBox="0 0 41 40" fill="none" xmlns="http://www.w3.org/2000/svg">
<path d="M11.1288 40V37.33H19.1653V28.24C17.0476 27.9443 15.1388 27.0551 13.4388 25.5724C11.7392 24.0896 10.651 22.3016 10.1741 20.2082C7.48353 19.9094 5.19843 18.8347 3.31882 16.9841C1.43961 15.1335 0.5 12.89 0.5 10.2535V5.04059H9.67177V0H31.3282V5.04059H40.5V10.2535C40.5 12.89 39.5604 15.1335 37.6812 16.9841C35.8016 18.8347 33.5165 19.9094 30.8259 20.2082C30.349 22.3016 29.2608 24.0896 27.5612 25.5724C25.8612 27.0551 23.9524 27.9443 21.8347 28.24V37.33H29.8712V40H11.1288ZM9.67177 17.4071V7.71059H3.17V10.2535C3.17 12.0786 3.79353 13.6555 5.04059 14.9841C6.28804 16.3131 7.83177 17.1208 9.67177 17.4071ZM20.5053 25.6559C22.7673 25.6559 24.6841 24.8629 26.2559 23.2771C27.8273 21.6908 28.6129 19.7675 28.6129 17.5071V2.67H12.3871V17.5071C12.3871 19.7675 13.1745 21.6908 14.7494 23.2771C16.3247 24.8629 18.2433 25.6559 20.5053 25.6559ZM31.3282 17.4071C33.1682 17.1208 34.712 16.3131 35.9594 14.9841C37.2065 13.6555 37.83 12.0786 37.83 10.2535V7.71059H31.3282V17.4071Z" fill="white"/>
</svg>
