<svg width="76" height="76" viewBox="0 0 76 76" fill="none" xmlns="http://www.w3.org/2000/svg">
<path d="M68.0458 15.2393C67.6673 15.9332 67.1311 16.5325 66.4372 16.9741C65.9957 17.8257 65.3333 18.5827 64.4817 19.0873C68.3928 24.4178 70.7268 31.0099 70.7268 38.1382C70.7268 55.9904 56.2495 70.4678 38.3972 70.4678C20.545 70.4678 6.06759 55.9904 6.06759 38.1382C6.06759 20.2859 20.545 5.80853 38.3972 5.80853C42.4345 5.80853 46.2825 6.56551 49.8466 7.92178C50.099 6.59706 50.7298 5.36695 51.8022 4.51534C51.9599 4.10531 52.1491 3.69528 52.4015 3.34832C48.0803 1.61356 43.3492 0.604248 38.3972 0.604248C17.6747 0.604248 0.863281 17.4157 0.863281 38.1382C0.863281 58.8607 17.6747 75.6721 38.3972 75.6721C59.1197 75.6721 75.9311 58.8607 75.9311 38.1382C75.9311 29.4959 72.9978 21.5475 68.0774 15.1762L68.0458 15.2393Z" fill="black"/>
<mask id="mask0_2660_746" style="mask-type:alpha" maskUnits="userSpaceOnUse" x="15" y="15" width="46" height="48">
<ellipse cx="38.4316" cy="39" rx="22.5" ry="24" fill="#D9D9D9"/>
</mask>
<g mask="url(#mask0_2660_746)">
<path d="M25.0224 35.9571L24.9278 37.8495C24.9278 38.228 25.3063 38.575 25.8109 38.575H29.0912C29.312 38.575 29.5643 38.5119 29.7221 38.3542C29.9113 38.228 30.0059 38.0388 30.0059 37.8495L30.069 35.9886H46.3127L46.2496 37.8495C46.2496 38.228 46.6281 38.575 47.1328 38.575H50.413C50.413 38.575 50.4761 38.575 50.5076 38.575C50.7284 38.575 50.9177 38.4804 51.0754 38.3542C51.2646 38.228 51.3592 38.0388 51.3592 37.8495L51.4539 35.9571C51.927 35.9255 52.2739 35.6101 52.3055 35.2632L52.5578 29.1127C52.5578 29.1127 52.5263 28.8603 52.4316 28.7342L50.5707 26.2424L48.8044 19.9027C48.7098 19.5872 48.3628 19.3665 47.9528 19.3665H29.8798C29.4697 19.3665 29.0912 19.5872 28.9966 19.9027L26.7257 26.2424L24.6439 28.7342C24.6439 28.7342 24.4862 28.9865 24.4862 29.1127L24.2339 35.2632C24.2339 35.6417 24.5808 35.9255 25.0224 35.9571ZM46.3127 21.732L47.385 26.1162H29.9428L31.3622 21.732H46.3127Z" fill="black"/>
<path d="M56.2485 47.4095C55.6492 45.454 52.8735 44.4131 49.3094 43.2145C48.8047 43.0568 48.7101 42.8676 48.6471 42.6783C48.3632 41.669 49.8141 39.6188 51.0757 38.2626L47.9847 38.3257C47.6062 38.3257 47.2592 38.1995 47.0069 38.0103C45.8399 39.5242 44.6098 41.6059 45.1144 43.4038C45.4298 44.5077 46.3446 45.3593 47.7639 45.8324C49.2779 46.3371 52.4635 47.4095 52.7158 48.198C52.7789 48.3873 52.5582 48.7658 52.1481 49.2073C49.6564 51.7937 47.6377 53.4339 47.6062 53.4339C46.8808 54.0016 46.8492 54.9163 47.5431 55.4525C47.9216 55.7679 48.4578 55.8941 48.9624 55.831C49.3725 55.7994 49.7825 55.6417 50.0979 55.3894C50.1925 55.3263 52.3374 53.6231 54.9868 50.8475C56.1538 49.6489 56.5639 48.4819 56.2169 47.4095H56.2485Z" fill="black"/>
<path d="M27.0413 44.41C26.6628 44.2839 26.5367 44.1262 26.4736 43.9054C26.1267 42.6753 28.0191 40.0574 29.5646 38.4488H26.5051C26.1266 38.4488 25.7797 38.3226 25.5274 38.1018C24.0765 39.8681 22.3417 42.5176 22.941 44.5993C23.2564 45.6717 24.108 46.5233 25.4328 46.9964C26.9467 47.5326 30.1008 48.6681 30.3216 49.4566C30.3847 49.6459 30.1639 50.0243 29.7223 50.4659C27.1991 52.9892 25.1173 54.5663 25.0858 54.5978C24.3604 55.1655 24.3288 56.0487 24.9912 56.6164C25.3697 56.9318 25.9059 57.058 26.4105 57.0265C26.8206 57.0265 27.2306 56.8688 27.546 56.6164C27.6406 56.5534 29.817 54.8817 32.5295 52.1691C33.6965 51.0021 34.1696 49.8351 33.8542 48.7627C33.318 46.8072 30.5424 45.6717 27.0098 44.41H27.0413Z" fill="black"/>
</g>
</svg>
