<svg width="76" height="76" viewBox="0 0 76 76" fill="none" xmlns="http://www.w3.org/2000/svg">
<path d="M67.1826 15.2403C66.8041 15.9342 66.2679 16.5335 65.574 16.9751C65.1324 17.8267 64.4701 18.5836 63.6184 19.0883C67.5295 24.4188 69.8635 31.0108 69.8635 38.1391C69.8635 55.9914 55.3862 70.4688 37.5339 70.4688C19.6816 70.4688 5.20426 55.9914 5.20426 38.1391C5.20426 20.2869 19.6816 5.80951 37.5339 5.80951C41.5712 5.80951 45.4192 6.56649 48.9833 7.92276C49.2357 6.59803 49.8665 5.36793 50.9389 4.51632C51.0966 4.10629 51.2858 3.69625 51.5382 3.3493C47.217 1.61454 42.4858 0.605225 37.5339 0.605225C16.8114 0.605225 0 17.4166 0 38.1391C0 58.8616 16.8114 75.673 37.5339 75.673C58.2564 75.673 75.0679 58.8616 75.0679 38.1391C75.0679 29.4969 72.1345 21.5485 67.2141 15.1772L67.1826 15.2403Z" fill="black"/>
<mask id="mask0_2660_773" style="mask-type:luminance" maskUnits="userSpaceOnUse" x="6" y="9" width="64" height="58">
<path d="M69.6184 9.83521H6V66.5146H69.6184V9.83521Z" fill="white"/>
</mask>
<g mask="url(#mask0_2660_773)">
<path d="M45.8364 50.0083C45.8364 51.2699 46.8458 52.2792 48.139 52.2792C49.4006 52.2792 50.4099 51.2699 50.4099 50.0083C50.4099 48.7466 49.4006 47.7373 48.139 47.7373C46.8773 47.7373 45.868 48.7466 45.868 50.0083H45.8364ZM48.6121 47.895C48.6121 47.895 48.612 48.1789 48.5805 48.305C48.5489 48.6205 48.4859 48.9359 48.3282 49.1882C48.202 49.3774 48.0127 49.3774 47.8866 49.1882C47.6342 48.7782 47.6028 48.3366 47.5712 47.895C47.7289 47.8635 47.9181 47.8319 48.0758 47.8319C48.2335 47.8319 48.4228 47.8319 48.5805 47.895H48.6121ZM48.1074 49.4405C48.4228 49.4405 48.6751 49.7244 48.6751 50.0083C48.6751 50.3237 48.3913 50.5445 48.1074 50.5445C47.792 50.5445 47.5397 50.2921 47.5712 49.9767C47.5712 49.6929 47.8235 49.409 48.139 49.409L48.1074 49.4405ZM49.9683 48.8728C49.6529 49.1567 49.3375 49.4405 48.9275 49.5667C48.8329 49.5982 48.6751 49.5667 48.5805 49.5667C48.4543 49.5036 48.4859 49.3459 48.549 49.2197C48.6752 48.8097 48.9275 48.4943 49.2429 48.1789C49.5268 48.3681 49.7791 48.6205 49.9683 48.9043V48.8728ZM50.2207 50.5129C50.2207 50.5129 49.9368 50.5129 49.8106 50.4814C49.4952 50.4498 49.2114 50.3868 48.9591 50.2291C48.7383 50.0713 48.7067 49.9136 48.9591 49.7559C49.3376 49.5351 49.7791 49.4721 50.2207 49.4721C50.2522 49.6298 50.2837 49.819 50.2837 49.9767C50.2837 50.1344 50.2838 50.3237 50.2207 50.4814V50.5129ZM48.6436 51.0491C48.6436 51.0491 48.549 50.7968 48.5174 50.6706C48.5174 50.5129 48.612 50.4183 48.7697 50.4183C48.8328 50.4183 48.896 50.4183 48.9591 50.4498C49.3376 50.576 49.6529 50.8283 49.9683 51.1122C49.7791 51.4276 49.5268 51.6799 49.2113 51.8692C49.0221 51.5853 48.8329 51.333 48.6436 51.0491ZM47.6027 52.1215C47.6027 52.1215 47.6028 51.8376 47.6343 51.7115C47.6658 51.3961 47.7289 51.1122 47.8866 50.8599C48.0443 50.6391 48.2021 50.6075 48.3598 50.8599C48.5806 51.2384 48.6436 51.6799 48.6436 52.1215C48.4859 52.1531 48.2967 52.1846 48.139 52.1846C47.9813 52.1846 47.792 52.1846 47.6343 52.1215H47.6027ZM46.278 51.1437C46.5935 50.8599 46.9088 50.6075 47.3189 50.4498C47.445 50.4183 47.6028 50.3552 47.6659 50.4814C47.7289 50.576 47.7289 50.7022 47.6659 50.8283C47.5397 51.2384 47.2873 51.5538 47.0034 51.8692C46.7196 51.6799 46.4673 51.4276 46.278 51.1437ZM46.0888 49.5036C46.0888 49.5036 46.3095 49.5036 46.4041 49.5351C46.688 49.5982 46.9719 49.6613 47.2242 49.7559C47.3504 49.7875 47.4451 49.8821 47.4451 50.0398C47.4451 50.1975 47.3189 50.2606 47.2242 50.2921C46.8457 50.4814 46.4673 50.5129 45.9942 50.5445C45.9626 50.3868 45.931 50.1975 45.931 50.0083C45.931 49.819 45.9311 49.6613 45.9942 49.5036C45.9942 49.5036 46.0257 49.5036 46.0572 49.5036H46.0888ZM46.278 48.9043C46.4673 48.6205 46.7196 48.3681 47.0034 48.1789C47.0665 48.242 47.1296 48.305 47.1927 48.3681C47.3819 48.652 47.5712 48.9043 47.6973 49.2197C47.8235 49.5036 47.6659 49.6929 47.382 49.5982C46.972 49.4721 46.6249 49.2197 46.3095 48.9043H46.278Z" fill="black"/>
<path d="M52.618 51.3887V51.2941H52.5549C52.208 51.2941 52.0502 51.1679 52.0187 50.9156C52.0187 50.6002 52.0187 50.2848 52.0187 50.0009C52.0187 49.5593 52.0502 49.1493 52.0187 48.7392C51.9241 48.1084 51.6718 47.4776 51.2617 47.0045C50.4416 45.9952 49.2431 45.5536 47.5399 45.7113C47.0037 45.7744 46.2467 45.869 45.7105 46.3421C45.2689 46.7206 44.8904 47.2568 44.575 47.9823C44.3858 48.4554 44.1965 48.96 44.0704 49.4331C43.9757 49.6855 43.9127 49.9693 43.8181 50.2217C43.8181 50.2848 43.755 50.4109 43.6288 50.5055C43.1557 50.884 42.2725 50.2217 42.2725 50.1901C41.9571 49.9063 41.7679 49.5278 41.6417 49.2124C41.5786 49.0231 41.5155 48.8023 41.484 48.6131C41.3263 47.6353 41.4209 46.7206 41.5471 45.8059L41.6102 45.2697C41.7994 43.6611 42.8402 43.1565 43.7549 42.9357C46.6882 42.1471 49.7163 41.7687 52.3026 41.4532C53.1542 41.3586 53.8797 41.2009 54.5736 40.6963C55.8352 39.7816 57.223 39.0246 58.4216 38.3622C60.0302 37.4475 62.2065 36.4067 64.6667 36.312C67.3792 36.1859 69.9972 36.1228 72.6151 36.1859C75.3276 36.249 78.0402 36.4382 80.6896 36.5959C81.762 36.659 82.8659 36.7221 83.9383 36.7852C84.0645 36.7852 84.1907 36.8167 84.3168 36.8482L84.6637 36.9113L84.853 37.4791L84.096 38.173L84.7269 39.2769C85.2315 40.1285 85.7046 41.0117 86.2093 41.8633C86.6509 42.5887 86.6193 43.3457 86.5562 43.8504C86.5247 44.1973 86.4616 44.5758 86.367 44.9543C86.3354 45.112 86.3669 45.1436 86.43 45.2697C87.1555 46.1529 87.4394 47.0045 87.3763 47.9507C87.2817 49.0546 86.9347 49.8432 85.5784 50.127C84.8215 50.2848 84.0014 50.4109 83.2444 50.5371C82.8975 50.6002 82.5821 50.6317 82.2351 50.6948L81.8566 50.7579L81.7304 50.127C81.4781 48.8023 81.1627 47.8561 80.6896 47.0676C80.1219 46.1213 79.4595 45.6482 78.6079 45.6167C77.9455 45.5851 77.1885 45.6167 76.3684 45.7113C75.4222 45.8375 74.7599 46.3106 74.3498 47.1306C74.2867 47.2568 74.2237 47.383 74.1606 47.5091C74.0344 47.6984 73.9398 47.8876 73.8767 48.1084C73.6559 48.7392 73.4667 49.3701 73.2459 50.0324L72.899 51.1364L52.618 51.4518V51.3887ZM52.8072 50.5371C52.8072 50.5371 52.9965 50.5371 53.0596 50.6002L72.3311 50.3163L72.5204 49.7486C72.7412 49.0862 72.9305 48.4554 73.1512 47.8245C73.2459 47.5722 73.3721 47.3514 73.4982 47.1306C73.5613 47.0045 73.6244 46.9099 73.6875 46.7837C74.2237 45.7113 75.1068 45.0805 76.3054 44.9228C77.1885 44.8281 77.9455 44.7966 78.6709 44.8281C79.7749 44.8912 80.658 45.4905 81.352 46.6575C81.8881 47.5407 82.2351 48.5184 82.4874 49.8747C82.7082 49.8432 82.929 49.8116 83.1498 49.7801C83.9383 49.6539 84.6953 49.5593 85.4208 49.3701C86.2724 49.1808 86.5246 48.8339 86.6193 47.8561C86.6823 47.1306 86.4616 46.4683 85.8623 45.7113C85.61 45.4274 85.5469 45.112 85.6415 44.7335C85.7361 44.4181 85.7677 44.0396 85.7993 43.7557C85.8623 43.1249 85.7992 42.6518 85.5469 42.2418C85.0422 41.3902 84.5376 40.507 84.0644 39.6239L83.1182 38.0153L83.6545 37.5106C82.6452 37.4475 81.6358 37.3844 80.6265 37.3214C77.977 37.1637 75.2645 37.0059 72.552 36.9113C69.9656 36.8482 67.3477 36.9113 64.6667 37.0375C62.3642 37.1321 60.2825 38.1414 58.7685 38.993C57.57 39.6554 56.2136 40.4124 54.9835 41.2955C54.1004 41.9264 53.1857 42.0841 52.3341 42.1787C49.7793 42.4626 46.7829 42.8411 43.9127 43.6296C42.8718 43.9135 42.4303 44.3866 42.3356 45.3328L42.2725 45.869C42.1779 46.7521 42.0517 47.6038 42.2094 48.4554C42.2094 48.6131 42.2725 48.7708 42.3356 48.8969C42.4303 49.1177 42.5564 49.3701 42.7457 49.5593C42.8088 49.6224 42.998 49.717 43.1242 49.7486C43.1872 49.5278 43.2503 49.3385 43.3134 49.1177C43.4711 48.6131 43.6288 48.0769 43.8495 47.6038C44.1965 46.7837 44.6381 46.1529 45.1743 45.6798C45.8682 45.0805 46.7829 44.9228 47.4137 44.8597C49.3377 44.6704 50.8202 45.2066 51.798 46.4367C52.2711 47.036 52.5864 47.7615 52.7126 48.55C52.7757 49.0231 52.7441 49.4962 52.7126 49.9693C52.7126 50.127 52.7126 50.3163 52.7126 50.474L52.8072 50.5371ZM55.8352 42.8095L55.6775 42.2418L55.8036 42.0525C58.0746 39.4346 60.9764 37.9206 64.6667 37.3844L65.2029 37.3214L64.2882 42.3679L55.8352 42.8411V42.8095ZM64.2566 38.2361C61.2602 38.7407 58.8631 39.9708 56.9076 41.9894L63.6259 41.6109L64.2566 38.2361ZM65.4236 42.2733L65.6444 37.3529H65.9915C66.1492 37.3214 66.3068 37.2898 66.4645 37.2898C66.8115 37.2898 67.1269 37.2267 67.4423 37.2267C69.3979 37.1952 71.3219 37.1637 73.2774 37.1321C73.5928 37.1321 73.9083 37.416 73.9713 37.6683C74.1606 38.2991 74.3183 38.9615 74.476 39.5923L74.9807 41.674L65.3922 42.2418L65.4236 42.2733ZM66.4015 38.0783L66.2437 41.4532L74.066 41.0117L73.7821 39.8446C73.6244 39.2138 73.4667 38.583 73.2774 37.9522C71.3534 37.9522 69.4294 37.9837 67.4739 38.0468C67.1585 38.0468 66.8745 38.0783 66.5276 38.1099C66.4961 38.1099 66.433 38.1099 66.4015 38.1099V38.0783ZM75.5484 41.7056L74.0974 37.2583L74.6653 37.1952C74.6653 37.1952 74.7914 37.1952 74.8229 37.1952C75.2014 37.1952 75.58 37.1952 75.9585 37.2267C76.9047 37.2583 77.8508 37.2898 78.8286 37.3529H78.9233C79.6803 37.416 80.5318 37.4791 81.1942 38.1099C81.7619 38.6461 82.3298 39.2454 82.866 39.7816L83.3705 40.3178C83.3705 40.3178 83.4968 40.5386 83.5283 40.6016L83.7491 41.1063L83.2129 41.2009L75.5168 41.674L75.5484 41.7056ZM75.1384 37.9837L76.0845 40.917L82.4559 40.5386L82.2981 40.3808C81.7619 39.8446 81.2258 39.2454 80.658 38.7407C80.1849 38.2991 79.5541 38.2676 78.8602 38.2045H78.7656C77.8193 38.1414 76.8731 38.0783 75.9269 38.0468C75.643 38.0468 75.3906 38.0468 75.1068 38.0468L75.1384 37.9837Z" fill="black"/>
<path d="M48.202 54.3539C48.202 54.3539 48.139 54.3539 48.1074 54.3539C46.8773 54.3539 45.7418 53.8177 44.9217 52.9346C44.1332 52.083 43.6917 51.0106 43.7233 49.8751C43.7863 47.3833 45.7419 45.4593 48.2336 45.4909C49.4322 45.4909 50.5361 45.9955 51.3562 46.8471C52.1762 47.6987 52.6178 48.8342 52.5863 50.0328C52.5863 51.2313 52.0816 52.3353 51.1985 53.1553C50.3784 53.9439 49.306 54.3855 48.202 54.3855V54.3539ZM44.4802 49.8751C44.4802 50.8213 44.7956 51.7045 45.458 52.3984C46.1519 53.1238 47.0981 53.5654 48.1074 53.5654C49.0537 53.5654 49.9369 53.2184 50.6308 52.5561C51.3562 51.8622 51.7347 50.9475 51.7662 49.9697C51.7662 48.9919 51.4192 48.0457 50.7569 47.3518C50.0945 46.6579 49.1799 46.2478 48.1706 46.2478C46.1204 46.1848 44.4802 47.7934 44.4486 49.8751H44.4802ZM48.139 52.8084C48.139 52.8084 48.1074 52.8084 48.0759 52.8084C46.4988 52.8084 45.2372 51.4521 45.2372 49.8751C45.2372 49.0865 45.5526 48.3611 46.1203 47.8249C46.6881 47.2887 47.4136 47.0048 48.1706 47.0048C49.7476 47.0048 51.0407 48.3296 51.0407 49.9066C51.0407 50.6636 50.7253 51.4206 50.1576 51.9568C49.6214 52.493 48.8644 52.8084 48.139 52.8084ZM46.0257 49.9066C46.0257 51.0736 46.9404 52.0199 48.1074 52.0514C48.6752 52.0514 49.2113 51.8306 49.6529 51.4206C50.0629 51.0106 50.2838 50.4744 50.2838 49.9066C50.2838 48.7396 49.3376 47.7934 48.1706 47.7934C47.6028 47.7934 47.0666 48.0141 46.6566 48.3926C46.2465 48.8027 46.0257 49.3389 46.0257 49.9066Z" fill="black"/>
<path d="M29.0263 47.7385C27.7647 47.7385 26.7554 48.7478 26.7554 50.0095C26.7554 51.2711 27.7647 52.2804 29.0263 52.2804C30.288 52.2804 31.2972 51.2711 31.3288 50.0095C31.3288 48.7478 30.3195 47.7385 29.0578 47.7385H29.0263ZM29.0263 47.8331C29.2156 47.8331 29.3733 47.8331 29.531 47.8962C29.531 48.3378 29.4679 48.7794 29.2156 49.1894C29.0894 49.3787 28.9317 49.3787 28.774 49.1894C28.5847 48.9371 28.5532 48.6217 28.5217 48.3063C28.5217 48.1801 28.5216 48.0539 28.4901 47.8962C28.6478 47.8647 28.8371 47.8331 28.9948 47.8331H29.0263ZM29.5941 50.0095C29.5941 50.2934 29.3417 50.5772 29.0578 50.5772C28.7739 50.5772 28.4901 50.3249 28.4901 50.041C28.4901 49.7256 28.7424 49.4733 29.0578 49.4733C29.3417 49.4733 29.6256 49.7256 29.6256 50.041L29.5941 50.0095ZM27.9224 48.1486C28.2062 48.464 28.4586 48.7794 28.6163 49.1894C28.6478 49.3156 28.7109 49.4733 28.5847 49.5364C28.4901 49.5994 28.364 49.5994 28.2378 49.5364C27.8278 49.4102 27.5123 49.1579 27.1969 48.8425C27.3861 48.5586 27.6385 48.3063 27.9224 48.117V48.1486ZM26.8816 50.0095C26.8816 49.8202 26.8815 49.6625 26.9446 49.5048C27.4177 49.5048 27.8277 49.5679 28.2062 49.7887C28.427 49.9149 28.427 50.1041 28.2062 50.2618C27.9539 50.4195 27.6385 50.4826 27.3547 50.5141C27.2285 50.5141 27.1023 50.5141 26.9446 50.5457C26.9131 50.388 26.8816 50.1987 26.8816 50.041V50.0095ZM27.9539 51.8704C27.6385 51.6812 27.3861 51.4288 27.1969 51.1134C27.5123 50.8295 27.8277 50.5772 28.2062 50.4511C28.2693 50.4511 28.3324 50.4195 28.3955 50.4195C28.5532 50.4195 28.6479 50.5141 28.6479 50.6718C28.6479 50.798 28.5847 50.9557 28.5217 51.0503C28.3324 51.3342 28.1432 51.5865 27.9539 51.8704ZM29.0578 52.1858C28.8686 52.1858 28.7109 52.1858 28.5532 52.1227C28.5532 51.6496 28.6163 51.2396 28.8371 50.8611C28.9633 50.6403 29.1525 50.6403 29.3102 50.8611C29.4679 51.1134 29.5309 51.4288 29.5625 51.7127C29.5625 51.8389 29.5625 51.965 29.5941 52.1227C29.4363 52.1543 29.2471 52.1858 29.0894 52.1858H29.0578ZM30.1933 51.8704C29.9095 51.555 29.6572 51.2396 29.531 50.8296C29.4995 50.7349 29.531 50.5772 29.531 50.4826C29.5941 50.3564 29.7517 50.388 29.8779 50.4511C30.2879 50.5772 30.6034 50.8295 30.9188 51.145C30.7296 51.4288 30.4772 51.6812 30.1933 51.8704ZM31.1711 49.5048C31.2026 49.6625 31.2342 49.8518 31.2342 50.0095C31.2342 50.1672 31.2342 50.388 31.1711 50.5457C30.7295 50.5457 30.3194 50.4826 29.941 50.2934C29.8463 50.2303 29.7202 50.1672 29.7202 50.041C29.7202 49.8833 29.8463 49.8202 29.941 49.7572C30.2248 49.6625 30.4772 49.5994 30.7611 49.5364C30.8557 49.5364 30.9819 49.5364 31.0765 49.5048H31.1395H31.1711ZM29.8463 49.5994C29.5625 49.6941 29.4048 49.5048 29.531 49.221C29.6572 48.9371 29.8464 48.6532 30.0357 48.3693C30.0672 48.3063 30.1303 48.2432 30.2249 48.1801C30.5088 48.3693 30.761 48.6217 30.9503 48.9055C30.6033 49.221 30.2879 49.4733 29.8779 49.5994H29.8463Z" fill="black"/>
<path d="M24.5154 51.3905L4.23445 51.0751L3.88754 49.9711C3.66676 49.3088 3.47747 48.678 3.25668 48.0471C3.1936 47.8579 3.06745 47.6686 2.97283 47.4479C2.90974 47.3217 2.84667 47.1955 2.78359 47.0694C2.37355 46.2493 1.6796 45.7446 0.76491 45.65C-0.0551586 45.5554 -0.812119 45.5238 -1.47448 45.5554C-2.29455 45.5869 -2.95692 46.06 -3.55621 47.0063C-4.06086 47.8263 -4.37623 48.7726 -4.59702 50.0658L-4.72321 50.6966L-5.10169 50.6335C-5.44864 50.5704 -5.79562 50.5389 -6.11103 50.4758C-6.86801 50.3496 -7.65651 50.2235 -8.44504 50.0658C-9.8013 49.7504 -10.1483 48.9618 -10.2429 47.8894C-10.3375 46.9432 -10.0221 46.0916 -9.29661 45.2084C-9.20199 45.1138 -9.20202 45.0507 -9.23356 44.893C-9.32819 44.5145 -9.39126 44.136 -9.4228 43.7891C-9.48589 43.2844 -9.51747 42.5274 -9.0759 41.802C-8.57124 40.9504 -8.06658 40.0672 -7.59346 39.2156L-6.9626 38.1117L-7.71956 37.4178L-7.56189 36.9762L-7.3096 36.8185H-7.18341C-7.18341 36.8185 -6.9311 36.7239 -6.80493 36.7239C-5.73254 36.6608 -4.6286 36.5977 -3.55621 36.5346C-0.906754 36.3769 1.83732 36.2192 4.51831 36.1246C7.13622 36.0615 9.75419 36.1246 12.4667 36.2508C14.9269 36.3454 17.1032 37.4178 18.7118 38.3009C19.9104 38.9633 21.2982 39.7518 22.5598 40.635C23.2537 41.1396 23.9792 41.2973 24.8308 41.392C27.4172 41.6758 30.4452 42.0859 33.3785 42.8744C34.2932 43.1267 35.3656 43.5998 35.5233 45.2084L35.5863 45.7446C35.7125 46.6593 35.8072 47.6056 35.6495 48.5518C35.6179 48.741 35.5548 48.9618 35.4917 49.1511C35.3655 49.4665 35.2079 49.845 34.8609 50.1288C34.8609 50.1288 33.9777 50.7912 33.5046 50.4443C33.3784 50.3496 33.3469 50.2235 33.3153 50.1604C33.2207 49.9081 33.1261 49.6242 33.0631 49.3719C32.9054 48.8987 32.7476 48.3941 32.5584 47.921C32.243 47.1955 31.896 46.6593 31.4229 46.2808C30.9182 45.8393 30.1297 45.7131 29.5935 45.65C27.8903 45.4923 26.6918 45.9023 25.8717 46.9432C25.4617 47.4479 25.2093 48.0471 25.1146 48.678C25.0516 49.088 25.0831 49.498 25.1146 49.9396C25.1146 50.255 25.1146 50.5704 25.1146 50.8543C25.1146 51.1066 24.9254 51.2328 24.5785 51.2328C24.5785 51.2328 24.5785 51.2328 24.5469 51.2328V51.3274L24.5154 51.3905ZM4.77069 50.3181L24.0423 50.602C24.0423 50.602 24.2 50.5389 24.2946 50.5389C24.2946 50.3812 24.2946 50.1919 24.2946 50.0342C24.2946 49.5611 24.2631 49.088 24.2946 48.6149C24.3893 47.8263 24.7046 47.1009 25.2093 46.5016C26.187 45.2715 27.6695 44.7669 29.5935 44.9246C30.2243 44.9876 31.1705 45.1454 31.8329 45.7446C32.3691 46.2178 32.8107 46.8486 33.1577 47.6686C33.3785 48.1733 33.5361 48.678 33.6938 49.1826C33.7569 49.4034 33.82 49.5926 33.8831 49.8134C34.0092 49.7504 34.1986 49.6557 34.2616 49.6242C34.4509 49.4665 34.577 49.1826 34.6716 48.9618C34.7347 48.8041 34.7662 48.6464 34.7978 48.5203C34.9555 47.6686 34.8609 46.817 34.7347 45.9339L34.6716 45.3977C34.577 44.4514 34.1354 43.9783 33.0945 43.6945C30.2243 42.9059 27.2279 42.5274 24.6731 42.2436C23.8215 42.1489 22.9068 41.9597 22.0237 41.3604C20.7936 40.4773 19.4373 39.7203 18.2387 39.0579C16.6932 38.2063 14.643 37.197 12.3405 37.1024C9.65954 36.9762 7.04163 36.9131 4.45526 36.9762C1.77427 37.0393 -0.96977 37.2285 -3.58768 37.3862C-4.597 37.4493 -5.60638 37.5124 -6.6157 37.5755L-6.07945 38.0801L-7.02565 39.6887C-7.53031 40.5719 -8.00343 41.4235 -8.50808 42.3067C-8.76041 42.7167 -8.82355 43.1898 -8.76047 43.8206C-8.72893 44.136 -8.69733 44.483 -8.6027 44.7984C-8.50808 45.1769 -8.57125 45.4923 -8.79204 45.7762C-9.39132 46.5332 -9.61208 47.164 -9.54899 47.921C-9.45437 48.8987 -9.20203 49.2457 -8.35042 49.4349C-7.59343 49.5926 -6.86798 49.7188 -6.07945 49.845C-5.85867 49.8765 -5.63791 49.9081 -5.41712 49.9396C-5.16479 48.5833 -4.81779 47.574 -4.28159 46.7224C-3.58768 45.5554 -2.70461 44.9561 -1.60067 44.893C-0.875228 44.8615 -0.118241 44.893 0.76491 44.9877C1.96347 45.1454 2.87822 45.7762 3.38288 46.8486C3.44596 46.9747 3.50903 47.0694 3.57211 47.1955C3.69828 47.4163 3.8244 47.6371 3.91902 47.8894C4.13981 48.5203 4.36063 49.1511 4.54988 49.8134L4.73912 50.3812L4.77069 50.3181ZM21.2982 42.8429L12.8452 42.3697L11.9305 37.3232L12.4667 37.3862C16.1886 37.9224 19.0903 39.4364 21.3298 42.0543L21.456 42.212L21.2982 42.8113V42.8429ZM13.5075 41.6443L20.2258 42.0228C18.2703 40.0357 15.8732 38.8056 12.8768 38.2694L13.5075 41.6443ZM11.7097 42.3067L2.12125 41.7389L2.62592 39.6572C2.78363 39.0264 2.94125 38.364 3.13049 37.7332C3.19357 37.4809 3.50899 37.197 3.8244 37.197C5.77995 37.197 7.73552 37.2285 9.65952 37.2916C9.97493 37.2916 10.3219 37.3232 10.6373 37.3547C10.795 37.3547 10.9528 37.3547 11.1105 37.3862H11.4574L11.6782 42.3382L11.7097 42.3067ZM3.09902 41.045L10.9211 41.4866L10.7635 38.1117C10.7635 38.1117 10.6688 38.1117 10.6373 38.1117C10.3219 38.1117 10.0065 38.0486 9.72267 38.0486C7.79866 38.0171 5.8746 37.9855 3.95059 37.954C3.7298 38.5848 3.57215 39.2156 3.41445 39.8465L3.13049 41.0135L3.09902 41.045ZM1.58501 41.7389L-6.64717 41.2343L-6.42646 40.7296C-6.42646 40.7296 -6.33174 40.4773 -6.23712 40.3827L-5.73255 39.8465C-5.19635 39.2787 -4.66015 38.711 -4.06087 38.1748C-3.39851 37.5439 -2.5469 37.4809 -1.78991 37.4178H-1.69529C-0.74906 37.3547 0.228726 37.2916 1.17496 37.2601C1.55345 37.2601 1.932 37.2601 2.31049 37.2285C2.34203 37.2285 2.40507 37.2285 2.46816 37.2285L3.03587 37.2916L1.58501 41.7389ZM-5.35397 40.5404L1.04886 40.9188L1.99506 37.9855C1.71119 37.9855 1.42729 37.9855 1.17496 37.9855C0.260267 38.0171 -0.717487 38.0486 -1.66372 38.1117H-1.75834C-2.45224 38.1748 -3.08309 38.2063 -3.55621 38.6479C-4.12395 39.1841 -4.66011 39.7518 -5.19631 40.288L-5.35397 40.4457V40.5404Z" fill="black"/>
<path d="M28.9311 54.3608C27.8272 54.3608 26.7548 53.9192 25.9347 53.1307C25.0831 52.3106 24.5784 51.2067 24.5469 50.0081C24.5469 48.8096 24.957 47.6741 25.777 46.8225C26.5971 45.9709 27.701 45.4977 28.8996 45.4662C31.3598 45.4347 33.3468 47.3587 33.4099 49.8504C33.4099 50.9859 32.9999 52.0898 32.2113 52.9099C31.3597 53.7931 30.2243 54.2977 29.0258 54.3293C29.0258 54.3293 28.9627 54.3293 28.9311 54.3293V54.3608ZM28.9942 46.2547C28.9942 46.2547 28.9627 46.2547 28.9311 46.2547C27.9534 46.2547 27.0386 46.6648 26.3447 47.3587C25.6824 48.0526 25.3039 48.9988 25.3354 49.9766C25.3354 50.9544 25.7455 51.869 26.4709 52.563C27.1648 53.2253 28.0479 53.6038 28.9942 53.5723C30.0035 53.5723 30.9497 53.1307 31.6436 52.4052C32.306 51.7113 32.6529 50.8282 32.6214 49.882C32.5583 47.8318 30.9497 46.2547 28.9626 46.2547H28.9942ZM28.9942 52.8153C28.2372 52.8153 27.5118 52.4999 26.9756 51.9637C26.4079 51.3959 26.0925 50.6705 26.0925 49.9135C26.0925 48.3364 27.3856 47.0433 28.9626 47.0117C29.7511 47.0117 30.4767 47.2956 31.0129 47.8318C31.5806 48.368 31.8645 49.0934 31.896 49.882C31.896 51.459 30.6343 52.7837 29.0572 52.8153C29.0572 52.8153 29.0257 52.8153 28.9942 52.8153ZM28.9626 47.8002C27.7956 47.8002 26.8494 48.778 26.8494 49.9135C26.8494 50.4812 27.0701 51.0174 27.4802 51.4275C27.8902 51.8375 28.4265 52.0268 29.0258 52.0583C30.1928 52.0583 31.1075 51.0805 31.1075 49.9135C31.1075 49.3458 30.8867 48.8096 30.4766 48.3995C30.0666 47.9895 29.5303 47.8002 28.9626 47.8002Z" fill="black"/>
</g>
<path d="M35.1758 37.342C35.0811 35.6072 35.2704 33.904 35.8066 32.2954C36.5952 29.8983 37.9514 27.8796 39.8755 26.2711C41.4525 24.9463 43.2503 24.0316 45.269 23.5585C46.1206 23.3693 47.0352 23.2746 47.9184 23.18V20.6567C47.9184 20.6567 47.7922 20.6567 47.7292 20.6567C46.6883 20.6883 45.6474 20.846 44.6381 21.0983C42.0833 21.7291 39.8123 22.8962 37.8568 24.6309C36.6582 25.7033 35.6174 26.965 34.7973 28.3528C33.7249 30.1506 33.0626 32.1062 32.7787 34.2194C32.621 35.3549 32.5895 36.4904 32.6841 37.6574H35.2073C35.2073 37.6574 35.2073 37.4681 35.2073 37.3735L35.1758 37.342Z" fill="black"/>
<path d="M39.938 28.7345C38.6448 30.2485 37.8247 31.7624 37.3516 33.4341C36.9731 34.7904 36.8785 36.2097 36.9731 37.6291H39.4964C39.4964 37.6291 39.4964 37.5029 39.4964 37.4083C39.3387 34.9796 39.9695 32.8348 41.452 30.9424C42.5875 29.4915 44.0383 28.4822 45.7731 27.8829C46.467 27.6306 47.1924 27.5044 47.9494 27.4098V24.8865C47.9494 24.8865 47.7286 24.8865 47.6024 24.8865C44.4483 25.2019 41.8304 26.5266 39.938 28.6714V28.7345Z" fill="black"/>
<path d="M41.6109 34.345C41.2324 35.4174 41.1062 36.5213 41.2954 37.6568H43.7872C43.7872 37.6568 43.7872 37.436 43.7872 37.3099C43.6926 35.8274 44.1026 34.5658 45.1435 33.3357C45.2696 33.2095 45.4904 32.9887 45.7427 32.7995C46.4051 32.2633 47.1306 31.9163 47.9507 31.7586V29.2354C47.2252 29.33 46.4997 29.4877 45.8374 29.8031C43.7872 30.7178 42.3679 32.2318 41.6424 34.345H41.6109Z" fill="black"/>
</svg>
