<svg width="52" height="66" viewBox="0 0 52 66" fill="none" xmlns="http://www.w3.org/2000/svg">
<path d="M24.0335 52.2272H25.233L36.3532 33.9088H27.9665V20.2376H26.7999L15.6468 38.556H24.0335V52.2272ZM25.9939 66C18.5712 66 12.3832 63.4239 7.42993 58.2718C2.47665 53.1197 0 46.7071 0 39.0341C0 33.6012 2.15222 27.6465 6.45667 21.17C10.7611 14.6935 17.2756 7.63685 26 0C34.7244 7.63685 41.2389 14.6935 45.5433 21.17C49.8478 27.6465 52 33.6012 52 39.0341C52 46.7071 49.5213 53.1197 44.564 58.2718C39.6067 63.4239 33.4166 66 25.9939 66ZM26.0017 62.026C32.3382 62.026 37.5998 59.8381 41.7863 55.4623C45.9729 51.0859 48.0662 45.6086 48.0662 39.0306C48.0662 34.5117 46.1896 29.3867 42.4363 23.6556C38.6831 17.9239 33.2043 11.8119 26 5.31964C18.7957 11.8119 13.3169 17.9239 9.56367 23.6556C5.81042 29.3867 3.9338 34.5117 3.9338 39.0306C3.9338 45.6086 6.02738 51.0859 10.2145 55.4623C14.4023 59.8381 19.6647 62.026 26.0017 62.026Z" fill="url(#paint0_linear_7280_857)"/>
<defs>
<linearGradient id="paint0_linear_7280_857" x1="26" y1="0" x2="26" y2="66" gradientUnits="userSpaceOnUse">
<stop/>
<stop offset="1"/>
</linearGradient>
</defs>
</svg>
