<svg width="52" height="67" viewBox="0 0 52 67" fill="none" xmlns="http://www.w3.org/2000/svg">
<path d="M4.23494 40.4291V46.7647H0V21.3413L6.88235 0.882324H45.1176L52 21.3413V46.7647H47.7176V40.4291H4.23494ZM4.81765 17.871H47.1824L42.5941 4.35333H9.40588L4.81765 17.871ZM11.3253 32.8707C12.3714 32.8707 13.2452 32.5111 13.9467 31.7917C14.6487 31.0724 14.9997 30.2052 14.9997 29.1902C14.9997 28.1329 14.64 27.2417 13.9207 26.5168C13.2014 25.7918 12.3375 25.4294 11.3291 25.4294C10.2779 25.4294 9.38677 25.7924 8.65571 26.5183C7.92465 27.2443 7.55912 28.1334 7.55912 29.1856C7.55912 30.2384 7.92516 31.1157 8.65724 31.8177C9.38982 32.5197 10.2792 32.8707 11.3253 32.8707ZM40.7389 32.8707C41.784 32.8707 42.6703 32.5111 43.3978 31.7917C44.1248 31.0724 44.4883 30.2052 44.4883 29.1902C44.4883 28.1329 44.124 27.2417 43.3955 26.5168C42.6675 25.7918 41.7833 25.4294 40.7428 25.4294C39.7023 25.4294 38.8262 25.7924 38.1145 26.5183C37.4028 27.2443 37.0469 28.1334 37.0469 29.1856C37.0469 30.2384 37.4115 31.1157 38.1405 31.8177C38.87 32.5197 39.7362 32.8707 40.7389 32.8707ZM28.6352 66.1179L12.5351 57.7114H23.1469V52.2239L39.4649 60.4116H28.6352V66.1179ZM3.471 36.9589H48.529V21.3413H3.471V36.9589Z" fill="url(#paint0_linear_7280_866)"/>
<defs>
<linearGradient id="paint0_linear_7280_866" x1="26" y1="0.882324" x2="26" y2="66.1179" gradientUnits="userSpaceOnUse">
<stop/>
<stop offset="1"/>
</linearGradient>
</defs>
</svg>
