<svg width="22" height="22" viewBox="0 0 22 22" fill="none" xmlns="http://www.w3.org/2000/svg">
<path d="M10.7243 21.4792C4.95207 21.5423 0 16.7483 0 10.6295C0 4.85775 4.88902 0.0636911 10.6612 0.000611435C16.6857 -0.0624683 21.5431 4.76313 21.5431 10.8188C21.5431 16.8113 16.4018 21.6685 10.7243 21.4792ZM10.8505 19.7761C15.6448 19.9969 19.7768 15.7705 19.8714 10.9134C19.966 5.74086 15.4871 1.5776 10.5666 1.70376C5.86683 1.82992 1.73484 5.74086 1.70329 10.7872C1.70329 15.8336 5.74062 19.7761 10.8189 19.7761H10.8505Z" fill="black"/>
<path d="M15.2106 6.35216L15.1437 6.28525C14.7372 5.87879 14.0782 5.87882 13.6717 6.28528L6.33383 13.6227C5.92734 14.0291 5.92731 14.6881 6.3338 15.0946L6.40071 15.1615C6.8072 15.5679 7.46629 15.568 7.87278 15.1615L15.2106 7.82413C15.6171 7.41767 15.6171 6.75862 15.2106 6.35216Z" fill="black"/>
<path d="M15.159 15.1776L15.2259 15.1107C15.6324 14.7042 15.6324 14.0453 15.2259 13.6388L7.88803 6.30142C7.48154 5.89495 6.82251 5.89492 6.41602 6.30139L6.34911 6.36829C5.94262 6.77475 5.94258 7.4338 6.34908 7.84026L13.6869 15.1776C14.0934 15.5841 14.7525 15.5841 15.159 15.1776Z" fill="black"/>
</svg>
