<svg width="375" height="130" viewBox="0 0 375 130" fill="none" xmlns="http://www.w3.org/2000/svg">
<rect width="375" height="130" fill="url(#paint0_linear_20_179)"/>
<path d="M138.304 41.2383L132.143 41.2451L126.867 54.0974H134.285C134.285 54.0974 135.325 54.0496 136.024 53.3298C136.61 52.7248 137.124 51.4286 137.124 51.4286L140.132 44.0901C140.132 44.0901 140.487 43.1477 140.044 42.2585C139.782 41.7313 139.421 41.4063 138.305 41.2396M133.277 51.1199L131.304 51.1268L134.201 44.0532C134.201 44.0532 135.743 44.0682 136.322 44.0573C136.883 44.0532 136.798 44.6091 136.742 44.7607C136.683 44.9246 134.274 50.7689 134.274 50.7689C134.091 51.1377 133.278 51.1199 133.278 51.1199" fill="white"/>
<path d="M204.797 48.1722C205.137 47.3568 206.455 44.1062 206.455 44.1062C206.455 44.1062 207.069 42.5751 206.738 41.7488C206.515 41.1916 205.566 41.2435 205.566 41.2435H198.767L193.48 54.0971H196.562L198.316 49.8535L201.888 55.4629L205.13 55.4588L201.636 49.7976C201.636 49.7976 202.743 49.8071 203.691 49.4739C204.155 49.31 204.513 48.8633 204.802 48.1709M203.311 44.6457C203.311 44.6457 202.798 45.9746 202.562 46.4363C202.379 46.8037 201.858 46.8187 201.858 46.8187L199.543 46.816L200.673 44.0707H202.863C202.863 44.0707 203.292 44.0966 203.345 44.2086C203.432 44.3903 203.311 44.6443 203.311 44.6443" fill="white"/>
<path d="M184.727 47.8242C184.365 47.5033 183.521 46.8613 182.497 46.2098C182.148 45.9858 181.819 45.7878 181.657 45.5624C181.493 45.3412 181.503 45.0025 181.56 44.7634C181.761 43.9002 182.88 44.0573 182.88 44.0573L187.161 44.0614L188.305 41.2383L181.864 41.2451C181.724 41.2451 180.605 41.2943 180.084 41.8174C179.285 42.6191 178.855 44.0997 178.298 45.5174C177.776 46.8449 178.438 47.1673 178.674 47.409C178.915 47.6508 180.547 48.6055 181.066 48.9428C181.625 49.3089 181.998 49.4277 181.919 50.1925C181.828 51.0557 181.137 51.1254 181.137 51.1254H175.975L174.754 54.0988L181.796 54.0878C183.14 54.0878 183.876 53.129 184.122 52.6114C184.31 52.214 184.831 50.8782 185.181 50.0423C185.522 49.2283 185.362 48.3815 184.727 47.8215" fill="white"/>
<path d="M176.037 41.2461L170.77 54.0875H173.852L179.135 41.2461H176.037Z" fill="white"/>
<path d="M171.588 41.2383C171.588 41.2383 169.178 47.0539 169.098 47.2984C169.018 47.5415 167.981 50.0368 167.766 50.5176C167.632 50.8126 167.183 51.4832 166.863 51.5611C166.543 51.6444 166.044 51.6499 165.721 51.6089C165.401 51.5666 164.624 51.7059 165.138 50.4602C165.651 49.216 168.933 41.2383 168.933 41.2383H165.975L162.108 50.6801C162.108 50.6801 161.215 52.6811 161.747 53.4883C162.352 54.4074 164.397 54.376 164.998 54.417C165.599 54.458 168.162 54.4689 168.842 53.9581C169.113 53.7546 169.451 53.4678 169.69 53.1372C170.065 52.621 170.284 52.0104 170.284 52.0104L174.686 41.2383H171.588Z" fill="white"/>
<path d="M147.125 51.1242H145.987C145.987 51.1242 145.135 51.0641 145.348 50.1613C145.407 49.9141 145.55 49.6123 145.716 49.1957C146.332 47.6715 148.825 41.6086 148.825 41.6086C148.825 41.6086 148.971 41.2398 149.337 41.2398C149.74 41.2398 154.162 41.2412 154.162 41.2412L155.407 38.0001H149.55C149.55 38.0001 146.397 37.9428 145.656 40.1581L141.625 49.9961C141.625 49.9961 141.145 51.0956 141.332 52.0175C141.509 52.893 142.142 53.7015 143.201 53.9201C144.201 54.1236 145.682 54.099 145.682 54.099H149.762L151.008 51.1256H147.124L147.125 51.1242Z" fill="white"/>
<path d="M127.518 41.2551L124.949 47.4586L124.566 41.2579H121.391L117.477 50.8131L117.023 41.2456L114.142 41.2415L106.731 50.7161L102.712 50.712L107.931 38.0059L104.109 38.01L98.1687 52.4862C98.1687 52.4862 97.5082 54.0951 98.8008 54.0951L108.167 54.0979L110.051 51.6175H114.329L114.447 54.0979H119.403L121.874 47.9872L122.343 54.091L125.487 54.0965L130.776 41.251L127.518 41.2538V41.2551ZM111.893 49.0662L114.097 46.0915L114.212 49.0689L111.893 49.0662Z" fill="white"/>
<path d="M188.687 51.1225L189.644 48.791H194.688L195.673 46.3558L190.636 46.3572L191.584 44.0571L196.853 44.0612L198.018 41.2422H189.556L184.281 54.089L192.917 54.0972L194.133 51.1252L188.687 51.1225Z" fill="white"/>
<path d="M161.86 48.1759C162.2 47.3619 163.523 44.1099 163.523 44.1099C163.523 44.1099 164.132 42.5788 163.801 41.7512C163.58 41.198 162.634 41.2431 162.634 41.2431H155.83L150.543 54.1008H153.627L155.377 49.86L158.951 55.468L162.194 55.4639L158.7 49.804C158.7 49.804 159.804 49.8135 160.751 49.4762C161.217 49.3137 161.575 48.8684 161.863 48.1759M160.372 44.6508C160.372 44.6508 159.866 45.9783 159.627 46.44C159.442 46.806 158.924 46.8224 158.924 46.8224L156.606 46.8183L157.738 44.0744H159.929C159.929 44.0744 160.353 44.1017 160.407 44.2123C160.493 44.3926 160.372 44.6494 160.372 44.6494" fill="white"/>
<path d="M181.291 62.3989L166.963 91.5946H174.911L177.726 85.6609H193.5L196.371 91.5946H204.323L189.796 62.3989H181.289H181.291ZM180.282 80.2844L185.54 69.2453L190.9 80.2844H180.282ZM276.99 72.4538C276.891 67.99 275.415 62 264.262 62H255.783C244.631 62 243.152 67.9879 243.058 72.4538C243.038 73.3188 243.038 80.6812 243.058 81.5462C243.149 86.01 244.629 92 255.783 92H264.262C275.415 92 276.889 86.0121 276.99 81.5462C277.003 80.6812 277.003 73.3188 276.99 72.4538ZM269.427 80.124C269.427 84.3428 268.232 86.0251 263.072 86.0251H256.978C251.818 86.0251 250.621 84.3428 250.621 80.124V73.8782C250.621 69.6615 251.818 67.9749 256.978 67.9749H263.072C268.234 67.9749 269.427 69.6615 269.427 73.8782V80.124ZM228.298 62.3989H207.306V91.5946H228.298C231.791 91.5946 234.514 90.645 236.378 88.7719C238.164 86.9812 239.104 84.3407 239.104 81.1386V72.8549C239.104 69.6485 238.162 67.0101 236.378 65.2259C234.514 63.3485 231.793 62.3989 228.298 62.3989ZM231.171 80.614C231.171 83.6339 228.958 85.6609 225.662 85.6609H214.832V68.4735H225.662C228.958 68.4735 231.171 70.5027 231.171 73.5248V80.614ZM159.346 80.2888C161.145 79.4996 163.81 77.8151 163.81 73.7459V70.3704C163.81 63.4677 156.357 62.2818 152.259 62.3967H132.765V91.5924H140.194V81.9733H150.521C151.975 81.9733 153.239 82.4068 153.991 83.3065C155.92 85.6067 156.325 91.5924 156.325 91.5924H164.106C164.106 91.5924 163.638 87.0506 162.479 84.3168C161.716 82.5239 160.521 81.0367 159.346 80.2866V80.2888ZM156.365 72.5926C156.365 73.3969 156.039 76.0223 151.805 76.0223H140.191V67.8903H151.805C156.039 67.8903 156.365 70.5113 156.365 71.3178V72.5926ZM126.736 64.4845C125.098 63.1208 122.592 62.3967 119.482 62.3967H98V91.5924H105.36V81.9754H119.48C125.562 81.9754 129.046 79.272 129.046 74.5546V69.8198C129.046 67.5543 128.271 65.7614 126.734 64.4823L126.736 64.4845ZM121.54 72.8614C121.54 73.7112 121.209 76.4862 116.982 76.4862H105.36V67.8903H116.982C121.209 67.8903 121.54 70.6653 121.54 71.5129V72.8636V72.8614Z" fill="white"/>
<defs>
<linearGradient id="paint0_linear_20_179" x1="187.5" y1="0" x2="187.5" y2="130" gradientUnits="userSpaceOnUse">
<stop/>
<stop offset="1"/>
</linearGradient>
</defs>
</svg>
