<svg width="41" height="40" viewBox="0 0 41 40" fill="none" xmlns="http://www.w3.org/2000/svg">
<path d="M20.5037 40C17.7591 40 15.1698 39.4751 12.7358 38.4253C10.3018 37.3754 8.17912 35.9453 6.3679 34.1347C4.55667 32.3242 3.12579 30.2025 2.07526 27.7695C1.02509 25.3368 0.5 22.7482 0.5 20.0037C0.5 17.2374 1.02491 14.6426 2.07474 12.2195C3.12456 9.79632 4.55474 7.67912 6.36526 5.86789C8.17579 4.05667 10.2975 2.62579 12.7305 1.57526C15.1632 0.525087 17.7518 0 20.4963 0C23.2626 0 25.8574 0.524911 28.2805 1.57474C30.7037 2.62456 32.8209 4.05474 34.6321 5.86526C36.4433 7.67579 37.8742 9.79211 38.9247 12.2142C39.9749 14.6363 40.5 17.2304 40.5 19.9963C40.5 22.7409 39.9751 25.3302 38.9253 27.7642C37.8754 30.1982 36.4453 32.3209 34.6347 34.1321C32.8242 35.9433 30.7079 37.3742 28.2858 38.4247C25.8637 39.4749 23.2696 40 20.5037 40ZM19.3058 37.5263V28.8742C17.3788 28.537 15.7209 27.6546 14.3321 26.2268C12.9433 24.7988 12.0412 23.1212 11.6258 21.1942H2.97368C3.27053 25.5991 4.96561 29.3393 8.05895 32.4147C11.1519 35.4905 14.9009 37.1944 19.3058 37.5263ZM21.6942 37.5263C26.1209 37.2158 29.8753 35.5174 32.9574 32.4311C36.0398 29.3447 37.7295 25.5991 38.0263 21.1942H29.3742C28.9237 23.1212 28.0182 24.7988 26.6579 26.2268C25.2975 27.6546 23.643 28.537 21.6942 28.8742V37.5263ZM2.97368 18.8058H11.5611L16.9695 13.1011H24.0305L29.4389 18.8058H38.0263C37.7214 14.1742 35.8786 10.2802 32.4979 7.12368C29.1175 3.96719 25.1182 2.38895 20.5 2.38895C15.8818 2.38895 11.8825 3.96719 8.5021 7.12368C5.1214 10.2802 3.2786 14.1742 2.97368 18.8058Z" fill="white"/>
</svg>
