<svg width="180" height="180" viewBox="0 0 180 180" fill="none" xmlns="http://www.w3.org/2000/svg">
<circle cx="90" cy="90" r="89.5" stroke="black"/>
<path d="M47.6997 80.6039C45.5448 79.9128 42.8533 79.498 39.9422 79.498C37.0311 79.498 34.3395 79.9046 32.1847 80.6039C26.4438 82.4498 22.5 86.2797 22.5 90.7114C22.5 96.9402 30.3063 101.998 39.9422 101.998C49.5781 101.998 57.3844 96.9483 57.3844 90.7114C57.3844 86.2797 53.4405 82.4498 47.6997 80.6039ZM39.9422 97.1435C38.5029 97.1435 37.3319 94.3137 37.2588 90.7684C38.1207 90.8497 39.0233 90.8903 39.9422 90.8903C40.8611 90.8903 41.7555 90.8497 42.6256 90.7684C42.5524 94.3219 41.3815 97.1435 39.9422 97.1435ZM37.4458 87.9874C37.8361 85.491 38.8119 83.7265 39.9422 83.7265C41.0725 83.7265 42.0483 85.491 42.4386 87.9874C41.6417 88.0606 40.8041 88.1012 39.9422 88.1012C39.0802 88.1012 38.2427 88.0606 37.4458 87.9874ZM43.9673 87.8004C43.3818 83.8891 41.8043 81.0837 39.9422 81.0837C38.0801 81.0837 36.4944 83.8891 35.917 87.8004C32.3717 87.2474 29.8997 85.987 29.8997 84.5233C29.8997 82.5474 34.3965 80.9455 39.9503 80.9455C45.5042 80.9455 49.9928 82.5474 49.9928 84.5233C49.9928 85.987 47.5127 87.2474 43.9754 87.8004M25.0452 90.2967C25.0452 88.3858 25.777 86.5969 27.0618 85.0519C27.0455 85.1576 27.0374 85.2633 27.0374 85.3772C27.0374 87.7841 30.6478 89.8251 35.6812 90.5732C35.6812 90.7521 35.6812 90.9391 35.6812 91.118C35.6812 95.5904 36.9172 99.3716 38.633 100.673C31.0219 100.209 25.0452 95.7367 25.0452 90.2886M41.2595 100.673C42.9752 99.3716 44.2112 95.5823 44.2112 91.118C44.2112 90.931 44.2112 90.7521 44.2112 90.5732C49.2447 89.8251 52.8551 87.776 52.8551 85.3772C52.8551 85.2714 52.8469 85.1576 52.8307 85.0519C54.1155 86.5888 54.8473 88.3858 54.8473 90.2967C54.8473 95.7449 48.8788 100.217 41.2595 100.681" fill="url(#paint0_linear_7280_1724)"/>
<path d="M75.987 82.7178H62.1797V85.7671H67.2781V98.7857H70.8967L70.8883 85.7671H75.987V82.7178Z" fill="url(#paint1_linear_7280_1724)"/>
<path d="M85.3265 82.2305C80.6185 82.2305 76.8047 86.0442 76.8047 90.7523C76.8047 95.4605 80.6185 99.2742 85.3265 99.2742C90.0348 99.2742 93.8486 95.4605 93.8486 90.7523C93.8486 86.0442 90.0348 82.2305 85.3265 82.2305ZM89.498 93.33C88.9451 94.7368 87.6846 95.7939 86.1641 96.0623C85.8957 96.111 85.6113 96.1354 85.3265 96.1354C85.042 96.1354 84.7572 96.111 84.4892 96.0623C82.9603 95.7939 81.7082 94.7368 81.155 93.33C80.8381 92.5331 80.6673 91.6631 80.6673 90.7523C80.6673 89.8416 80.8381 88.9715 81.155 88.1746C81.7082 86.7679 82.9683 85.7108 84.4892 85.4424C84.7572 85.3937 85.042 85.3693 85.3265 85.3693C85.6113 85.3693 85.8957 85.3937 86.1641 85.4424C87.693 85.7108 88.9451 86.7679 89.498 88.1746C89.8152 88.9715 89.986 89.8416 89.986 90.7523C89.986 91.6631 89.8152 92.5331 89.498 93.33Z" fill="url(#paint2_linear_7280_1724)"/>
<path d="M93.8906 82.7178H98.1514L102.128 89.6296L106.112 82.7178H110.365L103.941 92.8415V98.7857H100.323V92.8415L93.8906 82.7178Z" fill="url(#paint3_linear_7280_1724)"/>
<path d="M110.438 90.7523C110.438 86.0523 114.251 82.2305 118.959 82.2305C123.667 82.2305 127.473 86.0442 127.473 90.7523C127.473 95.4605 123.659 99.2742 118.959 99.2742C114.259 99.2742 110.438 95.4605 110.438 90.7523ZM118.959 96.1354C119.244 96.1354 119.529 96.111 119.797 96.0623C121.325 95.7939 122.578 94.7368 123.131 93.33C123.448 92.5331 123.618 91.6631 123.618 90.7523C123.618 89.8416 123.448 88.9715 123.131 88.1746C122.578 86.7679 121.317 85.7108 119.797 85.4424C119.529 85.3937 119.244 85.3693 118.959 85.3693C118.675 85.3693 118.39 85.3937 118.122 85.4424C116.593 85.7108 115.333 86.7679 114.788 88.1746C114.471 88.9715 114.3 89.8416 114.3 90.7523C114.3 91.6631 114.471 92.5331 114.788 93.33C115.341 94.7368 116.601 95.7939 118.122 96.0623C118.39 96.111 118.675 96.1354 118.959 96.1354Z" fill="url(#paint4_linear_7280_1724)"/>
<path d="M153.189 95.241H146.342L145.025 98.7782H141.008L147.521 82.7021H152.018L158.531 98.7782H154.514L153.189 95.241ZM152.14 92.4275L149.774 86.0767L147.399 92.4275H152.14Z" fill="url(#paint5_linear_7280_1724)"/>
<path d="M142.065 82.7178H128.258V85.7671H133.356V98.7857H136.975L136.966 85.7671H142.065V82.7178Z" fill="url(#paint6_linear_7280_1724)"/>
<defs>
<linearGradient id="paint0_linear_7280_1724" x1="39.9422" y1="79.498" x2="39.9422" y2="101.998" gradientUnits="userSpaceOnUse">
<stop/>
<stop offset="1"/>
</linearGradient>
<linearGradient id="paint1_linear_7280_1724" x1="69.0834" y1="82.7178" x2="69.0834" y2="98.7857" gradientUnits="userSpaceOnUse">
<stop/>
<stop offset="1"/>
</linearGradient>
<linearGradient id="paint2_linear_7280_1724" x1="85.3266" y1="82.2305" x2="85.3266" y2="99.2742" gradientUnits="userSpaceOnUse">
<stop/>
<stop offset="1"/>
</linearGradient>
<linearGradient id="paint3_linear_7280_1724" x1="102.128" y1="82.7178" x2="102.128" y2="98.7857" gradientUnits="userSpaceOnUse">
<stop/>
<stop offset="1"/>
</linearGradient>
<linearGradient id="paint4_linear_7280_1724" x1="118.955" y1="82.2305" x2="118.955" y2="99.2742" gradientUnits="userSpaceOnUse">
<stop/>
<stop offset="1"/>
</linearGradient>
<linearGradient id="paint5_linear_7280_1724" x1="149.77" y1="82.7021" x2="149.77" y2="98.7782" gradientUnits="userSpaceOnUse">
<stop/>
<stop offset="1"/>
</linearGradient>
<linearGradient id="paint6_linear_7280_1724" x1="135.161" y1="82.7178" x2="135.161" y2="98.7857" gradientUnits="userSpaceOnUse">
<stop/>
<stop offset="1"/>
</linearGradient>
</defs>
</svg>
