<svg width="284" height="104" viewBox="0 0 284 104" fill="none" xmlns="http://www.w3.org/2000/svg">
<path d="M138.095 1.30842L121.73 66.3973H1.98024L18.3452 1.30842H138.095ZM139.755 0.0195286H17.3297L17.0759 0.99596L0.710888 66.0849L0.300781 67.7057H122.726L122.98 66.7293L139.345 1.62088L139.755 0V0.0195286Z" fill="white"/>
<path d="M78.1344 1.30762H76.9041L60.5195 66.377H121.722L138.087 1.30762H78.1344Z" fill="#E30613"/>
<path d="M18.3455 1.30762L1.98047 66.377H61.5037L77.8882 1.30762H18.3455Z" fill="#1D1D1B"/>
<path d="M125.024 36.5956C124.516 39.2515 123.969 40.7747 123.09 42.5323C121.45 45.8131 118.13 47.6097 113.463 48.2347C111.646 48.469 109.205 48.3909 109.205 48.3909L118.95 62.2367H104.499L90.9656 42.9619C90.9656 42.9619 102.761 42.9229 103.991 42.9229C106.803 42.9229 110.533 42.1027 111.588 40.1498C111.9 39.5639 112.349 38.568 112.369 37.5134C112.369 36.205 111.1 35.1114 108.951 35.1114C106.803 35.1114 87.7434 35.1114 87.7434 35.1114L81.0255 61.8656H67.3555L75.9481 28.5107C75.9481 28.5107 108.385 28.5107 115.142 28.5107C122.485 28.5107 125.922 32.2017 125.082 36.5956" fill="white"/>
<path d="M62.4583 42.3175H39.9223L37.8132 48.6643H49.0031L47.1869 54.7767H29.1425C25.1977 54.7767 23.5573 53.8198 23.9478 51.0468C24.397 47.9026 25.5687 45.2468 26.6233 42.337C28.7909 36.4589 31.9351 34.9552 44.9802 34.9552C51.9128 34.9552 64.5283 34.9552 64.5283 34.9552L66.5984 28.335C66.5984 28.335 47.9681 28.335 43.125 28.335C23.9869 28.335 17.4448 30.5808 13.793 39.935C12.5626 43.1181 10.6879 48.9767 9.8677 53.8003C8.89127 59.4831 13.2852 61.7094 17.9721 61.8656C24.4361 62.0804 56.9512 61.9828 56.9512 61.9828L62.4778 42.2979L62.4583 42.3175Z" fill="white"/>
<path d="M191.876 28.6094H182.658C179.866 28.6094 176.409 29.1757 174.183 32.476C172.777 34.5265 168.832 42.2599 168.832 42.2599H175.355L177.347 38.4323H185.861L185.939 42.2599H192.188L191.895 28.6094M178.616 36.0107C178.616 36.0107 179.729 33.7649 180.373 32.8861C181.545 31.3043 182.971 31.0309 184.377 31.0114C185.256 31.0114 185.705 31.0114 185.705 31.0114L185.822 36.0303H178.616V36.0107Z" fill="#1D1D1B"/>
<path d="M283.384 6.1709H273.932C271.061 6.1709 267.487 6.75676 265.202 10.1547C263.757 12.2638 259.715 20.212 259.715 20.212H266.413L268.464 16.2867H277.193L277.291 20.212H283.696L283.384 6.19043V6.1709ZM269.733 13.7871C269.733 13.7871 270.885 11.4632 271.569 10.5648C272.76 8.94396 274.244 8.65103 275.67 8.63151C276.568 8.63151 277.017 8.63151 277.017 8.63151L277.154 13.7871H269.733Z" fill="#1D1D1B"/>
<path d="M217.575 42.2589L218.024 39.8569H205.76C205.76 39.8569 217.634 31.8306 219.157 30.9128C219.294 30.2879 219.528 29.0576 219.626 28.5693H197.617L197.304 30.9128H209.51L195.879 39.8569L195.449 42.2589H217.575Z" fill="#1D1D1B"/>
<path d="M239.308 28.5898C236.281 28.4336 232.433 28.4336 230.051 28.5898C225.97 28.8437 223.294 29.7615 222.24 33.2572C221.81 34.6242 221.322 36.7528 221.087 38.237C220.541 41.4397 222.337 42.1232 224.505 42.2599C227.786 42.4552 232.629 42.4747 235.988 42.3575C239.151 42.2403 241.69 41.303 242.667 38.2956C243.194 36.6552 243.545 35.2881 243.877 33.2767C244.268 30.9528 243.135 28.8046 239.327 28.5898M233.332 39.8383C232.102 39.936 230.442 39.936 229.504 39.8383C228.684 39.7602 227.258 39.5454 227.415 37.944C227.532 36.8504 228.157 34.1164 228.586 32.9252C229.036 31.6168 230.071 31.07 231.613 31.0114C232.746 30.9528 234.113 30.9528 235.05 31.0114C237.101 31.1285 237.862 31.8706 237.55 33.472C237.198 35.2686 236.886 36.4403 236.398 37.7878C235.89 39.2329 234.601 39.7602 233.332 39.8578" fill="#1D1D1B"/>
<path d="M190.247 6.14999C187.142 5.97424 183.51 5.99376 181.049 6.14999C176.87 6.42339 174.117 7.36077 173.023 10.954C172.613 12.3601 172.105 14.5473 171.851 16.0705C171.304 19.3709 173.14 20.0739 175.366 20.2106C178.725 20.4059 183.373 20.4449 186.81 20.3082C190.071 20.1911 192.688 19.2342 193.684 16.1291C194.231 14.4497 194.583 13.0241 194.915 10.9736C195.325 8.57154 194.153 6.38434 190.247 6.16952M184.096 17.7305C182.846 17.8281 181.459 17.8086 180.483 17.7305C179.643 17.6524 178.179 17.4375 178.335 15.7971C178.452 14.6645 179.096 11.8524 179.526 10.622C180.014 9.2941 181.069 8.72777 182.651 8.64966C183.803 8.59107 184.896 8.59107 185.853 8.64966C187.943 8.78636 188.744 9.52845 188.431 11.1884C188.06 13.0436 187.767 14.2544 187.279 15.6018C186.732 17.086 185.424 17.6328 184.115 17.75" fill="#1D1D1B"/>
<path d="M235.505 6.14999C232.4 5.97424 228.768 5.99376 226.307 6.14999C222.128 6.42339 219.374 7.36077 218.281 10.954C217.851 12.3601 217.363 14.5473 217.109 16.0705C216.562 19.3709 218.398 20.0739 220.624 20.2106C223.983 20.4059 228.631 20.4449 232.088 20.3082C235.329 20.1911 237.927 19.2342 238.942 16.1291C239.508 14.4497 239.84 13.0241 240.192 10.9736C240.602 8.57154 239.43 6.38434 235.525 6.16952M229.373 17.7305C228.123 17.8281 226.737 17.8086 225.76 17.7305C224.921 17.6524 223.475 17.4375 223.632 15.7971C223.749 14.6645 224.393 11.8524 224.823 10.622C225.311 9.2941 226.366 8.72777 227.947 8.64966C229.08 8.59107 230.174 8.59107 231.131 8.64966C233.24 8.78636 234.021 9.52845 233.708 11.1884C233.337 13.0436 233.044 14.2544 232.537 15.6018C232.009 17.086 230.701 17.6328 229.373 17.75" fill="#1D1D1B"/>
<path d="M264.235 28.5898C261.208 28.4336 257.361 28.4336 254.959 28.5898C250.897 28.8437 248.221 29.7615 247.147 33.2572C246.737 34.6242 246.249 36.7528 245.995 38.237C245.468 41.4397 247.264 42.1232 249.432 42.2599C252.693 42.4552 257.556 42.4747 260.895 42.3575C264.059 42.2403 266.617 41.303 267.574 38.2956C268.121 36.6552 268.453 35.2881 268.785 33.2767C269.176 30.9528 268.043 28.8046 264.235 28.5898ZM258.259 39.8383C257.029 39.936 255.369 39.936 254.412 39.8383C253.592 39.7602 252.186 39.5454 252.342 37.944C252.459 36.8504 253.084 34.1164 253.494 32.9252C253.963 31.6168 254.978 31.07 256.541 31.0114C257.634 30.9528 259.04 30.9528 259.958 31.0114C262.009 31.1285 262.77 31.8706 262.458 33.472C262.106 35.2686 261.813 36.4403 261.325 37.7878C260.778 39.2329 259.509 39.7602 258.24 39.8578" fill="#1D1D1B"/>
<path d="M168.46 64.1107C165.941 64.1107 165.277 63.4663 165.452 61.6892C165.511 61.1424 165.609 60.3613 165.921 59.4239C166.565 57.5687 169.065 56.5922 172.209 56.5922H178.712C178.712 56.5922 179.376 54.8347 177.091 54.8347H168.225L168.714 52.5107H179.747C183.809 52.5107 185.157 54.737 184.61 57.4124C184.219 59.3653 183.145 64.1303 183.145 64.1303H168.46V64.1107ZM171.701 61.7673H177.658L178.302 58.7208H173.889C171.994 58.7208 171.077 59.0919 170.803 60.0488C170.686 60.4198 170.627 60.5956 170.608 60.9081C170.549 61.3963 170.666 61.7868 171.721 61.7868" fill="#1D1D1B"/>
<path d="M193.113 64.1117C187.937 64.1117 187.43 61.5144 187.898 59.3077C188.055 58.5851 188.133 58.2922 188.504 57.0228C189.441 53.703 191.589 52.4922 196.589 52.4922H207.583L207.095 54.738H198.795C195.944 54.738 194.89 56.105 194.558 57.14C194.284 58.0188 194.128 58.6242 194.05 59.171C193.835 60.7919 194.48 61.7878 196.686 61.7878H205.689L205.162 64.1117H193.132H193.113Z" fill="#1D1D1B"/>
<path d="M212.629 47.2002H218.761L218.136 50.2271H212.004L212.629 47.2002Z" fill="#1D1D1B"/>
<path d="M215.159 64.0922L217.639 52.4922H211.625L209.184 64.0922H215.159Z" fill="#1D1D1B"/>
<path d="M239.365 57.3558C238.896 59.5821 237.9 64.0932 237.9 64.0932H231.944C231.944 64.0932 232.783 60.3827 233.174 58.4885C233.74 55.7349 233.311 55.071 229.874 55.071H227.608L225.694 64.1127H219.66L222.121 52.5322H232.822C237.607 52.5322 240.185 53.4891 239.384 57.3753" fill="#1D1D1B"/>
<path d="M156.78 6.62063L153.46 20.2126H160.451L163.771 6.62063H173.106L173.907 3.14453H148.461L147.621 6.62063H156.78Z" fill="#1D1D1B"/>
<path d="M250.038 8.86582L247.265 20.2901H253.143L255.936 8.86582H263.767L264.45 5.93652H243.086L242.363 8.86582H250.038Z" fill="#1D1D1B"/>
<path d="M202.964 14.9392L201.753 20.2901H207.553L208.861 14.9392L219.544 5.91699H213.861L206.069 12.088L200.464 5.91699H195.191L202.964 14.9392Z" fill="#1D1D1B"/>
<path d="M240.762 70.5747L242.48 67.5478H247.46C252.948 67.5478 253.67 64.3256 253.67 64.3256H245.292C243.261 64.3256 241.543 63.6616 242.012 60.869C242.207 59.6387 242.383 58.6427 242.91 57.0023C243.789 54.3269 246.718 52.5107 252.166 52.5107C257.986 52.5107 262.106 52.5498 262.106 52.5498C262.106 52.5498 260.993 58.9943 259.841 63.4077C258.337 69.0515 254.666 70.5943 247.675 70.5943H240.781L240.762 70.5747ZM254.119 61.8259L255.564 55.0495C255.564 55.0495 254.432 55.0495 253.553 55.0885C251.21 55.1471 249.022 55.7525 248.358 58.1545C248.104 59.0333 248.007 59.5606 247.909 60.205C247.772 61.2205 248.612 61.8259 250.155 61.8259H254.119Z" fill="#1D1D1B"/>
<path d="M165.063 51.4565C164.789 52.7649 164.535 53.5265 164.086 54.4053C163.266 56.0457 161.626 56.9245 159.302 57.237C158.403 57.3541 157.173 57.3151 157.173 57.3151L162.016 64.1892H154.83L148.112 54.6201C148.112 54.6201 153.97 54.6201 154.556 54.6201C155.982 54.6201 157.817 54.21 158.325 53.2336C158.481 52.9602 158.716 52.4525 158.716 51.9252C158.716 51.2807 158.091 50.7339 157.036 50.7339C155.982 50.7339 146.51 50.7339 146.51 50.7339L143.171 64.0134H136.395L140.632 47.4727H160.102C163.754 47.4727 165.453 49.2888 165.043 51.476" fill="#E30613"/>
<path d="M168.127 32.4952H156.918L155.863 35.6588H161.429L160.531 38.7053H151.548C149.595 38.7053 148.755 38.2366 148.95 36.85C149.185 35.2878 149.77 33.9598 150.298 32.5147C151.391 29.5854 152.934 28.8433 159.437 28.8433C162.874 28.8433 169.162 28.8433 169.162 28.8433L170.197 25.5234H158.5C148.97 25.5234 145.709 26.6366 143.892 31.3039C143.267 32.8857 142.35 35.7955 141.939 38.1975C141.451 41.0292 143.658 42.1423 145.962 42.2204C149.165 42.3376 165.374 42.279 165.374 42.279L168.127 32.4952Z" fill="#1D1D1B"/>
<path d="M60.3492 103.15C52.4987 103.15 52.9478 99.9862 53.7875 96.6272C54.0609 95.5141 55.4084 90.3781 55.4084 90.3781C56.5801 85.7107 58.5721 84.1484 66.1687 84.1484H82.5727L81.7135 87.5464H69.3909C65.0556 87.5464 63.4152 89.0892 62.966 90.6319C62.966 90.6319 61.7357 95.3188 61.5795 96.1585C61.0717 98.7559 62.1263 99.6151 65.4657 99.6151H79.1162L78.1983 103.15H60.3492Z" fill="#1D1D1B"/>
<path d="M211.655 103.151C208.882 103.151 208.257 101.842 208.882 99.4206C209.878 95.554 211.733 94.8509 215.19 94.8509H223.685C223.978 93.7378 224.661 92.9176 222.162 92.9176H211.85L212.573 90.1445H225.325C230.227 90.1445 231.164 92.7418 230.403 95.7297L228.489 103.17H211.675L211.655 103.151ZM222.24 100.553L223.099 97.1944H217.729C215.639 97.1944 214.624 97.4287 214.233 98.6395C213.881 99.8893 213.725 100.553 215.99 100.553H222.22H222.24Z" fill="#1D1D1B"/>
<path d="M188.424 90.1437H182.487L184.03 84.1484H177.117L172.215 103.15H186.178C191.88 103.15 193.54 100.142 194.204 97.5841C194.419 96.7835 194.38 96.803 194.673 95.7289C195.649 91.9404 193.931 90.1633 188.404 90.1633L188.424 90.1437ZM188.951 95.8656C188.736 96.6858 188.658 96.9787 188.521 97.5646C188.072 99.4003 186.646 100.357 184.01 100.357H179.831L181.745 92.9168H185.983C189.127 92.9168 189.263 94.5572 188.931 95.8656H188.951Z" fill="#1D1D1B"/>
<path d="M201.738 84.1484H208.651L207.812 87.3707H200.918L201.738 84.1484Z" fill="#1D1D1B"/>
<path d="M203.776 103.129L207.077 90.123H200.203L196.863 103.129H203.776Z" fill="#1D1D1B"/>
<path d="M164.86 90.2597C162.595 90.0449 160.388 90.6698 158.377 91.6658C156.99 90.4941 154.432 90.123 151.366 90.123H145.332L141.973 103.129H148.417L151.073 92.8961H151.991C154.373 92.8961 154.647 93.8335 153.67 97.5439L152.245 103.129H157.381L160.017 92.8961H161.013C163.239 92.8961 163.669 93.5796 162.673 97.5439L161.228 103.129H167.672L169.586 95.6887C170.582 91.8806 167.184 90.4746 164.86 90.2402V90.2597Z" fill="#1D1D1B"/>
<path d="M110.429 84.1484H118.123L113.241 103.15H105.527L110.429 84.1484Z" fill="#1D1D1B"/>
<path d="M97.8913 90.123H92.56C86.9357 90.123 84.1236 91.7439 83.1276 95.7082C83.0495 96.0012 82.7371 97.1924 82.6004 97.7587C81.7606 101.079 82.2293 103.129 88.0293 103.129H93.3606C98.9849 103.129 101.797 101.508 102.793 97.5439C102.871 97.251 103.184 96.0598 103.32 95.4934C104.16 92.1736 103.691 90.123 97.8913 90.123ZM97.1101 95.884C96.9539 96.4894 96.8367 96.9385 96.5829 97.954C96.1337 99.7116 95.9775 100.376 92.56 100.376H90.9586C88.2832 100.376 88.166 99.8092 88.7909 97.4072C88.9472 96.8018 89.0643 96.3527 89.3182 95.3372C89.7674 93.5991 89.9236 92.9352 93.2239 92.9156H94.8253C97.5984 92.9156 97.7351 93.4429 97.1101 95.884Z" fill="#1D1D1B"/>
<path d="M134.305 90.123H128.974C123.35 90.123 120.538 91.7439 119.542 95.7082C119.464 96.0012 119.151 97.1924 119.014 97.7587C118.175 101.079 118.643 103.149 124.443 103.149H129.775C135.399 103.149 138.211 101.528 139.207 97.5634C139.285 97.2705 139.598 96.0793 139.734 95.5129C140.574 92.1931 140.105 90.123 134.305 90.123ZM133.524 95.884C133.368 96.4894 133.251 96.9385 132.997 97.954C132.548 99.7116 132.392 100.376 128.974 100.376H127.373C124.697 100.376 124.58 99.8092 125.205 97.4072C125.361 96.8018 125.478 96.3527 125.732 95.3372C126.181 93.5991 126.338 92.9352 129.638 92.9156H131.239C134.012 92.9156 134.149 93.4429 133.524 95.884Z" fill="#1D1D1B"/>
</svg>
