<svg width="67" height="68" viewBox="0 0 67 68" fill="none" xmlns="http://www.w3.org/2000/svg">
<path d="M61.0925 20.0096C55.6033 21.9937 49.5462 19.1528 47.5608 13.665C46.3172 10.226 46.9684 6.56276 48.9798 3.81818C44.3489 1.39996 39.0869 0.0255127 33.5 0.0255127C14.9982 0.0255127 0 15.0237 0 33.5255C0 52.0274 14.9982 67.0255 33.5 67.0255C52.0018 67.0255 67 52.0274 67 33.5255C67 28.2132 65.7578 23.1927 63.5581 18.7301C62.812 19.2505 61.9882 19.6847 61.0925 20.0096Z" fill="#E30D22"/>
<path d="M57.5178 18.306C62.0819 18.306 65.7818 14.6061 65.7818 10.042C65.7818 5.47798 62.0819 1.77809 57.5178 1.77809C52.9538 1.77809 49.2539 5.47798 49.2539 10.042C49.2539 14.6061 52.9538 18.306 57.5178 18.306Z" fill="#E30D22"/>
<path d="M55.7524 14.0995C55.6762 14.1167 55.5971 14.1239 55.5166 14.121C55.2204 14.1067 54.9516 13.9413 54.8049 13.6825L53.3011 11.0185C53.0667 10.603 53.2134 10.0753 53.6289 9.84099C54.0429 9.60952 54.5706 9.75329 54.8063 10.1688L55.646 11.6568C56.7832 10.1127 58.8952 7.38107 60.4163 6.20503C60.793 5.91173 61.3364 5.98218 61.6283 6.3603C61.9201 6.73842 61.8497 7.28043 61.473 7.57229C59.5479 9.05888 56.2987 13.7041 56.2656 13.7515C56.142 13.9298 55.958 14.052 55.7524 14.0995Z" fill="white"/>
<path d="M23.5759 15.0119L24.9604 17.5236L27.4965 18.9081L24.9604 20.2926L23.5759 22.8287L22.2172 20.2926L19.6797 18.9081L22.2172 17.5236L23.5759 15.0119Z" fill="white"/>
<path d="M8.30494 34.128L9.42203 36.1537L11.4679 37.2694L9.42203 38.3865L8.30494 40.4338L7.2094 38.3865L5.16211 37.2694L7.2094 36.1537L8.30494 34.128Z" fill="white"/>
<path d="M39.4324 13.4824L40.5495 15.5081L42.5968 16.6252L40.5495 17.7408L39.4324 19.7881L38.3369 17.7408L36.291 16.6252L38.3369 15.5081L39.4324 13.4824Z" fill="white"/>
<path d="M56.6568 38.437L58.3461 41.5036L61.443 43.1929L58.3461 44.8822L56.6568 47.979L54.9992 44.8822L51.9023 43.1929L54.9992 41.5036L56.6568 38.437Z" fill="white"/>
<path d="M17.2099 24.3891L17.8253 25.5077L18.9553 26.123L17.8253 26.7398L17.2099 27.8698L16.6046 26.7398L15.4746 26.123L16.6046 25.5077L17.2099 24.3891Z" fill="white"/>
<path d="M11.8179 17.587L12.4346 18.7055L13.5647 19.3209L12.4346 19.9377L11.8179 21.0677L11.214 19.9377L10.084 19.3209L11.214 18.7055L11.8179 17.587Z" fill="white"/>
<path d="M53.1831 33.851L53.7999 34.9695L54.9299 35.5848L53.7999 36.2016L53.1831 37.3316L52.5793 36.2016L51.4492 35.5848L52.5793 34.9695L53.1831 33.851Z" fill="white"/>
<path d="M55.7211 24.5149L56.9086 26.67L59.0853 27.8576L56.9086 29.0451L55.7211 31.2232L54.5551 29.0451L52.377 27.8576L54.5551 26.67L55.7211 24.5149Z" fill="white"/>
<path d="M14.0487 46.6157L14.3449 47.1534L14.8883 47.4496L14.3449 47.7457L14.0487 48.2892L13.7583 47.7457L13.2148 47.4496L13.7583 47.1534L14.0487 46.6157Z" fill="white"/>
<path d="M11.4686 29.6724L11.7648 30.2101L12.3083 30.5077L11.7648 30.8039L11.4686 31.3473L11.1782 30.8039L10.6348 30.5077L11.1782 30.2101L11.4686 29.6724Z" fill="white"/>
<path d="M46.0381 23.3104L46.5888 24.3096L47.5966 24.8603L46.5888 25.4109L46.0381 26.4187L45.4976 25.4109L44.4883 24.8603L45.4976 24.3096L46.0381 23.3104Z" fill="white"/>
<path d="M31.4423 19.6616L31.9397 20.5645L32.8527 21.0634L31.9397 21.5609L31.4423 22.4738L30.952 21.5609L30.0391 21.0634L30.952 20.5645L31.4423 19.6616Z" fill="white"/>
<path d="M20.1084 49.1231C18.5111 49.0455 17.7879 48.387 17.7879 48.387L16.9512 47.4381L17.0403 50.5824C17.0403 50.5824 16.9641 53.6763 19.0962 53.6763H21.7962C21.7962 53.6763 23.6609 53.5268 23.6609 51.4738V49.1174C23.6609 49.1174 21.7085 49.2022 20.1098 49.1245L20.1084 49.1231Z" fill="white"/>
<path d="M20.2485 37.569C20.4375 37.1127 20.2208 36.5896 19.7645 36.4006C19.3082 36.2116 18.7851 36.4283 18.5961 36.8846C18.4071 37.3409 18.6238 37.864 19.0801 38.053C19.5364 38.242 20.0595 38.0253 20.2485 37.569Z" fill="white"/>
<path d="M21.9779 38.5605C22.4654 38.4813 22.7964 38.022 22.7173 37.5345C22.6381 37.047 22.1788 36.7159 21.6913 36.7951C21.2038 36.8742 20.8727 37.3335 20.9519 37.821C21.031 38.3085 21.4904 38.6396 21.9779 38.5605Z" fill="white"/>
<path d="M49.2329 48.3867C49.2329 48.3867 48.5098 49.0452 46.9125 49.1228C45.3152 49.2005 43.3613 49.1157 43.3613 49.1157V51.4721C43.3613 53.5251 45.226 53.6746 45.226 53.6746H47.926C50.0582 53.6746 49.982 50.5807 49.982 50.5807L50.0711 47.4364L49.2344 48.3853L49.2329 48.3867Z" fill="white"/>
<path d="M45.9985 38.0211C46.1875 37.5648 45.9708 37.0417 45.5145 36.8527C45.0582 36.6637 44.5351 36.8803 44.3461 37.3366C44.1571 37.7929 44.3738 38.316 44.8301 38.505C45.2864 38.694 45.8095 38.4774 45.9985 38.0211Z" fill="white"/>
<path d="M47.5798 38.1218C48.0737 38.1218 48.4741 37.7215 48.4741 37.2276C48.4741 36.7337 48.0737 36.3333 47.5798 36.3333C47.0859 36.3333 46.6855 36.7337 46.6855 37.2276C46.6855 37.7215 47.0859 38.1218 47.5798 38.1218Z" fill="white"/>
<path d="M50.343 38.7077C50.3904 38.4461 50.4091 38.2017 50.4105 37.9673C50.5874 36.0149 49.1468 35.0646 49.1468 35.0646H49.1454C48.7701 34.1042 47.6976 33.4587 47.6976 33.4587C48.3661 33.381 49.0461 33.1769 49.0461 33.1769C50.3947 32.8951 50.5227 31.8643 50.2768 30.8334C50.031 29.8026 49.637 29.4273 47.7177 29.4273C45.7984 29.4273 45.8329 30.4898 45.8329 30.4898C44.5361 27.4174 43.7008 25.4967 41.583 24.8252C39.4653 24.1538 33.5664 24.3451 33.5664 24.3451H33.5031C33.5031 24.3451 27.6042 24.1524 25.4865 24.8252C23.3687 25.4967 22.5334 27.4174 21.2366 30.4898C21.2366 30.4898 21.2711 29.4273 19.3518 29.4273C17.4324 29.4273 17.0385 29.8026 16.7926 30.8334C16.5468 31.8643 16.6733 32.8951 18.0233 33.1769C18.0233 33.1769 18.7034 33.3796 19.3719 33.4587C19.3719 33.4587 18.2936 34.1056 17.9212 35.0703C17.9212 35.0703 16.4677 36.0279 16.6589 37.9975C16.6632 38.2232 16.6805 38.4576 16.7251 38.7077L16.4648 39.9715L16.531 45.4319L18.2821 47.3555C18.2821 47.3555 18.9837 48.0701 21.5141 48.0701H45.5583C48.0886 48.0701 48.7902 47.3555 48.7902 47.3555L50.5414 45.4319L50.6075 39.9715L50.3473 38.7077H50.343ZM22.7203 31.9376C23.5571 29.4964 24.9142 27.2895 24.9142 27.2895C27.252 27.012 32.2336 26.8208 33.5477 26.7733L33.552 26.7618C33.552 26.7618 33.6095 26.7633 33.713 26.7676C33.8165 26.7647 33.874 26.7618 33.874 26.7618L33.8783 26.7733C35.1924 26.8208 40.1741 27.0106 42.5118 27.2895C42.5118 27.2895 43.869 29.4964 44.7057 31.9376C44.7057 31.9376 45.6057 33.7016 44.1278 33.5751C43.2436 33.4989 39.8204 33.3854 36.5295 33.3307C36.5137 33.3307 36.4964 33.3307 36.4806 33.3307C35.5231 33.3149 34.5785 33.3048 33.7116 33.302C32.8446 33.3048 31.9001 33.3149 30.9425 33.3307C30.9267 33.3307 30.9095 33.3307 30.8937 33.3322C27.6028 33.3854 24.1796 33.4989 23.2954 33.5751C21.8189 33.7016 22.7174 31.9376 22.7174 31.9376H22.7203ZM32.0481 38.9047C32.3098 38.5151 32.8849 38.2491 33.5477 38.2491C34.2105 38.2491 34.8172 38.5122 35.063 38.9033C37.5589 38.8515 40.0533 38.6761 42.529 38.3713C42.565 38.679 42.5952 38.9895 42.621 39.303C40.1065 39.6121 37.5747 39.7889 35.04 39.8407C34.7827 40.2303 34.2119 40.5034 33.5477 40.5034C32.8835 40.5034 32.3026 40.2346 32.0424 39.8407C29.5077 39.7903 26.9774 39.6121 24.4628 39.303C24.4887 38.9895 24.5189 38.679 24.5548 38.3713C27.0406 38.6776 29.5422 38.853 32.0481 38.9047ZM24.677 37.4382C24.723 37.1263 24.7733 36.8186 24.828 36.5138C30.6061 37.2212 36.4792 37.2212 42.2587 36.5138C42.3134 36.8186 42.3637 37.1263 42.4097 37.4382C36.5324 38.1614 30.5558 38.1614 24.6785 37.4382H24.677ZM23.6174 39.9169L22.036 39.8881L21.2754 39.9169L17.5978 38.3929C17.5633 38.0378 17.4468 36.393 18.8816 35.5405C19.3072 35.6497 19.9728 35.7949 20.9289 35.933C22.8368 36.2076 23.7037 36.3456 23.7037 36.3456L23.5024 37.7474L23.616 39.9183L23.6174 39.9169ZM24.365 41.1806C24.3708 40.9204 24.3794 40.6573 24.3909 40.3942C24.3938 40.3424 24.3967 40.2921 24.3995 40.2418C30.4609 40.9822 36.6229 40.9822 42.6843 40.2418C42.6872 40.2921 42.69 40.3439 42.6929 40.3942C42.7059 40.6573 42.7145 40.9189 42.7188 41.1806C36.6344 41.9167 30.4494 41.9167 24.365 41.1806ZM49.4818 38.4015L45.8242 39.9169L45.1241 39.9557L43.4822 39.9169L43.5958 37.7459L43.3945 36.3442C43.3945 36.3442 44.2615 36.2061 46.1693 35.9315C47.1196 35.7949 47.7838 35.6512 48.2094 35.5405C49.6514 36.4088 49.5105 38.0809 49.4789 38.4001L49.4818 38.4015Z" fill="white"/>
<path d="M34.1221 38.6156C33.9596 38.5638 33.7583 38.5322 33.5412 38.5322C33.3242 38.5322 33.1214 38.5624 32.9604 38.6156C32.5305 38.7536 32.2344 39.0411 32.2344 39.3718C32.2344 39.8391 32.8195 40.2172 33.5412 40.2172C34.263 40.2172 34.8481 39.8391 34.8481 39.3718C34.8481 39.0397 34.552 38.7536 34.1221 38.6156ZM33.5412 39.8549C33.4334 39.8549 33.3457 39.6435 33.34 39.3776C33.4047 39.3833 33.4722 39.3862 33.5412 39.3862C33.6103 39.3862 33.6778 39.3833 33.7425 39.3776C33.7382 39.6435 33.6491 39.8549 33.5412 39.8549ZM33.3543 39.1691C33.3831 38.9822 33.4564 38.8499 33.5412 38.8499C33.6261 38.8499 33.6994 38.9822 33.7296 39.1691C33.6692 39.1748 33.6059 39.1777 33.5412 39.1777C33.4766 39.1777 33.4147 39.1748 33.3543 39.1691ZM33.8432 39.1547C33.8 38.8614 33.6807 38.6515 33.5412 38.6515C33.4018 38.6515 33.2839 38.8614 33.2393 39.1547C32.9734 39.113 32.7879 39.0196 32.7879 38.9089C32.7879 38.7608 33.1243 38.64 33.5398 38.64C33.9553 38.64 34.2917 38.7593 34.2917 38.9089C34.2917 39.0196 34.1063 39.113 33.8403 39.1547M32.4256 39.3431C32.4256 39.1993 32.4802 39.0656 32.5765 38.9506C32.5765 38.9592 32.5751 38.9664 32.5751 38.975C32.5751 39.1547 32.8454 39.3071 33.2221 39.3632C33.2221 39.3761 33.2221 39.3905 33.2221 39.4034C33.2221 39.7384 33.3155 40.0217 33.4435 40.1194C32.8742 40.0849 32.427 39.7499 32.427 39.3416M33.639 40.1209C33.767 40.0231 33.8604 39.7399 33.8604 39.4049C33.8604 39.3905 33.8604 39.3776 33.8604 39.3646C34.2371 39.3086 34.5074 39.1562 34.5074 38.9764C34.5074 38.9678 34.5074 38.9606 34.506 38.952C34.6023 39.067 34.6569 39.2022 34.6569 39.3445C34.6569 39.7528 34.2098 40.0878 33.639 40.1223" fill="white"/>
</svg>
