<svg width="67" height="67" viewBox="0 0 67 67" fill="none" xmlns="http://www.w3.org/2000/svg">
<path d="M61.0895 19.9838C55.6017 21.9681 49.5435 19.1275 47.5592 13.6398C46.316 10.2003 46.9675 6.53753 48.9774 3.79364C44.3474 1.3755 39.0843 0 33.4984 0C14.9982 0 0 14.9982 0 33.4984C0 51.9986 14.9982 66.9968 33.4984 66.9968C51.9986 66.9968 66.9968 51.9986 66.9968 33.4984C66.9968 28.187 65.7551 23.1658 63.5545 18.7036C62.8092 19.2243 61.9856 19.6595 61.0895 19.9824V19.9838Z" fill="#E30D22"/>
<path d="M57.4957 18.3298C62.0702 18.3298 65.7786 14.6214 65.7786 10.0469C65.7786 5.47241 62.0702 1.76405 57.4957 1.76405C52.9212 1.76405 49.2129 5.47241 49.2129 10.0469C49.2129 14.6214 52.9212 18.3298 57.4957 18.3298Z" fill="#E30D22"/>
<path d="M55.7463 14.0724C55.6695 14.0895 55.5898 14.098 55.5102 14.0937C55.2143 14.0795 54.9455 13.9145 54.799 13.6556L53.2954 10.9914C53.0607 10.576 53.2073 10.0483 53.624 9.81361C54.038 9.58175 54.5657 9.72542 54.8004 10.1408L55.641 11.6286C56.7776 10.0853 58.8899 7.35279 60.4119 6.17786C60.7888 5.88483 61.3322 5.95595 61.6238 6.3329C61.9154 6.71127 61.8457 7.25322 61.4673 7.54482C59.5428 9.03127 56.2939 13.677 56.2598 13.7239C56.1361 13.9017 55.9526 14.024 55.7463 14.071V14.0724Z" fill="white"/>
<path d="M20.055 43.5851C18.4534 43.5068 17.7279 42.8468 17.7279 42.8468L16.8887 41.8952L16.9783 45.0473C16.9783 45.0473 16.9015 48.1497 19.0394 48.1497H21.7463C21.7463 48.1497 23.6154 48.0003 23.6154 45.9406V43.5765C23.6154 43.5765 21.6567 43.6619 20.055 43.5836V43.5851Z" fill="white"/>
<path d="M20.1484 32.063C20.3381 31.605 20.1207 31.0799 19.6627 30.8902C19.2047 30.7005 18.6797 30.918 18.49 31.376C18.3003 31.834 18.5177 32.359 18.9757 32.5487C19.4337 32.7384 19.9587 32.5209 20.1484 32.063Z" fill="white"/>
<path d="M21.8767 33.0563C22.366 32.9768 22.6983 32.5158 22.6189 32.0265C22.5394 31.5372 22.0784 31.2049 21.5891 31.2843C21.0998 31.3638 20.7675 31.8248 20.8469 32.3141C20.9264 32.8034 21.3874 33.1357 21.8767 33.0563Z" fill="white"/>
<path d="M49.2039 42.8471C49.2039 42.8471 48.4784 43.5071 46.8768 43.5853C45.2751 43.6636 43.3164 43.5782 43.3164 43.5782V45.9423C43.3164 48.0006 45.1855 48.1514 45.1855 48.1514H47.8924C50.0303 48.1514 49.9535 45.049 49.9535 45.049L50.0431 41.8969L49.2039 42.8485V42.8471Z" fill="white"/>
<path d="M45.9668 32.5159C46.1565 32.0579 45.939 31.5329 45.481 31.3432C45.0231 31.1535 44.498 31.3709 44.3083 31.8289C44.1186 32.2869 44.3361 32.8119 44.7941 33.0016C45.2521 33.1913 45.7771 32.9738 45.9668 32.5159Z" fill="white"/>
<path d="M47.5499 32.6174C48.0456 32.6174 48.4475 32.2156 48.4475 31.7198C48.4475 31.2241 48.0456 30.8223 47.5499 30.8223C47.0542 30.8223 46.6523 31.2241 46.6523 31.7198C46.6523 32.2156 47.0542 32.6174 47.5499 32.6174Z" fill="white"/>
<path d="M50.3338 33.2459C50.3807 32.9842 50.3992 32.7381 50.4021 32.5048C50.5784 30.5504 49.1347 29.5988 49.1347 29.5988H49.1332C48.7563 28.6372 47.6809 27.9914 47.6809 27.9914C48.3509 27.9132 49.0337 27.7098 49.0337 27.7098C50.3864 27.4282 50.5144 26.3969 50.2669 25.3642C50.0208 24.3315 49.6254 23.9574 47.7008 23.9574C45.7763 23.9574 45.8104 25.0214 45.8104 25.0214C44.5103 21.9461 43.6725 20.0229 41.5488 19.3501C39.4251 18.6773 33.5092 18.8693 33.5092 18.8693H33.4452C33.4452 18.8693 27.5293 18.6773 25.4056 19.3501C23.2819 20.0229 22.444 21.9461 21.1439 25.0214C21.1439 25.0214 21.1781 23.9574 19.2535 23.9574C17.3289 23.9574 16.9335 24.3329 16.6874 25.3642C16.4413 26.3969 16.5679 27.4282 17.9207 27.7098C17.9207 27.7098 18.6035 27.9132 19.2734 27.9914C19.2734 27.9914 18.1924 28.6401 17.8183 29.6059C17.8183 29.6059 16.3617 30.5646 16.5523 32.5361C16.5566 32.7623 16.5736 32.997 16.6192 33.2474L16.3574 34.5119L16.4229 39.9783L18.1781 41.9029C18.1781 41.9029 18.8823 42.6184 21.4185 42.6184H45.5302C48.0664 42.6184 48.7705 41.9029 48.7705 41.9029L50.5258 39.9783L50.5912 34.5119L50.3295 33.2474L50.3338 33.2459ZM22.6275 26.4154C23.4668 23.9688 24.8266 21.7555 24.8266 21.7555C27.1708 21.4767 32.165 21.2861 33.4836 21.2391L33.4878 21.2277C33.4878 21.2277 33.5447 21.2292 33.65 21.2334C33.7538 21.2292 33.8122 21.2277 33.8122 21.2277L33.8164 21.2391C35.135 21.2861 40.1306 21.4781 42.4734 21.7555C42.4734 21.7555 43.8332 23.9688 44.6725 26.4154C44.6725 26.4154 45.5743 28.1849 44.0935 28.0569C43.2074 27.9801 39.775 27.8663 36.475 27.8122C36.4593 27.8122 36.4423 27.8122 36.4266 27.8122C35.4665 27.7966 34.5191 27.7866 33.65 27.7823C32.7809 27.7852 31.8336 27.7966 30.8734 27.8122C30.8578 27.8122 30.8407 27.8122 30.825 27.8136C27.525 27.8677 24.0926 27.9815 23.2065 28.0569C21.7257 28.1835 22.6275 26.4154 22.6275 26.4154ZM31.9801 33.401C32.2432 33.0098 32.8193 32.7438 33.4836 32.7438C34.1479 32.7438 34.7567 33.0084 35.0027 33.3996C37.5062 33.3483 40.0069 33.172 42.489 32.8661C42.5246 33.1748 42.5545 33.4863 42.5815 33.8007C40.0609 34.1108 37.5219 34.2886 34.98 34.3398C34.7211 34.731 34.1493 35.0041 33.4836 35.0041C32.8179 35.0041 32.2347 34.7338 31.9744 34.3398C29.4339 34.2886 26.8948 34.1108 24.3743 33.8007C24.3999 33.4863 24.4312 33.1748 24.4667 32.8661C26.9589 33.1734 29.468 33.3498 31.9801 33.401ZM24.5877 31.9316C24.6332 31.6187 24.6844 31.31 24.7384 31.0042C30.532 31.714 36.4223 31.714 42.2159 31.0042C42.27 31.31 42.3212 31.6187 42.3667 31.9316C36.4735 32.657 30.4808 32.657 24.5877 31.9316ZM23.5265 34.4166L21.9405 34.3881L21.1781 34.4166L17.4911 32.8889C17.457 32.5333 17.3403 30.8833 18.7784 30.0284C19.2051 30.1393 19.8723 30.283 20.831 30.421C22.7442 30.6969 23.6133 30.8349 23.6133 30.8349L23.4127 32.2403L23.5265 34.4166ZM24.2747 35.684C24.2804 35.4223 24.2889 35.1605 24.3017 34.896C24.3046 34.8448 24.3074 34.7935 24.3103 34.7423C30.3884 35.4848 36.5674 35.4848 42.6455 34.7423C42.6484 34.7935 42.6512 34.8448 42.654 34.896C42.6668 35.1605 42.6754 35.4223 42.6811 35.684C36.5788 36.4222 30.3784 36.4222 24.2761 35.684H24.2747ZM49.4604 32.8974L45.7934 34.4166L45.0921 34.455L43.4463 34.4166L43.5601 32.2403L43.3596 30.8349C43.3596 30.8349 44.2287 30.6969 46.1419 30.421C47.0949 30.283 47.7606 30.1393 48.1873 30.0298C49.6339 30.9003 49.4917 32.5774 49.4604 32.8974Z" fill="white"/>
<path d="M34.0618 33.1121C33.8996 33.0594 33.6976 33.0295 33.4786 33.0295C33.2595 33.0295 33.0575 33.0594 32.8968 33.1121C32.4658 33.25 32.1699 33.5388 32.1699 33.8702C32.1699 34.3382 32.756 34.718 33.48 34.718C34.204 34.718 34.7901 34.3382 34.7901 33.8702C34.7901 33.5374 34.4942 33.25 34.0618 33.1121ZM33.4786 34.3553C33.3705 34.3553 33.2823 34.1433 33.2766 33.8759C33.342 33.8816 33.4089 33.8844 33.4786 33.8844C33.5483 33.8844 33.6151 33.8816 33.6806 33.8759C33.6749 34.1419 33.5867 34.3553 33.4786 34.3553ZM33.2922 33.6668C33.3221 33.479 33.3946 33.3468 33.48 33.3468C33.5653 33.3468 33.6393 33.479 33.6677 33.6668C33.608 33.6725 33.544 33.6753 33.48 33.6753C33.416 33.6753 33.3534 33.6725 33.2922 33.6668ZM33.7815 33.6526C33.7374 33.3581 33.6194 33.1476 33.4786 33.1476C33.3377 33.1476 33.2211 33.3581 33.177 33.6526C32.911 33.6113 32.7247 33.516 32.7247 33.4065C32.7247 33.2586 33.0618 33.1377 33.4786 33.1377C33.8953 33.1377 34.2325 33.2586 34.2325 33.4065C34.2325 33.5174 34.0461 33.6113 33.7801 33.6526M32.3605 33.8403C32.3605 33.6967 32.416 33.563 32.5127 33.4463C32.5127 33.4549 32.5113 33.462 32.5113 33.4705C32.5113 33.6512 32.783 33.8034 33.1599 33.8603C33.1599 33.8745 33.1599 33.8873 33.1599 33.9015C33.1599 34.2372 33.2524 34.5217 33.3818 34.6198C32.81 34.5843 32.362 34.2486 32.362 33.8403M33.5781 34.6198C33.7062 34.5217 33.8 34.2372 33.8 33.9015C33.8 33.8873 33.8 33.8745 33.8 33.8603C34.1784 33.8034 34.4501 33.6512 34.4501 33.4705C34.4501 33.462 34.4501 33.4549 34.4487 33.4463C34.5454 33.563 34.6009 33.6967 34.6009 33.8403C34.6009 34.2486 34.1528 34.5857 33.581 34.6198" fill="white"/>
</svg>
