<svg width="15" height="19" viewBox="0 0 15 19" fill="none" xmlns="http://www.w3.org/2000/svg">
<path d="M1.56425 19C1.13442 19 0.76625 18.8468 0.45975 18.5403C0.15325 18.2337 0 17.8656 0 17.4358V5.56425C0 5.13442 0.15325 4.76625 0.45975 4.45975C0.76625 4.15325 1.13442 4 1.56425 4H3.87175V3.62825C3.87175 2.61708 4.22367 1.75958 4.9275 1.05575C5.63133 0.351916 6.48883 0 7.5 0C8.51117 0 9.36867 0.351916 10.0725 1.05575C10.7763 1.75958 11.1283 2.61708 11.1283 3.62825V4H13.4358C13.8656 4 14.2337 4.15325 14.5402 4.45975C14.8468 4.76625 15 5.13442 15 5.56425V17.4358C15 17.8656 14.8468 18.2337 14.5402 18.5403C14.2337 18.8468 13.8656 19 13.4358 19H1.56425ZM1.56425 17.7435H13.4358C13.5127 17.7435 13.5833 17.7115 13.6475 17.6475C13.7115 17.5833 13.7435 17.5128 13.7435 17.4358V5.56425C13.7435 5.48725 13.7115 5.41667 13.6475 5.3525C13.5833 5.2885 13.5127 5.2565 13.4358 5.2565H11.1283V7.62825C11.1283 7.80658 11.0678 7.95583 10.947 8.076C10.8262 8.19633 10.6762 8.2565 10.497 8.2565C10.3178 8.2565 10.1688 8.19633 10.05 8.076C9.93117 7.95583 9.87175 7.80658 9.87175 7.62825V5.2565H5.12825V7.62825C5.12825 7.80658 5.06783 7.95583 4.947 8.076C4.82617 8.19633 4.67617 8.2565 4.497 8.2565C4.31783 8.2565 4.16883 8.19633 4.05 8.076C3.93117 7.95583 3.87175 7.80658 3.87175 7.62825V5.2565H1.56425C1.48725 5.2565 1.41667 5.2885 1.3525 5.3525C1.2885 5.41667 1.2565 5.48725 1.2565 5.56425V17.4358C1.2565 17.5128 1.2885 17.5833 1.3525 17.6475C1.41667 17.7115 1.48725 17.7435 1.56425 17.7435ZM5.12825 4H9.87175V3.62825C9.87175 2.96292 9.64283 2.40125 9.185 1.94325C8.727 1.48542 8.16533 1.2565 7.5 1.2565C6.83467 1.2565 6.273 1.48542 5.815 1.94325C5.35717 2.40125 5.12825 2.96292 5.12825 3.62825V4Z" fill="white"/>
</svg>
