<svg width="25" height="24" viewBox="0 0 25 24" fill="none" xmlns="http://www.w3.org/2000/svg">
<path d="M6.16853 23.1333C5.71004 23.1333 5.31733 22.9698 4.9904 22.6429C4.66347 22.316 4.5 21.9233 4.5 21.4648V8.80184C4.5 8.34335 4.66347 7.95064 4.9904 7.6237C5.31733 7.29677 5.71004 7.1333 6.16853 7.1333H8.62987V6.73677C8.62987 5.65819 9.00524 4.74353 9.756 3.99277C10.5068 3.24202 11.4214 2.86664 12.5 2.86664C13.5786 2.86664 14.4932 3.24202 15.244 3.99277C15.9948 4.74353 16.3701 5.65819 16.3701 6.73677V7.1333H18.8315C19.29 7.1333 19.6827 7.29677 20.0096 7.6237C20.3365 7.95064 20.5 8.34335 20.5 8.80184V21.4648C20.5 21.9233 20.3365 22.316 20.0096 22.6429C19.6827 22.9698 19.29 23.1333 18.8315 23.1333H6.16853ZM6.16853 21.793H18.8315C18.9136 21.793 18.9889 21.7589 19.0573 21.6906C19.1256 21.6222 19.1597 21.5469 19.1597 21.4648V8.80184C19.1597 8.7197 19.1256 8.64441 19.0573 8.57597C18.9889 8.5077 18.9136 8.47357 18.8315 8.47357H16.3701V11.0034C16.3701 11.1937 16.3057 11.3529 16.1768 11.481C16.0479 11.6094 15.8879 11.6736 15.6968 11.6736C15.5057 11.6736 15.3468 11.6094 15.22 11.481C15.0932 11.3529 15.0299 11.1937 15.0299 11.0034V8.47357H9.97013V11.0034C9.97013 11.1937 9.90569 11.3529 9.7768 11.481C9.64791 11.6094 9.48791 11.6736 9.2968 11.6736C9.10569 11.6736 8.94676 11.6094 8.82 11.481C8.69324 11.3529 8.62987 11.1937 8.62987 11.0034V8.47357H6.16853C6.0864 8.47357 6.01111 8.5077 5.94267 8.57597C5.8744 8.64441 5.84027 8.7197 5.84027 8.80184V21.4648C5.84027 21.5469 5.8744 21.6222 5.94267 21.6906C6.01111 21.7589 6.0864 21.793 6.16853 21.793ZM9.97013 7.1333H15.0299V6.73677C15.0299 6.02708 14.7857 5.42797 14.2973 4.93944C13.8088 4.45108 13.2097 4.20691 12.5 4.20691C11.7903 4.20691 11.1912 4.45108 10.7027 4.93944C10.2143 5.42797 9.97013 6.02708 9.97013 6.73677V7.1333Z" fill="white"/>
</svg>
