<svg width="25" height="25" viewBox="0 0 25 25" fill="none" xmlns="http://www.w3.org/2000/svg">
<path fill-rule="evenodd" clip-rule="evenodd" d="M18.8439 0.530687L24.4694 6.15449C25.1769 6.86168 25.1769 8.01761 24.4694 8.72369L19.0527 14.1454C18.9293 14.2676 18.7325 14.2676 18.6102 14.1454L17.0981 12.6327C17.0116 12.5656 16.9564 12.4607 16.9683 12.3505L17.11 10.9491L16.5876 10.4268C13.9007 13.1312 11.4291 15.9349 9.49828 19.2418C9.52316 19.5434 9.51667 19.8441 9.47989 20.1457L10.5615 21.227C10.8633 21.5287 10.8633 22.0196 10.5615 22.3213L8.10834 24.7737C7.80657 25.0754 7.31548 25.0754 7.01371 24.7737L5.93206 23.6849C4.7087 23.8514 3.42371 23.4578 2.48268 22.517C1.53622 21.5763 1.149 20.2917 1.30908 19.0624L0.226327 17.9811C-0.0754424 17.6794 -0.0754424 17.1884 0.226327 16.8868L2.67953 14.4343C2.98022 14.1327 3.47239 14.1327 3.77415 14.4343L4.85691 15.5156C5.1522 15.4789 5.45288 15.4735 5.75468 15.4973C9.06229 13.5736 11.8726 11.1028 14.5724 8.41019L14.05 7.88684L12.6546 8.0285C12.5378 8.04039 12.4329 7.99173 12.3712 7.90523L10.8591 6.39247C10.7358 6.27028 10.7358 6.0735 10.8591 5.95021L16.2759 0.528473C16.9801 -0.176552 18.1365 -0.176501 18.8439 0.530687ZM9.31977 20.8648C9.12291 21.4671 8.79082 22.0381 8.30516 22.5182C7.8249 22.9972 7.2603 23.3356 6.65673 23.5259L7.45607 24.3315C7.51773 24.3867 7.60967 24.3867 7.66483 24.3315L10.118 21.8791C10.1797 21.8175 10.1797 21.7256 10.118 21.6704L9.31977 20.8648ZM1.46817 18.3432C1.66503 17.7355 2.00359 17.1699 2.48277 16.6898C2.96303 16.2108 3.52764 15.8724 4.13013 15.6821L3.33079 14.8765C3.26913 14.8224 3.17719 14.8224 3.12094 14.8765L0.667752 17.3289C0.606097 17.384 0.606097 17.4824 0.667752 17.5387L1.46817 18.3432ZM16.1441 9.9847L15.0127 8.85365C12.4729 11.3861 9.73737 13.8137 6.66872 15.6833C7.2647 15.8801 7.83042 16.2109 8.30418 16.6911C8.78336 17.1647 9.1219 17.7302 9.31227 18.3325C11.1889 15.2593 13.6173 12.5289 16.1441 9.9847ZM7.86824 17.1332C9.23329 18.4978 9.23329 20.7102 7.86824 22.0749C6.50319 23.4396 4.28373 23.4396 2.91859 22.0749C1.55354 20.7103 1.55354 18.4979 2.91859 17.1332C4.28364 15.7686 6.50311 15.7686 7.86824 17.1332ZM4.22834 20.772C4.87408 21.4175 5.91898 21.4175 6.55824 20.772C7.20398 20.1264 7.20398 19.0819 6.55824 18.4363C5.91898 17.7908 4.87303 17.7908 4.22834 18.4363C3.5826 19.0808 3.5826 20.1264 4.22834 20.772ZM4.66425 20.3286C5.06986 20.7276 5.71562 20.7276 6.12123 20.3286C6.52036 19.9296 6.52036 19.2776 6.12123 18.8786C5.71562 18.4796 5.06986 18.4796 4.66425 18.8786C4.26512 19.2787 4.26512 19.9296 4.66425 20.3286ZM19.3293 8.92073L21.3585 10.9482L18.8307 13.4806L17.6073 12.2576L17.736 10.9849C17.749 10.8314 17.7858 10.7211 17.6441 10.5978L14.3969 7.35823C14.2865 7.22307 14.1935 7.24794 14.0464 7.25983L12.7365 7.395L11.5132 6.17202L14.0464 3.63959L16.0756 5.66813C16.3708 5.96333 16.8078 5.52107 16.518 5.22586L14.4888 3.1984L15.2146 2.47284L22.5309 9.78135L21.7987 10.5123L19.7695 8.48377C19.4828 8.18966 19.0405 8.63202 19.3293 8.92073ZM16.4825 8.52172C17.0731 9.11212 18.0325 9.11212 18.6285 8.52172C19.2191 7.92593 19.2191 6.96679 18.6285 6.37747C18.0325 5.7806 17.0731 5.7806 16.4825 6.37747C15.8865 6.96571 15.8865 7.92482 16.4825 8.52172ZM18.1861 6.81323C18.5365 7.16357 18.5365 7.72911 18.1861 8.07945C17.8356 8.42979 17.2699 8.42979 16.9195 8.07945C16.5755 7.72803 16.5755 7.16249 16.9195 6.81323C17.2699 6.46829 17.8356 6.46829 18.1861 6.81323ZM22.9757 9.33919L15.6582 2.03067L16.3894 1.29971L23.7002 8.61376L22.9757 9.33919ZM24.1374 8.16488L16.8385 0.869375C17.3058 0.51253 17.9764 0.549319 18.4004 0.973181L24.0326 6.59699C24.4577 7.02196 24.4878 7.69775 24.1374 8.16488Z" fill="#D42224"/>
</svg>
