<svg width="23" height="19" viewBox="0 0 23 19" fill="none" xmlns="http://www.w3.org/2000/svg">
<path d="M20.9863 12.6715H9.17568C8.06557 12.6715 7.16222 13.601 7.16222 14.7436V15.3321H3.56863C2.14069 15.3321 0.978713 14.1371 0.978713 12.6678C0.978713 11.1989 2.14069 10.0039 3.56863 10.0039H19.3313C21.299 10.0039 22.8999 8.35665 22.8999 6.33199C22.8999 4.30732 21.2992 2.66033 19.3315 2.66033H15.8373V2.07178C15.8373 0.929441 14.9342 0 13.8238 0H2.01321C0.903107 0 0 0.929189 0 2.07153V4.25668C0 5.39902 0.903107 6.32846 2.01346 6.32846H13.8241C14.9342 6.32846 15.8375 5.39927 15.8375 4.25668V3.66813H19.3318C20.76 3.66813 21.9217 4.86312 21.9217 6.33224C21.9217 7.80136 20.7597 8.9961 19.3315 8.9961H3.56863C1.60093 8.9961 0 10.6431 0 12.6678C0 14.6924 1.60093 16.3397 3.56863 16.3397H7.16247V16.9282C7.16247 18.0706 8.06557 19 9.17592 19H20.9865C22.0966 19 23 18.0708 23 16.9282V14.7433C22.9998 13.6012 22.0966 12.6715 20.9863 12.6715ZM14.8586 4.25668C14.8586 4.84347 14.3944 5.32066 13.8238 5.32066H2.01321C1.44287 5.32066 0.978713 4.84347 0.978713 4.25668V2.07153C0.978713 1.48474 1.44287 1.00755 2.01346 1.00755H13.8241C14.3947 1.00755 14.8588 1.48474 14.8588 2.07153L14.8586 4.25668ZM22.021 16.9285C22.021 17.515 21.5569 17.9925 20.9863 17.9925H9.17568C8.60509 17.9925 8.14093 17.515 8.14093 16.9285V14.7436C8.14093 14.1568 8.60509 13.6793 9.17568 13.6793H20.9863C21.5569 13.6793 22.021 14.1568 22.021 14.7436V16.9285Z" fill="#D42224"/>
</svg>
