<svg width="25" height="25" viewBox="0 0 25 25" fill="none" xmlns="http://www.w3.org/2000/svg">
<path fill-rule="evenodd" clip-rule="evenodd" d="M2.25636 19.9163H10.5613C11.1944 19.9163 11.7733 19.6473 12.1791 19.2254C12.1791 20.393 12.1856 21.5681 12.1856 22.7434C12.1856 23.9605 13.1758 25 14.4377 25H22.7426C23.9849 25 25 23.9852 25 22.7434V10.7275C25 9.51692 24.0401 8.51397 22.8345 8.46449H22.7674V7.87156L22.8291 7.8651C24.5823 7.73705 24.4957 5.08876 22.7306 5.08876H19.2058C17.4408 5.08876 17.3488 7.73708 19.1074 7.8651L19.169 7.87156V8.46449H18.0804C17.668 8.46449 17.3423 8.56779 17.0523 8.87986C15.6378 10.4833 14.2223 12.092 12.8199 13.7064V5.63878C12.8199 4.42816 11.8546 3.42413 10.648 3.37573H10.5863V2.7828L10.648 2.77634C12.4011 2.64829 12.3091 0 10.5495 0H7.02466C5.2596 0 5.16654 2.64832 6.91969 2.77634L6.98137 2.7828V3.37573H5.89919C5.48687 3.37573 5.16113 3.48011 4.8722 3.79218C3.27272 5.60867 1.67319 7.42527 0.080193 9.25449C-0.0063827 9.35888 0.00011047 9.44389 0.00011047 9.57194V17.6536C-0.000971657 18.8825 1.00764 19.9166 2.25649 19.9166L2.25636 19.9163ZM12.18 17.6532C12.18 18.5464 11.4539 19.2749 10.5621 19.2749H2.25725C1.38393 19.262 0.639375 18.5712 0.639375 17.6532L0.638293 9.58456L5.22667 4.30626C5.47341 4.01893 5.57729 4.01248 5.94634 4.01248H7.30016C7.47873 4.01248 7.62048 3.87151 7.62048 3.69397V2.7825H9.95154V3.69397C9.95154 3.87152 10.0933 4.01248 10.2654 4.01248H10.5608C11.4525 4.01248 12.1787 4.7464 12.1787 5.63955C12.1798 9.63849 12.18 13.6449 12.18 17.6532ZM22.4533 9.10136H22.7422C23.6351 9.10136 24.3666 9.83527 24.3666 10.7273V22.7421C24.3666 23.6342 23.634 24.3638 22.7422 24.3638H14.4373C13.564 24.3509 12.8195 23.6665 12.8195 22.7421V14.6734L17.4079 9.3951C17.66 9.1067 17.765 9.10132 18.134 9.10132H19.4813C19.6599 9.10132 19.8006 8.96035 19.8006 8.78281V7.87134H22.1316V8.78281C22.1327 8.95929 22.2736 9.10136 22.4533 9.10136ZM19.2044 5.72445H22.7292C23.714 5.72445 23.714 7.22885 22.7292 7.22885H19.2044C18.2196 7.22885 18.2196 5.72445 19.2044 5.72445ZM13.7242 15.1317V22.742C13.7242 23.1337 14.05 23.4576 14.4374 23.4576H22.7423C23.1362 23.4576 23.462 23.1326 23.462 22.742V10.7273C23.462 10.3356 23.1362 10.0063 22.7423 10.0063H18.2143C18.1158 10.0116 18.0304 10.0558 17.9676 10.1279L13.7967 14.9296C13.748 14.9855 13.7242 15.0585 13.7242 15.1317ZM14.3573 15.2544L18.3625 10.6475H22.7487C22.7855 10.6475 22.8222 10.6841 22.8222 10.7206V22.742C22.8222 22.784 22.7855 22.8216 22.7422 22.8216H14.4373C14.4005 22.8216 14.3572 22.7786 14.3572 22.742L14.3573 15.2544ZM17.1191 20.6189C16.7003 20.6189 16.7003 21.2549 17.1191 21.2549H20.066C20.4848 21.2549 20.4848 20.6189 20.066 20.6189H17.1191ZM18.5833 14.4227C17.9871 15.1437 16.7999 16.264 16.7999 17.2616C16.7999 18.2527 17.605 19.0544 18.5898 19.0544C19.58 19.0544 20.3863 18.2538 20.3863 17.2616C20.3863 16.2651 19.1991 15.1449 18.6028 14.4227C18.5898 14.4098 18.5963 14.4098 18.5833 14.4227ZM19.7456 17.2605C19.7456 17.8965 19.2283 18.4162 18.5887 18.4162C17.9546 18.4162 17.4384 17.8954 17.4384 17.2605C17.4384 16.6848 18.2197 15.8045 18.5887 15.3762C18.9653 15.8056 19.7456 16.6859 19.7456 17.2605ZM7.02439 0.634403H10.5492C11.534 0.634403 11.534 2.1388 10.5492 2.1388H7.02439C6.03419 2.1388 6.03419 0.634403 7.02439 0.634403ZM1.54312 10.0428V17.652C1.54312 18.0437 1.86343 18.3676 2.25628 18.3676H10.5612C10.9551 18.3676 11.2808 18.0437 11.2808 17.652V5.63831C11.2808 5.2466 10.9551 4.91731 10.5612 4.91731H6.02793C5.93595 4.92269 5.84937 4.96681 5.78877 5.03892L1.61153 9.84062C1.56824 9.90196 1.54335 9.96868 1.54335 10.0429L1.54312 10.0428ZM2.17621 10.1644L6.1803 5.55743H10.5545C10.6097 5.55743 10.6411 5.58756 10.6411 5.64352V17.6519C10.6411 17.6885 10.6043 17.7305 10.561 17.7305H2.25613C2.20634 17.7305 2.17604 17.6885 2.17604 17.639L2.17621 10.1644ZM4.93907 15.53C4.52026 15.53 4.52026 16.1671 4.93907 16.1671H7.88597C8.30369 16.1671 8.30369 15.53 7.88597 15.53H4.93907ZM6.40329 9.33379C5.80702 10.0559 4.61875 11.175 4.61875 12.1727C4.61875 13.1638 5.41849 13.9655 6.4087 13.9655C7.3989 13.9655 8.19864 13.1649 8.19864 12.1727C8.19864 11.1762 7.01797 10.0559 6.41518 9.33379C6.40977 9.32088 6.40979 9.32088 6.40329 9.33379ZM7.56557 12.1716C7.56557 12.8075 7.04936 13.3273 6.4087 13.3273C5.76912 13.3273 5.25833 12.8065 5.25833 12.1716C5.25833 11.5959 6.03319 10.7167 6.4087 10.2873C6.78423 10.7156 7.56557 11.5969 7.56557 12.1716Z" fill="#D42224"/>
</svg>
