<svg width="24" height="25" viewBox="0 0 24 25" fill="none" xmlns="http://www.w3.org/2000/svg">
<path fill-rule="evenodd" clip-rule="evenodd" d="M3.42352 14.6417H5.90986C6.44944 14.6417 6.88891 15.0808 6.88891 15.6208V17.0329C6.88891 17.5719 6.44941 18.0172 5.90986 18.0172H3.42352C2.88395 18.0172 2.44447 17.5719 2.44447 17.0329V15.6208C2.44447 15.0808 2.88397 14.6417 3.42352 14.6417ZM2.90149 5.60049L4.52018 7.21865L7.24075 4.26586C7.51622 3.96697 7.9619 4.37717 7.68643 4.67607L4.75431 7.86923C4.6367 7.99807 4.43139 7.99291 4.31481 7.87542L2.46708 6.0305C2.18647 5.7481 2.61469 5.31397 2.90149 5.60049ZM5.459 11.8815H19.5692C18.8357 10.1119 18.1146 8.33692 17.381 6.56725C17.2995 6.36214 17.053 6.25083 16.8415 6.25083H10.0449C10.0748 6.05706 10.0975 5.85196 10.1089 5.6417H16.8415C17.2171 5.6417 17.7566 5.87567 17.9031 6.23332C18.7656 8.3194 19.6219 10.4054 20.4781 12.4917H3.52982L3.96415 11.4249C4.21072 11.5836 4.45111 11.7413 4.70283 11.8877C5.07734 12.1165 5.11236 12.0866 5.459 11.8815ZM6.40918 11.2724C8.03405 10.1469 9.39994 8.75858 9.91072 6.8663H16.8488C17.4524 8.33193 18.0507 9.80168 18.6553 11.2724H17.4235C16.7023 9.12858 13.6414 9.12858 12.9141 11.2724H6.40918ZM10.1326 5.03278C10.1501 4.21855 10.1501 3.4043 10.145 2.58904C10.145 2.46021 10.0748 2.34271 9.951 2.285L5.25992 0.0525637C5.11342 -0.0175212 5.03708 -0.0175212 4.89059 0.0525637L0.199508 2.285C0.075707 2.34375 0.00555335 2.46022 0.00555335 2.58904C-0.0057951 3.53831 -0.000636878 4.48138 0.0292818 5.42442C0.105625 7.94958 1.57679 9.70677 3.45449 11.0664L3.3668 11.2715H0.358345C0.146852 11.2715 0.00655958 11.4756 0.06535 11.6704C0.282 12.5083 1.03924 13.0999 1.90689 13.0999C0.85664 13.943 0.00655278 15.4787 0.00655278 16.5031V20.3815C0.00655278 21.3596 0.810235 22.1636 1.79546 22.1636H1.86562V24.3785C1.86562 24.7248 2.14108 25 2.48152 25H4.82754C5.16697 25 5.44964 24.7186 5.44964 24.3785V22.1636H18.5507V24.3785C18.5507 24.7248 18.8262 25 19.1728 25H21.524C21.8634 25 22.1461 24.7186 22.1461 24.3785V22.1636H22.2173C23.1963 22.1636 24 21.3596 24 20.3815L23.9969 16.5042C23.9969 15.4787 23.152 13.944 22.1027 13.101C22.9941 13.101 23.7627 12.5444 23.9855 11.6714C24.0433 11.4777 23.903 11.2726 23.6915 11.2726H20.6368L18.426 5.89338C18.1969 5.33063 17.318 5.03173 16.7547 5.03173L10.1326 5.03278ZM5.07227 0.645148L9.53516 2.76527C9.54135 3.64443 9.53516 4.52877 9.51144 5.40803C9.42374 8.26082 7.34803 10.0492 5.07205 11.4025C2.80236 10.0492 0.726684 8.26214 0.637944 5.40803C0.609056 4.5299 0.602868 3.64454 0.614215 2.76527L5.07227 0.645148ZM13.5702 11.2724C14.2098 9.93664 16.1267 9.93664 16.7664 11.2724H13.5702ZM13.4763 17.3421V19.9909H12.3085V17.3421H13.4763ZM14.086 19.9909V17.3421H15.2003C15.2291 17.3421 15.2591 17.3658 15.2591 17.4008V19.9322C15.2591 19.9673 15.2291 19.991 15.2003 19.991L14.086 19.9909ZM9.91604 17.3421V19.9909H8.80803C8.77295 19.9909 8.74922 19.9672 8.74922 19.9322V17.4008C8.74922 17.3658 8.77295 17.3421 8.80803 17.3421L9.91604 17.3421ZM10.5258 19.9909V17.3421H11.6988V19.9909H10.5258ZM8.80803 16.7329H15.2002C15.5696 16.7329 15.8687 17.0317 15.8687 17.3997V19.9311C15.8687 20.3 15.5696 20.5989 15.2002 20.5989H8.80803C8.4387 20.5989 8.13952 20.299 8.13952 19.9311V17.3997C8.13952 17.0317 8.4387 16.7329 8.80803 16.7329ZM2.86666 12.4917L3.11839 11.8815H0.808476C1.03751 12.2453 1.44191 12.4917 1.90513 12.4917H2.86666ZM20.8878 11.8815L21.1406 12.4917H22.1433C22.6066 12.4917 23.011 12.2453 23.2338 11.8815H20.8878ZM4.83717 22.1647H2.47362V24.3796C2.47362 24.3848 2.47981 24.3909 2.47981 24.3909H4.82582C4.83098 24.3909 4.83717 24.3858 4.83717 24.3796V22.1647ZM21.5338 22.1647H19.1589V24.3796C19.1589 24.3848 19.1651 24.3909 19.1713 24.3909H21.5224C21.5276 24.3909 21.5338 24.3858 21.5338 24.3796L21.5338 22.1647ZM3.36002 13.1008C2.14058 13.1008 0.622009 15.3569 0.622009 16.504V20.3824C0.622009 21.0214 1.1492 21.5542 1.79502 21.5542H22.2148C22.8596 21.5542 23.3868 21.0214 23.3868 20.3824V16.504C23.3868 15.3558 21.8681 13.1008 20.6424 13.1008H3.36002ZM18.0975 14.6416H20.5838C21.1234 14.6416 21.5629 15.0807 21.5629 15.6208V17.0328C21.5629 17.5719 21.1234 18.0171 20.5838 18.0171H18.0975C17.5579 18.0171 17.1174 17.5719 17.1174 17.0328V15.6208C17.1184 15.0807 17.5579 14.6416 18.0975 14.6416ZM18.0975 15.2508H20.5838C20.7829 15.2508 20.9532 15.4208 20.9532 15.6197V17.0318C20.9532 17.2369 20.7829 17.4007 20.5838 17.4007H18.0975C17.8922 17.4007 17.7282 17.2379 17.7282 17.0318V15.6197C17.7282 15.4208 17.8922 15.2508 18.0975 15.2508ZM3.42393 15.2508H5.91027C6.10938 15.2508 6.2796 15.4208 6.2796 15.6197V17.0318C6.2796 17.2369 6.10937 17.4007 5.91027 17.4007H3.42393C3.21863 17.4007 3.0546 17.2379 3.0546 17.0318V15.6197C3.0546 15.4208 3.21864 15.2508 3.42393 15.2508Z" fill="#D42224"/>
</svg>
