<svg width="60" height="60" viewBox="0 0 60 60" fill="none" xmlns="http://www.w3.org/2000/svg">
<circle cx="29.9644" cy="29.9644" r="29.9644" fill="#1F2C40"/>
<path d="M23.2103 35.8176C23.6904 35.8176 24.0985 35.6496 24.4348 35.3136C24.771 34.9776 24.9391 34.5696 24.9391 34.0895C24.9391 33.6093 24.771 33.2012 24.4348 32.865C24.0988 32.5288 23.6907 32.3607 23.2106 32.3607C22.7305 32.3607 22.3223 32.5288 21.9861 32.865C21.6499 33.201 21.4818 33.609 21.4818 34.0891C21.4818 34.5692 21.6499 34.9774 21.9861 35.3136C22.3221 35.6496 22.7302 35.8176 23.2103 35.8176ZM35.4807 35.8176C35.9608 35.8176 36.3688 35.6496 36.7048 35.3136C37.041 34.9776 37.2091 34.5696 37.2091 34.0895C37.2091 33.6093 37.0411 33.2012 36.7052 32.865C36.3692 32.5288 35.9611 32.3607 35.481 32.3607C35.0009 32.3607 34.5927 32.5288 34.2565 32.865C33.9203 33.201 33.7522 33.609 33.7522 34.0891C33.7522 34.5692 33.9202 34.9774 34.2562 35.3136C34.5924 35.6496 35.0006 35.8176 35.4807 35.8176ZM18.9711 42C18.694 42 18.4628 41.9073 18.2776 41.7218C18.0925 41.5363 18 41.3064 18 41.0323V30.787L20.7306 22.977C20.8291 22.6802 21.0065 22.4446 21.2629 22.2705C21.5196 22.0964 21.803 22.0093 22.1133 22.0093H31.4165V23.9175H22.4301L20.6819 28.8788H31.4165V30.787H19.9082V37.3916H38.7831V30.787H40.6913V41.0323C40.6913 41.3064 40.5985 41.5363 40.413 41.7218C40.2276 41.9073 39.9976 42 39.7232 42H38.9973C38.7204 42 38.4893 41.9073 38.304 41.7218C38.119 41.5363 38.0265 41.3064 38.0265 41.0323V39.2997H20.6648V41.0323C20.6648 41.3064 20.5721 41.5363 20.3866 41.7218C20.2011 41.9073 19.9712 42 19.6971 42H18.9711ZM35.4568 28.2466C35.137 28.2466 34.8591 28.1286 34.6231 27.8924C34.3869 27.6564 34.2688 27.3793 34.2688 27.061V23.0681C34.2688 22.7478 34.3869 22.4695 34.6231 22.2333C34.8591 21.9974 35.1362 21.8794 35.4544 21.8794H35.6355V20.4878C35.6355 19.7954 35.8787 19.2077 36.3652 18.7246C36.8519 18.2415 37.446 18 38.1475 18C38.8493 18 39.4445 18.2415 39.9333 18.7246C40.422 19.2077 40.6664 19.7954 40.6664 20.4878V21.8825H40.8406C41.1589 21.8825 41.4317 22.0001 41.659 22.2354C41.8863 22.4709 42 22.7474 42 23.065V27.058C42 27.3783 41.882 27.6564 41.6461 27.8924C41.4099 28.1286 41.1326 28.2466 40.8144 28.2466H35.4568ZM36.8146 21.8794H39.4873V20.4858C39.4873 20.1103 39.3591 19.794 39.1026 19.5372C38.8464 19.2801 38.5289 19.1515 38.1499 19.1515C37.7712 19.1515 37.454 19.2795 37.1982 19.5355C36.9425 19.7917 36.8146 20.1091 36.8146 20.4878V21.8794Z" fill="#E7EDF1"/>
</svg>
