<svg width="48" height="53" viewBox="0 0 48 53" fill="none" xmlns="http://www.w3.org/2000/svg">
<path d="M6.35084 52.4531C4.57417 52.4531 3.07165 51.8387 1.84326 50.6099C0.614421 49.3815 0 47.879 0 46.1023V37.7166H8.21052V0.453125H46.5263V28.4024C45.9871 28.2373 45.4281 28.1103 44.8493 28.0213C44.27 27.9324 43.6827 27.8692 43.0875 27.8318V3.89197H11.6494V37.7166H28.2682C28.0556 38.2558 27.875 38.8104 27.7263 39.3806C27.5776 39.9508 27.4672 40.5422 27.3951 41.1548H3.43884V46.1023C3.43884 46.927 3.718 47.6185 4.27631 48.1768C4.83463 48.7351 5.51086 49.0143 6.305 49.0143H28.3701C28.6296 49.6647 28.9464 50.2751 29.3205 50.8452C29.694 51.4154 30.0977 51.9514 30.5315 52.4531H6.35084ZM15.5788 16.0668V12.6287H39.158V16.0668H15.5788ZM15.5788 23.9619V20.5231H39.158V23.9619H15.5788ZM28.3701 49.0143H3.43884H27.3951H27.2576H28.3701Z" fill="url(#paint0_linear_17604_2707)"/>
<path d="M41.0526 48.3478C39.0732 47.8365 37.438 46.723 36.147 45.0074C34.856 43.2918 34.2104 41.3841 34.2104 39.2844V34.3608L41.0526 31.9268L47.8947 34.3608V39.2844C47.8947 41.3841 47.2491 43.2918 45.9581 45.0074C44.6671 46.723 43.0319 47.8365 41.0526 48.3478ZM41.0526 47.212C42.5914 46.7415 43.8729 45.8493 44.8969 44.5354C45.9211 43.2215 46.5199 41.7526 46.6934 40.1289H41.0526V33.0992L35.3567 35.1148V39.2844C35.3567 39.4417 35.3592 39.5791 35.3643 39.6966C35.3693 39.814 35.3851 39.9582 35.4117 40.1289H41.0526V47.212Z" fill="url(#paint1_linear_17604_2707)"/>
<defs>
<linearGradient id="paint0_linear_17604_2707" x1="23.2631" y1="0.453125" x2="23.2631" y2="52.4531" gradientUnits="userSpaceOnUse">
<stop/>
<stop offset="1"/>
</linearGradient>
<linearGradient id="paint1_linear_17604_2707" x1="41.0526" y1="31.9268" x2="41.0526" y2="48.3478" gradientUnits="userSpaceOnUse">
<stop/>
<stop offset="1"/>
</linearGradient>
</defs>
</svg>
