<svg width="20" height="19" viewBox="0 0 20 19" fill="none" xmlns="http://www.w3.org/2000/svg">
<path fill-rule="evenodd" clip-rule="evenodd" d="M17.4997 8.80414V2.70936C17.504 2.56493 17.3863 2.45874 17.2538 2.45874H9.96521C9.87171 2.45874 9.79812 2.45874 9.72368 2.53605C7.58794 4.59288 5.38824 6.58859 3.2429 8.63019C3.0611 8.77547 3.16412 9.06941 3.40046 9.06941H17.2538C17.401 9.06431 17.4997 8.95368 17.4997 8.80414ZM0.502094 12.5805H19.503V12.0928H0.502094V12.5805ZM19.503 13.0732H0.502094V13.3536C0.502094 13.8463 0.910729 14.2465 1.40764 14.2465H1.7522C2.24481 14.097 2.76596 14.0188 3.3079 14.0188C4.83331 14.0188 6.21164 14.6466 7.18546 15.6517H19.503L19.503 13.0732ZM19.503 11.6H0.502094V8.52884C2.90873 6.16796 6.5742 2.85447 8.98106 0.493595H18.5914C19.0935 0.493595 19.5022 0.894606 19.5022 1.38651L19.503 11.6ZM7.60365 16.1445H19.503V16.6322H7.93343C7.83474 16.4631 7.72139 16.2992 7.60365 16.1445ZM8.18888 17.125H19.5031V17.6177C19.5031 18.1054 19.0945 18.5064 18.5923 18.5064H8.59747C8.52821 18.0229 8.38628 17.5591 8.18888 17.125ZM17.4998 9.72588V10.3486C17.4998 10.8074 17.1163 11.1846 16.6479 11.1846H13.3754C12.9027 11.1846 12.5192 10.8082 12.5192 10.3486V9.72588C12.5192 9.5908 12.6326 9.4795 12.7703 9.4795H17.2537C17.3862 9.48035 17.4998 9.5908 17.4998 9.72588ZM13.0214 9.97224V10.3486C13.0214 10.5372 13.179 10.6969 13.3755 10.6969H16.648C16.8402 10.6969 17.0021 10.5381 17.0021 10.3486V9.97224H13.0214ZM9.56717 7.36495L13.1894 3.81026C13.4258 3.58342 13.7798 3.9309 13.5435 4.15775L9.92126 7.71244C9.6901 7.94438 9.33603 7.59605 9.56717 7.36495ZM11.0675 7.36495L14.6897 3.81026C14.9209 3.58342 15.2758 3.9309 15.0438 4.15775L11.4216 7.71244C11.1861 7.94438 10.832 7.59605 11.0675 7.36495ZM4.02043 8.5773C6.00901 6.69378 8.03562 4.8484 10.0094 2.94534H17.0028V8.5773H4.02043ZM8.92213 0.00506032H18.5923C19.3706 0.00506032 20 0.62357 20 1.38649V17.6186C20 18.3764 19.3697 19 18.5923 19H8.41061C8.26777 19 8.14484 18.9278 8.13012 18.7783C7.87907 16.3824 5.8168 14.5143 3.30711 14.5143C2.82489 14.5143 2.35739 14.5823 1.91414 14.7123C1.76177 14.7556 1.56958 14.7361 1.40768 14.7361C0.635451 14.7361 0 14.1176 0 13.3555V8.43387C0 8.3608 0.0242479 8.30303 0.0787878 8.25036C2.5098 5.86469 6.27389 2.45963 8.70579 0.0739625C8.77505 0.00514579 8.85287 -0.00938115 8.92213 0.00506032Z" fill="#D42224"/>
</svg>
