<svg width="34" height="5" viewBox="0 0 34 5" fill="none" xmlns="http://www.w3.org/2000/svg">
<g clip-path="url(#clip0_6414_6501)">
<path d="M1.90079 0.100009L4.30078 2.5L1.80079 5H0.100789L2.60078 2.5L0.200789 0.100009H1.90079Z" fill="#D42224" stroke="#D42224"/>
<path d="M1.90079 0.100009L4.30078 2.5L1.80079 5H0.100789L2.60078 2.5L0.200789 0.100009H1.90079Z" fill="#D42224" stroke="#D42224"/>
<path d="M6.06094 0.100009L8.46094 2.5L5.94094 5H4.26095L6.76094 2.5L4.36095 0.100009H6.06094Z" fill="#D42224" stroke="#D42224"/>
<path d="M6.06094 0.100009L8.46094 2.5L5.94094 5H4.26095L6.76094 2.5L4.36095 0.100009H6.06094Z" fill="#D42224" stroke="#D42224"/>
<path d="M10.1996 0.100009L12.5996 2.5L10.0996 5H8.39962L10.8996 2.5L8.49962 0.100009H10.1996Z" fill="#D42224" stroke="#D42224"/>
<path d="M10.1996 0.100009L12.5996 2.5L10.0996 5H8.39962L10.8996 2.5L8.49962 0.100009H10.1996Z" fill="#D42224" stroke="#D42224"/>
<path d="M14.3598 0.100009L16.7598 2.5L14.2398 5H12.5598L15.0598 2.5L12.6598 0.100009H14.3598Z" fill="#D42224" stroke="#D42224"/>
<path d="M14.3598 0.100009L16.7598 2.5L14.2398 5H12.5598L15.0598 2.5L12.6598 0.100009H14.3598Z" fill="#D42224" stroke="#D42224"/>
<path d="M18.5614 0.100009L20.9414 2.5L18.4414 5H16.7614L19.2614 2.5L16.8614 0.100009H18.5614Z" fill="#D42224" stroke="#D42224"/>
<path d="M18.5614 0.100009L20.9414 2.5L18.4414 5H16.7614L19.2614 2.5L16.8614 0.100009H18.5614Z" fill="#D42224" stroke="#D42224"/>
<path d="M22.6996 0.100009L25.0996 2.5L22.5996 5H20.8996L23.3996 2.5L20.9996 0.100009H22.6996Z" fill="#D42224" stroke="#D42224"/>
<path d="M22.6996 0.100009L25.0996 2.5L22.5996 5H20.8996L23.3996 2.5L20.9996 0.100009H22.6996Z" fill="#D42224" stroke="#D42224"/>
<path d="M26.8602 0.100009L29.2402 2.5L26.7402 5H25.0602L27.5602 2.5L25.1602 0.100009H26.8602Z" fill="#D42224" stroke="#D42224"/>
<path d="M26.8602 0.100009L29.2402 2.5L26.7402 5H25.0602L27.5602 2.5L25.1602 0.100009H26.8602Z" fill="#D42224" stroke="#D42224"/>
<path d="M31.0004 0.100009L33.4004 2.5L30.9004 5H29.2004L31.7004 2.5L29.3004 0.100009H31.0004Z" fill="#D42224" stroke="#D42224"/>
<path d="M31.0004 0.100009L33.4004 2.5L30.9004 5H29.2004L31.7004 2.5L29.3004 0.100009H31.0004Z" fill="#D42224" stroke="#D42224"/>
</g>
<defs>
<clipPath id="clip0_6414_6501">
<rect width="33.3999" height="4.99999" fill="white" transform="matrix(-1 0 0 -1 33.4004 5)"/>
</clipPath>
</defs>
</svg>
