<svg width="25" height="24" viewBox="0 0 25 24" fill="none" xmlns="http://www.w3.org/2000/svg">
<path d="M6.26983 20.2281C5.40528 19.34 4.72755 18.3187 4.23666 17.1643C3.74555 16.0099 3.5 14.8234 3.5 13.6048C3.5 12.2667 3.74451 10.9935 4.23352 9.78516C4.72254 8.57684 5.47957 7.46015 6.50462 6.4351C7.26824 5.66939 8.22777 5.04548 9.38323 4.56336C10.5389 4.08145 11.8432 3.71542 13.2963 3.46527C14.7495 3.21491 16.3257 3.06633 18.0247 3.01951C19.7235 2.9727 21.4986 3.01011 23.3499 3.13174C23.4795 4.95133 23.5252 6.71085 23.4869 8.41028C23.4487 10.1097 23.3039 11.6908 23.0525 13.1534C22.8013 14.6161 22.4317 15.9332 21.9437 17.1047C21.4557 18.2765 20.8265 19.2478 20.056 20.0187C19.0454 21.0407 17.9527 21.7993 16.778 22.2945C15.6031 22.79 14.384 23.0378 13.1207 23.0378C11.8136 23.0378 10.5702 22.7993 9.39075 22.3224C8.21147 21.8456 7.17117 21.1475 6.26983 20.2281ZM8.94155 20.268C9.53213 20.6633 10.1903 20.9613 10.9161 21.1617C11.6419 21.3621 12.3767 21.4623 13.1204 21.4623C14.1605 21.4623 15.1789 21.252 16.1755 20.8316C17.1722 20.4109 18.0949 19.7665 18.9438 18.8984C19.4117 18.429 19.8403 17.7982 20.2296 17.006C20.619 16.2137 20.9463 15.2336 21.2118 14.0656C21.4772 12.8978 21.6686 11.5333 21.786 9.97199C21.9033 8.41091 21.922 6.62057 21.8421 4.60098C20.3626 4.55918 18.9084 4.56733 17.4796 4.62543C16.0508 4.68352 14.7141 4.82417 13.4696 5.04736C12.2252 5.27055 11.1023 5.57932 10.1011 5.97367C9.09985 6.36801 8.28953 6.87918 7.67011 7.50717C6.76877 8.41707 6.11101 9.37107 5.69681 10.3692C5.28261 11.3673 5.07551 12.3386 5.07551 13.2832C5.07551 14.3576 5.29661 15.4148 5.73881 16.4549C6.18122 17.495 6.71883 18.3181 7.35162 18.9241C8.15766 17.1622 9.222 15.5341 10.5446 14.0399C11.8673 12.5457 13.4554 11.2705 15.3091 10.2143C13.6866 11.623 12.3482 13.1369 11.2941 14.7559C10.2401 16.3746 9.45585 18.212 8.94155 20.268Z" fill="white"/>
</svg>
