<svg width="41" height="40" viewBox="0 0 41 40" fill="none" xmlns="http://www.w3.org/2000/svg">
<path d="M20.4897 29.8615C20.9921 29.8615 21.3879 29.7201 21.6772 29.4375C21.9662 29.1548 22.1107 28.7621 22.1107 28.2595C22.1107 27.7571 21.9694 27.3613 21.6867 27.072C21.4041 26.783 21.0114 26.6385 20.5087 26.6385C20.0064 26.6385 19.6106 26.7798 19.3212 27.0625C19.0322 27.3451 18.8877 27.7378 18.8877 28.2405C18.8877 28.7428 19.0291 29.1386 19.3117 29.428C19.5944 29.717 19.9871 29.8615 20.4897 29.8615ZM19.1762 22.3575H22.0952V9.73095H19.1762V22.3575ZM20.4927 39.8C17.7551 39.8 15.1899 39.276 12.7972 38.228C10.4042 37.18 8.31389 35.7625 6.52622 33.9755C4.73855 32.1885 3.32039 30.0956 2.27172 27.697C1.22339 25.2983 0.699219 22.7255 0.699219 19.9785C0.699219 17.2475 1.22422 14.6805 2.27422 12.2775C3.32422 9.87478 4.74755 7.77495 6.54422 5.97795C8.34055 4.18128 10.4321 2.76912 12.8187 1.74145C15.2051 0.713785 17.7651 0.199951 20.4987 0.199951C23.2314 0.199951 25.8044 0.713618 28.2177 1.74095C30.6307 2.76795 32.7321 4.17979 34.5217 5.97645C36.3111 7.77279 37.7214 9.87729 38.7527 12.29C39.7837 14.7026 40.2992 17.2761 40.2992 20.0105C40.2992 22.7575 39.7856 25.319 38.7582 27.695C37.7312 30.071 36.3197 32.1541 34.5237 33.9445C32.7274 35.7351 30.6232 37.1586 28.2112 38.215C25.7992 39.2716 23.2264 39.8 20.4927 39.8ZM20.5242 36.8805C25.1809 36.8805 29.1544 35.2303 32.4447 31.93C35.7347 28.6296 37.3797 24.6446 37.3797 19.975C37.3797 15.3183 35.7379 11.3448 32.4542 8.05445C29.1702 4.76445 25.1852 3.11945 20.4992 3.11945C15.8462 3.11945 11.8696 4.76129 8.56922 8.04495C5.26889 11.329 3.61872 15.314 3.61872 20C3.61872 24.653 5.26889 28.6296 8.56922 31.93C11.8696 35.2303 15.8546 36.8805 20.5242 36.8805Z" fill="#D42224"/>
</svg>
