<svg width="36" height="36" viewBox="0 0 36 36" fill="none" xmlns="http://www.w3.org/2000/svg">
<path id="Vector" d="M15.9184 36V33.5566H18.3673V24.3937C17.9592 24.2851 17.5782 24.1425 17.2245 23.9661C16.8707 23.7896 16.5442 23.552 16.2449 23.2534L11.4694 26.2262L0 22.9683V16.4525H16C16.2721 16.1538 16.5714 15.8959 16.898 15.6787C17.2245 15.4615 17.5782 15.2851 17.9592 15.1493V8.1448L26.7347 0L32.2449 3.50226L23.7959 17.267C24.0136 17.6199 24.1701 17.9864 24.2653 18.3665C24.3605 18.7466 24.4218 19.1403 24.449 19.5475L30.2041 20.9321L36 31.276L31.3878 35.8778L20.8163 25.371V33.5566H23.2653V36H15.9184ZM4.89796 6.27149V3.82805H14.6939V6.27149H4.89796ZM20.4082 9.20362V14.9457C20.7075 15 21 15.0814 21.2857 15.19C21.5714 15.2986 21.8367 15.4208 22.0816 15.5566L28.9388 4.15385L26.898 3.09502L20.4082 9.20362ZM0 12.7873V10.3439H8.16327V12.7873H0ZM19.5918 22.1538C20.2857 22.1538 20.8673 21.9197 21.3367 21.4514C21.8061 20.983 22.0408 20.4027 22.0408 19.7104C22.0408 19.0181 21.8061 18.4378 21.3367 17.9695C20.8673 17.5011 20.2857 17.267 19.5918 17.267C18.898 17.267 18.3163 17.5011 17.8469 17.9695C17.3776 18.4378 17.1429 19.0181 17.1429 19.7104C17.1429 20.4027 17.3776 20.983 17.8469 21.4514C18.3163 21.9197 18.898 22.1538 19.5918 22.1538ZM11.102 23.6199L14.9796 21.2579C14.8435 20.8778 14.7687 20.4842 14.7551 20.0769C14.7415 19.6697 14.7619 19.276 14.8163 18.8959H2.44898V21.095L11.102 23.6199ZM28.6122 23.0091L23.9184 21.9502C23.7551 22.276 23.551 22.5814 23.3061 22.8665C23.0612 23.1516 22.7891 23.4027 22.4898 23.6199L31.3878 32.457L32.9388 30.9095L28.6122 23.0091ZM3.26531 32.3348V29.8914H11.4286V32.3348H3.26531Z" fill="#D42224"/>
</svg>
