<svg width="119" height="119" viewBox="0 0 119 119" fill="none" xmlns="http://www.w3.org/2000/svg">
<path d="M76.3689 79.5446C76.0719 82.235 74.7107 84.0369 72.3348 85.0242C71.1221 85.5179 69.8599 85.5178 68.5977 85.1723C64.415 84.0122 60.2077 82.8521 56.025 81.692C55.0598 81.4205 54.6638 80.8775 54.8618 80.137C55.0598 79.4459 55.6786 79.2237 56.619 79.4705C60.7027 80.5813 64.7615 81.7167 68.8451 82.8274C71.4438 83.5185 73.597 82.161 73.9683 79.668C74.191 78.1623 73.3 76.4592 71.9141 75.8668C64.1675 72.6827 56.3963 69.5974 48.229 67.598C41.0517 65.8455 34.2209 66.8082 27.7861 70.2885C26.1774 71.1524 24.7667 72.4359 23.3313 73.6207C22.5888 74.2131 22.0443 74.3858 21.4998 73.8675C20.9554 73.3492 20.9306 72.6087 21.6483 72.0163C23.1828 70.7328 24.6925 69.3258 26.4249 68.3632C33.3547 64.5127 40.7548 63.3032 48.4518 65.3025C53.4511 66.586 58.3515 68.2645 63.2518 69.9182C66.494 71.029 69.6371 72.4112 72.805 73.7194C73.3495 73.9416 73.5228 73.7194 73.8198 73.3738C76.3689 70.4119 78.8934 67.4499 81.5168 64.5374C84.066 61.6988 86.6894 61.4767 89.8078 63.7228C89.9068 63.7969 90.0058 63.8462 90.1295 63.9203C90.2285 63.8215 90.3523 63.7228 90.4513 63.6241C92.6787 60.983 95.7228 61.5754 97.678 62.7602C100.252 64.3399 101.316 67.055 100.252 69.7701C99.8312 70.8809 99.1382 71.9422 98.371 72.8308C95.0051 76.8048 91.5897 80.7294 88.1743 84.6539C87.9021 84.9748 87.5308 85.271 87.1596 85.4685C79.1656 89.4671 71.1716 93.4164 63.2023 97.415C62.5093 97.7606 61.9154 97.7853 61.1976 97.4644C57.213 95.7366 53.1789 94.0828 49.1942 92.4044C48.823 92.2563 48.3528 92.0095 48.2538 91.6886C48.13 91.3183 48.1795 90.6272 48.427 90.4298C48.7735 90.1582 49.4417 90.0595 49.8625 90.2076C52.4859 91.2443 55.0598 92.355 57.6337 93.4411C58.9454 93.9841 60.2324 94.5765 61.5689 95.0702C61.9154 95.1936 62.3856 95.1936 62.7073 95.0455C70.4538 91.2196 78.1509 87.3444 85.8726 83.4692C86.1696 83.3211 86.4666 83.0742 86.6894 82.8274C90.0305 78.9769 93.3469 75.151 96.6633 71.2758C97.0841 70.7821 97.48 70.2638 97.777 69.6961C99.1382 67.1291 97.5295 64.3399 94.6091 64.1177C93.7181 64.0437 92.9757 64.3646 92.4064 65.031C89.684 68.1164 86.9864 71.2017 84.2887 74.3118C83.076 75.694 81.9375 77.1257 80.7001 78.4832C80.4031 78.8288 79.8833 79.0756 79.4379 79.1497C78.4479 79.3224 77.4579 79.3965 76.3689 79.4952V79.5446ZM75.082 75.4719C76.1462 77.2738 76.1462 77.2491 78.1014 77.0269C78.7696 76.9529 79.2151 76.6814 79.6358 76.163C81.1455 74.3365 82.68 72.5593 84.2144 70.7575C85.6251 69.1037 87.0606 67.4499 88.4713 65.8209C86.8131 64.2412 85.0064 64.2658 83.4967 65.8702C82.68 66.7588 81.8633 67.6474 81.0713 68.5607C79.0666 70.8562 77.0867 73.1517 75.0572 75.4966L75.082 75.4719Z" fill="white"/>
<path d="M78.2746 57.9965C79.9575 57.7496 81.4177 57.5522 82.878 57.3547C83.7689 57.2313 84.4124 57.5769 84.5361 58.268C84.6599 58.9344 84.1896 59.5021 83.2739 59.6502C80.5762 60.0452 77.8786 60.4401 75.1809 60.7856C73.9187 60.9584 73.5227 60.5388 73.5227 59.2553C73.5227 56.6142 73.5227 53.9978 73.5227 51.3568C73.5227 50.3201 73.9187 49.8017 74.6859 49.8017C75.4284 49.8017 75.8492 50.3448 75.8739 51.3568C75.8739 53.1833 75.8739 55.0098 75.8739 57.0832C76.3441 56.5895 76.6659 56.244 76.9876 55.8984C87.0358 44.5196 81.9127 26.2789 67.4097 21.7866C54.6143 17.8126 41.4724 26.1308 39.8637 39.4102C38.5768 49.8511 45.0116 59.1319 54.4905 62.1679C54.6638 62.2173 54.837 62.2666 54.9855 62.316C55.7528 62.6369 56.0745 63.2046 55.827 63.8216C55.53 64.5375 54.9855 64.7349 54.243 64.5375C51.8424 63.8216 49.6149 62.7356 47.5608 61.304C37.0176 53.9485 34.1219 39.8298 41.2249 29.1421C46.3728 21.3917 53.8223 17.7633 63.1528 18.5531C74.6364 19.5405 83.4719 28.5744 84.4619 39.9286C85.0311 46.4449 83.1254 52.1466 78.9923 57.1819C78.8191 57.3794 78.6706 57.5769 78.3488 57.9718L78.2746 57.9965Z" fill="white"/>
<path d="M30.4591 85.5674C32.736 85.5674 35.0129 85.518 37.2899 85.5921C38.2551 85.6168 39.2698 85.8636 40.1855 86.1845C41.423 86.6041 42.5862 87.1718 43.7989 87.6654C44.5166 87.9616 44.8136 88.48 44.5661 89.2205C44.3681 89.8622 43.6009 90.1337 42.8832 89.8375C42.8584 89.8375 42.8337 89.8375 42.8089 89.8129C39.74 88.085 36.4484 87.7395 32.9835 87.8876C29.6423 88.0357 26.3012 87.9123 22.96 87.9123C22.6878 87.9123 22.4155 87.9123 22.1681 87.8629C21.4998 87.7148 21.1038 87.2705 21.1781 86.6041C21.2523 85.987 21.6483 85.5921 22.3165 85.5921C23.4798 85.5921 24.6182 85.5921 25.7814 85.5921C27.3406 85.5921 28.9246 85.5921 30.4838 85.5921L30.4591 85.5674Z" fill="white"/>
<path d="M50.8029 41.7798L56.0993 49.4069C56.718 50.2954 57.7823 50.2214 58.401 49.4069C62.6331 43.8532 66.8405 38.3242 71.0726 32.7706C71.5181 32.2029 71.1716 31.2896 70.6024 30.944C69.9094 30.5491 69.2164 30.8453 68.7709 31.413C64.5388 36.9667 60.3314 42.4956 56.0993 48.0493H58.401C56.6438 45.507 54.8618 42.9646 53.1046 40.4223C52.6839 39.8299 51.9414 39.5584 51.2732 39.9533C50.6792 40.2989 50.3822 41.1874 50.8029 41.7798Z" fill="white"/>
<path d="M59.3167 118.001C26.8952 118.001 0.512451 91.6886 0.512451 59.3539C0.512451 27.0193 26.8952 0.731934 59.3167 0.731934C91.7382 0.731934 118.121 27.0439 118.121 59.3786C118.121 91.7132 91.7382 118.025 59.3167 118.025V118.001ZM59.3167 3.74325C28.5781 3.74325 3.55662 28.6977 3.55662 59.3539C3.55662 90.0101 28.5781 114.965 59.3167 114.965C90.0553 114.965 115.077 90.0101 115.077 59.3539C115.077 28.6977 90.08 3.76794 59.3167 3.76794V3.74325Z" fill="white"/>
</svg>
