<svg width="18" height="20" viewBox="0 0 18 20" fill="none" xmlns="http://www.w3.org/2000/svg">
<g id="Group 657323991">
<path id="Vector" d="M11.0373 5.31219C10.6866 5.31219 10.336 5.43918 10.0591 5.65082L7.91808 3.17462C8.10265 2.85715 8.2134 2.4762 8.2134 2.05292C8.2134 0.931221 7.41974 0 6.42306 0C5.42638 0 4.63273 0.910057 4.63273 2.05292C4.63273 2.45504 4.74347 2.85715 4.92804 3.17462L2.76856 5.62965C2.4917 5.41801 2.15948 5.29103 1.79034 5.29103C0.812111 5.29103 0 6.20108 0 7.34395C0 8.48681 0.793654 9.39686 1.79034 9.39686C2.78702 9.39686 3.58067 8.48681 3.58067 7.34395C3.58067 6.94183 3.46993 6.53971 3.28536 6.22225L5.42638 3.76721C5.70324 3.97885 6.03546 4.10584 6.4046 4.10584C6.75529 4.10584 7.10597 3.97885 7.38283 3.76721L9.52385 6.22225C9.33928 6.53971 9.22854 6.92066 9.22854 7.34395C9.22854 8.46564 10.0222 9.39686 11.0189 9.39686C11.9971 9.39686 12.8092 8.48681 12.8092 7.34395C12.8092 6.20108 12.0156 5.31219 11.0373 5.31219Z" fill="white"/>
<path id="Vector_2" d="M15.6517 10.6032C14.6735 10.6032 13.8613 11.5133 13.8613 12.6561C13.8613 13.0582 13.9721 13.4603 14.1567 13.7778L11.9972 16.2117C11.7203 16 11.3881 15.8731 11.019 15.8731C10.6683 15.8731 10.3176 16 10.0407 16.2117L7.91817 13.7566C8.10274 13.4392 8.21348 13.0582 8.21348 12.6349C8.21348 11.5133 7.41983 10.582 6.42315 10.582C5.42647 10.582 4.63281 11.4921 4.63281 12.6349C4.63281 13.7566 5.42647 14.6879 6.42315 14.6879C6.77383 14.6879 7.12452 14.5609 7.40137 14.3492L9.54239 16.8043C9.35782 17.1217 9.24708 17.5027 9.24708 17.926C9.24708 19.0477 10.0407 19.9789 11.0374 19.9789C12.0156 19.9789 12.8278 19.0688 12.8278 17.926C12.8278 17.5239 12.717 17.1217 12.5324 16.8043L14.6735 14.3492C14.9503 14.5609 15.2825 14.6879 15.6517 14.6879C16.6299 14.6879 17.442 13.7778 17.442 12.6349C17.4236 11.5133 16.6299 10.6032 15.6517 10.6032Z" fill="white"/>
<path id="Vector_3" d="M6.42306 15.8942C6.07238 15.8942 5.72169 16.0212 5.44484 16.2328L3.30382 13.7566C3.48839 13.4391 3.59913 13.0582 3.59913 12.6349C3.59913 12.2328 3.48839 11.8307 3.30382 11.5132L5.44484 9.05817C5.72169 9.26981 6.05392 9.39679 6.42306 9.39679C7.40129 9.39679 8.2134 8.48673 8.2134 7.34387C8.2134 6.20101 7.41974 5.29095 6.42306 5.29095C5.42638 5.29095 4.63273 6.20101 4.63273 7.34387C4.63273 7.74599 4.74347 8.14811 4.92804 8.46557L2.76856 10.9206C2.4917 10.709 2.15948 10.582 1.79034 10.582C0.812111 10.582 0 11.492 0 12.6349C0 13.7566 0.793654 14.6878 1.79034 14.6878C2.14102 14.6878 2.4917 14.5608 2.76856 14.3492L4.90958 16.8042C4.72501 17.1217 4.61427 17.5026 4.61427 17.9259C4.61427 19.0476 5.40792 19.9788 6.4046 19.9788C7.40129 19.9788 8.19494 19.0688 8.19494 17.9259C8.19494 16.8042 7.40129 15.8942 6.42306 15.8942Z" fill="white"/>
<path id="Vector_4" d="M15.6516 5.31219C15.3009 5.31219 14.9502 5.43918 14.6734 5.65082L12.5323 3.17462C12.7169 2.85715 12.8276 2.4762 12.8276 2.05292C12.8276 0.931221 12.034 0 11.0373 0C10.0591 0 9.24697 0.910057 9.24697 2.05292C9.24697 3.19578 10.0406 4.10584 11.0373 4.10584C11.388 4.10584 11.7387 3.97885 12.0155 3.76721L14.1566 6.22225C13.972 6.53971 13.8612 6.92066 13.8612 7.34395C13.8612 7.74606 13.972 8.14818 14.1566 8.46564L11.9971 10.9207C11.7202 10.709 11.388 10.5821 11.0189 10.5821C10.0406 10.5821 9.22852 11.4921 9.22852 12.635C9.22852 13.7567 10.0222 14.6879 11.0189 14.6879C11.9971 14.6879 12.8092 13.7778 12.8092 12.635C12.8092 12.2329 12.6984 11.8307 12.5139 11.5133L14.6549 9.05824C14.9318 9.26988 15.264 9.39686 15.6331 9.39686C16.6113 9.39686 17.4235 8.48681 17.4235 7.34395C17.4235 6.20108 16.6298 5.31219 15.6516 5.31219Z" fill="white"/>
</g>
</svg>
