<svg width="52" height="53" viewBox="0 0 52 53" fill="none" xmlns="http://www.w3.org/2000/svg">
<path d="M6.35084 52.4531C4.57418 52.4531 3.07165 51.8387 1.84326 50.6099C0.614421 49.3815 0 47.879 0 46.1023V37.7166H8.21053V0.453125H46.5263V28.4024C45.9872 28.2373 45.4282 28.1103 44.8493 28.0213C44.27 27.9324 43.6827 27.8692 43.0875 27.8318V3.89197H11.6494V37.7166H28.2682C28.0556 38.2558 27.875 38.8104 27.7263 39.3806C27.5776 39.9508 27.4672 40.5422 27.3951 41.1548H3.43884V46.1023C3.43884 46.927 3.718 47.6185 4.27632 48.1768C4.83463 48.7351 5.51086 49.0143 6.305 49.0143H28.3701C28.6296 49.6647 28.9464 50.2751 29.3205 50.8452C29.6941 51.4154 30.0977 51.9514 30.5315 52.4531H6.35084ZM15.5788 16.0668V12.6287H39.1581V16.0668H15.5788ZM15.5788 23.9619V20.5231H39.1581V23.9619H15.5788ZM28.3701 49.0143H3.43884H27.3951H27.2576H28.3701Z" fill="url(#paint0_linear_17604_2715)"/>
<path d="M43.1409 45.611H44.4373V40.6414H43.1409V45.611ZM43.7891 39.1622C43.9869 39.1622 44.1527 39.0953 44.2865 38.9615C44.4203 38.8277 44.4872 38.6619 44.4872 38.4641C44.4872 38.2664 44.4203 38.1006 44.2865 37.9667C44.1527 37.8331 43.9869 37.7662 43.7891 37.7662C43.5914 37.7662 43.4256 37.8331 43.2918 37.9667C43.1579 38.1006 43.091 38.2664 43.091 38.4641C43.091 38.6619 43.1579 38.8277 43.2918 38.9615C43.4256 39.0953 43.5914 39.1622 43.7891 39.1622ZM43.7907 49.7162C42.655 49.7162 41.5876 49.5007 40.5883 49.0697C39.5891 48.6388 38.7199 48.0539 37.9808 47.3151C37.2417 46.5763 36.6566 45.7075 36.2253 44.7087C35.7942 43.7099 35.5786 42.6427 35.5786 41.5072C35.5786 40.3716 35.7941 39.3041 36.2251 38.3049C36.6561 37.3056 37.241 36.4365 37.9798 35.6974C38.7186 34.9583 39.5874 34.3731 40.5862 33.9419C41.585 33.5107 42.6521 33.2952 43.7876 33.2952C44.9233 33.2952 45.9907 33.5107 46.9899 33.9416C47.9892 34.3726 48.8583 34.9575 49.5974 35.6963C50.3365 36.4351 50.9217 37.3039 51.353 38.3027C51.7841 39.3015 51.9997 40.3687 51.9997 41.5042C51.9997 42.6398 51.7842 43.7073 51.3532 44.7065C50.9222 45.7057 50.3373 46.5749 49.5985 47.314C48.8597 48.0531 47.9909 48.6383 46.9921 49.0695C45.9933 49.5007 44.9262 49.7162 43.7907 49.7162ZM43.7891 48.4198C45.7193 48.4198 47.3542 47.75 48.6938 46.4104C50.0335 45.0708 50.7033 43.4359 50.7033 41.5057C50.7033 39.5755 50.0335 37.9406 48.6938 36.601C47.3542 35.2614 45.7193 34.5916 43.7891 34.5916C41.8589 34.5916 40.224 35.2614 38.8844 36.601C37.5448 37.9406 36.875 39.5755 36.875 41.5057C36.875 43.4359 37.5448 45.0708 38.8844 46.4104C40.224 47.75 41.8589 48.4198 43.7891 48.4198Z" fill="url(#paint1_linear_17604_2715)"/>
<defs>
<linearGradient id="paint0_linear_17604_2715" x1="23.2632" y1="0.453125" x2="23.2632" y2="52.4531" gradientUnits="userSpaceOnUse">
<stop/>
<stop offset="1"/>
</linearGradient>
<linearGradient id="paint1_linear_17604_2715" x1="43.7891" y1="33.2952" x2="43.7891" y2="49.7162" gradientUnits="userSpaceOnUse">
<stop/>
<stop offset="1"/>
</linearGradient>
</defs>
</svg>
