<svg width="19" height="17" viewBox="0 0 19 17" fill="none" xmlns="http://www.w3.org/2000/svg">
<path d="M9.5 17L8.70575 16.2838C6.98792 14.7248 5.569 13.3829 4.449 12.258C3.32917 11.1332 2.43883 10.1349 1.778 9.263C1.117 8.39112 0.655417 7.60376 0.39325 6.90094C0.131083 6.19828 0 5.49373 0 4.78727C0 3.42851 0.4625 2.29099 1.3875 1.37469C2.3125 0.45823 3.45575 0 4.81725 0C5.74808 0 6.61125 0.232458 7.40675 0.697374C8.20225 1.16213 8.9 1.83771 9.5 2.72412C10.1743 1.80089 10.8979 1.11606 11.6708 0.669638C12.4436 0.223212 13.2809 0 14.1827 0C15.5443 0 16.6875 0.45823 17.6125 1.37469C18.5375 2.29099 19 3.42851 19 4.78727C19 5.49373 18.8689 6.19828 18.6068 6.90094C18.3446 7.60376 17.8834 8.39046 17.2232 9.26102C16.5631 10.1314 15.6727 11.1297 14.552 12.2558C13.4313 13.3821 12.0121 14.7248 10.2942 16.2838L9.5 17ZM9.5 15.5104C11.162 14.0032 12.5297 12.7115 13.603 11.6352C14.6763 10.5588 15.5291 9.61697 16.1613 8.80981C16.7934 8.00264 17.2355 7.28496 17.4875 6.65676C17.7393 6.02873 17.8652 5.40672 17.8652 4.79074C17.8652 3.73048 17.5185 2.8543 16.825 2.16221C16.1313 1.47012 15.2524 1.12407 14.1883 1.12407C13.3359 1.12407 12.5523 1.37609 11.8375 1.88014C11.1228 2.38435 10.4987 3.12919 9.96525 4.11466H9.01925C8.48975 3.13943 7.86767 2.39714 7.153 1.88782C6.43833 1.37865 5.65792 1.12407 4.81175 1.12407C3.75392 1.12407 2.87658 1.47012 2.17975 2.16221C1.48308 2.8543 1.13475 3.73295 1.13475 4.79817C1.13475 5.41316 1.26117 6.0364 1.514 6.6679C1.767 7.29924 2.20742 8.02055 2.83525 8.83185C3.46308 9.64314 4.319 10.584 5.403 11.6545C6.48683 12.7252 7.8525 14.0105 9.5 15.5104Z" fill="url(#paint0_linear_5295_6077)"/>
<defs>
<linearGradient id="paint0_linear_5295_6077" x1="9.5" y1="0" x2="9.5" y2="17" gradientUnits="userSpaceOnUse">
<stop/>
<stop offset="1"/>
</linearGradient>
</defs>
</svg>
