<svg width="25" height="25" viewBox="0 0 25 25" fill="none" xmlns="http://www.w3.org/2000/svg">
<path fill-rule="evenodd" clip-rule="evenodd" d="M12.5 10.5493C13.5767 10.5493 14.4501 11.4227 14.4501 12.4984C14.4501 13.5752 13.5768 14.455 12.5 14.455C11.4167 14.455 10.5435 13.5752 10.5435 12.4984C10.5435 11.4227 11.4167 10.5493 12.5 10.5493ZM12.5 25C19.3707 25 25 19.3779 25 12.4994C25 5.62734 19.3718 0 12.5 0C5.62293 0 0 5.62845 0 12.4994C0 19.3779 5.62293 25 12.5 25ZM12.5 0.638312C19.02 0.638312 24.3595 5.9778 24.3595 12.4992C24.3595 19.0194 19.0202 24.36 12.5 24.36C5.97338 24.36 0.639671 19.0205 0.639671 12.4992C0.639671 5.97891 5.97366 0.638312 12.5 0.638312ZM20.9212 9.15856H19.9798C19.7525 9.15856 19.561 9.34253 19.561 9.57088V9.64447H5.4312V9.57088C5.4312 9.34362 5.24723 9.15856 5.01889 9.15856H4.07743C5.40633 5.80576 8.67229 3.43813 12.4987 3.43813C16.3198 3.43813 19.5859 5.80709 20.9212 9.15856ZM11.3431 19.5608V17.5619C11.3431 14.8066 9.09114 12.548 6.33602 12.548H5.43134V10.284H19.5611V12.548H18.6629C15.9067 12.548 13.6492 14.8055 13.6492 17.5619V19.5608H11.3431ZM10.7036 19.5608H10.63C10.4027 19.5608 10.2177 19.7458 10.2177 19.9796V21.2663C6.6866 20.3562 3.9919 17.3661 3.51901 13.6811H5.01997C5.24722 13.6811 5.43228 13.4906 5.43228 13.2623V13.1887H6.33695C8.73612 13.1887 10.7047 15.1572 10.7047 17.5619L10.7036 19.5608ZM10.4514 21.9849C10.6668 22.0401 10.8572 21.8745 10.8572 21.6581V20.2014H14.0993V21.6722C14.0993 21.8864 14.2898 22.0477 14.4986 21.9914C18.6076 21.131 21.7566 17.6734 22.1572 13.416C22.1875 13.2072 22.0274 13.0405 21.825 13.0405H20.2017V9.79823H21.3824C21.6096 9.79823 21.7579 9.55906 21.6778 9.3621C20.3738 5.54192 16.756 2.79863 12.5 2.79863C8.24282 2.79863 4.62616 5.54201 3.31579 9.3621C3.23571 9.55906 3.38289 9.79823 3.6177 9.79823H4.79293V13.0405H3.1686C2.96624 13.0405 2.80608 13.2071 2.84287 13.416C3.2357 17.6551 6.36628 21.105 10.4514 21.9849ZM14.739 21.2782V19.9796C14.739 19.7458 14.5551 19.5608 14.3203 19.5608H14.29V17.5619C14.29 15.1562 16.2584 13.1888 18.664 13.1888H19.5622V13.2624C19.5622 13.4896 19.7527 13.6812 19.981 13.6812H21.482C21.0015 17.3781 18.2887 20.3734 14.739 21.2782ZM12.5001 11.1888C13.2262 11.1888 13.8106 11.7732 13.8106 12.4994C13.8106 13.2255 13.2262 13.8099 12.5001 13.8099C11.7739 13.8099 11.1831 13.2255 11.1831 12.4994C11.1831 11.7732 11.7739 11.1888 12.5001 11.1888Z" fill="#D42224"/>
</svg>
