<svg width="18" height="17" viewBox="0 0 18 17" fill="none" xmlns="http://www.w3.org/2000/svg">
<path d="M9.08992 13.4108C9.28811 13.4108 9.45632 13.34 9.59455 13.1985C9.73279 13.0571 9.80191 12.8874 9.80191 12.6894C9.80191 12.4969 9.73257 12.3301 9.59388 12.189C9.45535 12.0479 9.28706 11.9774 9.08903 11.9774C8.89084 11.9774 8.72122 12.0481 8.58014 12.1894C8.43907 12.331 8.36854 12.4979 8.36854 12.6903C8.36854 12.8883 8.43922 13.0579 8.58059 13.1992C8.72211 13.3402 8.89189 13.4108 9.08992 13.4108ZM8.47009 10.3342H9.48875C9.49442 9.96946 9.55146 9.64109 9.65987 9.34911C9.76828 9.05712 10.0445 8.72249 10.4884 8.34521C10.9334 7.95167 11.25 7.57999 11.4382 7.23014C11.6262 6.8803 11.7202 6.49512 11.7202 6.07459C11.7202 5.33763 11.4791 4.74203 10.9968 4.2878C10.5144 3.83357 9.89071 3.60646 9.12571 3.60646C8.46375 3.60646 7.87755 3.77624 7.36711 4.11579C6.85666 4.45534 6.48042 4.89988 6.2384 5.44939L7.17429 5.81065C7.34414 5.41025 7.58594 5.09881 7.8997 4.87632C8.21345 4.65382 8.59975 4.54258 9.05861 4.54258C9.60574 4.54258 10.033 4.692 10.3403 4.99084C10.6478 5.28954 10.8016 5.65802 10.8016 6.09629C10.8016 6.41854 10.7104 6.71791 10.528 6.99438C10.3456 7.27086 10.0823 7.5571 9.73816 7.85311C9.30227 8.24082 8.98196 8.62333 8.77721 9.00061C8.57247 9.37804 8.47009 9.82257 8.47009 10.3342ZM9.00157 17C7.83513 17 6.73609 16.7769 5.70446 16.3307C4.67283 15.8846 3.77071 15.2753 2.99811 14.503C2.2255 13.7307 1.61596 12.829 1.16949 11.7978C0.723162 10.7667 0.5 9.668 0.5 8.50157C0.5 7.32588 0.723088 6.22081 1.16926 5.18634C1.61544 4.15188 2.22468 3.25207 2.99699 2.48692C3.76929 1.72177 4.67104 1.11596 5.70222 0.669487C6.73326 0.223162 7.832 0 8.99843 0C10.1741 0 11.2792 0.223087 12.3137 0.669263C13.3481 1.11544 14.2479 1.72095 15.0131 2.4858C15.7782 3.25065 16.384 4.15009 16.8305 5.18411C17.2768 6.21812 17.5 7.3229 17.5 8.49843C17.5 9.66487 17.2769 10.7639 16.8307 11.7955C16.3846 12.8272 15.779 13.7293 15.0142 14.5019C14.2493 15.2745 13.3499 15.884 12.3159 16.3305C11.2819 16.7768 10.1771 17 9.00157 17ZM9 15.9847C11.0831 15.9847 12.8513 15.2558 14.3047 13.798C15.758 12.34 16.4847 10.574 16.4847 8.5C16.4847 6.4169 15.758 4.64868 14.3047 3.19533C12.8513 1.74198 11.0831 1.0153 9 1.0153C6.926 1.0153 5.16001 1.74198 3.70204 3.19533C2.24421 4.64868 1.5153 6.4169 1.5153 8.5C1.5153 10.574 2.24421 12.34 3.70204 13.798C5.16001 15.2558 6.926 15.9847 9 15.9847Z" fill="url(#paint0_linear_2719_7985)"/>
<defs>
<linearGradient id="paint0_linear_2719_7985" x1="9" y1="0" x2="9" y2="17" gradientUnits="userSpaceOnUse">
<stop/>
<stop offset="1"/>
</linearGradient>
</defs>
</svg>
