<svg width="22" height="25" viewBox="0 0 22 25" fill="none" xmlns="http://www.w3.org/2000/svg">
<path d="M21.7336 6.76908C21.5573 6.54367 21.3074 6.38404 21.0254 6.31673L21.2916 5.22515C21.3479 5.18504 21.4008 5.14056 21.4497 5.09214C21.5693 4.9744 21.6635 4.83447 21.7269 4.68058C21.7902 4.5267 21.8214 4.36197 21.8186 4.19612L21.7845 1.74245C21.7762 1.27869 21.5823 0.836573 21.2444 0.510859C20.9065 0.185145 20.4515 0.00175663 19.9769 1.64885e-09H18.5991C18.3696 -1.02715e-05 18.1428 0.047985 17.9338 0.14076C17.7249 0.233536 17.5387 0.368941 17.3878 0.537878C17.2369 0.706815 17.1247 0.905368 17.0588 1.1202C16.9929 1.33502 16.9748 1.56114 17.0058 1.78337L17.2122 3.26699C17.2835 3.76638 17.5047 4.23392 17.8477 4.61057C18.1908 4.98721 18.6403 5.25608 19.1396 5.38321L18.8201 6.58163C18.4661 6.797 18.1888 7.11384 18.0258 7.48893L13.116 16.7639C13.1148 16.7662 13.1136 16.7685 13.1124 16.7708C12.7296 17.5499 12.6484 18.4382 12.8839 19.2712C13.1155 20.0892 13.6376 20.8094 14.4016 21.3723C14.3004 21.462 14.2082 21.561 14.1263 21.6679C13.112 20.8298 11.8821 20.2792 10.5701 20.0761L3.98906 18.9323C3.49665 18.856 2.99314 18.8848 2.51325 19.017C2.03335 19.1491 1.58849 19.3814 1.20931 19.6978C0.830133 20.0142 0.525665 20.4072 0.316891 20.8497C0.108117 21.2922 2.52346e-06 21.7736 0 22.2609C0.000815102 22.9826 0.294493 23.6745 0.816609 24.1848C1.33872 24.6951 2.04664 24.9822 2.78507 24.9831L15.8383 25H15.8386C17.0021 25 17.9485 24.0619 17.9485 22.9088C17.9485 22.8421 17.9449 22.7762 17.9386 22.7112L21.9563 7.85327C22.0073 7.66801 22.0138 7.47373 21.9751 7.28563C21.9365 7.09754 21.8538 6.92074 21.7336 6.76908ZM17.7295 3.19816L17.5229 1.71454C17.502 1.56446 17.5142 1.41174 17.5587 1.26665C17.6033 1.12156 17.679 0.98747 17.781 0.873382C17.8829 0.759294 18.0087 0.667856 18.1498 0.605213C18.2909 0.54257 18.4441 0.510175 18.5991 0.510204H19.9769C20.3144 0.511488 20.6379 0.641926 20.8782 0.873562C21.1185 1.1052 21.2563 1.4196 21.2622 1.74939L21.2964 4.20306C21.2977 4.30126 21.2791 4.39874 21.2416 4.48985C21.2041 4.58097 21.1485 4.66389 21.0779 4.7338C21.0074 4.80371 20.9233 4.85922 20.8306 4.89711C20.7379 4.93499 20.6384 4.9545 20.5379 4.95449H19.7878C19.2859 4.95294 18.8014 4.77445 18.4232 4.45181C18.0451 4.12917 17.7988 3.68403 17.7296 3.19816H17.7295ZM20.6987 5.45464L20.4975 6.28061H19.8949C19.7368 6.28077 19.5793 6.29889 19.4254 6.33459L19.6583 5.46143L20.6987 5.45464ZM3.77565 24.4745L2.78538 24.4732C2.1853 24.4726 1.60997 24.2393 1.18565 23.8246C0.761326 23.4099 0.522669 22.8476 0.522047 22.2612C0.522051 21.8481 0.613623 21.4399 0.790463 21.0646C0.967302 20.6894 1.22521 20.3561 1.54645 20.0876C1.86769 19.8191 2.24463 19.6218 2.65134 19.5093C3.05805 19.3967 3.48488 19.3716 3.90246 19.4357L10.4834 20.5795C11.7357 20.7728 12.907 21.3066 13.8635 22.1198C13.7578 22.3701 13.7034 22.6383 13.7036 22.9091C13.7036 22.9206 13.7044 22.9319 13.7046 22.9434C12.1349 21.9805 10.3773 21.3476 8.54361 21.0851L7.13518 20.8861C6.47103 20.7921 5.79502 20.9459 5.24152 21.3167C4.68801 21.6875 4.29752 22.2483 4.14766 22.8876L3.77565 24.4745ZM6.0949 24.4774L4.31111 24.4752L4.65655 23.0012C4.7796 22.4882 5.09437 22.0386 5.53909 21.7406C5.98382 21.4427 6.52641 21.3179 7.06042 21.3908L8.4689 21.5897C10.3056 21.8522 12.0621 22.5015 13.6167 23.4928L13.8369 23.6336C13.859 23.6919 13.8833 23.7491 13.9105 23.8049L10.637 23.07C9.89322 22.9023 9.11866 22.9164 8.38183 23.1111C7.645 23.3057 6.96861 23.6748 6.41251 24.1857L6.0949 24.4774ZM6.85938 24.4785C7.3511 24.0525 7.93991 23.7475 8.57671 23.5891C9.2135 23.4306 9.87983 23.4233 10.5201 23.5676L14.3813 24.4345C14.4011 24.4527 14.4209 24.4708 14.4414 24.4883L6.85938 24.4785ZM15.8386 24.4901C15.5198 24.4942 15.207 24.4057 14.9397 24.2359C14.6725 24.066 14.4629 23.8224 14.3375 23.5359C14.2122 23.2494 14.1767 22.933 14.2357 22.6268C14.2946 22.3206 14.4453 22.0384 14.6686 21.8161C14.8918 21.5937 15.1777 21.4411 15.4898 21.3778C15.8019 21.3144 16.1263 21.3431 16.4217 21.4601C16.7172 21.5772 16.9704 21.7774 17.1492 22.0353C17.328 22.2932 17.4245 22.5973 17.4262 22.9088C17.4262 23.7806 16.7142 24.4898 15.8386 24.4898L15.8386 24.4901ZM17.9984 20.4932L16.7117 18.563C16.4855 18.2259 16.3513 17.8378 16.3219 17.4357C16.2926 17.0336 16.369 16.6309 16.544 16.2658L19.0627 10.9648C19.2467 10.5789 19.5101 10.2343 19.8365 9.95241C20.1629 9.67053 20.5452 9.45746 20.9597 9.32653L21.0234 9.30648L17.9984 20.4932ZM21.4516 7.72276L21.1818 8.72041L20.7998 8.84061C20.3168 8.99319 19.8711 9.2415 19.4907 9.57004C19.1103 9.89857 18.8033 10.3003 18.589 10.75L16.0703 16.051C15.8578 16.4945 15.765 16.9837 15.8007 17.4721C15.8365 17.9606 15.9995 18.4319 16.2743 18.8413L17.8187 21.158L17.6373 21.8288C17.3587 21.3813 16.9168 21.0537 16.4008 20.9119C15.8848 20.7701 15.3329 20.8246 14.8565 21.0646C13.1646 19.9157 12.9891 18.2062 13.5815 16.9949L18.4986 7.70526C18.6136 7.43554 18.8074 7.20494 19.0557 7.04229C19.3041 6.87964 19.596 6.79217 19.8949 6.79082H20.7185C20.8347 6.79081 20.9494 6.81691 21.0537 6.8671C21.1579 6.91729 21.249 6.99023 21.3199 7.08029C21.3907 7.17035 21.4395 7.27512 21.4623 7.3865C21.4852 7.49789 21.4815 7.61292 21.4516 7.7227L21.4516 7.72276Z" fill="#D42224"/>
</svg>
