<svg width="78" height="20" viewBox="0 0 78 20" fill="none" xmlns="http://www.w3.org/2000/svg">
<path d="M28.5215 4.94775H31.7063C32.7198 4.94775 33.3512 5.42347 34.0618 6.36114L39.3083 14.8099H39.3494V4.94775H40.9136C41.7332 4.94775 42.3704 5.561 42.3704 6.40726V19.6488H41.1857C39.7653 19.6488 39.1136 19.3502 38.2375 18.186L33.0403 9.80683H32.9992V19.6488H31.435C30.6598 19.6488 29.9782 19.0792 29.9782 18.1893V6.40726C29.9782 5.60955 29.3492 4.94775 28.5215 4.94775Z" fill="white"/>
<path d="M45.5867 4.94775H57.5993C58.4722 4.94775 59.0561 5.65323 59.0561 6.40726V7.89022H54.6576V19.6488H52.8883C52.0808 19.6488 51.4315 19.0695 51.4315 18.1893V7.89022H48.4906C47.6508 7.89022 47.0338 7.25028 47.0338 6.40726C47.0338 5.62249 46.4282 4.94775 45.5859 4.94775" fill="white"/>
<path d="M20.0684 18.1891V8.38599H21.8376C22.6354 8.38599 23.2944 8.98872 23.2944 9.84549V19.6486H21.5251C20.7305 19.6486 20.0684 19.0224 20.0684 18.1891Z" fill="white"/>
<path d="M2.42355 6.40726V18.1885C2.42355 19.0185 3.05584 19.648 3.88031 19.648H5.64957V14.2339H5.65038L9.69683 18.36C10.8952 19.5315 11.6268 19.6488 12.6362 19.6488H14.9885L7.5973 12.2979L14.9885 4.94775H10.9606L5.65119 10.3626H5.65038L5.63827 6.40726C5.63827 5.68317 5.0504 4.94775 4.18151 4.94775H0.966797C1.7622 4.94775 2.42355 5.67022 2.42355 6.40726Z" fill="white"/>
<path d="M69.3488 4.59888C65.1037 4.59888 61.6621 8.04619 61.6621 12.2993C61.6621 16.5524 65.1037 20.0005 69.3488 20.0005C73.5939 20.0005 77.0339 16.5524 77.0339 12.2993C77.0339 8.04619 73.5931 4.59888 69.3488 4.59888ZM69.3488 17.0483C66.7309 17.0483 64.6087 14.9222 64.6087 12.2993C64.6087 9.6764 66.7309 7.55025 69.3488 7.55025C71.9668 7.55025 74.0889 9.6764 74.0889 12.2993C74.0889 14.9222 71.9668 17.0483 69.3488 17.0483Z" fill="white"/>
<path d="M21.7983 3.49145C21.3735 3.16298 20.6952 3.08531 20.1033 3.48983C19.2909 4.04483 19.2037 5.06341 19.643 5.85141C20.0775 6.63213 20.8987 6.90235 21.837 6.8174C22.8989 6.72112 23.7484 6.13781 24.2442 5.46145C24.69 4.85225 25.1688 3.37899 24.22 1.97369C23.4965 0.902526 22.5541 0.560303 21.5439 0.560303C20.4312 0.561112 19.6648 1.39766 19.1327 2.0279C18.3074 3.00683 17.9311 3.22285 17.2213 3.28191C16.5123 3.34097 15.8525 3.03758 15.5263 2.70102C15.1993 2.36446 15.0176 2.11285 15.0176 2.11285C15.0176 2.11285 15.4133 2.85231 15.9446 3.29404C16.5155 3.76895 17.3981 4.00195 18.3405 3.66134C19.4605 3.25602 20.0742 2.56429 20.4489 2.34989C21.212 1.9122 22.2513 2.26818 22.4717 3.05376C22.7277 3.96473 22.2359 4.5796 22.2359 4.5796C22.2359 4.5796 22.4055 3.96069 21.7983 3.49145Z" fill="white"/>
</svg>
