<svg width="126" height="22" viewBox="0 0 126 22" fill="none" xmlns="http://www.w3.org/2000/svg">
<path d="M23.6546 1.67941C21.6746 1.04432 19.2015 0.663269 16.5267 0.663269C13.8518 0.663269 11.3787 1.03685 9.39872 1.67941C4.12375 3.37547 0.5 6.89461 0.5 10.9667C0.5 16.6899 7.67279 21.3373 16.5267 21.3373C25.3806 21.3373 32.5534 16.6974 32.5534 10.9667C32.5534 6.89461 28.9296 3.37547 23.6546 1.67941ZM16.5267 16.8767C15.2042 16.8767 14.1283 14.2766 14.061 11.019C14.853 11.0937 15.6824 11.131 16.5267 11.131C17.371 11.131 18.1929 11.0937 18.9923 11.019C18.9251 14.2841 17.8491 16.8767 16.5267 16.8767ZM14.2329 8.46366C14.5915 6.16988 15.4881 4.54853 16.5267 4.54853C17.5652 4.54853 18.4618 6.16988 18.8205 8.46366C18.0882 8.53089 17.3187 8.56827 16.5267 8.56827C15.7347 8.56827 14.9651 8.53089 14.2329 8.46366ZM20.2251 8.29182C19.6872 4.69794 18.2377 2.12024 16.5267 2.12024C14.8157 2.12024 13.3587 4.69794 12.8282 8.29182C9.57056 7.78374 7.2992 6.62563 7.2992 5.28075C7.2992 3.46513 11.431 1.99322 16.5341 1.99322C21.6373 1.99322 25.7616 3.46513 25.7616 5.28075C25.7616 6.62563 23.4828 7.78374 20.2326 8.29182M2.83862 10.5856C2.83862 8.82976 3.51106 7.18601 4.6916 5.76641C4.67664 5.86352 4.66918 5.96067 4.66918 6.06527C4.66918 8.27687 7.98658 10.1522 12.6115 10.8396C12.6115 11.004 12.6115 11.1759 12.6115 11.3402C12.6115 15.4496 13.7472 18.924 15.3237 20.1194C8.33029 19.6935 2.83862 15.5841 2.83862 10.5781M17.7371 20.1194C19.3136 18.924 20.4493 15.4422 20.4493 11.3402C20.4493 11.1684 20.4493 11.004 20.4493 10.8396C25.0742 10.1522 28.3916 8.2694 28.3916 6.06527C28.3916 5.96813 28.3842 5.86352 28.3692 5.76641C29.5497 7.17855 30.2222 8.82976 30.2222 10.5856C30.2222 15.5916 24.738 19.701 17.7371 20.1269" fill="url(#paint0_linear_5010_4657)"/>
<path d="M49.6504 3.62061H36.9636V6.42247H41.6482V18.3846H44.9732L44.9655 6.42247H49.6504V3.62061Z" fill="url(#paint1_linear_5010_4657)"/>
<path d="M58.2274 3.17505C53.9015 3.17505 50.3972 6.67926 50.3972 11.0053C50.3972 15.3314 53.9015 18.8356 58.2274 18.8356C62.5536 18.8356 66.0579 15.3314 66.0579 11.0053C66.0579 6.67926 62.5536 3.17505 58.2274 3.17505ZM62.0604 13.3738C61.5524 14.6664 60.3942 15.6377 58.9971 15.8843C58.7505 15.9291 58.4891 15.9516 58.2274 15.9516C57.9661 15.9516 57.7044 15.9291 57.4581 15.8843C56.0533 15.6377 54.9028 14.6664 54.3945 13.3738C54.1033 12.6416 53.9464 11.8422 53.9464 11.0053C53.9464 10.1685 54.1033 9.36905 54.3945 8.63683C54.9028 7.34422 56.0606 6.3729 57.4581 6.12634C57.7044 6.08153 57.9661 6.05911 58.2274 6.05911C58.4891 6.05911 58.7505 6.08153 58.9971 6.12634C60.4019 6.3729 61.5524 7.34422 62.0604 8.63683C62.3518 9.36905 62.5088 10.1685 62.5088 11.0053C62.5088 11.8422 62.3518 12.6416 62.0604 13.3738Z" fill="url(#paint2_linear_5010_4657)"/>
<path d="M66.1033 3.62061H70.0182L73.6721 9.97151L77.3331 3.62061H81.2407L75.3383 12.9228V18.3846H72.0133V12.9228L66.1033 3.62061Z" fill="url(#paint3_linear_5010_4657)"/>
<path d="M81.3025 11.0053C81.3025 6.68672 84.8065 3.17505 89.1327 3.17505C93.4586 3.17505 96.9555 6.67926 96.9555 11.0053C96.9555 15.3314 93.4512 18.8356 89.1327 18.8356C84.8142 18.8356 81.3025 15.3314 81.3025 11.0053ZM89.1327 15.9516C89.3941 15.9516 89.6557 15.9291 89.9024 15.8843C91.3069 15.6377 92.4577 14.6664 92.9657 13.3738C93.2571 12.6416 93.4138 11.8422 93.4138 11.0053C93.4138 10.1685 93.2571 9.36905 92.9657 8.63683C92.4577 7.34422 91.2995 6.3729 89.9024 6.12634C89.6557 6.08153 89.3941 6.05911 89.1327 6.05911C88.871 6.05911 88.6097 6.08153 88.363 6.12634C86.9586 6.3729 85.8004 7.34422 85.2998 8.63683C85.0083 9.36905 84.8514 10.1685 84.8514 11.0053C84.8514 11.8422 85.0083 12.6416 85.2998 13.3738C85.8077 14.6664 86.9659 15.6377 88.363 15.8843C88.6097 15.9291 88.871 15.9516 89.1327 15.9516Z" fill="url(#paint4_linear_5010_4657)"/>
<path d="M120.59 15.1279H114.299L113.089 18.3781H109.398L115.383 3.60663H119.515L125.499 18.3781H121.808L120.59 15.1279ZM119.627 12.5427L117.452 6.70735L115.271 12.5427H119.627Z" fill="url(#paint5_linear_5010_4657)"/>
<path d="M110.369 3.62061H97.6824V6.42247H102.367V18.3846H105.692L105.684 6.42247H110.369V3.62061Z" fill="url(#paint6_linear_5010_4657)"/>
<defs>
<linearGradient id="paint0_linear_5010_4657" x1="16.5267" y1="0.663269" x2="16.5267" y2="21.3373" gradientUnits="userSpaceOnUse">
<stop/>
<stop offset="1"/>
</linearGradient>
<linearGradient id="paint1_linear_5010_4657" x1="43.307" y1="3.62061" x2="43.307" y2="18.3846" gradientUnits="userSpaceOnUse">
<stop/>
<stop offset="1"/>
</linearGradient>
<linearGradient id="paint2_linear_5010_4657" x1="58.2276" y1="3.17505" x2="58.2276" y2="18.8356" gradientUnits="userSpaceOnUse">
<stop/>
<stop offset="1"/>
</linearGradient>
<linearGradient id="paint3_linear_5010_4657" x1="73.672" y1="3.62061" x2="73.672" y2="18.3846" gradientUnits="userSpaceOnUse">
<stop/>
<stop offset="1"/>
</linearGradient>
<linearGradient id="paint4_linear_5010_4657" x1="89.129" y1="3.17505" x2="89.129" y2="18.8356" gradientUnits="userSpaceOnUse">
<stop/>
<stop offset="1"/>
</linearGradient>
<linearGradient id="paint5_linear_5010_4657" x1="117.449" y1="3.60663" x2="117.449" y2="18.3781" gradientUnits="userSpaceOnUse">
<stop/>
<stop offset="1"/>
</linearGradient>
<linearGradient id="paint6_linear_5010_4657" x1="104.026" y1="3.62061" x2="104.026" y2="18.3846" gradientUnits="userSpaceOnUse">
<stop/>
<stop offset="1"/>
</linearGradient>
</defs>
</svg>
