<svg width="38" height="30" viewBox="0 0 38 30" fill="none" xmlns="http://www.w3.org/2000/svg">
<path d="M15.8115 22.2095C16.4885 22.8928 17.4558 23.203 18.7135 23.14C19.9712 23.0773 20.882 22.6127 21.446 21.746L32.0155 5.9115L16.2845 16.5535C15.4255 17.1305 14.9627 18.0465 14.896 19.3015C14.8293 20.5568 15.1345 21.5262 15.8115 22.2095ZM18.919 0C20.7807 0 22.6358 0.276167 24.4845 0.8285C26.3332 1.38117 28.137 2.305 29.896 3.6L27.95 5.0265C26.527 4.09084 25.0083 3.39733 23.394 2.946C21.78 2.49467 20.2898 2.269 18.9235 2.269C14.3015 2.269 10.3703 3.9095 7.13 7.1905C3.88967 10.4712 2.2695 14.445 2.2695 19.112C2.2695 20.586 2.47133 22.0672 2.875 23.5555C3.279 25.0438 3.8595 26.4252 4.6165 27.6995H33.196C33.9423 26.4868 34.5225 25.1093 34.9365 23.567C35.3505 22.0247 35.5575 20.4997 35.5575 18.992C35.5575 17.6433 35.3588 16.1767 34.9615 14.592C34.5642 13.0073 33.877 11.5573 32.9 10.242L34.3885 8.296C35.5782 10.1243 36.4352 11.8935 36.9595 13.6035C37.4838 15.3138 37.773 17.042 37.827 18.788C37.868 20.66 37.6743 22.4152 37.246 24.0535C36.818 25.6922 36.1732 27.255 35.3115 28.742C35.0142 29.2907 34.695 29.6323 34.354 29.767C34.013 29.9017 33.5797 29.969 33.054 29.969H4.754C4.32667 29.969 3.90567 29.8562 3.491 29.6305C3.07667 29.4048 2.76167 29.083 2.546 28.665C1.782 27.2703 1.16667 25.796 0.7 24.242C0.233333 22.6883 0 20.9782 0 19.1115C0 16.4985 0.495667 14.032 1.487 11.712C2.47833 9.392 3.82633 7.36767 5.531 5.639C7.236 3.91033 9.24217 2.53833 11.5495 1.523C13.8568 0.507668 16.3133 0 18.919 0Z" fill="#D42224"/>
</svg>
