<svg width="186" height="225" viewBox="0 0 186 225" fill="none" xmlns="http://www.w3.org/2000/svg">
<path id="Vector" opacity="0.4" d="M74.2741 225C59.0612 225 44.6914 222.043 31.1646 216.13C17.636 210.217 5.82382 202.166 -4.27182 191.978C-14.3694 181.792 -22.3485 169.855 -28.2091 156.168C-34.0697 142.48 -37 127.924 -37 112.5C-37 96.7164 -34.01 81.9809 -28.0301 68.2934C-22.0522 54.6059 -13.898 42.6997 -3.5676 32.5747C6.76082 22.4477 18.8635 14.4868 32.7403 8.6921C46.6172 2.89736 61.4349 0 77.1936 0C91.7845 0 105.648 2.47105 118.783 7.41315C131.921 12.3553 143.458 19.2286 153.395 28.0332C163.334 36.8398 171.253 47.2944 177.15 59.397C183.05 71.4997 186 84.7066 186 99.0178C186 118.845 180.293 134.597 168.879 146.274C157.467 157.948 142.133 163.785 122.876 163.785H101.495C97.2812 163.785 93.7171 165.314 90.8025 168.371C87.8898 171.426 86.4334 174.979 86.4334 179.029C86.4334 184.155 87.88 188.524 90.7731 192.138C93.6663 195.752 95.1128 199.929 95.1128 204.67C95.1128 211.315 93.2799 216.365 89.6141 219.819C85.9483 223.273 80.835 225 74.2741 225ZM8.08121 119.377C11.6825 119.377 14.7898 118.059 17.4032 115.422C20.0166 112.785 21.3233 109.65 21.3233 106.016C21.3233 102.383 20.0166 99.2477 17.4032 96.6109C14.7898 93.976 11.6825 92.6585 8.08121 92.6585C4.47996 92.6585 1.37263 93.976 -1.24078 96.6109C-3.85418 99.2477 -5.16088 102.383 -5.16088 106.016C-5.16088 109.65 -3.85418 112.785 -1.24078 115.422C1.37263 118.059 4.47996 119.377 8.08121 119.377ZM44.1661 70.5671C47.7674 70.5671 50.8737 69.2487 53.4852 66.6118C56.0986 63.975 57.4053 60.8398 57.4053 57.2062C57.4053 53.5727 56.0986 50.4375 53.4852 47.8007C50.8737 45.1638 47.7674 43.8454 44.1661 43.8454C40.5649 43.8454 37.4576 45.1638 34.8441 47.8007C32.2307 50.4375 30.924 53.5727 30.924 57.2062C30.924 60.8398 32.2307 63.975 34.8441 66.6118C37.4576 69.2487 40.5649 70.5671 44.1661 70.5671ZM104.834 70.5671C108.435 70.5671 111.542 69.2487 114.156 66.6118C116.769 63.975 118.076 60.8398 118.076 57.2062C118.076 53.5727 116.769 50.4375 114.156 47.8007C111.542 45.1638 108.435 43.8454 104.834 43.8454C101.233 43.8454 98.1263 45.1638 95.5148 47.8007C92.9014 50.4375 91.5947 53.5727 91.5947 57.2062C91.5947 60.8398 92.9014 63.975 95.5148 66.6118C98.1263 69.2487 101.233 70.5671 104.834 70.5671ZM141.597 119.377C145.198 119.377 148.305 118.059 150.919 115.422C153.53 112.785 154.836 109.65 154.836 106.016C154.836 102.383 153.53 99.2477 150.919 96.6109C148.305 93.976 145.198 92.6585 141.597 92.6585C137.995 92.6585 134.888 93.976 132.275 96.6109C129.661 99.2477 128.354 102.383 128.354 106.016C128.354 109.65 129.661 112.785 132.275 115.422C134.888 118.059 137.995 119.377 141.597 119.377ZM74.2741 210.12C76.3456 210.12 77.8792 209.666 78.8749 208.759C79.8706 207.851 80.3684 206.488 80.3684 204.67C80.3684 201.907 78.9219 199.137 76.0287 196.36C73.1336 193.581 71.6861 188.37 71.6861 180.728C71.6861 171.914 74.5753 164.406 80.3538 158.205C86.1322 152.005 93.3142 148.906 101.9 148.906H122.876C137.643 148.906 149.398 144.529 158.14 135.776C166.882 127.02 171.253 114.768 171.253 99.0178C171.253 74.0171 161.799 53.7444 142.891 38.1997C123.981 22.653 102.082 14.8796 77.1936 14.8796C49.4105 14.8796 25.8909 24.3178 6.63465 43.1941C-12.6236 62.0704 -22.2527 85.1724 -22.2527 112.5C-22.2527 139.498 -12.8299 162.518 6.01553 181.56C24.8629 200.6 47.6158 210.12 74.2741 210.12Z" fill="#B941D0"/>
</svg>
