<svg width="33" height="42" viewBox="0 0 33 42" fill="none" xmlns="http://www.w3.org/2000/svg">
<path d="M0.675781 35.2267V32.3077H4.29128V16.4617C4.29128 13.6203 5.14645 11.0722 6.85678 8.81717C8.56678 6.56217 10.8231 5.13333 13.6258 4.53067V0.857666H19.3258V4.53067C22.1284 5.13333 24.3931 6.55633 26.1198 8.79967C27.8468 11.043 28.7103 13.597 28.7103 16.4617V32.3077H32.3258V35.2267H0.675781ZM16.4708 41.1422C15.3924 41.1422 14.4711 40.7588 13.7068 39.9922C12.9424 39.2255 12.5603 38.3037 12.5603 37.2267H20.3913C20.3913 38.3243 20.0073 39.2513 19.2393 40.0077C18.4716 40.764 17.5488 41.1422 16.4708 41.1422ZM7.21028 32.3077H25.7913V16.4617C25.7913 13.9027 24.8771 11.7187 23.0488 9.90967C21.2204 8.10067 19.0281 7.19617 16.4718 7.19617C13.9154 7.19617 11.7328 8.10067 9.92378 9.90967C8.11478 11.7187 7.21028 13.9027 7.21028 16.4617V32.3077ZM15.0413 22.4732H17.9603V12.1077H15.0413V22.4732ZM16.4723 28.4232C16.9246 28.4232 17.3236 28.2565 17.6693 27.9232C18.0146 27.5898 18.1873 27.192 18.1873 26.7297C18.1873 26.2677 18.0191 25.8722 17.6828 25.5432C17.3464 25.2145 16.9449 25.0502 16.4783 25.0502C16.0259 25.0502 15.6354 25.2137 15.3068 25.5407C14.9784 25.8677 14.8143 26.2623 14.8143 26.7247C14.8143 27.187 14.9776 27.5857 15.3043 27.9207C15.6306 28.2557 16.0199 28.4232 16.4723 28.4232Z" fill="#D42224"/>
</svg>
