<svg width="122" height="213" viewBox="0 0 122 213" fill="none" xmlns="http://www.w3.org/2000/svg">
<path id="Vector" opacity="0.4" d="M31.7847 211.427C26.7195 212.78 21.4776 213.244 16.059 212.819C10.6403 212.394 5.59278 210.9 0.916339 208.338C5.13356 204.919 7.99536 200.896 9.50176 196.27C11.0082 191.644 10.9313 186.225 9.27126 180.011C7.45799 173.225 8.27457 166.855 11.721 160.901C15.1692 154.947 20.2905 151.062 27.0849 149.247C33.8793 147.432 40.2583 148.244 46.2219 151.683C52.1872 155.122 56.0765 160.235 57.8898 167.021C60.549 176.974 59.3226 186.206 54.2105 194.717C49.0967 203.229 41.6214 208.799 31.7847 211.427ZM28.264 198.25C34.1772 196.67 38.8005 193.168 42.1338 187.745C45.4654 182.322 46.3236 176.588 44.7084 170.543C43.8569 167.356 42.0974 164.991 39.4299 163.449C36.7646 161.908 33.8112 161.57 30.5696 162.437C27.3263 163.303 24.9496 165.065 23.4396 167.721C21.9284 170.38 21.5985 173.303 22.45 176.49C23.891 181.883 24.4393 186.386 24.0948 189.997C23.7526 193.61 22.4513 196.715 20.191 199.311C21.1536 199.303 22.5034 199.188 24.2404 198.965C25.9769 198.741 27.3181 198.503 28.264 198.25ZM71.9944 138.644L45.3982 122.698L112.914 5.96686C114.47 3.21378 116.708 1.40018 119.629 0.526072C122.548 -0.347569 125.502 0.0788026 128.49 1.80518L135.511 5.80685C138.454 7.54711 140.298 9.88626 141.044 12.8243C141.791 15.7601 141.349 18.6708 139.719 21.5563L71.9944 138.644Z" fill="#B941D0"/>
</svg>
