<svg width="50" height="53" viewBox="0 0 50 53" fill="none" xmlns="http://www.w3.org/2000/svg">
<path d="M6.35089 52.4531C4.57421 52.4531 3.07167 51.8387 1.84328 50.6099C0.614425 49.3815 0 47.879 0 46.1023V37.7166H8.21058V0.453125H46.5266V28.4024C45.9875 28.2373 45.4285 28.1103 44.8496 28.0213C44.2703 27.9324 43.683 27.8692 43.0878 27.8318V3.89197H11.6494V37.7166H28.2684C28.0558 38.2558 27.8752 38.8104 27.7264 39.3806C27.5777 39.9508 27.4674 40.5422 27.3953 41.1548H3.43886V46.1023C3.43886 46.927 3.71802 47.6185 4.27634 48.1768C4.83466 48.7351 5.5109 49.0143 6.30504 49.0143H28.3703C28.6298 49.6647 28.9466 50.2751 29.3207 50.8452C29.6943 51.4154 30.0979 51.9514 30.5317 52.4531H6.35089ZM15.5789 16.0668V12.6287H39.1583V16.0668H15.5789ZM15.5789 23.9619V20.5231H39.1583V23.9619H15.5789ZM28.3703 49.0143H3.43886H27.3953H27.2578H28.3703Z" fill="url(#paint0_linear_17604_2723)"/>
<path d="M41.8476 45.4662H42.9939V40.2358H41.8476V45.4662ZM42.4208 38.8323C42.6154 38.8323 42.7756 38.7716 42.9013 38.6502C43.0269 38.529 43.0897 38.3777 43.0897 38.1964C43.0897 38.0115 43.0269 37.8584 42.9013 37.7372C42.7756 37.6158 42.6154 37.5551 42.4208 37.5551C42.2261 37.5551 42.066 37.6158 41.9402 37.7372C41.8146 37.8584 41.7518 38.0115 41.7518 38.1964C41.7518 38.3777 41.8146 38.529 41.9402 38.6502C42.066 38.7716 42.2261 38.8323 42.4208 38.8323ZM42.4208 49.7162C40.4414 49.2013 38.8062 48.0859 37.5152 46.3702C36.2241 44.6546 35.5786 42.7488 35.5786 40.6528V35.7292L42.4208 33.2952L49.2629 35.7292V40.6528C49.2629 42.7488 48.6174 44.6546 47.3264 46.3702C46.0353 48.0859 44.4001 49.2013 42.4208 49.7162ZM42.4208 48.5747C44.0823 48.0647 45.447 47.0715 46.5149 45.5952C47.5827 44.1189 48.1166 42.4714 48.1166 40.6528V36.4832L42.4208 34.4531L36.7249 36.4832V40.6528C36.7249 42.4714 37.2588 44.1189 38.3266 45.5952C39.3945 47.0715 40.7592 48.0647 42.4208 48.5747Z" fill="url(#paint1_linear_17604_2723)"/>
<defs>
<linearGradient id="paint0_linear_17604_2723" x1="23.2633" y1="0.453125" x2="23.2633" y2="52.4531" gradientUnits="userSpaceOnUse">
<stop/>
<stop offset="1"/>
</linearGradient>
<linearGradient id="paint1_linear_17604_2723" x1="42.4208" y1="33.2952" x2="42.4208" y2="49.7162" gradientUnits="userSpaceOnUse">
<stop/>
<stop offset="1"/>
</linearGradient>
</defs>
</svg>
