<svg width="119" height="118" viewBox="0 0 119 118" fill="none" xmlns="http://www.w3.org/2000/svg">
<path d="M76.7401 34.8692C81.4919 37.1647 85.5756 40.2254 88.793 44.3721C92.0104 48.5435 93.8913 53.2333 94.1883 58.4661C96.5642 58.9104 98.4452 57.5528 99.3114 56.0471C100.425 54.0725 100.673 51.9251 100.796 49.7283C100.871 48.3707 101.192 47.803 102.009 47.803C102.875 47.803 103.321 48.4448 103.197 49.8023C103.049 51.382 102.925 52.9864 102.529 54.4921C101.316 58.9103 98.8659 60.7863 94.3121 61.0084C94.0398 62.4894 93.7676 63.9704 93.4953 65.4513C93.3468 66.2659 92.9509 66.8336 92.0104 66.6855C91.2679 66.5621 90.9214 65.9203 91.1194 64.9823C93.4706 54.5168 89.3622 46.5936 81.2197 40.3241C79.6357 39.1146 77.8538 38.152 76.0966 37.0659C75.5521 37.9792 75.1314 38.7197 74.7106 39.4602C74.7601 39.5342 74.7849 39.6083 74.8096 39.6083C75.6759 39.707 76.4431 40.0032 76.3193 41.0399C76.1956 42.0272 75.3789 42.1013 74.5869 42.1013C68.5481 42.1013 62.5093 42.1013 56.4704 42.1013C54.9112 42.1013 53.352 42.1013 51.7928 42.1013C51.0751 42.1013 50.5554 41.7063 50.5306 40.9659C50.5059 40.2254 50.9514 39.8304 51.6691 39.6823C51.8176 39.6577 51.9908 39.633 52.0651 39.6083C51.3226 37.8558 50.5801 36.128 49.7634 34.2027C48.5012 34.5483 47.0905 34.8445 45.754 35.3381C44.6403 35.7578 43.9226 35.4862 43.1058 34.6964C39.8637 31.5123 35.9038 29.9819 31.2262 29.7104C31.6717 30.2288 32.0429 30.6237 32.3894 31.068C34.3199 33.5363 35.3098 36.3748 35.9286 39.3861C36.0771 40.1266 35.6068 40.5216 35.1613 40.9905C33.4041 42.7677 31.5974 44.5202 29.9392 46.3961C29.1473 47.26 28.7018 48.4201 27.9841 49.3827C27.6623 49.8023 27.1426 50.222 26.6228 50.37C25.3854 50.7403 24.0984 50.9131 22.8362 51.2093C21.6235 51.4808 21.2523 51.8757 21.2523 53.1099C21.2523 57.4047 21.2523 61.7242 21.2523 66.019C21.2523 67.2038 21.6482 67.6728 22.861 67.9196C24.0984 68.1911 25.3359 68.3639 26.5486 68.6848C27.0683 68.8329 27.6871 69.2031 27.9346 69.6474C30.459 74.1397 33.8991 77.7187 38.3292 80.3598C38.948 80.7301 39.1707 81.2237 39.1707 81.9148C39.146 84.8027 39.1707 87.666 39.1707 90.5539C39.1707 90.9241 39.1707 91.2697 39.1707 91.714H46.6945C46.6945 89.9368 46.6945 88.209 46.6945 86.4565C46.6945 84.5559 47.1152 84.235 48.9714 84.6793C55.431 86.2344 61.9153 86.2097 68.3748 84.6793C70.1568 84.2597 70.6023 84.63 70.6023 86.4565C70.6023 88.209 70.6023 89.9368 70.6023 91.8127C72.9782 91.8127 75.2551 91.8127 77.5321 91.788C77.7301 91.788 78.0518 91.2697 78.0518 90.9982C78.1013 88.209 78.0518 85.4445 78.0518 82.6553C78.0518 82.3591 78.0518 82.0629 78.0518 81.7667C78.1013 80.8288 78.5715 80.3105 79.3635 80.3598C80.0812 80.3845 80.502 81.0016 80.502 81.9148C80.502 85.0496 80.502 88.209 80.4772 91.3437C80.4772 93.4418 79.611 94.3057 77.5073 94.3057C75.3294 94.3057 73.1267 94.3057 70.9488 94.3057C69.0431 94.3057 68.1768 93.4171 68.1768 91.4918C68.1768 90.1343 68.1768 88.7767 68.1768 87.4685C64.9842 87.7647 61.8163 88.2584 58.6731 88.283C55.5052 88.283 52.3373 87.7894 49.0704 87.4932C49.0704 88.7027 49.0704 90.0849 49.0704 91.4671C49.0704 93.4171 48.1794 94.3057 46.1995 94.3057C43.9721 94.3057 41.7446 94.3057 39.542 94.3057C37.6363 94.3057 36.77 93.3924 36.7453 91.4918C36.7453 88.678 36.7453 85.8641 36.7453 83.0503C36.7453 82.4826 36.572 82.1617 36.1018 81.8408C32.0429 79.2491 28.776 75.8675 26.3011 71.7208C26.0784 71.3259 25.5339 71.0297 25.0884 70.9063C24.0737 70.6101 23.0094 70.4866 21.97 70.2645C20.188 69.8943 18.8763 68.438 18.8516 66.6361C18.8021 61.971 18.8021 57.306 18.8516 52.6409C18.8516 50.9378 20.089 49.5061 21.7967 49.0619C22.9352 48.7657 24.1479 48.5929 25.2864 48.2967C25.6576 48.198 26.0784 47.9264 26.2764 47.6056C28.0583 44.6189 30.261 42.0025 32.9339 39.7811C33.1566 39.5836 33.3794 39.1393 33.3051 38.8925C32.7112 36.4242 31.8449 34.0546 30.0382 32.2034C29.271 31.4136 28.281 30.8212 27.3158 30.2781C26.7218 29.9326 26.1031 29.7351 26.1774 28.8712C26.2764 27.9579 26.9446 27.7852 27.6623 27.6617C32.5874 26.8225 37.166 27.8098 41.3734 30.4262C42.4376 31.0927 43.4276 31.8825 44.3928 32.6971C44.8383 33.092 45.2095 33.1167 45.7293 32.9439C46.744 32.623 47.7587 32.2775 48.7982 32.1047C49.6149 31.9566 49.8376 31.5863 49.8871 30.7965C50.1346 27.094 51.6443 23.9593 54.4658 21.5404C58.9949 17.6158 65.2069 17.0481 70.3053 19.9854C75.3294 22.8979 77.9528 28.575 76.9381 34.3508C76.9133 34.4989 76.8638 34.6717 76.8143 34.9185L76.7401 34.8692ZM63.4002 39.6823C65.8257 39.6823 68.2511 39.6823 70.6765 39.6823C71.0725 39.6823 71.5922 39.4602 71.8645 39.164C74.8839 35.8812 75.5274 30.9693 73.5969 26.9706C70.5775 20.6765 62.5588 18.6772 56.9407 22.5524C51.5948 26.2548 50.5306 34.4002 54.9607 39.1393C55.2577 39.4602 55.8022 39.6823 56.2229 39.707C58.5989 39.7564 60.9996 39.7317 63.4002 39.7317V39.6823Z" fill="white"/>
<path d="M86.0458 77.3979C84.9816 77.3486 84.4123 76.3366 84.9568 75.5961C85.724 74.5594 86.5408 73.5474 87.4565 72.6835C87.7287 72.412 88.5702 72.4367 88.9415 72.6835C89.2384 72.881 89.4612 73.7449 89.2632 74.0164C88.4712 75.1518 87.5307 76.1638 86.615 77.2005C86.4665 77.3733 86.1448 77.3979 86.0458 77.4226V77.3979Z" fill="white"/>
<path d="M38.3293 50.1972C37.3641 50.1972 36.8196 49.8763 36.7454 49.0371C36.6711 48.272 37.3394 47.803 38.3046 47.803C39.1213 47.803 39.641 48.1732 39.6658 49.0124C39.6905 49.7529 39.0965 50.1972 38.3046 50.1972H38.3293Z" fill="white"/>
<path d="M67.583 28.1308C67.2365 26.7486 66.4445 25.9834 65.4545 25.3663C65.0585 25.1195 64.7121 24.774 64.4398 24.4037C63.8706 23.6385 62.9301 23.6385 62.3609 24.4037C62.0886 24.774 61.7421 25.1195 61.3462 25.3663C60.0344 26.1809 59.0692 27.2422 59.2177 28.896C59.3662 30.5498 60.3314 31.7099 61.8906 32.2776C62.4351 32.475 63.0539 32.475 63.6478 32.5244C64.4646 32.6231 65.2318 33.2896 65.1575 33.9807C65.0585 34.8199 64.4398 35.2148 63.6478 35.3136C62.7074 35.437 62.0639 35.0174 61.5936 34.2275C61.1977 33.5611 60.6284 33.2896 59.9107 33.7092C59.2177 34.1288 59.1187 34.8199 59.5395 35.4123C60.0592 36.1034 60.7522 36.6711 61.3709 37.2882C61.6679 37.5844 62.0639 37.8312 62.3114 38.1768C62.8806 39.016 63.8706 38.9913 64.4398 38.1768C64.6873 37.8312 65.0338 37.5104 65.405 37.3129C66.989 36.449 67.8305 34.8693 67.5087 33.3143C67.1622 31.6358 65.702 30.3523 63.9696 30.1795C63.5736 30.1302 63.1528 30.1795 62.7816 30.0561C62.0391 29.8586 61.5194 29.3156 61.6431 28.5504C61.7421 27.8593 62.2866 27.4397 63.0539 27.3903C64.0686 27.2916 64.7121 27.6865 65.2813 28.5504C65.504 28.896 66.2218 29.1428 66.6672 29.0688C67.0137 29.0194 67.3107 28.4517 67.5582 28.1802L67.583 28.1308Z" fill="white"/>
<path d="M67.5829 28.1306C67.3354 28.4022 67.0384 28.9699 66.6919 29.0192C66.2464 29.0686 65.5287 28.8464 65.3059 28.5009C64.7615 27.637 64.0932 27.2667 63.0785 27.3408C62.3113 27.4148 61.7668 27.8098 61.6678 28.5009C61.5688 29.2661 62.0638 29.8091 62.8063 30.0065C63.1775 30.1053 63.5982 30.0806 63.9942 30.13C65.7267 30.3027 67.1869 31.5863 67.5334 33.2647C67.8551 34.8444 67.0136 36.3994 65.4297 37.2633C65.0585 37.4608 64.712 37.7817 64.4645 38.1272C63.8952 38.9665 62.93 38.9665 62.336 38.1272C62.0885 37.7817 61.6926 37.5348 61.3956 37.2386C60.7768 36.6216 60.0839 36.0539 59.5641 35.3627C59.1186 34.7704 59.2176 34.0792 59.9354 33.6596C60.6531 33.24 61.2223 33.5115 61.6183 34.178C62.0885 34.9678 62.732 35.3874 63.6725 35.264C64.4645 35.1653 65.0832 34.7704 65.1822 33.9311C65.2565 33.2647 64.4892 32.5736 63.6725 32.4748C63.0785 32.4008 62.4598 32.4255 61.9153 32.228C60.3561 31.6603 59.3909 30.5249 59.2424 28.8464C59.0939 27.1927 60.0591 26.156 61.3708 25.3168C61.7668 25.07 62.1133 24.7244 62.3855 24.3542C62.93 23.589 63.8952 23.589 64.4645 24.3542C64.7367 24.7244 65.0832 25.07 65.4792 25.3168C66.4692 25.9339 67.2364 26.699 67.6076 28.0813L67.5829 28.1306Z" fill="white"/>
<path d="M59.3413 117.285C26.9198 117.285 0.537109 90.9735 0.537109 58.6388C0.537109 26.3042 26.9198 0.0168457 59.3413 0.0168457C91.7629 0.0168457 118.146 26.3289 118.146 58.6635C118.146 90.9982 91.7629 117.31 59.3413 117.31V117.285ZM59.3413 3.02816C28.6028 3.05285 3.58127 27.9826 3.58127 58.6635C3.58127 89.3444 28.6028 114.274 59.3413 114.274C90.0799 114.274 115.101 89.3197 115.101 58.6635C115.101 28.0073 90.0799 3.05285 59.3413 3.05285V3.02816Z" fill="white"/>
</svg>
