<svg width="52" height="53" viewBox="0 0 52 53" fill="none" xmlns="http://www.w3.org/2000/svg">
<path d="M6.35084 52.4531C4.57418 52.4531 3.07165 51.8387 1.84326 50.6099C0.614421 49.3815 0 47.879 0 46.1023V37.7166H8.21053V0.453125H46.5263V28.4024C45.9872 28.2373 45.4282 28.1103 44.8493 28.0213C44.27 27.9324 43.6827 27.8692 43.0875 27.8318V3.89197H11.6494V37.7166H28.2682C28.0556 38.2558 27.875 38.8104 27.7263 39.3806C27.5776 39.9508 27.4672 40.5422 27.3951 41.1548H3.43884V46.1023C3.43884 46.927 3.718 47.6185 4.27632 48.1768C4.83463 48.7351 5.51086 49.0143 6.305 49.0143H28.3701C28.6296 49.6647 28.9464 50.2751 29.3205 50.8452C29.6941 51.4154 30.0977 51.9514 30.5315 52.4531H6.35084ZM15.5788 16.0668V12.6287H39.1581V16.0668H15.5788ZM15.5788 23.9619V20.5231H39.1581V23.9619H15.5788ZM28.3701 49.0143H3.43884H27.3951H27.2576H28.3701Z" fill="url(#paint0_linear_17604_2731)"/>
<path d="M42.2236 48.6288C42.3237 48.6288 42.4291 48.6074 42.5395 48.5645C42.65 48.5215 42.7384 48.4668 42.8047 48.4003L50.1994 41.3714C50.4114 41.1702 50.5735 40.9524 50.6857 40.7181C50.798 40.4838 50.8542 40.2385 50.8542 39.9821C50.8542 39.7194 50.798 39.4626 50.6857 39.2119C50.5735 38.961 50.4114 38.7365 50.1994 38.5382L46.441 34.9704C46.2321 34.7691 46.0043 34.6193 45.7575 34.5211C45.5109 34.4229 45.2492 34.3737 44.9726 34.3737C44.7024 34.3737 44.4425 34.4229 44.1928 34.5211C43.9431 34.6193 43.7151 34.7691 43.5089 34.9704L42.9091 35.5395L44.6733 37.2275C44.8615 37.4091 45.0156 37.6211 45.1359 37.8635C45.2561 38.1057 45.3162 38.3622 45.3162 38.633C45.3162 39.1339 45.1262 39.5623 44.7463 39.9183C44.3663 40.274 43.9145 40.4519 43.3908 40.4519C43.083 40.4519 42.8104 40.4073 42.5728 40.3182C42.3353 40.229 42.1205 40.0944 41.9284 39.9144L40.2209 38.2946L36.19 42.121C36.1085 42.1984 36.048 42.2854 36.0085 42.3822C35.969 42.479 35.9493 42.5776 35.9493 42.6779C35.9493 42.8712 36.0163 43.0313 36.1503 43.1583C36.2844 43.2851 36.4514 43.3485 36.6514 43.3485C36.7611 43.3485 36.8681 43.3246 36.9724 43.2769C37.0766 43.2291 37.1619 43.1739 37.2282 43.1111L40.2478 40.2444L41.0546 41.0102L38.0488 43.8622C37.9674 43.9433 37.9069 44.0327 37.8674 44.1304C37.8279 44.228 37.8081 44.3274 37.8081 44.4284C37.8081 44.61 37.8781 44.7673 38.0181 44.9003C38.1582 45.0332 38.3239 45.0996 38.5153 45.0996C38.6216 45.0996 38.727 45.0782 38.8312 45.0354C38.9355 44.9924 39.0207 44.9376 39.087 44.8711L42.212 41.9092L43.0185 42.6748L39.9077 45.6268C39.8382 45.6935 39.7807 45.7784 39.7351 45.8815C39.6895 45.9848 39.6667 46.0886 39.6667 46.1929C39.6667 46.3746 39.7368 46.5318 39.8769 46.6647C40.017 46.7977 40.1828 46.8642 40.3741 46.8642C40.4805 46.8642 40.582 46.8455 40.6787 46.8079C40.7753 46.7704 40.8644 46.713 40.9458 46.6357L44.0706 43.6737L44.8773 44.4394L41.7524 47.4059C41.6709 47.4831 41.6104 47.5733 41.5709 47.6766C41.5314 47.7797 41.5116 47.8761 41.5116 47.9657C41.5116 48.1647 41.5798 48.3249 41.7161 48.4466C41.8526 48.568 42.0218 48.6288 42.2236 48.6288ZM42.2199 49.7162C41.7325 49.7162 41.3069 49.5473 40.9429 49.2096C40.5789 48.8719 40.3881 48.4505 40.3707 47.9456C39.8539 47.9172 39.4223 47.7453 39.0756 47.4301C38.7289 47.115 38.541 46.6992 38.5118 46.1828C37.9717 46.1496 37.5351 45.9713 37.2019 45.648C36.8687 45.3247 36.6904 44.9148 36.6671 44.4182C36.1348 44.3886 35.6911 44.2136 35.336 43.8932C34.981 43.5726 34.8035 43.1628 34.8035 42.6638C34.8035 42.4263 34.8527 42.1904 34.951 41.9559C35.0493 41.7215 35.1888 41.5168 35.3693 41.342L40.2209 36.741L42.6601 39.0565C42.7553 39.1497 42.8666 39.2248 42.9941 39.2818C43.1216 39.3388 43.2554 39.3673 43.3956 39.3673C43.5943 39.3673 43.774 39.2936 43.9345 39.1463C44.095 38.9992 44.1752 38.8268 44.1752 38.6291C44.1752 38.5222 44.1484 38.4152 44.0947 38.3082C44.0409 38.2011 43.9649 38.1006 43.8668 38.0065L40.6682 34.9704C40.4592 34.7691 40.2299 34.6193 39.9804 34.5211C39.7308 34.4229 39.4677 34.3737 39.1909 34.3737C38.9207 34.3737 38.6637 34.4229 38.42 34.5211C38.176 34.6193 37.9484 34.7684 37.737 34.9682L34.6207 37.9323C34.4157 38.1268 34.2618 38.3427 34.159 38.58C34.0565 38.8173 34.0008 39.0762 33.9922 39.3567C33.9797 39.5908 34.0158 39.8195 34.1005 40.0427C34.185 40.266 34.2954 40.4707 34.4317 40.6568L33.5889 41.4513C33.3644 41.1753 33.1832 40.8503 33.0452 40.4764C32.9074 40.1024 32.8396 39.722 32.8419 39.335C32.8443 38.9211 32.9292 38.5256 33.0967 38.1485C33.2644 37.7712 33.5019 37.4367 33.8093 37.1448L36.9067 34.2045C37.2316 33.8989 37.5892 33.671 37.9793 33.5207C38.3694 33.3703 38.7783 33.2952 39.206 33.2952C39.6337 33.2952 40.0406 33.3703 40.4268 33.5207C40.8129 33.671 41.167 33.8989 41.4888 34.2045L42.0886 34.7739L42.6882 34.2045C43.0133 33.8989 43.3694 33.671 43.7567 33.5207C44.1437 33.3703 44.5511 33.2952 44.9788 33.2952C45.4064 33.2952 45.8148 33.3703 46.2039 33.5207C46.5929 33.671 46.9484 33.8989 47.2703 34.2045L51.006 37.7507C51.3279 38.0563 51.574 38.4045 51.7444 38.7953C51.9146 39.186 51.9997 39.5832 51.9997 39.9869C51.9997 40.3905 51.9146 40.7756 51.7444 41.1422C51.574 41.5088 51.3279 41.8449 51.006 42.1505L43.6112 49.1659C43.4203 49.3509 43.206 49.4888 42.9681 49.5799C42.7303 49.6708 42.4809 49.7162 42.2199 49.7162Z" fill="url(#paint1_linear_17604_2731)"/>
<defs>
<linearGradient id="paint0_linear_17604_2731" x1="23.2632" y1="0.453125" x2="23.2632" y2="52.4531" gradientUnits="userSpaceOnUse">
<stop/>
<stop offset="1"/>
</linearGradient>
<linearGradient id="paint1_linear_17604_2731" x1="42.4207" y1="33.2952" x2="42.4207" y2="49.7162" gradientUnits="userSpaceOnUse">
<stop/>
<stop offset="1"/>
</linearGradient>
</defs>
</svg>
