<svg width="45" height="32" viewBox="0 0 45 32" fill="none" xmlns="http://www.w3.org/2000/svg">
<path d="M25.7487 18.1636C24.2418 18.1636 22.9667 17.6367 21.9234 16.5829C20.8797 15.5287 20.3579 14.2408 20.3579 12.7191C20.3579 11.197 20.8797 9.90908 21.9234 8.85528C22.9667 7.80112 24.2418 7.27404 25.7487 7.27404C27.2553 7.27404 28.5304 7.80112 29.574 8.85528C30.6173 9.90908 31.139 11.197 31.139 12.7191C31.139 14.2408 30.6173 15.5287 29.574 16.5829C28.5304 17.6367 27.2553 18.1636 25.7487 18.1636ZM10.4744 25.4376C9.55402 25.4376 8.76193 25.1024 8.09814 24.4319C7.434 23.7611 7.10192 22.9609 7.10192 22.0312V3.40642C7.10192 2.47677 7.434 1.67653 8.09814 1.0057C8.76193 0.335235 9.55402 0 10.4744 0H41.0225C41.9428 0 42.7349 0.335235 43.3987 1.0057C44.0629 1.67653 44.3949 2.47677 44.3949 3.40642V22.0312C44.3949 22.9609 44.0629 23.7611 43.3987 24.4319C42.7349 25.1024 41.9428 25.4376 41.0225 25.4376H10.4744ZM14.2345 22.7015H37.2629C37.2629 21.4626 37.6944 20.4082 38.5572 19.5385C39.4198 18.6687 40.4627 18.2338 41.6861 18.2338V7.2038C40.4595 7.2038 39.4156 6.76801 38.5546 5.89644C37.6935 5.02487 37.2629 3.97144 37.2629 2.73614H14.2345C14.2345 3.97507 13.803 5.02941 12.9402 5.89917C12.0773 6.76892 11.0342 7.2038 9.8108 7.2038V18.2338C11.0374 18.2338 12.0812 18.6696 12.9423 19.5412C13.8038 20.4128 14.2345 21.4662 14.2345 22.7015ZM37.9675 32H3.97795C3.05756 32 2.26548 31.6646 1.60169 30.9938C0.937542 30.3229 0.605469 29.5227 0.605469 28.593V6.49213H3.31435V28.593C3.31435 28.7607 3.38353 28.9143 3.52189 29.0537C3.66026 29.1934 3.81228 29.2633 3.97795 29.2633H37.9675V32ZM10.4744 22.7015H9.8108V2.73614H10.4744C10.2947 2.73614 10.1393 2.80257 10.0081 2.93543C9.87657 3.06792 9.8108 3.22492 9.8108 3.40642V22.0312C9.8108 22.2127 9.87657 22.3699 10.0081 22.5027C10.1393 22.6352 10.2947 22.7015 10.4744 22.7015Z" fill="#D42224"/>
</svg>
