<svg width="50" height="33" viewBox="0 0 50 33" fill="none" xmlns="http://www.w3.org/2000/svg">
<path d="M46.5461 11.4531C44.9084 10.5111 44.3498 11.2233 41.9698 12.6094C40.8831 13.2374 40.8984 14.7767 41.2504 16.002C41.0132 16.1398 40.8601 16.4002 40.8142 16.7295L37.0415 18.9427C36.5517 18.5674 35.9624 18.3377 35.4191 18.6363L34.5773 19.1418L31.1795 17.3881C31.2255 16.6529 31.0188 15.9024 30.3684 15.5808L24.3534 12.3337C23.7718 11.9968 23.0983 12.1729 22.5091 12.5405L18.346 10.4192L21.652 8.47406C22.18 8.65786 22.4096 8.4664 22.6162 8.34387C23.458 9.08671 24.6442 9.65341 25.6084 9.08671L27.9272 7.73889C28.5317 7.38662 28.8761 6.67441 28.8761 5.71715C28.8837 2.76113 25.7002 -0.738611 23.6952 0.440734C21.5525 1.689 20.4276 1.93406 20.4276 3.81795C20.4276 4.2468 20.5117 4.71394 20.6495 5.18875C20.3893 5.34957 20.2592 5.6176 20.2133 5.91626L16.4405 8.13711C15.9507 7.76186 15.3615 7.53212 14.8182 7.83078L11.2367 9.95973C10.7087 10.2737 10.5633 10.9246 10.6398 11.5373L7.12723 13.605C6.23953 12.6783 4.87735 11.8972 3.78302 12.5252L1.45662 13.8807C0.83675 14.2329 0.500033 14.9528 0.500033 15.9101C0.492381 17.771 1.80864 20.0454 3.42335 20.9874C4.11974 21.3932 4.96919 21.6 5.66558 21.1865C5.66558 21.1865 5.66558 21.1865 5.67323 21.1788H5.68088C7.90015 19.8923 9.79036 19.4711 8.63481 16.1245L12.0785 14.1028C12.5759 14.4703 13.1881 14.6695 13.7085 14.3478L15.3538 13.3676L20.3663 15.933C20.2668 16.7295 20.3969 17.5719 21.0857 17.9777L27.1772 21.2631C28.1261 21.7685 29.1286 20.995 29.2664 20.8878L31.2331 21.9063C31.2255 21.9753 31.1948 22.0289 31.2408 22.3582L27.7282 24.4182C27.3915 24.0659 27.0165 23.7596 26.6339 23.5375C25.7997 23.0551 25.0038 22.9785 24.384 23.3384C21.9045 24.7858 22.0346 24.6939 21.9887 24.7551C21.4377 25.1227 21.1239 25.8043 21.1239 26.708C21.1163 28.5689 22.4326 30.851 24.0473 31.7929C25.7385 32.7578 26.4808 31.8925 28.6312 30.6366C29.7791 29.9626 29.7255 28.2779 29.2587 26.93L32.7024 24.9083C33.1922 25.2836 33.812 25.4827 34.3324 25.1534L37.8527 23.0551C38.3883 22.764 38.5108 22.1284 38.4649 21.5234L42.2835 19.2796C42.8039 19.4634 43.0565 19.2566 43.2401 19.1571C44.0819 19.8999 45.2757 20.4666 46.2323 19.8999L48.5511 18.5521C49.1556 18.1998 49.4923 17.48 49.5 16.5227C49.4847 14.6618 48.1608 12.3873 46.5461 11.4531ZM44.3345 18.5062C44.8166 18.2228 45.1762 18.1079 45.2834 17.5029C45.5206 16.2011 44.0666 14.3861 43.0412 14.9451L42.3065 15.374C42.0846 14.0491 42.6432 13.291 43.8217 13.9726C44.9926 14.6541 45.9415 16.293 45.9339 17.6331C45.9186 18.8737 45.138 19.0346 44.3345 18.5062ZM42.1764 16.0249L43.2707 15.3817C43.4697 15.2744 43.7529 15.4046 43.9518 15.5501C44.8625 16.2394 44.8089 17.3345 44.8166 17.2655C44.786 17.7786 44.6482 17.748 43.5156 18.4066C43.5921 17.5029 42.9493 16.4002 42.1764 16.0249ZM22.907 7.60104C22.9759 6.66676 22.3178 5.58697 21.5601 5.21172L22.6621 4.56844C23.4733 4.13193 24.759 6.55188 23.9707 6.98074C23.0142 7.53978 23.0754 7.50149 22.907 7.60104ZM23.7182 7.69294L24.208 7.40193C25.2105 6.85821 24.5141 4.87476 23.481 4.23914C22.754 3.79498 22.4172 4.13193 21.6826 4.56844C21.5525 3.83326 21.652 2.90664 22.3943 2.90664C23.5345 2.90664 25.3099 4.91305 25.3023 6.82757C25.3099 7.85376 24.7513 8.29027 23.7182 7.69294ZM16.8078 8.48172C16.8614 8.45109 20.8714 6.0924 20.925 6.06177C21.476 5.77842 22.356 7.5168 21.8586 7.78484L17.818 10.1588L17.7262 10.1129C17.5502 9.50025 17.1981 8.89526 16.8078 8.48172ZM3.92842 20.1143C2.60451 19.3485 1.49488 17.4187 1.50253 15.9024C1.50253 14.6465 2.19127 14.3708 3.19377 14.9451C4.51003 15.7109 5.61966 17.6408 5.61966 19.1571C5.5967 20.3977 4.93092 20.704 3.92842 20.1143ZM7.44099 13.9802L11.7647 11.4377C11.8948 11.3612 12.002 11.3458 12.2009 11.4684C12.5836 11.7058 12.882 12.2495 12.905 12.7013C12.9203 13.1455 12.7213 13.1455 12.2622 13.4212L8.4588 15.6497C8.28279 15.2361 7.87719 14.5086 7.44099 13.9802ZM12.2392 9.9291L15.0401 8.25964C15.6753 7.91502 17.1216 9.05608 17.3359 10.6566C17.3894 11.0702 17.3359 11.6292 16.9762 11.8283C15.1625 12.9004 15.3003 12.8315 14.2289 13.4671C14.4661 12.1423 13.4407 10.3656 12.2392 9.9291ZM20.4582 15.4353L15.8436 13.0689L17.2211 12.2495C17.7262 11.9738 17.8945 11.2922 17.841 10.7255L22.0499 12.8698C21.3229 13.4901 20.7184 14.455 20.4582 15.4353ZM21.3229 17.5489C19.8842 16.7065 21.7285 12.6554 23.657 12.6554C23.9784 12.6554 23.5728 12.4869 29.2205 15.5348C27.5675 16.0173 26.0216 18.644 26.5038 20.3517L21.3229 17.5489ZM31.3249 21.4009C30.6668 21.0639 28.4628 19.9229 28.1644 19.7697C27.2461 19.272 28.8378 16.6912 29.6873 17.1736L34.0799 19.4404L31.853 20.7653C31.7229 20.8342 31.455 21.0333 31.3249 21.4009ZM22.1111 26.7233C22.1111 23.6294 26.2359 26.8611 26.2283 29.9703C26.2283 33.0489 22.0958 29.8325 22.1111 26.7233ZM28.0573 24.7858L32.4116 22.228C32.7942 22.0059 33.6284 22.9019 33.5136 23.6677C33.4677 23.9357 33.8503 23.6524 29.0751 26.4552C28.899 26.0647 28.4858 25.3142 28.0573 24.7858ZM37.5925 22.6339L34.8452 24.265C35.0747 22.9708 34.0646 21.1788 32.8555 20.7347C34.585 19.7008 34.761 19.6013 35.6563 19.0652C36.8502 18.4219 38.8628 21.9446 37.5925 22.6339ZM37.4165 19.2873C41.9468 16.6223 41.2964 17.0052 41.5412 16.8673C41.8473 16.6912 42.6356 17.457 42.6203 18.2458C42.6203 18.3683 42.5743 18.5291 42.4672 18.5827C41.9621 18.8814 43.0565 18.2458 38.3577 21.0027C38.197 20.3594 37.822 19.7161 37.4165 19.2873Z" fill="#D42224"/>
</svg>
