<?xml version="1.0" encoding="UTF-8" standalone="no"?>
<svg
   width="38.060394"
   height="11.391977"
   viewBox="0 0 38.060394 11.391977"
   fill="none"
   version="1.1"
   id="svg4"
   xmlns="http://www.w3.org/2000/svg"
   xmlns:svg="http://www.w3.org/2000/svg">
  <defs
     id="defs8" />
  <path
     fill-rule="evenodd"
     clip-rule="evenodd"
     d="M 16.178526,0.91321523 V 10.472715 c 0,0.5077 -0.4105,0.9183 -0.9133,0.9133 -2.8352,0.007 -5.6761001,0.0059 -8.5184001,0.0059 -1.02534,0 -1.87124,-0.8459 -1.87124,-1.8712998 H 0.40124586 c -0.53549,-0.0059 -0.52953,-0.8112 0,-0.8132 l 6.12618004,-0.002 v -6.0211 l -6.12643004,-0.0059 c -0.53451,0.005 -0.53647,-0.8062 0.00498,-0.8062 l 4.47532004,10e-4 c -0.00497,-1.03229997 0.83397,-1.87119997 1.87123,-1.87119997 2.8352,-0.005 5.6713001,0.001 8.5125001,0 0.5078,-0.0020000048 0.9194,0.4095 0.9135,0.9112 z m 5.6989,6.30779997 h -2.3561 v -3.0562 h 2.3561 l 0.001,-0.8122 h -2.9313 c -0.1289,0.0059 -0.2301,0.1071 -0.237,0.237 v 4.2046 c 0.0059,0.1289 0.113,0.236 0.237,0.237 h 2.9313 z m -0.006,-0.8052 -1.539,-0.006 v -1.4319 l 1.544,0.001 z m 0.13,2.4305 h -3.0563 c -0.5751,0 -1.0432,-0.4681 -1.0422,-1.0422 v -4.2046 c 0,-0.5751 0.473,-1.0482 1.0482,-1.0482 l 3.0493,-0.0069 2.3284,-2.41769997 c 0.0793,-0.0793 0.1696,-0.1239 0.2816,-0.1249 h 3.3816 c 0.4958,0 0.9073,0.4115 0.9133,0.9133 V 1.8730152 h 8.7481 c 0.5414,0 0.5415,0.8112 0.007,0.8063 l -10.4054,-0.0011 -0.001,6.0323 h 10.4064 c 0.5305,-10e-4 0.5354,0.8053 0,0.8112 l -8.7532,-0.005 -0.001,0.9588998 c 0.001,0.5067 -0.4106,0.9182 -0.9133,0.9133 h -3.3816 c -0.1071,0.0059 -0.2033,-0.0446 -0.2826,-0.124 z m -9.3692,-5.7615 v 5.2179 c -10e-4,0.2251 -0.1805,0.4046 -0.4056,0.4056 H 9.1822259 c -0.2251,0.001 -0.4056,-0.1795 -0.4056,-0.4056 v -5.22 c 0.005,-0.2191 0.1854,-0.3996 0.4056,-0.4056 l 3.0434001,0.001 c 0.2201,0.006 0.4006,0.1865 0.4066,0.4067 z m -0.8122,0.4056 10e-4,4.4078 -2.2322001,0.001 10e-4,-4.4079 z m -4.4873001,-1.8039 c 0.0059,-0.5355 -0.8062,-0.5365 -0.8122,9e-4 l 0.006,0.1865 h -0.83499 c -0.00495,-0.5801 0.47401,-1.05909997 1.06009,-1.06009997 2.8361,-0.006 5.6713001,-0.001 8.5125001,0 0.0556,0 0.1012,0.0456 0.1012,0.1011 V 10.474415 c 0.0059,0.0615 -0.0397,0.1071 -0.1012,0.1012 -2.8341,0.0059 -5.6761001,0.0058 -8.5163001,0.0058 -0.5821,-0.005 -1.05512,-0.478 -1.0601,-1.0600998 l 0.8399,-0.005 v 0.1924 c -0.001,0.5305998 0.8112,0.5294998 0.8053,-0.006 10e-4,-2.6724 8e-4,-5.3456 -2e-4,-8.0162 z m 20.7622001,0.1855 h -0.835 l -0.0059,-0.1864 c 0.0059,-0.5355 -0.8053,-0.5355 -0.8122,0.001 l 0.0061,8.0205 c -10e-4,0.5305998 0.8062,0.5364998 0.8062,-0.0069 v -0.1805 l 0.8399,-0.005 v 0.9598998 c 0,0.0556 -0.0446,0.1002 -0.1071,0.1071 l -2.379,-0.001 -10e-4,-9.77469977 2.384,0.0059 c 0.0565,-9e-4 0.1021,0.0447 0.1011,0.1012 z m -5.4056,1.1335 2.1073,-2.19849997 V 10.582815 l -2.1142,-2.1915998 z"
     fill="#d42224"
     id="path2" />
</svg>
