<svg width="55" height="33" viewBox="0 0 55 33" fill="none" xmlns="http://www.w3.org/2000/svg">
<path d="M16.5842 0.793945C15.9055 0.793945 15.3464 1.3475 15.3464 2.02217V5.6289C15.3464 6.30357 15.9055 6.86144 16.5842 6.86144H18.7291V10.1028H10.4717C9.51451 10.1028 8.73142 10.8834 8.73142 11.8326V11.8499H5.46192V11.3288C5.46192 10.6541 4.90069 10.1006 4.22197 10.1006H1.73778C1.05905 10.1006 0.5 10.6541 0.5 11.3288V23.001C0.5 23.6757 1.05905 24.2314 1.73778 24.2314H4.22197C4.90069 24.2314 5.46192 23.6757 5.46192 23.001V22.6551H8.73359C8.76187 23.6476 9.18606 24.5903 9.91479 25.2736L16.7822 31.6976C17.5349 32.4025 18.5312 32.7939 19.5645 32.7939H42.303C43.2602 32.7939 44.0433 32.0133 44.0433 31.0641V29.0467H47.5303L49.6664 31.7582C50.0188 32.2058 50.5583 32.4674 51.1304 32.4674H53.2535C53.9366 32.4674 54.5 31.9074 54.5 31.2284V12.3533C54.5 11.6743 53.9366 11.1165 53.2535 11.1165H51.1304C50.5692 11.1165 50.0319 11.3435 49.6382 11.7414L47.5585 13.854H44.0411V11.8365C44.0411 10.8851 43.2557 10.1067 42.3008 10.1067H34.0434V6.86534H36.1883C36.867 6.86534 37.426 6.30747 37.426 5.6328V2.02607C37.426 1.3514 36.867 0.797842 36.1883 0.797842L16.5842 0.793945ZM16.5842 1.63291H36.1925C36.4188 1.63291 36.5863 1.79941 36.5863 2.02212V5.62886C36.5863 5.85374 36.4188 6.0224 36.1925 6.0224H16.5842C16.358 6.0224 16.1905 5.85374 16.1905 5.62886V2.02212C16.1905 1.79724 16.358 1.63291 16.5842 1.63291ZM19.5731 6.86139H33.2016V10.1027H19.5731V6.86139ZM1.73789 10.9417H4.22208C4.44831 10.9417 4.61799 11.1082 4.61799 11.3309V23.0009C4.61799 23.2258 4.44831 23.3901 4.22208 23.3901H1.73789C1.51166 23.3901 1.34416 23.2236 1.34416 23.0009V11.3287C1.34416 11.1038 1.51166 10.9395 1.73789 10.9395V10.9417ZM10.4742 10.9417H42.3033C42.8036 10.9417 43.1996 11.3374 43.1996 11.8347V16.8384L9.57788 16.8362V11.8347C9.57788 11.3374 9.9739 10.9417 10.4742 10.9417ZM51.1332 11.9536H53.2585C53.4847 11.9536 53.6587 12.1266 53.6587 12.3515V31.2266C53.6587 31.4514 53.4847 31.6266 53.2585 31.6266H51.1332C50.82 31.6266 50.5263 31.4839 50.3327 31.2395L48.1574 28.4826V14.4406L50.2457 12.3258C50.4806 12.088 50.7982 11.9536 51.1332 11.9536ZM5.46231 12.691H8.73181V21.818H5.46231V12.691ZM44.0436 14.6911H47.3131V28.2078H44.0436V14.6911ZM9.57543 17.6751H43.1971V31.0645C43.1971 31.5618 42.8012 31.9553 42.3009 31.9553H19.5623C18.7444 31.9553 17.9569 31.6461 17.3587 31.0883L10.489 24.6621C9.90388 24.115 9.57326 23.3538 9.57326 22.5538V22.2359L9.57543 17.6751ZM14.3829 19.7963C13.2452 19.7963 12.3119 20.724 12.3119 21.8549C12.3119 22.9858 13.2452 23.9134 14.3829 23.9134C15.5206 23.9134 16.4538 22.9858 16.4538 21.8549C16.4538 20.724 15.5206 19.7963 14.3829 19.7963ZM22.3836 19.7963C21.2459 19.7963 20.3149 20.724 20.3149 21.8549C20.3149 22.9858 21.2459 23.9134 22.3836 23.9134C23.5213 23.9134 24.4545 22.9858 24.4545 21.8549C24.4545 20.724 23.5213 19.7963 22.3836 19.7963ZM30.3865 19.7963C29.2488 19.7963 28.3156 20.724 28.3156 21.8549C28.3156 22.9858 29.2488 23.9134 30.3865 23.9134C31.5242 23.9134 32.4552 22.9858 32.4552 21.8549C32.4552 20.724 31.5242 19.7963 30.3865 19.7963ZM38.3872 19.7963C37.2495 19.7963 36.3163 20.724 36.3163 21.8549C36.3163 22.9858 37.2495 23.9134 38.3872 23.9134C39.5249 23.9134 40.4581 22.9858 40.4581 21.8549C40.4581 20.724 39.5249 19.7963 38.3872 19.7963ZM14.35 20.6353H14.3805C15.0635 20.6353 15.6073 21.1759 15.6073 21.8548C15.6073 22.5338 15.0635 23.0744 14.3805 23.0744C13.6974 23.0744 13.1536 22.5338 13.1536 21.8548C13.1536 21.1867 13.6822 20.6526 14.35 20.6353ZM22.3507 20.6353H22.3833C23.0664 20.6353 23.6102 21.1759 23.6102 21.8548C23.6102 22.5338 23.0664 23.0744 22.3833 23.0744C21.7003 23.0744 21.1587 22.5338 21.1587 21.8548C21.1587 21.1867 21.6829 20.6526 22.3507 20.6353ZM30.3559 20.6353H30.3863C31.0694 20.6353 31.611 21.1759 31.611 21.8548C31.611 22.5338 31.0694 23.0744 30.3863 23.0744C29.7033 23.0744 29.1595 22.5338 29.1595 21.8548C29.1595 21.1867 29.6881 20.6526 30.3559 20.6353ZM38.3566 20.6353H38.3892C39.0723 20.6353 39.6161 21.1759 39.6161 21.8548C39.6161 22.5338 39.0723 23.0744 38.3892 23.0744C37.7061 23.0744 37.1624 22.5338 37.1624 21.8548C37.1624 21.1867 37.691 20.6526 38.3566 20.6353Z" fill="#D42224"/>
</svg>
