<svg width="32" height="33" viewBox="0 0 32 33" fill="none" xmlns="http://www.w3.org/2000/svg">
<path d="M30.8537 5.92339L26.8702 1.93994C26.4923 1.56333 25.9663 1.41521 25.4416 1.55438L21.969 2.48893C19.9161 1.50205 17.7088 0.933918 15.4108 0.797301C15.0061 0.770491 14.6231 0.904542 14.3078 1.19179C14.009 1.47777 13.8507 1.84673 13.8507 2.2591V6.95603C13.8507 7.71948 14.429 8.34762 15.1976 8.41786C20.1027 8.83532 23.9584 12.6948 24.3669 17.5999C24.4358 18.366 25.0691 18.9443 25.8376 18.9443H30.5257C30.9394 18.9443 31.3083 18.786 31.593 18.4872C31.8854 18.1821 32.0245 17.8004 31.9965 17.388C31.8611 15.1014 31.2892 12.894 30.2959 10.8258L31.2305 7.3444C31.3709 6.8299 31.229 6.29876 30.8537 5.92339ZM25.3449 17.5132C24.8968 12.1345 20.6647 7.89845 15.2847 7.44023C15.0268 7.41725 14.8315 7.20787 14.8315 6.95508V6.32821C21.1295 6.57972 26.2055 11.6595 26.4569 17.9628H25.839C25.5798 17.9628 25.3679 17.7686 25.3449 17.5132ZM30.2843 7.0879L29.3025 10.7481C29.2719 10.863 29.2847 10.9856 29.337 11.0916C30.3226 13.0896 30.8882 15.2267 31.0197 17.4481C31.0299 17.5886 30.9865 17.7035 30.8856 17.8095C30.7848 17.9154 30.6737 17.9627 30.5269 17.9627H27.4386C27.1858 11.1194 21.6716 5.6005 14.8327 5.34753L14.8314 2.25921C14.8314 2.11239 14.8786 2.00132 14.9769 1.90813C15.0765 1.81748 15.185 1.77407 15.3101 1.77407L15.351 1.77535C17.5826 1.90813 19.7197 2.47115 21.7026 3.4491C21.8086 3.50144 21.9299 3.51421 22.0461 3.48357L25.6948 2.50179C25.8774 2.45456 26.0421 2.49796 26.1774 2.63329L30.1608 6.61674C30.2872 6.74186 30.3319 6.91421 30.2847 7.08784L30.2843 7.0879ZM13.3132 15.0532C13.3132 14.4876 13.7665 14.0254 14.341 14.0254C14.9065 14.0254 15.3687 14.4889 15.3687 15.0532C15.3687 15.6188 14.9052 16.0809 14.341 16.0809C13.7665 16.0822 13.3132 15.6187 13.3132 15.0532ZM9.91222 18.4529C9.91222 17.8784 10.3654 17.4252 10.9399 17.4252C11.5055 17.4252 11.9677 17.8797 11.9677 18.4529C11.9677 19.0185 11.5042 19.4806 10.9399 19.4806C10.3667 19.4819 9.91222 19.0184 9.91222 18.4529ZM15.37 21.8539C15.37 22.4195 14.9065 22.8817 14.3423 22.8817C13.7678 22.8817 13.3043 22.4182 13.3043 21.8539C13.3043 21.2794 13.7678 20.8262 14.3423 20.8262C14.9066 20.8249 15.37 21.2794 15.37 21.8539ZM16.7041 18.4529C16.7041 17.8784 17.1676 17.4252 17.7421 17.4252C18.3077 17.4252 18.7698 17.8797 18.7698 18.4529C18.7698 19.0185 18.3063 19.4806 17.7421 19.4806C17.1676 19.4819 16.7041 19.0184 16.7041 18.4529ZM14.341 20.1573C15.2806 20.1573 16.044 19.3925 16.044 18.4529C16.044 17.5132 15.2793 16.7498 14.341 16.7498C13.4013 16.7498 12.6366 17.5145 12.6366 18.4529C12.6366 19.3925 13.4013 20.1573 14.341 20.1573ZM14.341 17.7303C14.7393 17.7303 15.0636 18.0545 15.0636 18.4529C15.0636 18.8512 14.7393 19.1767 14.341 19.1767C13.9426 19.1767 13.6171 18.8525 13.6171 18.4529C13.6171 18.0545 13.9426 17.7303 14.341 17.7303ZM6.8735 7.36604C8.58555 6.21062 10.5847 5.43697 12.7591 5.18289C13.0285 5.15097 13.22 4.90712 13.1893 4.639C13.1574 4.36962 12.9136 4.1781 12.6455 4.20876C5.43587 5.05392 0 11.1782 0 18.4528C0 22.8422 1.98397 26.7743 5.09923 29.407C5.12349 29.4325 5.14902 29.4568 5.17839 29.4759C7.66538 31.5454 10.8597 32.7939 14.3398 32.7939C20.0453 32.7939 25.0396 29.4439 27.3353 24.5172C27.3417 24.5032 27.3481 24.4891 27.3532 24.4751C27.9724 23.1345 28.395 21.6778 28.575 20.1406C28.6056 19.8712 28.4141 19.6274 28.1447 19.5967C27.8754 19.5661 27.6315 19.7576 27.6009 20.027C27.4719 21.13 27.2076 22.1871 26.831 23.1868L25.1866 20.3398C25.0986 20.1879 24.9377 20.0947 24.7615 20.0947L21.4049 20.0934C21.5275 19.5661 21.5939 19.0171 21.5939 18.4528C21.5939 14.4478 18.3396 11.1896 14.3412 11.1896C12.6215 11.1896 11.0395 11.7922 9.79362 12.7957L6.87256 11.1015L6.8735 7.36604ZM24.4803 21.0738L26.348 24.3076C24.1675 28.7849 19.5751 31.8121 14.3409 31.8121C11.4288 31.8121 8.73377 30.8724 6.53648 29.2855L9.70521 28.4403C9.87501 28.3956 10.0065 28.2628 10.0525 28.0931L10.9245 24.849C11.9433 25.3941 13.1063 25.7044 14.3421 25.7044C17.4177 25.7044 20.0503 23.7791 21.1036 21.0712L24.4803 21.0738ZM20.6132 18.4527C20.6132 21.9113 17.7994 24.7263 14.341 24.7263C10.8772 24.7263 8.05827 21.9125 8.05827 18.4527C8.05827 14.9889 10.8772 12.17 14.341 12.17C17.8008 12.1713 20.6132 14.9889 20.6132 18.4527ZM9.04269 13.494C7.82599 14.7937 7.07915 16.5376 7.07915 18.4527C7.07915 20.8529 8.25372 22.9823 10.0564 24.3037L9.18058 27.5669L5.5815 28.527C2.7664 26.0758 0.981672 22.4705 0.981672 18.4527C0.981672 14.3035 2.88138 10.5577 5.89428 8.09501V11.3836C5.89428 11.5585 5.98748 11.7206 6.13813 11.8075L9.04269 13.494ZM25.5516 5.27087C24.4741 5.27087 23.597 6.15179 23.597 7.23442C23.597 8.31706 24.4728 9.19798 25.5516 9.19798C26.6343 9.19798 27.5152 8.31706 27.5152 7.23442C27.5139 6.15179 26.6343 5.27087 25.5516 5.27087ZM25.5516 8.2162C25.0141 8.2162 24.5775 7.77572 24.5775 7.23315C24.5775 6.69057 25.0141 6.2501 25.5516 6.2501C26.0929 6.2501 26.5347 6.69057 26.5347 7.23315C26.5347 7.77572 26.0929 8.2162 25.5516 8.2162Z" fill="#D42224"/>
</svg>
