<svg width="33" height="32" viewBox="0 0 33 32" fill="none" xmlns="http://www.w3.org/2000/svg">
<path d="M16.5 32C12.2262 32 8.20826 30.3358 5.18631 27.3138C2.16436 24.2917 0.5 20.2737 0.5 16C0.5 11.7262 2.16429 7.70826 5.18624 4.68631C8.20819 1.66436 12.2262 0 16.5 0C20.7737 0 24.7917 1.66429 27.8137 4.68624C30.8357 7.70826 32.5 11.7262 32.5 15.9999C32.5 20.2737 30.8357 24.2917 27.8137 27.3137C24.7917 30.3357 20.7737 32 16.5 32ZM16.5 0.700076C8.06356 0.700076 1.20008 7.56356 1.20008 16C1.20008 24.4364 8.06356 31.2999 16.5 31.2999C24.9364 31.2999 31.7999 24.4364 31.7999 16C31.7999 7.56356 24.9364 0.700076 16.5 0.700076Z" fill="#D42224"/>
<path d="M16.4998 29.2419C9.1981 29.2419 3.25781 23.3015 3.25781 15.9999C3.25781 8.69822 9.19817 2.75793 16.4998 2.75793C23.8014 2.75793 29.7418 8.69829 29.7418 15.9999C29.7417 23.3016 23.8014 29.2419 16.4998 29.2419ZM16.4998 3.45801C9.58412 3.45801 3.95789 9.08431 3.95789 15.9999C3.95789 22.9154 9.58412 28.5418 16.4998 28.5418C23.4154 28.5418 29.0416 22.9155 29.0416 15.9999C29.0416 9.08438 23.4153 3.45801 16.4998 3.45801Z" fill="#D42224"/>
<path d="M22.8785 22.6536C21.9613 22.6536 21.2152 21.9074 21.2152 20.9903C21.2152 20.3998 21.6352 19.9426 21.6832 19.8924C21.7535 19.8186 21.8279 19.6327 21.8279 19.5307V17.0503H17.5502V19.5307C17.5502 19.6326 17.6246 19.8185 17.695 19.8923C17.743 19.9425 18.163 20.3998 18.163 20.9903C18.163 21.9074 17.4169 22.6536 16.4998 22.6536C15.5826 22.6536 14.8365 21.9074 14.8365 20.9903C14.8365 20.3997 15.2567 19.9425 15.3046 19.8923C15.375 19.8185 15.4495 19.6327 15.4495 19.5307V17.0503H11.1717V19.5307C11.1717 19.6327 11.2461 19.8185 11.3166 19.8923C11.3645 19.9425 11.7846 20.3998 11.7846 20.9903C11.7846 21.9074 11.0384 22.6536 10.1213 22.6536C9.20422 22.6536 8.45801 21.9074 8.45801 20.9903C8.45801 20.3998 8.87805 19.9425 8.92601 19.8923C8.99637 19.8185 9.07085 19.6327 9.07085 19.5307V12.4692C9.07085 12.3673 8.99637 12.1814 8.92594 12.1076C8.87805 12.0574 8.45801 11.6002 8.45801 11.0096C8.45801 10.0924 9.20415 9.34631 10.1213 9.34631C11.0385 9.34631 11.7846 10.0925 11.7846 11.0096C11.7846 11.6003 11.3645 12.0574 11.3166 12.1076C11.2462 12.1814 11.1717 12.3673 11.1717 12.4692V14.9495H15.4495V12.4692C15.4495 12.3673 15.375 12.1814 15.3046 12.1076C15.2567 12.0574 14.8366 11.6002 14.8366 11.0096C14.8366 10.0924 15.5828 9.34631 16.4999 9.34631C17.417 9.34631 18.1631 10.0925 18.1631 11.0096C18.1631 11.6003 17.743 12.0574 17.6951 12.1076C17.6247 12.1814 17.5503 12.3673 17.5503 12.4692V14.9495H21.828V12.4692C21.828 12.3672 21.7536 12.1814 21.6832 12.1076C21.6352 12.0574 21.2153 11.6002 21.2153 11.0096C21.2153 10.0924 21.9614 9.34631 22.8785 9.34631C23.7956 9.34631 24.5418 10.0925 24.5418 11.0096C24.5418 11.6003 24.1217 12.0574 24.0738 12.1076C24.0033 12.1814 23.9289 12.3673 23.9289 12.4692V19.5307C23.9289 19.6326 24.0033 19.8185 24.0738 19.8923C24.1217 19.9425 24.5418 20.3998 24.5418 20.9903C24.5417 21.9074 23.7956 22.6536 22.8785 22.6536ZM17.5503 16.3503H21.828C22.214 16.3503 22.5281 16.6644 22.5281 17.0504V19.5307C22.5281 19.8148 22.3858 20.1702 22.1897 20.3757C22.1143 20.4565 21.9154 20.7272 21.9154 20.9903C21.9154 21.5214 22.3475 21.9535 22.8785 21.9535C23.4096 21.9535 23.8417 21.5214 23.8417 20.9903C23.8417 20.7271 23.6427 20.4564 23.566 20.3743C23.3712 20.1701 23.2289 19.8148 23.2289 19.5307V12.4692C23.2289 12.1852 23.3712 11.8298 23.5673 11.6243C23.6427 11.5435 23.8417 11.2729 23.8417 11.0096C23.8417 10.4785 23.4096 10.0464 22.8785 10.0464C22.3475 10.0464 21.9154 10.4785 21.9154 11.0096C21.9154 11.3228 22.1869 11.6214 22.1896 11.6243C22.3857 11.8298 22.5281 12.1851 22.5281 12.4692V14.9495C22.5281 15.3355 22.214 15.6496 21.828 15.6496H17.5503C17.1642 15.6496 16.8502 15.3355 16.8502 14.9495V12.4692C16.8502 12.1852 16.9925 11.8298 17.1887 11.6243C17.2641 11.5435 17.463 11.2729 17.463 11.0096C17.463 10.4785 17.0309 10.0464 16.4999 10.0464C15.9688 10.0464 15.5367 10.4785 15.5367 11.0096C15.5367 11.2729 15.7357 11.5435 15.8123 11.6256C16.0072 11.8298 16.1495 12.1851 16.1495 12.4692V14.9495C16.1495 15.3355 15.8355 15.6496 15.4495 15.6496H11.1717C10.7857 15.6496 10.4716 15.3355 10.4716 14.9495V12.4692C10.4716 12.1852 10.614 11.8298 10.8101 11.6243C10.8855 11.5435 11.0844 11.2729 11.0844 11.0096C11.0844 10.4785 10.6523 10.0464 10.1212 10.0464C9.59017 10.0464 9.15801 10.4785 9.15801 11.0096C9.15801 11.3228 9.42957 11.6214 9.4323 11.6242C9.62847 11.8298 9.77079 12.1851 9.77079 12.4691V19.5306C9.77079 19.8147 9.62847 20.1701 9.43237 20.3755C9.35698 20.4562 9.15801 20.727 9.15801 20.9902C9.15801 21.5213 9.5901 21.9534 10.1212 21.9534C10.6524 21.9534 11.0844 21.5213 11.0844 20.9902C11.0844 20.727 10.8855 20.4562 10.8087 20.3741C10.6139 20.17 10.4716 19.8146 10.4716 19.5305V17.0502C10.4716 16.6641 10.7856 16.3501 11.1716 16.3501H15.4494C15.8354 16.3501 16.1495 16.6641 16.1495 17.0502V19.5305C16.1495 19.8146 16.0071 20.17 15.811 20.3755C15.7357 20.4562 15.5366 20.727 15.5366 20.9901C15.5366 21.5212 15.9687 21.9533 16.4998 21.9533C17.0309 21.9533 17.4629 21.5212 17.4629 20.9901C17.4629 20.7269 17.264 20.4562 17.1873 20.3741C16.9924 20.1699 16.8501 19.8146 16.8501 19.5305V17.0501C16.8502 16.6644 17.1642 16.3503 17.5503 16.3503Z" fill="#D42224"/>
</svg>
