<svg width="119" height="119" viewBox="0 0 119 119" fill="none" xmlns="http://www.w3.org/2000/svg">
<path d="M59.6387 118.075C27.2171 118.075 0.834473 91.7631 0.834473 59.4284C0.834473 27.0938 27.2171 0.781738 59.6387 0.781738C92.0602 0.781738 118.443 27.0938 118.443 59.4284C118.443 91.7631 92.0602 118.075 59.6387 118.075ZM59.6387 3.81774C28.9001 3.81774 3.87858 28.7722 3.87858 59.4284C3.87858 90.0846 28.9001 115.039 59.6387 115.039C90.3772 115.039 115.399 90.0846 115.399 59.4284C115.399 28.7722 90.3772 3.81774 59.6387 3.81774Z" fill="white"/>
<path d="M87.5064 62.0694H85.1305C85.1305 62.3656 85.1305 62.6618 85.1305 62.958C85.1305 66.8085 85.1305 70.6591 85.1305 74.5096C85.1305 75.8425 84.7593 76.1881 83.4228 76.1881C81.3439 76.1881 79.2402 76.2127 77.1612 76.1881C76.592 76.1881 76.3445 76.3855 76.1217 76.9039C75.0328 79.3968 73.8943 81.8651 72.8053 84.3828C72.0629 86.0859 70.8007 86.8758 68.9692 86.8511C58.2776 86.8511 47.6106 86.8511 36.9189 86.8511C34.4935 86.8511 33.0333 85.3948 33.0333 82.9512C33.0333 80.2607 33.0333 77.5456 33.0333 74.8552C33.0333 74.559 33.0333 74.2381 33.0333 73.8925H30.6574C30.6574 74.1641 30.6574 74.4603 30.6574 74.7565C30.6574 77.8418 30.6574 80.9519 30.6574 84.0372C30.6574 85.2714 30.2614 85.6416 29.0487 85.6416C28.4299 85.6416 27.8112 85.6416 27.1925 85.6416C25.1135 85.6169 23.5791 84.1113 23.5791 81.9886C23.5544 79.076 23.5791 76.1387 23.5791 73.2261C23.5791 68.4376 23.5791 63.6738 23.5791 58.8853C23.5791 56.3923 25.0145 54.9607 27.4895 54.9361C28.0834 54.9361 28.6774 54.9361 29.2714 54.9361C30.2614 54.9607 30.6821 55.3803 30.6821 56.417C30.6821 59.5024 30.6821 62.6124 30.6821 65.6978C30.6821 65.994 30.6821 66.3149 30.6821 66.6851H33.058V65.7719C33.058 61.1315 33.058 56.4911 33.058 51.8507C33.058 49.259 34.4688 47.852 37.0922 47.8274C38.9484 47.8274 40.8046 47.8274 42.6855 47.8274C43.1063 47.8274 43.5765 47.6793 43.923 47.4324C47.5116 44.9888 51.0508 42.4959 54.6394 40.0769C55.0601 39.7807 55.6541 39.6079 56.1986 39.5833C58.8468 39.5339 61.4949 39.5833 64.1431 39.5833C64.4153 39.5833 64.6876 39.5833 65.0093 39.5833V34.8688C64.7124 34.8688 64.4153 34.8688 64.1183 34.8688C60.6534 34.8688 57.1886 34.8688 53.7237 34.8688C52.3625 34.8688 52.016 34.5233 52.0408 33.1657C52.0408 32.0797 52.016 30.9442 52.2387 29.9076C52.8575 27.1431 55.2581 25.4399 58.327 25.4399C65.5043 25.4399 72.7064 25.4399 79.8837 25.4399C80.4529 25.4399 81.0221 25.4399 81.5666 25.4399C84.982 25.5387 87.4322 27.9823 87.5312 31.3885C87.5312 32.055 87.5312 32.7461 87.5312 33.4125C87.5312 34.4739 87.1104 34.8688 86.0214 34.8935C82.5318 34.8935 79.0422 34.8935 75.5278 34.8935C75.2308 34.8935 74.909 34.8935 74.5625 34.8935V39.6079C76.8642 39.6079 79.1412 39.6079 81.3933 39.6079C82.9525 39.6079 84.1405 40.2497 84.784 41.6813C85.0315 42.249 85.1305 42.9155 85.1305 43.5572C85.1553 47.0128 85.1305 50.4684 85.1305 53.9241V54.8867H87.5064C87.5064 53.9487 87.5064 53.0355 87.5064 52.1222C87.5064 49.7033 87.5064 47.2843 87.5064 44.8654C87.5064 43.4832 87.8529 43.1376 89.2636 43.1376C89.8576 43.1376 90.4516 43.1376 91.0455 43.1376C93.1245 43.2117 94.5847 44.6926 94.6094 46.766C94.6342 48.9875 94.6094 51.2089 94.6094 53.4304C94.6094 58.8853 94.56 64.3403 94.6342 69.7952C94.6837 72.1894 92.9017 74.09 90.5258 73.8679C90.0308 73.8185 89.5111 73.8679 89.0161 73.8679C87.9024 73.8679 87.5064 73.4729 87.5064 72.3128C87.5064 69.2275 87.5064 66.1174 87.5064 63.0321V62.0941V62.0694ZM82.7793 73.8432C82.7793 73.5223 82.7793 73.2755 82.7793 73.0286C82.7793 63.2542 82.7793 53.4551 82.7793 43.6806C82.7793 42.3478 82.4081 41.9775 81.0964 41.9775C72.9786 41.9775 64.8609 41.9775 56.7431 41.9775C56.2976 41.9775 55.8026 42.1503 55.4314 42.3971C51.8675 44.816 48.3531 47.2843 44.7892 49.7033C44.3684 49.9995 43.7744 50.1722 43.23 50.1969C41.2253 50.2463 39.2206 50.1969 37.2159 50.1969C35.7557 50.1969 35.4093 50.5178 35.4093 51.9494C35.4093 62.2175 35.4093 72.4609 35.4093 82.729C35.4093 84.0866 35.7558 84.4322 37.117 84.4322C47.6849 84.4322 58.2528 84.4322 68.8208 84.4322C69.7612 84.4322 70.3304 84.1113 70.7016 83.2227C71.9144 80.4335 73.1766 77.6937 74.3893 74.9045C74.7358 74.09 75.2308 73.7445 76.1217 73.7691C78.2997 73.8185 80.4529 73.7691 82.7793 73.7691V73.8432ZM85.0563 32.4993C85.4522 29.5373 83.9425 27.8095 81.0716 27.7848C76.0227 27.7848 70.9739 27.7848 65.9498 27.7848C63.3264 27.7848 60.7029 27.7848 58.0795 27.7848C55.5056 27.8095 53.8227 30.0556 54.4909 32.4746H85.0563V32.4993ZM28.2319 83.2967V57.355C26.2272 57.2069 25.9302 57.4784 25.9302 59.379C25.9302 66.537 25.9302 73.7198 25.9302 80.8778C25.9302 81.2727 25.9302 81.6677 25.9302 82.0626C25.9797 82.8278 26.4005 83.2227 27.1677 83.2721C27.5142 83.2721 27.8359 83.2721 28.2319 83.2721V83.2967ZM89.9071 71.4243C91.8375 71.6711 92.2335 71.3255 92.2335 69.4743C92.2335 62.1682 92.2335 54.862 92.2335 47.5559C92.2335 45.7046 91.8128 45.3344 89.9071 45.6059V71.4243ZM67.3853 39.5339H72.0381V34.9182H67.3853V39.5339ZM87.4569 57.3797H85.1552V59.6258H87.4569V57.3797ZM32.959 71.4489V69.1781H30.7068V71.4489H32.959Z" fill="white"/>
<path d="M73.3499 44.3472H75.6268V46.618H73.3499V44.3472Z" fill="white"/>
<path d="M78.0522 46.618V44.3718H80.3539V46.618H78.0522Z" fill="white"/>
<path d="M37.8347 79.7917H40.0869V82.0873H37.8347V79.7917Z" fill="white"/>
<path d="M42.5618 79.7917H44.8387V82.0626H42.5618V79.7917Z" fill="white"/>
</svg>
