<svg width="60" height="32" viewBox="0 0 60 32" fill="none" xmlns="http://www.w3.org/2000/svg">
<path d="M6.2424 7.6239C6.1256 7.6239 6.01061 7.65278 5.90767 7.70799C5.80474 7.7632 5.71706 7.84301 5.65245 7.94032L2.92945 12.0432C2.85873 12.1499 2.81824 12.2737 2.81229 12.4016C2.80634 12.5295 2.83516 12.6565 2.89568 12.7693C2.9562 12.8821 3.04616 12.9764 3.15599 13.0421C3.26582 13.1078 3.39142 13.1426 3.51941 13.1426H56.4801C56.6081 13.1426 56.7337 13.1078 56.8436 13.0421C56.9534 12.9764 57.0434 12.8821 57.1039 12.7693C57.1644 12.6565 57.1932 12.5295 57.1873 12.4016C57.1813 12.2737 57.1408 12.1499 57.0701 12.0432L54.3471 7.94032C54.2825 7.84301 54.1948 7.7632 54.0919 7.70799C53.9889 7.65278 53.874 7.6239 53.7571 7.6239H6.2424ZM6.62243 9.04002H53.3774L55.1603 11.7265H4.83928L6.62243 9.04002Z" fill="#D42224"/>
<path d="M6.24259 14.413C6.12578 14.413 6.01079 14.4418 5.90786 14.4971C5.80492 14.5523 5.71724 14.6321 5.65263 14.7294L2.92964 18.832C2.85884 18.9387 2.81828 19.0626 2.8123 19.1905C2.80631 19.3184 2.83512 19.4455 2.89565 19.5583C2.95618 19.6711 3.04617 19.7655 3.15604 19.8312C3.26591 19.897 3.39156 19.9317 3.5196 19.9317H56.4803C56.6084 19.9317 56.734 19.8969 56.8439 19.8312C56.9538 19.7655 57.0437 19.6711 57.1043 19.5583C57.1648 19.4455 57.1936 19.3184 57.1876 19.1905C57.1816 19.0626 57.1411 18.9387 57.0703 18.832L54.3473 14.7294C54.2827 14.6321 54.195 14.5523 54.0921 14.4971C53.9891 14.4418 53.8741 14.413 53.7573 14.413H6.24259ZM6.62234 15.8291H53.3776L55.1605 18.5156H4.83947L6.62234 15.8291Z" fill="#D42224"/>
<path d="M17.1343 3.67554C16.3754 3.67554 15.7456 4.3056 15.7456 5.06455V8.33187C15.7456 8.51965 15.8202 8.69974 15.953 8.83252C16.0858 8.9653 16.2659 9.03991 16.4537 9.03993H19.8573C20.0451 9.03991 20.2252 8.9653 20.358 8.83252C20.4908 8.69974 20.5654 8.51965 20.5654 8.33187V5.06455C20.5654 4.3056 19.9353 3.67554 19.1764 3.67554H17.1343ZM17.1617 5.09166H19.1493V7.62381H17.1617V5.09166Z" fill="#D42224"/>
<path d="M16.4537 18.5155C16.2659 18.5155 16.0858 18.5901 15.953 18.7229C15.8202 18.8557 15.7456 19.0358 15.7456 19.2236V30.7279C15.7456 31.1312 15.9215 31.5608 16.2789 31.8027C16.6362 32.0446 17.1004 32.0484 17.4748 31.8987H17.4751L19.3617 31.1442C20.1105 30.8445 20.5654 30.173 20.5654 29.3663V19.2236C20.5654 19.0358 20.4908 18.8557 20.358 18.7229C20.2252 18.5901 20.0451 18.5155 19.8573 18.5155H16.4537ZM17.1617 19.9316H19.1493V29.3663C19.1493 29.4613 18.9241 29.7939 18.8356 29.8293L17.1617 30.4986V19.9316Z" fill="#D42224"/>
<path d="M16.4537 11.7264C16.2659 11.7265 16.0858 11.8011 15.953 11.9338C15.8202 12.0666 15.7456 12.2467 15.7456 12.4345V15.121C15.7456 15.3088 15.8202 15.4889 15.953 15.6216C16.0858 15.7544 16.2659 15.829 16.4537 15.829H19.8573C20.0451 15.829 20.2252 15.7544 20.358 15.6216C20.4908 15.4889 20.5654 15.3088 20.5654 15.121V12.4345C20.5654 12.2467 20.4908 12.0666 20.358 11.9338C20.2252 11.8011 20.0451 11.7265 19.8573 11.7264H16.4537ZM17.1617 13.1426H19.1493V14.4129H17.1617V13.1426Z" fill="#D42224"/>
<path d="M8.26389 0.000301834C8.14953 0.00365682 8.03768 0.0346715 7.93792 0.0906915C7.83817 0.146712 7.75347 0.226069 7.69108 0.321972L0.611577 11.2137C0.536893 11.3285 0.497118 11.4625 0.49707 11.5995V25.6224C0.497062 25.774 0.545722 25.9217 0.63589 26.0436C0.726058 26.1655 0.852971 26.2552 0.997957 26.2996C1.14294 26.344 1.29834 26.3406 1.44129 26.2901C1.58424 26.2395 1.70719 26.1444 1.79205 26.0188L5.68527 20.2533C5.7393 20.1763 5.77743 20.0893 5.79747 19.9974C5.8175 19.9055 5.81902 19.8106 5.80195 19.7181C5.78487 19.6256 5.74954 19.5374 5.69801 19.4587C5.64649 19.38 5.57981 19.3124 5.50185 19.2598C5.4239 19.2071 5.33624 19.1705 5.244 19.1522C5.15176 19.1338 5.05677 19.1339 4.9646 19.1527C4.87242 19.1714 4.7849 19.2083 4.70714 19.2612C4.62939 19.3141 4.56295 19.382 4.51172 19.4609L1.91319 23.3091V11.8094L7.57657 3.09668V8.33191C7.57524 8.42573 7.59258 8.51889 7.62757 8.60596C7.66255 8.69303 7.7145 8.77227 7.78038 8.83909C7.84626 8.90591 7.92476 8.95897 8.01133 8.99519C8.0979 9.0314 8.1908 9.05005 8.28463 9.05005C8.37847 9.05005 8.47137 9.0314 8.55793 8.99519C8.6445 8.95897 8.723 8.90591 8.78888 8.83909C8.85476 8.77227 8.90671 8.69303 8.9417 8.60596C8.97668 8.51889 8.99402 8.42573 8.99269 8.33191V0.707809C8.99265 0.613103 8.97361 0.519368 8.9367 0.43215C8.89979 0.344933 8.84576 0.266005 8.77781 0.200038C8.70985 0.134071 8.62936 0.082405 8.54109 0.0480972C8.45281 0.0137894 8.35855 -0.00246294 8.26389 0.000301834Z" fill="#D42224"/>
<path d="M8.27428 11.989C8.08659 11.9918 7.90768 12.069 7.77688 12.2036C7.64608 12.3382 7.57409 12.5193 7.57673 12.707V15.121C7.5754 15.2149 7.59274 15.308 7.62773 15.3951C7.66271 15.4822 7.71466 15.5614 7.78054 15.6282C7.84642 15.695 7.92492 15.7481 8.01149 15.7843C8.09806 15.8205 8.19096 15.8392 8.28479 15.8392C8.37863 15.8392 8.47153 15.8205 8.55809 15.7843C8.64466 15.7481 8.72316 15.695 8.78904 15.6282C8.85493 15.5614 8.90687 15.4822 8.94186 15.3951C8.97684 15.308 8.99418 15.2149 8.99285 15.121V12.707C8.99419 12.6123 8.97651 12.5183 8.94086 12.4305C8.90521 12.3428 8.85232 12.2631 8.78532 12.1961C8.71832 12.1292 8.63857 12.0763 8.55079 12.0408C8.46301 12.0052 8.36899 11.9876 8.27428 11.989Z" fill="#D42224"/>
<path d="M40.8236 3.67554C40.0646 3.67554 39.4346 4.3056 39.4346 5.06455V8.33187C39.4346 8.51965 39.5092 8.69974 39.642 8.83252C39.7748 8.9653 39.9548 9.03991 40.1426 9.03993H43.5463C43.7341 9.03991 43.9142 8.9653 44.047 8.83252C44.1797 8.69974 44.2543 8.51965 44.2544 8.33187V5.06455C44.2544 4.3056 43.6246 3.67554 42.8656 3.67554H40.8236ZM40.8507 5.09166H42.8382V7.62381H40.8507V5.09166Z" fill="#D42224"/>
<path d="M40.1426 18.5155C39.9548 18.5155 39.7748 18.5901 39.642 18.7229C39.5092 18.8557 39.4346 19.0358 39.4346 19.2236V29.3663C39.4346 30.173 39.8895 30.8445 40.6383 31.1442L42.5249 31.8987H42.5251C42.8996 32.0484 43.3637 32.0446 43.7211 31.8027C44.0785 31.5608 44.2544 31.1312 44.2544 30.7279V19.2236C44.2543 19.0358 44.1797 18.8557 44.047 18.7229C43.9142 18.5901 43.7341 18.5155 43.5463 18.5155H40.1426ZM40.8507 19.9316H42.8382V30.4986L41.1643 29.8293C41.0759 29.7939 40.8507 29.4613 40.8507 29.3663V19.9316Z" fill="#D42224"/>
<path d="M40.1426 11.7264C39.9548 11.7265 39.7748 11.8011 39.642 11.9338C39.5092 12.0666 39.4346 12.2467 39.4346 12.4345V15.121C39.4346 15.3088 39.5092 15.4889 39.642 15.6216C39.7748 15.7544 39.9548 15.829 40.1426 15.829H43.5463C43.7341 15.829 43.9142 15.7544 44.047 15.6216C44.1797 15.4889 44.2543 15.3088 44.2544 15.121V12.4345C44.2543 12.2467 44.1797 12.0666 44.047 11.9338C43.9142 11.8011 43.7341 11.7265 43.5463 11.7264H40.1426ZM40.8507 13.1426H42.8382V14.4129H40.8507V13.1426Z" fill="#D42224"/>
<path d="M51.7113 1.20905e-05C51.5243 0.00112659 51.3453 0.0761758 51.2134 0.208781C51.0816 0.341386 51.0075 0.520777 51.0074 0.707796V8.33189C51.0061 8.42572 51.0234 8.51888 51.0584 8.60594C51.0934 8.69301 51.1453 8.77226 51.2112 8.83908C51.2771 8.9059 51.3556 8.95896 51.4422 8.99517C51.5287 9.03139 51.6216 9.05004 51.7155 9.05004C51.8093 9.05004 51.9022 9.03139 51.9888 8.99517C52.0753 8.95896 52.1538 8.9059 52.2197 8.83908C52.2856 8.77226 52.3375 8.69301 52.3725 8.60594C52.4075 8.51888 52.4248 8.42572 52.4235 8.33189V3.09667L58.0869 11.8094V23.309L55.4884 19.4609C55.4371 19.382 55.3707 19.3141 55.2929 19.2612C55.2152 19.2083 55.1277 19.1714 55.0355 19.1527C54.9433 19.1339 54.8483 19.1338 54.7561 19.1521C54.6638 19.1705 54.5762 19.2071 54.4982 19.2597C54.4203 19.3124 54.3536 19.38 54.3021 19.4587C54.2505 19.5374 54.2152 19.6256 54.1981 19.7181C54.1811 19.8106 54.1826 19.9055 54.2026 19.9974C54.2227 20.0893 54.2608 20.1763 54.3148 20.2533L58.208 26.0188C58.2929 26.1444 58.4158 26.2395 58.5588 26.2901C58.7017 26.3406 58.8571 26.3439 59.0021 26.2996C59.1471 26.2552 59.274 26.1655 59.3642 26.0436C59.4544 25.9217 59.503 25.774 59.503 25.6224V11.5995C59.503 11.4625 59.4632 11.3285 59.3885 11.2136L52.309 0.321958C52.2443 0.222528 52.1557 0.140941 52.0513 0.0846885C51.9468 0.0284356 51.8299 -0.000681006 51.7113 1.20905e-05Z" fill="#D42224"/>
<path d="M51.7047 11.989C51.517 11.9918 51.3382 12.0691 51.2074 12.2037C51.0767 12.3383 51.0048 12.5193 51.0074 12.707V15.121C51.0061 15.2149 51.0234 15.308 51.0584 15.3951C51.0934 15.4822 51.1453 15.5614 51.2112 15.6282C51.2771 15.695 51.3556 15.7481 51.4422 15.7843C51.5287 15.8205 51.6216 15.8392 51.7155 15.8392C51.8093 15.8392 51.9022 15.8205 51.9888 15.7843C52.0753 15.7481 52.1538 15.695 52.2197 15.6282C52.2856 15.5614 52.3375 15.4822 52.3725 15.3951C52.4075 15.308 52.4248 15.2149 52.4235 15.121V12.707C52.4248 12.6123 52.4072 12.5182 52.3715 12.4305C52.3358 12.3427 52.2829 12.263 52.2159 12.196C52.1489 12.1291 52.0691 12.0762 51.9813 12.0407C51.8935 12.0051 51.7994 11.9875 51.7047 11.989Z" fill="#D42224"/>
</svg>
