<svg width="14" height="14" viewBox="0 0 14 14" fill="none" xmlns="http://www.w3.org/2000/svg">
<path d="M1.48874 14C1.07272 14 0.720588 13.8559 0.432353 13.5676C0.144118 13.2794 0 12.9273 0 12.5113V1.48874C0 1.07272 0.144118 0.720588 0.432353 0.432353C0.720588 0.144118 1.07272 0 1.48874 0H6.68315V1.23529H1.48874C1.42532 1.23529 1.36726 1.26172 1.31456 1.31456C1.26172 1.36726 1.23529 1.42532 1.23529 1.48874V12.5113C1.23529 12.5747 1.26172 12.6327 1.31456 12.6854C1.36726 12.7383 1.42532 12.7647 1.48874 12.7647H12.5113C12.5747 12.7647 12.6327 12.7383 12.6854 12.6854C12.7383 12.6327 12.7647 12.5747 12.7647 12.5113V7.31685H14V12.5113C14 12.9273 13.8559 13.2794 13.5676 13.5676C13.2794 13.8559 12.9273 14 12.5113 14H1.48874ZM5.12174 9.74606L4.25394 8.87827L11.8969 1.23529H8.64706V0H14V5.35294H12.7647V2.10309L5.12174 9.74606Z" fill="url(#paint0_linear_9228_1387)"/>
<defs>
<linearGradient id="paint0_linear_9228_1387" x1="7" y1="0" x2="7" y2="14" gradientUnits="userSpaceOnUse">
<stop/>
<stop offset="1"/>
</linearGradient>
</defs>
</svg>
