<svg width="30" height="25" viewBox="0 0 30 25" fill="none" xmlns="http://www.w3.org/2000/svg">
<path fill-rule="evenodd" clip-rule="evenodd" d="M-7.62483e-07 7.55643L-8.27094e-07 6.0783C-8.4884e-07 5.5808 0.753172 5.5808 0.753172 6.0783L0.753172 7.55643C0.753172 8.06175 1.15965 8.46917 1.65309 8.46917L2.36989 8.46917C2.34781 8.38038 2.33354 8.29812 2.33354 8.20149L2.33354 6.45697L2.09719 6.45697C1.60242 6.45697 1.60242 5.69963 2.09719 5.69963L2.33354 5.69963L2.33354 3.9486C2.33354 3.39234 2.79194 2.93925 3.34515 2.93925L6.4384 2.93925C6.4384 2.13753 7.08768 1.4768 7.88634 1.4768L8.61614 1.4768L8.61614 1.30574C8.61614 0.586282 9.20698 1.5049e-06 9.92253 1.47362e-06L10.4095 1.45234e-06C11.125 1.42106e-06 11.7081 0.586282 11.7081 1.30574L11.7081 1.4768L12.4379 1.4768C13.043 1.4768 13.5676 1.85678 13.7819 2.38954L24.1018 2.38954C25.1576 2.38954 26.0211 3.25788 26.0211 4.31944L26.0211 4.43827L28.3742 4.43827C30.5233 4.43827 30.5233 7.71053 28.3742 7.71053L26.0211 7.71053L26.0211 7.83718C26.0211 8.89878 25.1563 9.76579 24.1018 9.76579L13.7819 9.7658C13.5677 10.3012 13.043 10.672 12.4379 10.672L11.7081 10.672L11.7081 10.8496C11.7081 11.569 11.1237 12.1566 10.4095 12.1566L9.92253 12.1566C9.20702 12.1566 8.61614 11.5691 8.61614 10.8496L8.61614 10.672L7.88634 10.672C7.08901 10.672 6.4384 10.0191 6.4384 9.21603L1.65426 9.21603C0.745241 9.21864 -7.22644e-07 8.46783 -7.62483e-07 7.55643ZM30 20.3973L30 18.9191C30 18.4151 29.2546 18.4151 29.2546 18.9191L29.2546 20.3973C29.2546 20.8948 28.8481 21.3035 28.3469 21.3035L27.6314 21.3035C27.6534 21.2212 27.6677 21.1324 27.6677 21.0436L27.6677 19.2926L27.9041 19.2926C28.3988 19.2926 28.3988 18.5431 27.9041 18.5431L27.6677 18.5431L27.6677 16.792C27.6677 16.2358 27.2171 15.7748 26.6561 15.7748L23.5629 15.7748C23.5629 14.9731 22.9136 14.3202 22.1149 14.3202L21.3851 14.3202L21.3851 14.1492C21.3851 13.4297 20.8021 12.8343 20.0866 12.8343L19.5918 12.8343C18.8763 12.8343 18.2932 13.4284 18.2932 14.1492L18.2932 14.3202L17.5621 14.3202C16.957 14.3202 16.4401 14.6989 16.2193 15.2251L5.8981 15.2225C4.84234 15.2225 3.98009 16.0921 3.98009 17.1524L3.98009 17.279L1.63094 17.279C-0.523434 17.279 -0.523434 20.5526 1.63094 20.5526L3.97879 20.5526L3.97879 20.6793C3.97879 21.7408 4.84237 22.6092 5.8968 22.6092L16.2167 22.6092C16.4375 23.1367 16.9556 23.5153 17.5595 23.5153L18.2906 23.5153L18.2906 23.6864C18.2906 24.4059 18.8736 25 19.5892 25L20.0865 24.9987C20.802 24.9987 21.3851 24.4059 21.3851 23.6851L21.3851 23.514L22.1149 23.514C22.9122 23.514 23.5628 22.8612 23.5628 22.0594L27.9042 22.0594L28.347 22.0594C29.2547 22.0594 30 21.3087 30 20.3973ZM20.6319 16.4395L19.045 16.4395L19.045 18.5391L20.6319 18.5391L20.6319 16.4395ZM19.045 15.6912L20.6319 15.6912L20.6319 14.1478C20.6319 13.8436 20.389 13.5916 20.0852 13.5916L19.5969 13.5916C19.2865 13.5916 19.0437 13.8436 19.0437 14.1478L19.045 15.6912ZM20.6319 22.1481L19.045 22.1481L19.045 23.685C19.045 23.9892 19.2878 24.2413 19.5982 24.2413L20.0865 24.2413C20.3891 24.2413 20.6332 23.988 20.6332 23.685L20.6319 22.1481ZM19.045 21.3908L20.6319 21.3908L20.6319 19.2911L19.045 19.2911L19.045 21.3908ZM25.6147 21.302L25.6147 16.5295L26.6561 16.5295C26.8029 16.5295 26.9145 16.6484 26.9145 16.7894L26.9145 21.0424C26.9145 21.1834 26.8029 21.3022 26.6626 21.3022L25.6147 21.302ZM24.8693 16.5295L24.8693 21.302L23.5629 21.302L23.5629 16.5295L24.8693 16.5295ZM10.7329 21.8519L10.7329 15.98L16.1145 15.98L16.1145 21.8519L10.7329 21.8519ZM9.97977 15.98L9.97977 21.8519L8.70326 21.8519L8.70326 15.98L9.97977 15.98ZM7.95006 15.98L7.95006 21.8519L6.66574 21.8519L6.66574 15.98L7.95006 15.98ZM5.92035 15.98L5.92035 21.8519L5.89827 21.8519C5.25677 21.8519 4.73214 21.3243 4.73214 20.678L4.73214 17.1524C4.73214 16.506 5.25547 15.9785 5.89827 15.9785L5.92035 15.98ZM3.97897 18.0365L3.97897 19.7954L1.63111 19.7954C0.464981 19.7954 0.464981 18.0365 1.63111 18.0365L3.97897 18.0365ZM21.3852 15.0751L22.115 15.0751C22.4993 15.0751 22.8162 15.3872 22.8162 15.7723L22.8162 22.0597C22.8162 22.4449 22.4994 22.7635 22.115 22.7635L21.3852 22.7635L21.3852 15.0751ZM18.2932 15.0751L18.2932 22.7647L17.5621 22.7647C17.179 22.7647 16.8609 22.4461 16.8609 22.0609L16.8609 15.7735C16.8609 15.3884 17.1777 15.0763 17.5621 15.0763L18.2932 15.0751ZM9.36788 3.60007L10.9626 3.60007L10.9626 5.69973L9.36788 5.69973L9.36788 3.60007ZM10.9613 2.85056L9.36658 2.85056L9.36658 1.30715C9.36658 1.00291 9.60941 0.750875 9.91979 0.750875L10.4067 0.750875C10.7093 0.750875 10.96 1.0029 10.96 1.30715L10.9613 2.85056ZM9.36788 9.30741L10.9626 9.30741L10.9626 10.8508C10.9626 11.1551 10.7119 11.4005 10.4093 11.4005L9.92239 11.4005C9.61202 11.4005 9.36918 11.1551 9.36918 10.8508L9.36788 9.30741ZM10.9613 8.55009L9.36658 8.55009L9.36658 6.45695L10.9613 6.45695L10.9613 8.55009ZM4.38527 8.46783L4.38527 3.68735L3.34381 3.68735C3.20356 3.68735 3.08539 3.80618 3.08539 3.9472L3.08539 8.20151C3.08539 8.34254 3.19707 8.46136 3.33732 8.46919C3.68405 8.46789 4.03857 8.46783 4.38527 8.46783ZM5.13844 3.6887L5.13845 8.46917L6.43703 8.46917L6.43703 3.6887L5.13844 3.6887ZM19.2671 9.01737L19.2671 3.13881L13.8922 3.13881L13.8922 9.01737L19.2671 9.01737ZM20.019 3.13881L20.019 9.01737L21.3033 9.01737L21.3046 3.13881L20.019 3.13881ZM22.0487 3.13881L22.0487 9.01737L23.333 9.01737L23.3343 3.13881L22.0487 3.13881ZM24.0875 3.13881L24.0875 9.01737L24.1031 9.01737C24.7446 9.01737 25.2757 8.4833 25.2757 7.83829L25.2757 4.32071C25.2757 3.66783 24.7433 3.14032 24.1031 3.14032L24.0875 3.13881ZM26.0211 5.19408L26.0211 6.95945L28.3741 6.95945C29.5338 6.95945 29.5338 5.19408 28.3741 5.19408L26.0211 5.19408ZM8.6149 2.23259L7.8851 2.23259C7.50073 2.23259 7.18385 2.54468 7.18385 2.93772L7.18385 9.21707C7.18385 9.60225 7.502 9.92218 7.8851 9.92218L8.6149 9.92218L8.6149 2.23259ZM11.7082 2.23259L11.7082 9.92226L12.438 9.92226C12.821 9.92226 13.1392 9.60365 13.1392 9.21713L13.1392 2.93778C13.1392 2.54474 12.8223 2.23265 12.438 2.23265L11.7082 2.23259Z" fill="#D42224"/>
</svg>
