<svg width="26" height="32" viewBox="0 0 26 32" fill="none" xmlns="http://www.w3.org/2000/svg">
<path d="M13.0007 32C9.34654 31.0036 6.32774 28.8337 3.9443 25.4905C1.56086 22.1473 0.369141 18.4298 0.369141 14.3379V4.74326L13.0007 0L25.6323 4.74326V14.3379C25.6323 16.3865 25.3324 18.4051 24.7325 20.3938C24.1327 22.3824 23.1485 24.2579 21.7801 26.0201L16.2374 20.5859C15.7565 20.9066 15.2409 21.1575 14.6904 21.3385C14.1397 21.5199 13.5764 21.6105 13.0007 21.6105C11.4308 21.6105 10.0929 21.0583 8.98725 19.9537C7.88128 18.8494 7.3283 17.5081 7.3283 15.9297C7.3283 14.3513 7.881 13.007 8.9864 11.8968C10.0918 10.7866 11.4292 10.2315 12.9986 10.2315C14.5677 10.2315 15.9057 10.7866 17.0125 11.8968C18.1196 13.007 18.6731 14.3541 18.6731 15.9381C18.6731 16.5041 18.5912 17.0538 18.4272 17.5874C18.2636 18.1209 18.0267 18.6166 17.7165 19.0744L21.4281 22.7175C22.0934 21.5073 22.6076 20.1918 22.9708 18.7707C23.3343 17.3494 23.5161 15.8718 23.5161 14.3379V6.15344L13.0007 2.28484L2.48535 6.15344V14.3379C2.48535 17.8819 3.47103 21.0923 5.4424 23.9693C7.41377 26.8462 9.93504 28.7853 13.0062 29.7865C13.7742 29.5613 14.6114 29.1861 15.5178 28.661C16.4244 28.1356 17.2063 27.5918 17.8635 27.0295L19.2883 28.5736C18.3822 29.3301 17.3915 30.0129 16.3161 30.6219C15.241 31.2309 14.1359 31.6903 13.0007 32ZM13.0066 19.4879C13.9823 19.4879 14.818 19.1437 15.5136 18.4553C16.2091 17.7666 16.5569 16.9229 16.5569 15.9242C16.5569 14.9396 16.2072 14.0983 15.5077 13.4003C14.8084 12.7026 13.9708 12.3538 12.9948 12.3538C12.0191 12.3538 11.1835 12.7026 10.4879 13.4003C9.7923 14.0983 9.44451 14.9396 9.44451 15.9242C9.44451 16.9229 9.79426 17.7666 10.4938 18.4553C11.193 19.1437 12.0306 19.4879 13.0066 19.4879Z" fill="#D42224"/>
</svg>
