<svg width="20" height="20" viewBox="0 0 20 20" fill="none" xmlns="http://www.w3.org/2000/svg">
<path d="M19.0336 20L11.4856 12.4518C10.9068 12.9641 10.232 13.3587 9.46109 13.6358C8.69018 13.9129 7.89214 14.0514 7.06695 14.0514C5.09181 14.0514 3.4202 13.3678 2.05212 12.0008C0.684039 10.6335 0 8.97575 0 7.02758C0 5.07923 0.683554 3.42092 2.05066 2.05267C3.41777 0.684222 5.07765 0 7.0303 0C8.98276 0 10.6429 0.683737 12.0108 2.05121C13.3787 3.41869 14.0626 5.077 14.0626 7.02613C14.0626 7.84084 13.9232 8.63412 13.6444 9.40598C13.3654 10.1778 12.9619 10.877 12.434 11.5034L20 19.0225L19.0336 20ZM7.04921 12.7316C8.63813 12.7316 9.98429 12.1779 11.0877 11.0704C12.1911 9.96311 12.7428 8.61493 12.7428 7.02584C12.7428 5.43656 12.1911 4.08828 11.0877 2.98099C9.98429 1.87352 8.63813 1.31978 7.04921 1.31978C5.45021 1.31978 4.09551 1.87352 2.98511 2.98099C1.8749 4.08828 1.3198 5.43656 1.3198 7.02584C1.3198 8.61493 1.8749 9.96311 2.98511 11.0704C4.09551 12.1779 5.45021 12.7316 7.04921 12.7316Z" fill="white"/>
</svg>
