<svg width="52" height="32" viewBox="0 0 52 32" fill="none" xmlns="http://www.w3.org/2000/svg">
<path d="M0.736328 31.9487V28.598H26.7408V31.9487H0.736328ZM0.736328 18.5727V15.222H13.3167V18.5727H0.736328ZM0.736328 5.19667V1.846H13.3167V5.19667H0.736328ZM48.9098 32L38.423 21.5607C37.3739 22.3651 36.2355 22.9771 35.0078 23.3967C33.7797 23.8158 32.5156 24.0253 31.2157 24.0253C27.8836 24.0253 25.0435 22.858 22.6953 20.5233C20.3467 18.1882 19.1725 15.3513 19.1725 12.0127C19.1725 8.67445 20.3472 5.83778 22.6967 3.50267C25.0466 1.16755 27.8882 0 31.2216 0C34.5555 0 37.3952 1.16755 39.7407 3.50267C42.0861 5.83778 43.2589 8.67022 43.2589 12C43.2589 13.3036 43.0499 14.5711 42.632 15.8027C42.2136 17.0338 41.5946 18.1669 40.7751 19.202L51.2626 29.6407L48.9098 32ZM31.205 20.6753C33.629 20.6753 35.6872 19.8349 37.3799 18.154C39.0721 16.4731 39.9182 14.4296 39.9182 12.0233C39.9182 9.61711 39.0754 7.57 37.3899 5.882C35.7048 4.19444 33.6502 3.35067 31.2263 3.35067C28.8024 3.35067 26.7443 4.19089 25.0521 5.87133C23.3595 7.55222 22.5132 9.596 22.5132 12.0027C22.5132 14.4089 23.3559 16.4558 25.0415 18.1433C26.727 19.8313 28.7815 20.6753 31.205 20.6753Z" fill="#D42224"/>
</svg>
