<svg width="22" height="15" viewBox="0 0 22 15" fill="none" xmlns="http://www.w3.org/2000/svg">
<path id="Vector" d="M6.45383 14.8652C5.71883 14.8652 5.08799 14.5978 4.56133 14.063C4.03466 13.5282 3.76249 12.8798 3.74483 12.1178C3.16749 11.7917 2.71508 11.3529 2.38758 10.8012C2.06008 10.2496 1.89633 9.64408 1.89633 8.98475C1.89633 8.15858 2.14566 7.4285 2.64433 6.7945C3.14299 6.1605 3.79149 5.755 4.58983 5.578L2.52433 3.47175L1.98583 4.0205C1.85899 4.15417 1.70666 4.22425 1.52883 4.23075C1.35116 4.23708 1.19883 4.17508 1.07183 4.04475C0.944993 3.91442 0.884743 3.76208 0.891077 3.58775C0.897577 3.41342 0.964243 3.25933 1.09108 3.1255L3.06283 1.1165C3.18983 0.989666 3.34324 0.922999 3.52308 0.916499C3.70308 0.910166 3.85649 0.973249 3.98333 1.10575C4.10599 1.23392 4.16416 1.38517 4.15783 1.5595C4.15133 1.73383 4.08674 1.8845 3.96408 2.0115L3.41933 2.5705L5.34233 4.5575L6.30383 1.696C6.47133 1.20083 6.76116 0.794333 7.17333 0.4765C7.58549 0.158833 8.04824 0 8.56158 0H14.4296C14.9454 0 15.4105 0.158833 15.8248 0.4765C16.239 0.794333 16.5243 1.20083 16.6808 1.696L17.9063 5.52425C18.818 5.59175 19.581 5.951 20.1953 6.602C20.8095 7.25317 21.1166 8.04692 21.1166 8.98325C21.1166 9.64292 20.9539 10.2487 20.6286 10.8007C20.3031 11.3527 19.8496 11.7917 19.2681 12.1178C19.2504 12.8798 18.9782 13.5282 18.4516 14.063C17.9249 14.5978 17.2962 14.8652 16.5653 14.8652C15.8878 14.8652 15.3016 14.6361 14.8066 14.1777C14.3116 13.7194 14.0167 13.1558 13.9218 12.487H9.09108C9.00041 13.1558 8.70608 13.7194 8.20808 14.1777C7.70991 14.6361 7.12516 14.8652 6.45383 14.8652ZM6.36158 5.48975H10.8436V1.25625H8.56158C8.31958 1.25625 8.10408 1.33308 7.91508 1.48675C7.72591 1.64042 7.59033 1.83558 7.50833 2.07225L6.36158 5.48975ZM12.1001 5.48975H16.5758L15.4863 2.0775C15.3977 1.83733 15.2594 1.64042 15.0716 1.48675C14.8837 1.33308 14.6697 1.25625 14.4296 1.25625H12.1001V5.48975ZM9.05258 11.2308H13.9603C14.1377 10.6756 14.4691 10.2258 14.9546 9.8815C15.4401 9.53733 15.977 9.36525 16.5653 9.36525C17.0663 9.36525 17.5283 9.49592 17.9513 9.75725C18.3743 10.0186 18.7111 10.3648 18.9616 10.796C19.2624 10.5883 19.4874 10.322 19.6366 9.997C19.7857 9.67183 19.8603 9.33392 19.8603 8.98325C19.8603 8.35792 19.6437 7.82875 19.2106 7.39575C18.7776 6.96258 18.2484 6.746 17.6231 6.746H5.38983C4.76449 6.746 4.23533 6.96258 3.80233 7.39575C3.36916 7.82875 3.15258 8.35792 3.15258 8.98325C3.15258 9.33392 3.22991 9.67183 3.38458 9.997C3.53941 10.322 3.76166 10.5883 4.05133 10.796C4.29283 10.3447 4.62833 9.99342 5.05783 9.74225C5.48733 9.49092 5.95266 9.36525 6.45383 9.36525C7.04233 9.36525 7.57933 9.53733 8.06483 9.8815C8.55033 10.2258 8.87958 10.6756 9.05258 11.2308ZM6.45358 13.6087C6.87008 13.6087 7.22316 13.464 7.51283 13.1745C7.80266 12.8848 7.94758 12.5318 7.94758 12.1155C7.94758 11.6992 7.80274 11.3461 7.51308 11.0563C7.22358 10.7666 6.87058 10.6217 6.45408 10.6217C6.03774 10.6217 5.68466 10.7665 5.39483 11.056C5.10516 11.3457 4.96033 11.6987 4.96033 12.115C4.96033 12.5313 5.10508 12.8844 5.39458 13.1742C5.68424 13.4639 6.03724 13.6087 6.45358 13.6087ZM16.5653 13.6087C16.9773 13.6087 17.3293 13.464 17.6213 13.1745C17.9132 12.8848 18.0591 12.5318 18.0591 12.1155C18.0591 11.6992 17.9132 11.3461 17.6213 11.0563C17.3293 10.7666 16.9763 10.6217 16.5623 10.6217C16.1482 10.6217 15.7962 10.7665 15.5063 11.056C15.2167 11.3457 15.0718 11.6987 15.0718 12.115C15.0718 12.5313 15.2167 12.8844 15.5063 13.1742C15.796 13.4639 16.149 13.6087 16.5653 13.6087Z" fill="#1F2C40"/>
</svg>
