<svg width="128" height="129" viewBox="0 0 128 129" fill="none" xmlns="http://www.w3.org/2000/svg">
<path id="Vector" opacity="0.4" d="M63.5719 93.2072C68.7109 93.5682 73.4008 92.3417 77.6416 89.5277C81.8812 86.7148 85.0904 82.9755 87.2692 78.3097L42.2144 75.1449C43.7195 80.0695 46.3704 84.2204 50.167 87.5978C53.9646 90.9764 58.433 92.8462 63.5719 93.2072ZM49.359 65.7317C51.8971 65.9099 54.1113 65.171 56.0016 63.5149C57.892 61.8588 58.9265 59.7585 59.1052 57.2141C59.2839 54.6709 58.5475 52.4521 56.896 50.5577C55.2434 48.6633 53.1487 47.627 50.6117 47.4488C48.0748 47.2706 45.8611 48.0095 43.9708 49.6657C42.0805 51.3218 41.046 53.4215 40.8674 55.9647C40.6886 58.509 41.425 60.7284 43.0764 62.6228C44.7279 64.5172 46.8221 65.5535 49.359 65.7317ZM81.542 67.9923C84.0789 68.1705 86.2926 67.4315 88.1829 65.7754C90.0732 64.1192 91.1077 62.019 91.2865 59.4746C91.4651 56.9314 90.7287 54.7126 89.0773 52.8182C87.4258 50.9239 85.3316 49.8876 82.7947 49.7094C80.2566 49.5311 78.0424 50.27 76.1521 51.9261C74.2617 53.5823 73.2273 55.6819 73.0486 58.2252C72.8699 60.7695 73.6063 62.9889 75.2577 64.8833C76.9103 66.7777 79.0051 67.8141 81.542 67.9923ZM39.3629 28.6758L60.4417 4.6188C61.7546 3.11996 63.2433 2.0526 64.9078 1.41673C66.5722 0.782015 68.301 0.527641 70.0941 0.653598C71.8885 0.779636 73.5613 1.27295 75.1125 2.13353C76.6648 2.99536 77.9873 4.26019 79.08 5.928L96.5888 32.6955L125.385 44.7668C127.905 45.8055 129.806 47.4312 131.09 49.6439C132.373 51.8578 132.925 54.2427 132.745 56.7988C132.662 57.9778 132.408 59.1465 131.982 60.3049C131.555 61.4632 130.914 62.5368 130.058 63.5257L109.08 88.877L107.774 117.44C107.602 120.875 106.254 123.704 103.73 125.928C101.206 128.152 98.3302 129.15 95.1041 128.924C95.0158 128.918 93.9364 128.688 91.866 128.236L61.892 117.297L30.7028 123.933C30.0923 124.129 29.49 124.224 28.8959 124.219C28.303 124.213 27.7596 124.193 27.2657 124.159C24.0047 123.93 21.2963 122.535 19.1403 119.976C16.9844 117.416 16.0873 114.393 16.4489 110.908L19.1535 82.3795L1.90841 54.4521C1.23269 53.3147 0.764288 52.1438 0.503193 50.9395C0.242098 49.7352 0.152999 48.5429 0.235896 47.3628C0.412246 44.8522 1.29471 42.5891 2.88328 40.5734C4.4707 38.5576 6.58789 37.2131 9.23487 36.5397L39.3629 28.6758ZM44.2229 36.6248L10.2689 45.4614C9.58263 45.638 9.09251 46.0649 8.79852 46.742C8.50338 47.419 8.55906 48.0645 8.96556 48.6784L28.2286 80.4986L25.1021 113.038C25.0044 113.797 25.2309 114.413 25.7816 114.886C26.3322 115.36 26.9717 115.525 27.7 115.382L62.5363 108.125L96.0038 120.356C96.7049 120.599 97.3612 120.525 97.9727 120.132C98.5842 119.741 98.8946 119.163 98.9039 118.398L100.369 85.566L123.867 57.1006C124.355 56.5495 124.501 55.9182 124.303 55.2065C124.107 54.495 123.681 54.0038 123.026 53.733L90.6653 39.887L71.1159 9.97491C70.7535 9.36408 70.215 9.03356 69.5003 8.98336C68.7856 8.93316 68.2061 9.18514 67.762 9.73932L44.2229 36.6248Z" fill="#B941D0"/>
</svg>
