<svg width="26" height="25" viewBox="0 0 26 25" fill="none" xmlns="http://www.w3.org/2000/svg">
<path d="M13.0023 25C11.287 25 9.66864 24.6719 8.14737 24.0158C6.6261 23.3596 5.29945 22.4658 4.16743 21.3342C3.03542 20.2026 2.14112 18.8765 1.48454 17.3559C0.82818 15.8355 0.5 14.2177 0.5 12.5023C0.5 10.7734 0.82807 9.15164 1.48421 7.63717C2.14035 6.1227 3.03421 4.79945 4.16579 3.66743C5.29737 2.53542 6.62347 1.64112 8.14408 0.984539C9.66447 0.32818 11.2823 0 12.9977 0C14.7266 0 16.3484 0.32807 17.8628 0.98421C19.3773 1.64035 20.7006 2.53421 21.8326 3.66579C22.9646 4.79737 23.8589 6.12007 24.5155 7.63388C25.1718 9.1477 25.5 10.769 25.5 12.4977C25.5 14.213 25.1719 15.8314 24.5158 17.3526C23.8596 18.8739 22.9658 20.2006 21.8342 21.3326C20.7026 22.4646 19.3799 23.3589 17.8661 24.0155C16.3523 24.6718 14.731 25 13.0023 25ZM12.2536 23.4539V18.0464C11.0492 17.8356 10.013 17.2841 9.14507 16.3918C8.27708 15.4992 7.71327 14.4508 7.45362 13.2464H2.04605C2.23158 15.9995 3.29101 18.3371 5.22434 20.2592C7.15746 22.1816 9.50055 23.2465 12.2536 23.4539ZM13.7464 23.4539C16.513 23.2599 18.8595 22.1984 20.7859 20.2694C22.7124 18.3405 23.7684 15.9995 23.9539 13.2464H18.5464C18.2648 14.4508 17.6989 15.4992 16.8487 16.3918C15.9985 17.2841 14.9644 17.8356 13.7464 18.0464V23.4539ZM2.04605 11.7536H7.41316L10.7934 8.18816H15.2066L18.5868 11.7536H23.9539C23.7634 8.85888 22.6116 6.42511 20.4987 4.4523C18.386 2.4795 15.8864 1.49309 13 1.49309C10.1136 1.49309 7.61404 2.4795 5.50132 4.4523C3.38838 6.42511 2.23662 8.85888 2.04605 11.7536Z" fill="white"/>
</svg>
