<svg width="33" height="32" viewBox="0 0 33 32" fill="none" xmlns="http://www.w3.org/2000/svg">
<path fill-rule="evenodd" clip-rule="evenodd" d="M16.5 0.69867C8.06305 0.69867 1.19867 7.56301 1.19867 16C1.19873 24.437 8.06299 31.3014 16.5 31.3014C24.937 31.3014 31.8013 24.4371 31.8013 16C31.8014 7.56299 24.937 0.698691 16.5 0.69867ZM16.5 32C12.2258 32 8.20853 30.3356 5.18612 27.3139C2.16444 24.2915 0.5 20.2735 0.5 16C0.500021 11.7258 2.16439 7.70855 5.18612 4.68612C8.20855 1.66433 12.2258 0 16.5 0C20.7735 0 24.7915 1.66441 27.8139 4.68612C30.8356 7.70853 32.5 11.7266 32.5 16C32.5001 20.2734 30.8356 24.2915 27.8139 27.3139C24.7916 30.3356 20.7735 32 16.5 32Z" fill="#D42224"/>
<path fill-rule="evenodd" clip-rule="evenodd" d="M18.1617 5.20931C18.1479 5.20931 18.134 5.20793 18.1195 5.20646C17.9281 5.18387 17.7912 5.00998 17.8138 4.81856L18.3305 0.458492C18.3532 0.267091 18.527 0.129539 18.7184 0.152847C18.9106 0.175383 19.0473 0.349329 19.0248 0.54073L18.5081 4.90074C18.487 5.07832 18.3356 5.20937 18.1617 5.20931ZM14.8387 5.20931C14.6641 5.20931 14.5134 5.07838 14.4923 4.9008L13.9756 0.540688C13.953 0.349266 14.0898 0.175403 14.2812 0.152847C14.4734 0.129518 14.6466 0.267111 14.6691 0.458513L15.1866 4.81854C15.2092 5.00996 15.0723 5.18391 14.8802 5.20646C14.8664 5.20793 14.8525 5.20937 14.8387 5.20931Z" fill="#D42224"/>
<path fill-rule="evenodd" clip-rule="evenodd" d="M16.4997 5.08714C10.4826 5.08714 5.58683 9.98288 5.58683 16.0001C5.58689 22.0172 10.4826 26.9123 16.4997 26.9123C22.517 26.9122 27.4119 22.0173 27.4119 16.0001C27.4119 9.98288 22.5169 5.08716 16.4997 5.08714ZM16.4997 27.6109C10.0976 27.6109 4.88818 22.4023 4.88818 16.0001C4.8882 9.59784 10.0976 4.38855 16.4997 4.38855C22.902 4.38853 28.1113 9.59791 28.1113 16.0001C28.1114 22.4022 22.9019 27.6109 16.4997 27.6109Z" fill="#D42224"/>
<path fill-rule="evenodd" clip-rule="evenodd" d="M8.47838 24.2544C8.41868 24.2544 8.359 24.2391 8.30369 24.2071C8.1363 24.1111 8.07953 23.8971 8.1756 23.7304L19.034 4.92341C19.13 4.75671 19.3439 4.69929 19.5106 4.79608C19.678 4.89213 19.7355 5.10611 19.6387 5.27276L8.78114 24.0797C8.71638 24.1918 8.59842 24.2544 8.47838 24.2544ZM13.6631 27.2514C13.6041 27.2514 13.5436 27.2361 13.4883 27.2041C13.3217 27.108 13.2642 26.8941 13.361 26.7267L24.2186 7.92032C24.3153 7.75371 24.5286 7.69624 24.696 7.79305C24.8627 7.88904 24.9201 8.10308 24.824 8.26971L13.9657 27.0767C13.901 27.1881 13.7838 27.2514 13.6631 27.2514Z" fill="#D42224"/>
<path fill-rule="evenodd" clip-rule="evenodd" d="M25.317 9.34157C25.2109 9.34157 25.1053 9.29288 25.0369 9.2012C24.9212 9.04682 24.9532 8.82784 25.1074 8.71211L28.6247 6.08488C28.7798 5.96909 28.9988 6.00118 29.1138 6.1555C29.2296 6.31044 29.1975 6.52883 29.0432 6.64454L25.5259 9.27175C25.4626 9.31908 25.3898 9.34163 25.317 9.34157ZM26.98 12.217C26.8447 12.217 26.7158 12.1378 26.6583 12.0053C26.5827 11.8284 26.6642 11.6225 26.8417 11.5468L30.8772 9.81391C31.0541 9.73752 31.2593 9.8198 31.3357 9.99663C31.4121 10.1742 31.3299 10.3794 31.1523 10.4559L27.1176 12.1887C27.0724 12.2076 27.0258 12.217 26.98 12.217Z" fill="#D42224"/>
<path fill-rule="evenodd" clip-rule="evenodd" d="M31.0147 22.2143C30.9683 22.2143 30.9216 22.2056 30.8765 22.186L26.8418 20.4531C26.6642 20.3774 26.5827 20.1715 26.6583 19.9947C26.7348 19.8171 26.94 19.7348 27.1176 19.8113L31.1523 21.544C31.3299 21.6205 31.4114 21.8257 31.3357 22.0033C31.279 22.135 31.1501 22.2144 31.0147 22.2143ZM28.8337 25.9842C28.7609 25.9842 28.6873 25.9617 28.6248 25.9151L25.1075 23.2878C24.9532 23.1721 24.9211 22.9531 25.0369 22.7988C25.1519 22.6438 25.3709 22.6125 25.5259 22.7282L29.0433 25.3554C29.1976 25.4711 29.2295 25.6895 29.1138 25.8445C29.0454 25.9362 28.9399 25.9842 28.8337 25.9842Z" fill="#D42224"/>
<path fill-rule="evenodd" clip-rule="evenodd" d="M14.3228 31.8501C14.3097 31.8501 14.2958 31.8487 14.2812 31.8472C14.0898 31.8247 13.953 31.6507 13.9756 31.4593L14.4923 27.0992C14.5149 26.9078 14.6888 26.771 14.8802 26.7936C15.0723 26.8162 15.2091 26.9901 15.1866 27.1815L14.6692 31.5415C14.6488 31.7191 14.4974 31.8501 14.3228 31.8501ZM18.677 31.8501C18.5031 31.8501 18.3517 31.7192 18.3305 31.5416L17.8139 27.1815C17.7913 26.9901 17.9281 26.8162 18.1195 26.7936C18.3117 26.771 18.4848 26.9079 18.5081 27.0993L19.0249 31.4593C19.0475 31.6507 18.9106 31.8247 18.7192 31.8472C18.7047 31.8486 18.6908 31.8501 18.677 31.8501Z" fill="#D42224"/>
<path fill-rule="evenodd" clip-rule="evenodd" d="M1.98522 22.2143C1.8499 22.2143 1.72105 22.1358 1.66429 22.0033C1.58791 21.8257 1.6701 21.6205 1.84768 21.5441L5.8825 19.8113C6.05927 19.7349 6.26524 19.8171 6.34094 19.9947C6.41738 20.1715 6.33513 20.3775 6.15825 20.4532L2.12279 22.1859C2.07839 22.2056 2.03108 22.2144 1.98522 22.2143ZM4.16637 25.9842C4.05942 25.9842 3.95459 25.9362 3.88614 25.8445C3.7705 25.6894 3.80246 25.4712 3.95676 25.3554L7.47415 22.7274C7.62913 22.6124 7.84742 22.6438 7.96312 22.7988C8.07885 22.953 8.04683 23.1721 7.89253 23.2878L4.37456 25.915C4.31193 25.9616 4.23841 25.9842 4.16637 25.9842Z" fill="#D42224"/>
<path fill-rule="evenodd" clip-rule="evenodd" d="M7.683 9.34156C7.61022 9.34156 7.53665 9.31909 7.47406 9.27178L3.95676 6.64446C3.80248 6.5288 3.77046 6.31047 3.88614 6.15549C4.00122 6.00111 4.2202 5.96914 4.37449 6.08487L7.89259 8.71211C8.04685 8.82781 8.07883 9.04689 7.96312 9.20119C7.89473 9.29285 7.78918 9.34162 7.683 9.34156ZM6.01997 12.217C5.97421 12.217 5.92755 12.2076 5.88244 12.1887L1.84768 10.4558C1.67016 10.3794 1.58788 10.1742 1.66429 9.99662C1.74074 9.81971 1.94594 9.73753 2.12279 9.81394L6.15825 11.5468C6.33513 11.6224 6.41734 11.8284 6.34094 12.0053C6.28418 12.1377 6.15535 12.217 6.01997 12.217Z" fill="#D42224"/>
</svg>
