<svg width="119" height="118" viewBox="0 0 119 118" fill="none" xmlns="http://www.w3.org/2000/svg">
<path d="M59.7129 117.618C27.2914 117.618 0.908691 91.3055 0.908691 58.9709C0.908691 26.6362 27.2914 0.324219 59.7129 0.324219C92.1344 0.324219 118.517 26.6362 118.517 58.9709C118.517 91.3055 92.1344 117.618 59.7129 117.618ZM59.7129 3.36022C28.9743 3.36022 3.95284 28.3147 3.95284 58.9709C3.95284 89.6271 28.9743 114.582 59.7129 114.582C90.4515 114.582 115.473 89.6271 115.473 58.9709C115.473 28.3147 90.4515 3.36022 59.7129 3.36022Z" fill="white"/>
<path d="M24.8165 72.2997C24.8907 70.8434 25.0145 69.4118 25.0392 67.9555C25.0392 67.5112 24.9402 67.0176 24.7175 66.6473C23.1335 64.179 21.5248 61.7354 19.8666 59.2918C19.2974 58.4279 19.2974 57.6874 19.8666 56.8482C21.4753 54.4539 23.0841 52.0844 24.6185 49.6408C24.9155 49.1718 25.064 48.5054 25.0392 47.913C24.9402 45.1238 24.7917 42.3593 24.5937 39.5701C24.5195 38.3854 24.9897 37.7189 26.0292 37.2006C28.5784 35.9911 31.0781 34.7076 33.5777 33.3994C33.9985 33.1772 34.3945 32.7823 34.5925 32.3874C35.9289 29.8451 37.2159 27.278 38.5028 24.711C38.9731 23.7237 39.6661 23.3041 40.7798 23.3781C43.6259 23.5756 46.4721 23.7484 49.3183 23.8471C49.838 23.8471 50.432 23.699 50.8775 23.4275C53.2781 21.8971 55.6788 20.3421 58.03 18.7377C58.9705 18.096 59.7872 18.1207 60.7277 18.7377C63.0788 20.3421 65.4548 21.8971 67.8802 23.4275C68.3257 23.699 68.9197 23.8471 69.4394 23.8224C72.2361 23.7237 75.008 23.5756 77.8046 23.3534C79.0174 23.2547 79.7598 23.6743 80.2796 24.7604C81.4923 27.2533 82.7545 29.7463 84.0662 32.1899C84.3384 32.6836 84.8335 33.1773 85.3284 33.4488C87.7539 34.7323 90.2288 35.9664 92.7037 37.2006C94.0154 37.867 94.2382 38.2866 94.1392 39.7182C93.9659 42.5568 93.7927 45.3953 93.6937 48.2338C93.6937 48.6535 93.8422 49.1718 94.0649 49.542C95.6241 51.961 97.208 54.3552 98.792 56.7495C99.3612 57.6134 99.386 58.4279 98.792 59.2918C97.2328 61.6367 95.6489 63.9569 94.1392 66.3264C93.8422 66.7954 93.6689 67.4619 93.6689 68.0296C93.7679 70.8681 93.9164 73.7066 94.1144 76.5452C94.1886 77.6065 93.7927 78.273 92.8522 78.742C90.303 79.9761 87.7538 81.2596 85.2294 82.5925C84.7592 82.8393 84.289 83.3083 84.0415 83.802C82.7298 86.2949 81.4428 88.7879 80.2053 91.3303C79.7103 92.3669 78.9679 92.7372 77.8541 92.6631C75.0327 92.4657 72.2113 92.3176 69.3899 92.1942C68.8702 92.1942 68.2762 92.3423 67.8307 92.6138C65.3805 94.1688 62.9551 95.7732 60.5297 97.4023C59.7129 97.9453 58.9704 97.97 58.1537 97.4023C55.7283 95.7732 53.2534 94.1441 50.7785 92.5644C50.3825 92.3176 49.838 92.1695 49.3925 92.1942C46.5958 92.3176 43.8239 92.4657 41.0272 92.6631C39.765 92.7619 38.9731 92.3423 38.4038 91.1822C37.1911 88.6645 35.9289 86.1962 34.6172 83.7279C34.3697 83.2836 33.9242 82.8393 33.4787 82.5925C30.979 81.2843 28.4794 80.0008 25.9302 78.7666C24.9155 78.273 24.47 77.5819 24.569 76.4464C24.6927 75.0395 24.7422 73.6079 24.7917 72.1763L24.8165 72.2997ZM72.5331 89.0101C72.5331 89.0101 72.5331 89.0841 72.5331 89.1088C73.919 89.2075 75.3297 89.2569 76.7157 89.405C77.3344 89.4544 77.6067 89.2322 77.8541 88.7139C79.0421 86.2949 80.2548 83.876 81.517 81.5064C81.814 80.9634 82.309 80.4698 82.8535 80.1982C85.2047 78.9394 87.6054 77.7546 90.006 76.5945C90.5753 76.323 90.7237 75.9775 90.6742 75.3604C90.4762 72.6946 90.3278 70.0289 90.2535 67.3631C90.2535 66.6967 90.4763 65.9562 90.8228 65.3885C92.2087 63.167 93.6442 60.9949 95.1291 58.8722C95.5499 58.2798 95.4756 57.8849 95.1044 57.3172C93.6689 55.2191 92.3077 53.047 90.8722 50.949C90.402 50.2578 90.1793 49.5667 90.2288 48.7028C90.402 46.1111 90.501 43.4947 90.6742 40.903C90.7237 40.2366 90.5753 39.891 89.9565 39.5948C87.6054 38.4594 85.2542 37.2993 82.9772 36.0652C82.3585 35.7443 81.7893 35.1766 81.4675 34.5595C80.2053 32.2146 79.0174 29.8204 77.8294 27.4508C77.5819 26.9571 77.3097 26.7844 76.7404 26.8091C74.018 27.0065 71.2956 27.1793 68.5484 27.278C67.9545 27.278 67.2615 27.1052 66.7417 26.7844C64.44 25.3281 62.1631 23.7977 59.9109 22.2674C59.4655 21.9712 59.1685 21.9712 58.723 22.2674C56.4955 23.7731 54.2433 25.3034 51.9664 26.735C51.3972 27.0806 50.63 27.3027 49.9865 27.278C47.3136 27.1793 44.6406 27.0065 41.9677 26.8091C41.3737 26.7597 41.0767 26.9325 40.8045 27.4755C39.6413 29.8697 38.4533 32.264 37.1911 34.6089C36.8694 35.2013 36.3249 35.7443 35.7309 36.0652C33.4045 37.324 31.0285 38.4841 28.6526 39.6442C28.1329 39.891 27.9101 40.1872 27.9596 40.7796C28.1329 43.47 28.3061 46.1605 28.3804 48.8509C28.3804 49.468 28.2319 50.1591 27.9101 50.6775C26.5242 52.8989 25.0887 55.071 23.6038 57.1937C23.1583 57.8602 23.1088 58.3045 23.579 58.9956C25.064 61.143 26.5242 63.3151 27.8854 65.5119C28.2071 66.0549 28.4051 66.7707 28.3804 67.4125C28.3061 69.9795 28.1329 72.5712 27.9596 75.1382C27.9101 75.9034 28.0834 76.3477 28.8506 76.6933C31.2265 77.804 33.553 78.9888 35.8547 80.1982C36.3991 80.4944 36.8941 80.9881 37.1911 81.5311C38.4038 83.802 39.5671 86.0975 40.656 88.4424C41.0273 89.2569 41.4975 89.4544 42.3637 89.3803C44.8881 89.1582 47.4126 89.0101 49.937 88.936C50.63 88.936 51.4219 89.1335 52.0159 89.5037C54.3176 90.9353 56.545 92.441 58.7725 93.9713C59.1932 94.2428 59.4655 94.2428 59.8862 93.9713C61.5939 92.8112 63.4006 91.7499 65.0588 90.491C66.717 89.2569 68.3999 88.5411 70.5036 89.0101C71.1471 89.1582 71.8648 89.0101 72.5578 89.0101H72.5331Z" fill="white"/>
<path d="M59.2923 82.8886C45.4327 82.8886 33.9243 71.5344 34.4688 56.7494C34.939 43.7661 46.6207 33.0044 59.614 33.2265C73.5231 33.4734 84.9325 45.0497 84.19 59.4398C83.5218 72.4477 72.6074 82.9626 59.2923 82.8886ZM80.8983 58.2057C80.8241 46.2097 71.2214 36.534 59.3665 36.6081C46.8186 36.6821 38.0079 46.8021 37.8099 57.4405C37.5624 69.9547 47.6601 79.976 60.1337 79.5564C71.4936 79.1862 80.7746 69.9301 80.8983 58.2057Z" fill="white"/>
<path d="M56.1243 62.1057C59.9357 58.5266 63.5491 55.1204 67.1873 51.7141C67.5832 51.3439 67.9545 50.9736 68.3752 50.6281C69.0434 50.0851 69.9592 50.1097 70.5532 50.7021C71.1966 51.2945 71.2461 52.2325 70.7016 52.9483C70.5779 53.1211 70.4294 53.2445 70.2809 53.3926C66.0735 57.3418 61.8662 61.3158 57.634 65.2651C56.6441 66.1783 55.7283 66.1783 54.8374 65.2651C52.6594 63.0436 50.4815 60.8221 48.3036 58.6007C47.8086 58.0823 47.3878 57.4653 47.7591 56.7741C48.0066 56.3052 48.5511 55.7621 48.9965 55.7128C49.541 55.6634 50.2835 55.9596 50.7042 56.3545C52.3872 57.9589 53.9712 59.6374 55.5551 61.3158C55.7779 61.5379 55.9263 61.8341 56.1243 62.1303V62.1057Z" fill="white"/>
</svg>
