<svg width="20" height="19" viewBox="0 0 20 19" fill="none" xmlns="http://www.w3.org/2000/svg">
<path d="M1.91559 16.043V17.7461C1.91559 17.9597 1.84471 18.1387 1.70294 18.2831C1.56137 18.4277 1.38588 18.5 1.17647 18.5H0.739118C0.529706 18.5 0.354216 18.4277 0.212647 18.2831C0.0708822 18.1387 0 17.9597 0 17.7461V8.4815L2.41471 1.2539C2.49431 1.0215 2.63235 0.8378 2.82882 0.7028C3.02549 0.5676 3.24598 0.5 3.49029 0.5H16.555C16.7934 0.5 17.0051 0.5674 17.19 0.7022C17.3747 0.8372 17.5065 1.0211 17.5853 1.2539L20 8.4815V17.7461C20 17.9597 19.9291 18.1387 19.7874 18.2831C19.6458 18.4277 19.4703 18.5 19.2609 18.5H18.8115C18.5968 18.5 18.4219 18.4277 18.2868 18.2831C18.1519 18.1387 18.0844 17.9597 18.0844 17.7461V16.043H1.91559ZM2.06176 6.974H17.9382L16.2671 2.0078H3.73294L2.06176 6.974ZM4.45823 13.0046C4.86922 13.0046 5.21431 12.8596 5.49353 12.5696C5.77275 12.2796 5.91235 11.9291 5.91235 11.5181C5.91235 11.0959 5.7702 10.7394 5.48588 10.4486C5.20157 10.1578 4.85882 10.0124 4.45765 10.0124C4.04529 10.0124 3.69578 10.1582 3.40912 10.4498C3.12226 10.7416 2.97882 11.0979 2.97882 11.5187C2.97882 11.9395 3.12265 12.2924 3.41029 12.5774C3.69794 12.8622 4.04725 13.0046 4.45823 13.0046ZM15.5597 13.0046C15.9705 13.0046 16.3188 12.8596 16.6047 12.5696C16.8904 12.2796 17.0332 11.9291 17.0332 11.5181C17.0332 11.0959 16.8899 10.7394 16.6032 10.4486C16.3166 10.1578 15.9685 10.0124 15.5591 10.0124C15.1497 10.0124 14.8041 10.1582 14.5224 10.4498C14.2406 10.7416 14.0997 11.0979 14.0997 11.5187C14.0997 11.9395 14.243 12.2924 14.5297 12.5774C14.8166 12.8622 15.1599 13.0046 15.5597 13.0046ZM1.47824 14.5355H18.5218V8.4815H1.47824V14.5355Z" fill="#D42224"/>
</svg>
