<svg width="20" height="19" viewBox="0 0 20 19" fill="none" xmlns="http://www.w3.org/2000/svg">
<path d="M5.14158 18.4579C4.58439 18.4403 4.05439 18.2965 3.55158 18.0265C3.04895 17.7567 2.5736 17.3607 2.12553 16.8384C1.45746 16.057 0.936228 15.1116 0.561842 14.0023C0.187281 12.893 0 11.7479 0 10.5671C0 9.17847 0.26114 7.87417 0.783421 6.65417C1.3057 5.43417 2.0186 4.37242 2.92211 3.46891C3.82561 2.5654 4.8857 1.85084 6.10237 1.32523C7.31886 0.799612 8.61807 0.536804 10 0.536804C11.3819 0.536804 12.6811 0.800576 13.8976 1.32812C15.1143 1.85549 16.1727 2.57461 17.0729 3.48549C17.9731 4.39654 18.686 5.46575 19.2116 6.69312C19.7372 7.92049 20 9.23593 20 10.6394C20 11.8635 19.8028 13.0322 19.4084 14.1458C19.0142 15.2593 18.4599 16.2038 17.7455 16.9794C17.2876 17.4715 16.8125 17.8409 16.3203 18.0876C15.8278 18.3344 15.3175 18.4579 14.7895 18.4579C14.5074 18.4579 14.2287 18.4235 13.9534 18.3547C13.6782 18.2858 13.4029 18.1825 13.1276 18.045L11.6539 17.3081C11.3957 17.1753 11.1262 17.0776 10.8455 17.015C10.5648 16.9522 10.2796 16.9208 9.99 16.9208C9.69351 16.9208 9.40772 16.9522 9.13263 17.015C8.85754 17.0776 8.59202 17.1753 8.33605 17.3081L6.87237 18.045C6.57956 18.2 6.29281 18.3121 6.0121 18.381C5.7314 18.4498 5.44123 18.4754 5.14158 18.4579ZM5.195 17.1352C5.37184 17.1352 5.55193 17.113 5.73526 17.0686C5.91842 17.0241 6.09842 16.9579 6.27526 16.8702L7.74895 16.1334C8.09842 15.9592 8.4593 15.8282 8.83158 15.7405C9.20386 15.6528 9.58456 15.6089 9.97368 15.6089C10.3628 15.6089 10.7461 15.651 11.1234 15.7352C11.501 15.8193 11.8681 15.952 12.2247 16.1334L13.7247 16.8702C13.9016 16.9579 14.0772 17.0241 14.2516 17.0686C14.4261 17.113 14.6018 17.1352 14.7787 17.1352C15.1454 17.1352 15.4979 17.0439 15.8363 16.8613C16.1749 16.6786 16.5086 16.4025 16.8374 16.0329C17.4204 15.3662 17.8728 14.5566 18.1947 13.6042C18.5165 12.6519 18.6774 11.6551 18.6774 10.6136C18.6774 8.16294 17.8373 6.09119 16.1571 4.39838C14.4771 2.70575 12.4247 1.85944 10 1.85944C7.57526 1.85944 5.52289 2.71365 3.84289 4.42207C2.16272 6.13066 1.32263 8.21251 1.32263 10.6676C1.32263 11.7199 1.48833 12.7215 1.81974 13.6723C2.15132 14.6234 2.61263 15.4271 3.20368 16.0834C3.52807 16.4486 3.85202 16.7153 4.17553 16.8834C4.49886 17.0513 4.83868 17.1352 5.195 17.1352ZM10 12.2508C10.4782 12.2508 10.8834 12.0846 11.2155 11.7523C11.5478 11.4202 11.7139 11.015 11.7139 10.5368C11.7139 10.3898 11.6957 10.2443 11.6592 10.1005C11.6227 9.9568 11.5678 9.8218 11.4945 9.69549L13.3024 7.36865C13.5327 7.61075 13.7365 7.8761 13.9137 8.1647C14.0909 8.4533 14.2312 8.76602 14.3347 9.10286H15.7097C15.3801 7.77444 14.6868 6.69391 13.63 5.86128C12.573 5.02865 11.363 4.61233 10 4.61233C8.63702 4.61233 7.42263 5.02961 6.35684 5.86417C5.29123 6.69856 4.59895 7.77812 4.28 9.10286H5.645C5.96395 8.14882 6.5229 7.38233 7.32184 6.80338C8.12079 6.22444 9.01351 5.93496 10 5.93496C10.4058 5.93496 10.8 5.98812 11.1826 6.09444C11.5651 6.20093 11.9261 6.35382 12.2658 6.55312L10.4529 8.89049C10.3831 8.86979 10.3087 8.8533 10.2297 8.84101C10.1508 8.82891 10.0742 8.82286 10 8.82286C9.52175 8.82286 9.11658 8.989 8.78447 9.32128C8.45219 9.65338 8.28605 10.0586 8.28605 10.5368C8.28605 11.015 8.45219 11.4202 8.78447 11.7523C9.11658 12.0846 9.52175 12.2508 10 12.2508Z" fill="#D42224"/>
</svg>
