<svg width="20" height="18" viewBox="0 0 20 18" fill="none" xmlns="http://www.w3.org/2000/svg">
<path d="M2.5 17.0891C1.80497 17.0891 1.21455 16.846 0.72873 16.3597C0.24291 15.8732 0 15.2826 0 14.5879C0 13.9996 0.180022 13.4821 0.540065 13.0353C0.899949 12.5885 1.35436 12.2978 1.90331 12.1631V5.83696C1.35436 5.7023 0.899949 5.41157 0.540065 4.96477C0.180022 4.51796 0 4.00042 0 3.41214C0 2.71743 0.243307 2.12685 0.72992 1.64039C1.21653 1.1541 1.80735 0.91095 2.50238 0.91095C3.19741 0.91095 3.78783 1.1541 4.27365 1.64039C4.75947 2.12685 5.00238 2.71743 5.00238 3.41214C5.00238 4.00042 4.82244 4.51796 4.46255 4.96477C4.10251 5.41157 3.64801 5.7023 3.09907 5.83696V8.40215H9.3976V5.83696C8.84865 5.7023 8.39416 5.41157 8.03412 4.96477C7.67423 4.51796 7.49429 4.00042 7.49429 3.41214C7.49429 2.71743 7.7376 2.12685 8.22421 1.64039C8.71082 1.1541 9.30164 0.91095 9.99667 0.91095C10.6917 0.91095 11.2821 1.1541 11.7679 1.64039C12.2538 2.12685 12.4967 2.71743 12.4967 3.41214C12.4967 4.00042 12.3167 4.51796 11.9568 4.96477C11.5968 5.41157 11.1423 5.7023 10.5934 5.83696V8.40215H15.5955C15.963 8.40215 16.2724 8.27312 16.5238 8.01506C16.7754 7.757 16.9012 7.45089 16.9012 7.09671V5.83696C16.3521 5.7023 15.8976 5.41157 15.5377 4.96477C15.1778 4.51796 14.9979 4.00042 14.9979 3.41214C14.9979 2.71743 15.2411 2.12685 15.7275 1.64039C16.2142 1.1541 16.805 0.91095 17.5 0.91095C18.1952 0.91095 18.7856 1.1541 19.2713 1.64039C19.7571 2.12685 20 2.71743 20 3.41214C20 4.00042 19.8201 4.51796 19.4602 4.96477C19.1003 5.41157 18.6458 5.7023 18.0967 5.83696V7.09671C18.0967 7.78714 17.8535 8.37661 17.3672 8.86513C16.8809 9.35364 16.2904 9.5979 15.5955 9.5979H10.5934V12.1631C11.1423 12.2978 11.5968 12.5885 11.9568 13.0353C12.3167 13.4821 12.4967 13.9996 12.4967 14.5879C12.4967 15.2826 12.2534 15.8732 11.7667 16.3597C11.2801 16.846 10.6893 17.0891 9.99429 17.0891C9.29926 17.0891 8.70884 16.846 8.22302 16.3597C7.7372 15.8732 7.49429 15.2826 7.49429 14.5879C7.49429 13.9996 7.67423 13.4821 8.03412 13.0353C8.39416 12.5885 8.84865 12.2978 9.3976 12.1631V9.5979H3.09907V12.1631C3.64801 12.2978 4.10251 12.5885 4.46255 13.0353C4.82244 13.4821 5.00238 13.9996 5.00238 14.5879C5.00238 15.2826 4.75907 15.8732 4.27246 16.3597C3.786 16.846 3.19518 17.0891 2.5 17.0891ZM2.50119 15.8933C2.85536 15.8933 3.16148 15.7676 3.41954 15.5163C3.6776 15.2649 3.80662 14.9554 3.80662 14.5879C3.80662 14.2337 3.68116 13.9276 3.43024 13.6696C3.17932 13.4115 2.87059 13.2825 2.50404 13.2825C2.13734 13.2825 1.82758 13.4115 1.57475 13.6696C1.32209 13.9276 1.19576 14.2364 1.19576 14.5958C1.19576 14.9553 1.32145 15.2615 1.57285 15.5143C1.82424 15.767 2.13369 15.8933 2.50119 15.8933ZM2.50119 4.71757C2.85536 4.71757 3.16148 4.59211 3.41954 4.34119C3.6776 4.09027 3.80662 3.78154 3.80662 3.41499C3.80662 3.04829 3.68116 2.73853 3.43024 2.4857C3.17932 2.23304 2.87059 2.10671 2.50404 2.10671C2.13734 2.10671 1.82758 2.2324 1.57475 2.4838C1.32209 2.73519 1.19576 3.04464 1.19576 3.41214C1.19576 3.76631 1.32145 4.07243 1.57285 4.33049C1.82424 4.58854 2.13369 4.71757 2.50119 4.71757ZM9.99548 15.8933C10.3497 15.8933 10.6558 15.7676 10.9138 15.5163C11.1719 15.2649 11.3009 14.9554 11.3009 14.5879C11.3009 14.2337 11.1719 13.9276 10.9138 13.6696C10.6558 13.4115 10.3497 13.2825 9.99548 13.2825C9.6413 13.2825 9.33519 13.4115 9.07713 13.6696C8.81907 13.9276 8.69005 14.2364 8.69005 14.5958C8.69005 14.9553 8.81907 15.2615 9.07713 15.5143C9.33519 15.767 9.6413 15.8933 9.99548 15.8933ZM9.99548 4.71757C10.3497 4.71757 10.6558 4.59211 10.9138 4.34119C11.1719 4.09027 11.3009 3.78154 11.3009 3.41499C11.3009 3.04829 11.1719 2.73853 10.9138 2.4857C10.6558 2.23304 10.3497 2.10671 9.99548 2.10671C9.6413 2.10671 9.33519 2.23217 9.07713 2.48309C8.81907 2.73385 8.69005 3.04258 8.69005 3.40928C8.69005 3.77599 8.81907 4.08575 9.07713 4.33858C9.33519 4.59124 9.6413 4.71757 9.99548 4.71757ZM17.5069 4.71757C17.8663 4.71757 18.1724 4.59211 18.4252 4.34119C18.6781 4.09027 18.8045 3.78154 18.8045 3.41499C18.8045 3.04829 18.6787 2.73853 18.4272 2.4857C18.1758 2.23304 17.8663 2.10671 17.4988 2.10671C17.1446 2.10671 16.8385 2.23217 16.5805 2.48309C16.3224 2.73385 16.1934 3.04258 16.1934 3.40928C16.1934 3.77599 16.3224 4.08575 16.5805 4.33858C16.8385 4.59124 17.1473 4.71757 17.5069 4.71757Z" fill="#D42224"/>
</svg>
