<svg width="16" height="20" viewBox="0 0 16 20" fill="none" xmlns="http://www.w3.org/2000/svg">
<path d="M7.9995 10.0129C7.34383 10.0129 6.78367 9.78039 6.319 9.31539C5.85417 8.85039 5.62175 8.28998 5.62175 7.63414C5.62175 6.97848 5.85425 6.41831 6.31925 5.95364C6.78425 5.48881 7.34467 5.25639 8.0005 5.25639C8.65617 5.25639 9.21633 5.48889 9.681 5.95389C10.1458 6.41889 10.3783 6.97931 10.3783 7.63514C10.3783 8.29081 10.1458 8.85098 9.68075 9.31564C9.21575 9.78048 8.65533 10.0129 7.9995 10.0129ZM2.5475 19.8654V12.7654C1.85767 12.0654 1.344 11.2718 1.0065 10.3846C0.668833 9.49731 0.5 8.58064 0.5 7.63464C0.5 5.52731 1.223 3.75048 2.669 2.30414C4.115 0.857811 5.8915 0.134644 7.9985 0.134644C10.1055 0.134644 11.8825 0.857811 13.3295 2.30414C14.7765 3.75048 15.5 5.52731 15.5 7.63464C15.5 8.58064 15.3312 9.49731 14.9935 10.3846C14.656 11.2718 14.1423 12.0654 13.4525 12.7654V19.8654L8 18.1254L2.5475 19.8654ZM7.99925 13.8781C9.74075 13.8781 11.2168 13.2731 12.4275 12.0629C13.6382 10.8527 14.2435 9.37689 14.2435 7.63539C14.2435 5.89389 13.6384 4.41781 12.4283 3.20714C11.2181 1.99648 9.74225 1.39114 8.00075 1.39114C6.25925 1.39114 4.78317 1.99623 3.5725 3.20639C2.36183 4.41656 1.7565 5.89239 1.7565 7.63389C1.7565 9.37539 2.36158 10.8515 3.57175 12.0621C4.78192 13.2728 6.25775 13.8781 7.99925 13.8781ZM3.80375 18.0924L8 16.8501L12.1962 18.0924V13.8051C11.5829 14.2513 10.9144 14.5844 10.1908 14.8044C9.46725 15.0246 8.73633 15.1346 7.998 15.1346C7.25967 15.1346 6.52933 15.0246 5.807 14.8044C5.08483 14.5844 4.41708 14.2513 3.80375 13.8051V18.0924Z" fill="#D42224"/>
</svg>
