<svg width="24" height="24" viewBox="0 0 24 24" fill="none" xmlns="http://www.w3.org/2000/svg">
<path d="M3.64658 20.2895C3.19412 20.2895 2.80658 20.1282 2.48395 19.8055C2.16132 19.4829 2 19.0954 2 18.6429V6.14658C2 5.69412 2.16132 5.30658 2.48395 4.98395C2.80658 4.66132 3.19412 4.5 3.64658 4.5H20.3534C20.8059 4.5 21.1934 4.66132 21.5161 4.98395C21.8387 5.30658 22 5.69412 22 6.14658V18.6429C22 19.0954 21.8387 19.4829 21.5161 19.8055C21.1934 20.1282 20.8059 20.2895 20.3534 20.2895H3.64658ZM6.12421 15.5703H7.10263V9.21921H6.32658L4.50605 10.4837L5.01763 11.2503L6.12421 10.4974V15.5703ZM9.48447 15.5703H13.5574V14.6605H10.8071L10.8029 14.5876C11.085 14.3417 11.3625 14.089 11.6355 13.8297C11.9087 13.5703 12.1661 13.3141 12.4076 13.0613C12.7359 12.7334 12.9853 12.4148 13.1558 12.1055C13.3263 11.7962 13.4116 11.4401 13.4116 11.0371C13.4116 10.5164 13.2287 10.0832 12.8629 9.73763C12.4973 9.39202 12.0261 9.21921 11.4495 9.21921C10.9893 9.21921 10.5847 9.33711 10.2355 9.5729C9.8864 9.80868 9.62886 10.1177 9.46289 10.5L10.3724 10.9089C10.4669 10.6998 10.6127 10.5265 10.8097 10.3889C11.0068 10.2516 11.2192 10.1829 11.4471 10.1829C11.7582 10.1829 12.0039 10.2673 12.1842 10.4361C12.3646 10.6046 12.4547 10.8189 12.4547 11.0789C12.4547 11.3591 12.3913 11.6004 12.2645 11.8026C12.1376 12.0049 11.9361 12.2392 11.66 12.5055C11.2816 12.8896 10.9325 13.2326 10.6129 13.5347C10.2934 13.8368 9.91728 14.195 9.48447 14.6092V15.5703ZM17.4413 15.5703C18.0392 15.5703 18.5292 15.4111 18.9113 15.0929C19.2934 14.7745 19.4845 14.3222 19.4845 13.7361C19.4845 13.3273 19.3787 12.9923 19.1671 12.7311C18.9554 12.47 18.6684 12.3089 18.3063 12.2476V12.2097C18.6239 12.1194 18.8627 11.9632 19.0229 11.7413C19.1831 11.5192 19.2632 11.2287 19.2632 10.8697C19.2632 10.3699 19.0878 9.96991 18.7371 9.66974C18.3866 9.36939 17.943 9.21921 17.4063 9.21921C16.9675 9.21921 16.5883 9.33632 16.2687 9.57053C15.9492 9.80474 15.7004 10.0795 15.5224 10.3947L16.355 10.8037C16.4697 10.607 16.6193 10.4508 16.8037 10.335C16.9881 10.2192 17.1889 10.1613 17.4063 10.1613C17.6689 10.1613 17.8847 10.2368 18.0534 10.3879C18.222 10.5391 18.3063 10.738 18.3063 10.9845C18.3063 11.2697 18.2056 11.481 18.0042 11.6182C17.8026 11.7554 17.5412 11.8239 17.22 11.8239H16.8568V12.7442H17.2618C17.6213 12.7442 17.9221 12.8278 18.1642 12.995C18.4065 13.162 18.5276 13.3996 18.5276 13.7076C18.5276 13.9992 18.4232 14.2368 18.2142 14.4203C18.0053 14.6039 17.7476 14.6958 17.4413 14.6958C17.162 14.6958 16.9136 14.6187 16.6961 14.4645C16.4785 14.3104 16.3086 14.083 16.1863 13.7821L15.3429 14.1032C15.4864 14.557 15.7353 14.915 16.0895 15.1771C16.4437 15.4392 16.8943 15.5703 17.4413 15.5703ZM3.64658 18.9668H20.3534C20.448 18.9668 20.5256 18.9365 20.5863 18.8758C20.647 18.8151 20.6774 18.7375 20.6774 18.6429V6.14658C20.6774 6.05202 20.647 5.97439 20.5863 5.91368C20.5256 5.85298 20.448 5.82263 20.3534 5.82263H3.64658C3.55202 5.82263 3.47439 5.85298 3.41368 5.91368C3.35298 5.97439 3.32263 6.05202 3.32263 6.14658V18.6429C3.32263 18.7375 3.35298 18.8151 3.41368 18.8758C3.47439 18.9365 3.55202 18.9668 3.64658 18.9668Z" fill="#D42224"/>
</svg>
