<svg width="19" height="16" viewBox="0 0 19 16" fill="none" xmlns="http://www.w3.org/2000/svg">
<path id="Vector" d="M0 16V1.7347H9.2875V2.68691H1.02318V15.048H14.3085V9.03686H15.3319V16H0ZM3.55023 12.9H4.5734V7.51844H3.55023V12.9ZM7.15434 12.9H8.17752V4.83468H7.15434V12.9ZM10.7582 12.9H11.7814V10.1422H10.7582V12.9ZM14.8809 7.66508C14.4091 7.66508 13.9575 7.58956 13.5263 7.43851C13.0951 7.28733 12.6869 7.0837 12.3018 6.82762L11.3411 7.65061L10.6421 7.00028L11.5943 6.11793C11.3479 5.77989 11.1476 5.41809 10.9934 5.0325C10.839 4.64678 10.7618 4.24679 10.7618 3.83254C10.7618 2.77229 11.1634 1.86847 11.9665 1.12108C12.7698 0.373695 13.7413 0 14.8809 0H19V3.83254C19 4.89293 18.5984 5.79682 17.7951 6.54421C16.9918 7.29146 16.0204 7.66508 14.8809 7.66508ZM14.8809 6.71308C15.7409 6.71308 16.4718 6.43302 17.0738 5.8729C17.6758 5.31278 17.9768 4.63266 17.9768 3.83254V0.951999H14.8809C14.021 0.951999 13.29 1.23206 12.688 1.79218C12.086 2.35231 11.785 3.03242 11.785 3.83254C11.785 4.12008 11.8347 4.3977 11.934 4.66538C12.0336 4.93321 12.1533 5.19942 12.2932 5.46403L15.3769 2.59482L16.121 3.26612L13.0373 6.13534C13.3101 6.30638 13.6018 6.44547 13.9125 6.5526C14.2231 6.65959 14.5459 6.71308 14.8809 6.71308Z" fill="white"/>
</svg>
