<svg width="60" height="60" viewBox="0 0 60 60" fill="none" xmlns="http://www.w3.org/2000/svg">
<circle cx="29.9644" cy="29.9644" r="29.9644" fill="#2A5B59"/>
<path d="M40.7002 42L36.3746 37.6787V41.2031H34.5115V34.4863H41.2356V36.3474H37.6677L42 40.6747L40.7002 42ZM29.3798 41.7389C27.6676 41.7389 26.0585 41.4143 24.5525 40.7651C23.0465 40.1159 21.7366 39.2337 20.6227 38.1184C19.5089 37.0029 18.6266 35.6935 17.9759 34.1903C17.3253 32.687 17 31.0808 17 29.3718C17 27.6608 17.3254 26.0525 17.9762 24.547C18.6272 23.0413 19.5106 21.7317 20.6264 20.6182C21.7422 19.5045 23.0523 18.623 24.5568 17.9738C26.0615 17.3246 27.6691 17 29.3798 17C31.0922 17 32.7021 17.3252 34.2095 17.9755C35.717 18.6258 37.0284 19.5083 38.1435 20.6232C39.2584 21.738 40.1408 23.0472 40.7908 24.5507C41.4407 26.0542 41.7656 27.6606 41.7656 29.3701C41.7656 29.7615 41.7494 30.1504 41.717 30.5368C41.6846 30.9231 41.6327 31.3121 41.5612 31.7039H39.6208C39.7147 31.3232 39.7852 30.9369 39.8322 30.5451C39.879 30.1531 39.9025 29.7612 39.9025 29.3695C39.9025 28.8861 39.8696 28.4029 39.8039 27.9197C39.7382 27.4364 39.6353 26.956 39.4953 26.4786H34.5817C34.6654 26.9604 34.726 27.4424 34.7635 27.9244C34.8012 28.4066 34.8201 28.8889 34.8201 29.3711C34.8201 29.756 34.8083 30.1436 34.7848 30.5338C34.7613 30.9241 34.7265 31.3141 34.6806 31.7039H32.7955C32.8492 31.3147 32.8896 30.9257 32.9167 30.5368C32.9435 30.1477 32.9569 29.7586 32.9569 29.3695C32.9569 28.8861 32.9356 28.4029 32.893 27.9197C32.8506 27.4364 32.7891 26.956 32.7086 26.4786H26.0637C25.9731 26.956 25.908 27.4367 25.8683 27.9207C25.8285 28.4047 25.8087 28.8888 25.8087 29.3728C25.8087 29.8566 25.8285 30.3394 25.8683 30.8212C25.908 31.3032 25.972 31.7829 26.0604 32.2603H31.4444V34.1214H26.4952C26.7902 35.1817 27.1746 36.1981 27.6485 37.1705C28.1226 38.143 28.7007 39.063 29.3828 39.9303C29.7692 39.9303 30.1578 39.9114 30.5484 39.8735C30.9391 39.8355 31.3316 39.7854 31.7261 39.7231V41.5317C31.3316 41.594 30.9391 41.6441 30.5484 41.682C30.1578 41.72 29.7682 41.7389 29.3798 41.7389ZM19.277 32.2603H24.1839C24.1009 31.7785 24.0408 31.2963 24.0038 30.8139C23.9665 30.3314 23.9478 29.8488 23.9478 29.3661C23.9478 28.8837 23.9665 28.4022 24.0038 27.9217C24.0408 27.4415 24.1009 26.9604 24.1839 26.4786H19.2753C19.1397 26.956 19.0371 27.4367 18.9674 27.9207C18.8979 28.4047 18.8631 28.8888 18.8631 29.3728C18.8631 29.8566 18.8966 30.3394 18.9634 30.8212C19.0302 31.3032 19.1347 31.7829 19.277 32.2603ZM20.0334 24.6175H24.5721C24.8016 23.6452 25.1157 22.7025 25.5143 21.7892C25.913 20.8757 26.3966 20.0046 26.9653 19.1758C25.4533 19.5134 24.0937 20.1558 22.8864 21.1028C21.6794 22.0497 20.7284 23.2213 20.0334 24.6175ZM26.9653 39.5632C26.4215 38.7242 25.9472 37.8495 25.5423 36.9391C25.1377 36.0287 24.8155 35.0895 24.5758 34.1214H20.0334C20.7284 35.509 21.6816 36.6752 22.8931 37.6202C24.1043 38.565 25.4617 39.2126 26.9653 39.5632ZM26.4952 24.6175H32.2767C31.9891 23.5523 31.6019 22.5393 31.1151 21.5783C30.6281 20.6174 30.0507 19.6942 29.3828 18.8086C28.7091 19.676 28.1304 20.5947 27.6465 21.5647C27.1624 22.5348 26.7786 23.5523 26.4952 24.6175ZM34.1958 24.6175H38.7385C38.0393 23.2213 37.0862 22.0476 35.8792 21.0964C34.6719 20.1452 33.3123 19.505 31.8003 19.1758C32.3441 20.0148 32.812 20.8916 33.204 21.8062C33.5958 22.721 33.9264 23.6581 34.1958 24.6175Z" fill="white"/>
</svg>
