<svg width="26" height="27" viewBox="0 0 26 27" fill="none" xmlns="http://www.w3.org/2000/svg">
<path d="M17.7758 13.2578C17.0072 12.6117 15.8511 12.7005 15.2004 13.4661L14.663 14.0969C14.6431 14.1168 14.6156 14.1245 14.588 14.1168C13.8791 13.8779 12.5577 13.2073 11.6881 11.396C11.6804 11.3761 11.6835 11.3531 11.7003 11.3332L12.3709 10.5569C13.017 9.80819 12.9466 8.65989 12.2102 8.0015L10.7127 6.64952C10.3483 6.32033 9.87062 6.15192 9.38372 6.18253C8.89376 6.2101 8.44362 6.42905 8.11441 6.79804L7.21257 7.81778C6.80837 8.27254 6.56645 8.86049 6.52204 9.46832C6.43171 10.7698 6.60472 14.0892 10.1202 16.8483C10.4188 17.1147 12.9543 19.2981 15.799 19.2981C16.3563 19.2981 16.9274 19.2154 17.4924 19.0163C17.9472 18.8556 18.359 18.5769 18.676 18.2094L19.5579 17.1866C19.8794 16.8146 20.0356 16.3353 19.9973 15.8454C19.9575 15.3554 19.7309 14.9083 19.3543 14.5914L17.7758 13.2578ZM18.3714 16.167L17.4895 17.1898C17.3517 17.3505 17.1725 17.4715 16.9765 17.5419C14.2909 18.482 11.1829 15.7 11.1523 15.6755L11.1079 15.6342C8.2707 13.4155 7.99511 10.8906 8.08546 9.57866C8.10536 9.31224 8.21101 9.05808 8.38709 8.8621L9.28893 7.84236C9.35171 7.77193 9.42979 7.75661 9.47266 7.75202H9.48797C9.53084 7.75202 9.60128 7.76427 9.66405 7.81939L11.1615 9.17137C11.2671 9.26476 11.2748 9.43013 11.1845 9.54037L10.5138 10.3167C10.0913 10.8112 9.99326 11.5048 10.275 12.0851C11.3927 14.4139 13.1443 15.2913 14.089 15.6128C14.7244 15.8287 15.4211 15.6358 15.8575 15.1274L16.3949 14.4966C16.4883 14.3864 16.6536 14.3756 16.7639 14.466L18.344 15.8027C18.419 15.8654 18.4343 15.9435 18.4374 15.9833C18.4374 16.014 18.4342 16.0919 18.3714 16.167Z" fill="black"/>
<path d="M13.1815 0.000431376C9.7748 0.000431376 6.57337 1.32944 4.1616 3.73635C-0.064204 7.96215 -0.777976 14.5629 2.40233 19.5757L0 27L7.08599 23.9623C12.033 26.6586 18.1943 25.7843 22.2042 21.7758C27.1786 16.8014 27.1786 8.71234 22.2042 3.73749C19.7942 1.32599 16.5912 0 13.1811 0L13.1815 0.000431376ZM21.0958 20.6661C17.4976 24.2643 11.9151 24.9856 7.53291 22.4146L7.1884 22.2095L2.55535 24.1969L4.1278 19.3373L3.91192 19.0203C0.913994 14.5954 1.48509 8.63318 5.27157 4.84678C7.38451 2.73384 10.1943 1.57017 13.1815 1.57017C16.1687 1.57017 18.9783 2.73384 21.0914 4.84678C25.4551 9.20428 25.4549 16.3039 21.0958 20.6661Z" fill="black"/>
</svg>
