<svg width="22" height="19" viewBox="0 0 22 19" fill="none" xmlns="http://www.w3.org/2000/svg">
<path d="M18.5565 6.86683C18.395 6.76088 18.3541 6.54777 18.4584 6.39025L18.4592 6.38891L20.0922 4.00672H17.7497C17.6225 4.00672 17.5017 3.93992 17.4413 3.82365C17.3809 3.71039 17.3903 3.5768 17.4591 3.47189L17.4602 3.47016L17.4602 3.47018L19.4602 0.551533L19.4603 0.551371C19.5692 0.393056 19.785 0.355634 19.9434 0.454916L19.9449 0.455847L19.9449 0.45586C20.1072 0.56158 20.1485 0.775238 20.044 0.933079L20.0431 0.934424L18.4073 3.32026H20.7497C20.8763 3.32026 20.9963 3.38632 21.0571 3.50141C21.1203 3.61268 21.1132 3.75064 21.0386 3.855C21.0384 3.85535 21.0381 3.8557 21.0379 3.85606L19.04 6.77169C19.0399 6.77186 19.0398 6.77203 19.0396 6.7722C18.9729 6.87184 18.8608 6.92548 18.7497 6.92548C18.6842 6.92548 18.6175 6.90836 18.5565 6.86683ZM18.5565 6.86683C18.5562 6.8666 18.5558 6.86638 18.5555 6.86616L18.6121 6.78368L18.5575 6.86747C18.5571 6.86726 18.5568 6.86704 18.5565 6.86683ZM3.04063 0.469321L3.04062 0.469314L3.03957 0.470108C3.03883 0.47066 3.03796 0.471309 3.03697 0.472054C2.97726 0.51675 2.45358 0.908753 1.94016 1.54402C1.41919 2.18862 0.9 3.09456 0.9 4.15001C0.9 5.4144 1.95714 6.43899 3.24997 6.43899C4.5428 6.43899 5.59992 5.4144 5.59992 4.15001C5.59992 3.09313 5.08075 2.18717 4.55962 1.54288C4.03939 0.899696 3.50852 0.5065 3.4594 0.470125L3.45889 0.469746L3.45889 0.469744L3.45832 0.469322C3.33336 0.37814 3.16559 0.378141 3.04063 0.469321ZM16.7651 10.1304H5.73769L7.25459 5.70538L7.25464 5.70525C7.40246 5.27206 7.81655 4.97964 8.28986 4.97964H14.2098C14.6832 4.97964 15.0993 5.27222 15.248 5.70542L16.7651 10.1304ZM4.89995 4.15001C4.89995 5.03089 4.16219 5.75255 3.24997 5.75255C2.33775 5.75255 1.59999 5.03089 1.59999 4.15001C1.59999 3.42956 1.91287 2.77041 2.28779 2.2405C2.62884 1.75846 3.0164 1.39024 3.24997 1.1894C3.48354 1.39023 3.8711 1.75845 4.21215 2.24049C4.58707 2.77041 4.89995 3.42956 4.89995 4.15001ZM19.5998 16.311V12.446C19.5998 11.2608 18.6813 10.285 17.5071 10.1498L15.9107 5.48949C15.9107 5.48948 15.9107 5.48947 15.9107 5.48946C15.6659 4.77406 14.9824 4.29602 14.2106 4.29602H8.28796C7.51621 4.29602 6.83266 4.77407 6.58789 5.48949L4.99148 10.1498C3.81826 10.285 2.89992 11.2609 2.89992 12.446V16.311C2.89992 16.5028 3.05961 16.6542 3.24992 16.6542H3.89991V17.758C3.89991 18.2241 4.28981 18.6 4.75968 18.6H6.23721C6.70975 18.6 7.0999 18.2243 7.0999 17.758V16.6542H15.3998V17.758C15.3998 18.2241 15.7897 18.6 16.2596 18.6H17.7371C18.2096 18.6 18.5998 18.2243 18.5998 17.758V16.6542H19.2498C19.4401 16.6542 19.5998 16.5028 19.5998 16.311ZM4.60006 17.7579V16.6541H6.40298V17.7579C6.40298 17.8414 6.33244 17.9135 6.24028 17.9135H4.76275C4.67011 17.9135 4.60006 17.8409 4.60006 17.7579ZM16.0999 17.7579V16.6541H17.9028V17.7579C17.9028 17.8414 17.8323 17.9135 17.7401 17.9135H16.2626C16.17 17.9135 16.0999 17.8409 16.0999 17.7579ZM17.2225 10.8168C18.1495 10.8168 18.8999 11.5499 18.8999 12.4459L18.8999 15.9677H3.60012V12.4459C3.60012 11.5508 4.35058 10.8168 5.27745 10.8168H17.2225ZM6.25003 14.7083C6.99307 14.7083 7.60002 14.1217 7.60002 13.3922C7.60002 12.6627 6.99307 12.0761 6.25003 12.0761C5.507 12.0761 4.90005 12.6627 4.90005 13.3922C4.90005 14.1217 5.507 14.7083 6.25003 14.7083ZM6.25003 12.7625C6.60951 12.7625 6.90002 13.0491 6.90002 13.3922C6.90002 13.7353 6.60951 14.0218 6.25003 14.0218C5.89056 14.0218 5.60004 13.7353 5.60004 13.3922C5.60004 13.0491 5.89056 12.7625 6.25003 12.7625ZM16.2499 14.7083C16.9929 14.7083 17.5999 14.1217 17.5999 13.3922C17.5999 12.6627 16.9929 12.0761 16.2499 12.0761C15.5069 12.0761 14.8999 12.6627 14.8999 13.3922C14.8999 14.1217 15.5069 14.7083 16.2499 14.7083ZM16.2499 12.7625C16.6094 12.7625 16.8999 13.0491 16.8999 13.3922C16.8999 13.7353 16.6094 14.0218 16.2499 14.0218C15.8904 14.0218 15.5999 13.7353 15.5999 13.3922C15.5999 13.0491 15.8904 12.7625 16.2499 12.7625ZM13.2499 13.049H9.25C9.05968 13.049 8.9 13.2004 8.9 13.3922C8.9 13.5839 9.05968 13.7354 9.25 13.7354H13.2499C13.4403 13.7354 13.5999 13.5839 13.5999 13.3922C13.5999 13.2004 13.4403 13.049 13.2499 13.049Z" fill="#D42224" stroke="#D42224" stroke-width="0.2"/>
</svg>
