<svg width="35" height="48" viewBox="0 0 35 48" fill="none" xmlns="http://www.w3.org/2000/svg">
<path d="M17.5 11.6316L12.5907 6.85055L14.3922 5.02687L17.5 8.08609L25.0039 0.700195L26.8054 2.47322L17.5 11.6316ZM0 47.5976V30.6804L4.67044 17.203H30.3296L35 30.6804V47.5976H31.6477V43.4487H3.35228V47.5976H0ZM3.60809 28.1349H31.3919L28.4674 19.749H6.53265L3.60809 28.1349ZM7.80191 38.3181C8.52113 38.3181 9.12505 38.0733 9.61368 37.5836C10.1023 37.0939 10.3466 36.502 10.3466 35.808C10.3466 35.0951 10.0978 34.4931 9.60029 34.0021C9.10275 33.511 8.50294 33.2655 7.80088 33.2655C7.07926 33.2655 6.46762 33.5117 5.96596 34.0041C5.46395 34.4968 5.21294 35.0985 5.21294 35.809C5.21294 36.5196 5.46463 37.1155 5.96801 37.5967C6.4714 38.0777 7.0827 38.3181 7.80191 38.3181ZM27.2295 38.3181C27.9484 38.3181 28.5579 38.0733 29.0582 37.5836C29.5582 37.0939 29.8082 36.502 29.8082 35.808C29.8082 35.0951 29.5573 34.4931 29.0557 34.0021C28.554 33.511 27.9449 33.2655 27.2285 33.2655C26.512 33.2655 25.9072 33.5117 25.4141 34.0041C24.921 34.4968 24.6745 35.0985 24.6745 35.809C24.6745 36.5196 24.9253 37.1155 25.427 37.5967C25.929 38.0777 26.5298 38.3181 27.2295 38.3181ZM2.58691 40.9032H32.4131V30.6804H2.58691V40.9032Z" fill="url(#paint0_linear_3994_835)"/>
<defs>
<linearGradient id="paint0_linear_3994_835" x1="17.5" y1="0.700195" x2="17.5" y2="47.5976" gradientUnits="userSpaceOnUse">
<stop/>
<stop offset="1"/>
</linearGradient>
</defs>
</svg>
