<svg width="25" height="26" viewBox="0 0 25 26" fill="none" xmlns="http://www.w3.org/2000/svg">
<path d="M25 7.1577H18.826V5.59237H22.8947C21.4221 4.3486 19.8039 3.36643 18.0401 2.64586C16.2765 1.9255 14.4298 1.56533 12.5 1.56533C10.5702 1.56533 8.72346 1.9255 6.95987 2.64586C5.19605 3.36643 3.57785 4.3486 2.10526 5.59237H6.17401V7.1577H0V0.997161H1.56875V3.97157C3.13936 2.73109 4.85121 1.75898 6.70428 1.05526C8.55735 0.351753 10.4893 0 12.5 0C14.5107 0 16.4427 0.351753 18.2957 1.05526C20.1488 1.75898 21.8606 2.73109 23.4313 3.97157V0.997161H25V7.1577ZM10.777 25.9426L3.11743 18.2922L4.75954 16.6386L8.88158 17.7267V5.9206H10.8553V20.3476L6.86743 19.2592L11.6043 23.9732H20.3947V14.7828H22.3684V25.9426H10.777ZM12.7151 17.0804V10.844H14.6888V17.0804H12.7151ZM16.5612 17.0804V12.157H18.5349V17.0804H16.5612Z" fill="black"/>
</svg>
