<svg width="25" height="23" viewBox="0 0 25 23" fill="none" xmlns="http://www.w3.org/2000/svg">
<path d="M12.5 22.5875L11.3191 21.5181C9.0818 19.4797 7.23509 17.7251 5.77895 16.2543C4.32281 14.7832 3.1659 13.4769 2.30822 12.3352C1.45033 11.1933 0.851206 10.1593 0.510855 9.23322C0.170285 8.30713 0 7.37346 0 6.43224C0 4.60636 0.61557 3.07785 1.84671 1.84671C3.07785 0.615571 4.60186 0 6.41875 0C7.61809 0 8.73706 0.295395 9.77566 0.886184C10.8143 1.47675 11.7224 2.33191 12.5 3.45164C13.343 2.29945 14.2741 1.43607 15.2934 0.861513C16.3129 0.287171 17.4089 0 18.5812 0C20.3981 0 21.9221 0.615571 23.1533 1.84671C24.3844 3.07785 25 4.60636 25 6.43224C25 7.37346 24.8297 8.30713 24.4891 9.23322C24.1488 10.1593 23.5497 11.1933 22.6918 12.3352C21.8341 13.4769 20.6779 14.7832 19.223 16.2543C17.7684 17.7251 15.9211 19.4797 13.6809 21.5181L12.5 22.5875Z" fill="#D42224"/>
</svg>
