<svg width="33" height="33" viewBox="0 0 33 33" fill="none" xmlns="http://www.w3.org/2000/svg">
<path d="M8.93371 27.853H10.8641V23.7389H14.9778V21.8089H10.8641V17.7135H8.93371V21.8089H4.83824V23.7389H8.93371V27.853ZM19.0259 26.2351H28.0256V24.3344H19.0259V26.2351ZM19.0259 21.2134H28.0256V19.283H19.0259V21.2134ZM5.48154 10.1472H14.3163V8.21676H5.48154V10.1472ZM0.25 32.5V0H32.75V32.5H0.25ZM2.41937 30.3306H30.5806V2.16938H2.41937V30.3306ZM20.5921 13.423L23.434 10.5625L26.294 13.423L27.6838 12.0145L24.8233 9.19129L27.6838 6.33081L26.294 4.94143L23.434 7.78327L20.5921 4.94143L19.1836 6.33081L22.0441 9.19129L19.1836 12.0145L20.5921 13.423Z" fill="white"/>
</svg>
