<svg width="42" height="33" viewBox="0 0 42 33" fill="none" xmlns="http://www.w3.org/2000/svg">
<path d="M0.578125 32.8288V0.670898H41.3115V32.8288H0.578125ZM3.01087 30.3961H38.8787V3.10364H3.01087V30.3961ZM13.0581 27.1722H15.4903V24.822H18.2071C18.7087 24.822 19.1159 24.6348 19.4285 24.2603C19.7412 23.8859 19.8975 23.4612 19.8975 22.9863V17.3174C19.8975 16.7975 19.7412 16.3559 19.4285 15.9925C19.1159 15.6288 18.7087 15.4469 18.2071 15.4469H10.9303V11.1099H19.8975V8.67768H15.4903V6.32747H13.0581V8.67768H10.3616C9.84639 8.67768 9.4069 8.86491 9.04316 9.23937C8.67977 9.61383 8.49808 10.0585 8.49808 10.5734V16.1898C8.49808 16.7046 8.67977 17.115 9.04316 17.4209C9.4069 17.7267 9.84639 17.8797 10.3616 17.8797H17.4653V22.3898H8.49808V24.822H13.0581V27.1722ZM29.912 25.6056L32.9215 22.5962H26.902L29.912 25.6056ZM26.902 11.4395H32.9215L29.912 8.43006L26.902 11.4395Z" fill="white"/>
</svg>
