<svg width="46" height="55" viewBox="0 0 46 55" fill="none" xmlns="http://www.w3.org/2000/svg">
<path d="M45.5 55H17.5266L0.5 33.0318L3.26931 29.9531L13.69 35.1565V9.48994H16.8876V40.3333L6.01114 34.8817L19.1793 51.8182H42.3024V29.4947H23.6069V26.3136H45.5V55ZM5.66453 16.6077C5.18032 15.803 4.80742 14.9279 4.54582 13.9825C4.28376 13.0376 4.15272 12.0647 4.15272 11.0636C4.15272 7.99053 5.23903 5.37842 7.41164 3.22733C9.58426 1.07578 12.2098 0 15.2884 0C18.367 0 20.9928 1.08115 23.1659 3.24346C25.3385 5.40623 26.4248 8.02114 26.4248 11.0882C26.4248 12.0859 26.2938 13.0549 26.0317 13.9952C25.7697 14.9354 25.3968 15.8063 24.913 16.6077L22.1437 15.0172C22.4908 14.4382 22.7582 13.8159 22.9461 13.1505C23.134 12.485 23.2279 11.784 23.2279 11.0475C23.2279 8.86746 22.4551 7.01149 20.9095 5.4796C19.3638 3.94725 17.4869 3.18107 15.2786 3.18107C13.0707 3.18107 11.1973 3.94912 9.65823 5.48521C8.11918 7.0213 7.34965 8.88662 7.34965 11.0812C7.34965 11.7999 7.44358 12.4909 7.63144 13.154C7.8193 13.8171 8.08677 14.4382 8.43384 15.0172L5.66453 16.6077Z" fill="#D42224"/>
</svg>
