<svg width="25" height="23" viewBox="0 0 25 23" fill="none" xmlns="http://www.w3.org/2000/svg">
<path d="M12.5 22.3684L11.4549 21.4261C9.19463 19.3747 7.32763 17.609 5.85395 16.129C4.38048 14.649 3.20899 13.3354 2.33947 12.1882C1.46974 11.0409 0.862391 10.005 0.517434 9.08018C0.172478 8.15563 0 7.22859 0 6.29904C0 4.5112 0.608553 3.01446 1.82566 1.8088C3.04276 0.602935 4.54704 0 6.33849 0C7.56327 0 8.69901 0.305865 9.74572 0.917598C10.7924 1.52911 11.7105 2.41804 12.5 3.58437C13.3873 2.36959 14.3394 1.4685 15.3563 0.881103C16.3731 0.2937 17.4749 0 18.6615 0C20.453 0 21.9572 0.602935 23.1743 1.8088C24.3914 3.01446 25 4.5112 25 6.29904C25 7.22859 24.8275 8.15563 24.4826 9.08018C24.1376 10.005 23.5308 11.0401 22.6622 12.1856C21.7935 13.3308 20.6219 14.6443 19.1474 16.1261C17.6728 17.6081 15.8054 19.3747 13.5451 21.4261L12.5 22.3684ZM12.5 20.4084C14.6868 18.4253 16.4864 16.7256 17.8987 15.3095C19.311 13.8931 20.433 12.6539 21.2648 11.5919C22.0966 10.5298 22.6783 9.58547 23.0099 8.75889C23.3412 7.93254 23.5069 7.1141 23.5069 6.3036C23.5069 4.90852 23.0507 3.75566 22.1382 2.84501C21.2254 1.93436 20.069 1.47904 18.6688 1.47904C17.5473 1.47904 16.5162 1.81065 15.5757 2.47387C14.6353 3.1373 13.8141 4.11736 13.1122 5.41403H11.8674C11.1707 4.13082 10.3522 3.15414 9.41184 2.48397C8.47149 1.81402 7.44463 1.47904 6.33125 1.47904C4.93936 1.47904 3.78498 1.93436 2.86809 2.84501C1.95143 3.75566 1.49309 4.91178 1.49309 6.31338C1.49309 7.12258 1.65943 7.94264 1.99211 8.77356C2.325 9.60426 2.9045 10.5534 3.73059 11.6209C4.55669 12.6883 5.68289 13.9264 7.10921 15.3349C8.53531 16.7437 10.3322 18.4348 12.5 20.4084Z" fill="url(#paint0_linear_2716_835)"/>
<defs>
<linearGradient id="paint0_linear_2716_835" x1="12.5" y1="0" x2="12.5" y2="22.3684" gradientUnits="userSpaceOnUse">
<stop/>
<stop offset="1"/>
</linearGradient>
</defs>
</svg>
