<svg width="35" height="39" viewBox="0 0 35 39" fill="none" xmlns="http://www.w3.org/2000/svg">
<path d="M0 38.5967V4.67096H12.8836C13.013 3.56305 13.5119 2.62094 14.3804 1.84464C15.2485 1.068 16.2916 0.679688 17.5098 0.679688C18.7279 0.679688 19.7712 1.068 20.6397 1.84464C21.5082 2.62094 22.0004 3.56305 22.1164 4.67096H35V38.5967H0ZM3.08824 35.6033H31.9118V7.66441H3.08824V35.6033ZM7.72059 30.8826H21.1029V27.8897H7.72059V30.8826ZM7.72059 23.1306H27.2794V20.1371H7.72059V23.1306ZM7.72059 15.378H27.2794V12.3851H7.72059V15.378ZM17.5 6.35976C17.9461 6.35976 18.315 6.2184 18.6066 5.93569C18.8983 5.65297 19.0441 5.29542 19.0441 4.86303C19.0441 4.43065 18.8983 4.0731 18.6066 3.79038C18.315 3.50767 17.9461 3.36631 17.5 3.36631C17.0539 3.36631 16.685 3.50767 16.3934 3.79038C16.1017 4.0731 15.9559 4.43065 15.9559 4.86303C15.9559 5.29542 16.1017 5.65297 16.3934 5.93569C16.685 6.2184 17.0539 6.35976 17.5 6.35976Z" fill="white"/>
</svg>
