<svg width="35" height="35" viewBox="0 0 35 35" fill="none" xmlns="http://www.w3.org/2000/svg">
<path d="M17.5032 35C15.0827 35 12.8075 34.5407 10.6778 33.6221C8.54798 32.7035 6.69544 31.4569 5.12013 29.8822C3.54482 28.3075 2.29757 26.4557 1.37835 24.3268C0.459451 22.198 0 19.9234 0 17.5032C0 15.0827 0.459298 12.8075 1.37789 10.6778C2.29649 8.54798 3.54314 6.69544 5.11783 5.12013C6.69252 3.54482 8.5443 2.29757 10.6732 1.37835C12.802 0.459451 15.0766 0 17.4968 0C19.9173 0 22.1925 0.459297 24.3222 1.37789C26.452 2.29649 28.3046 3.54314 29.8799 5.11783C31.4552 6.69252 32.7024 8.5443 33.6216 10.6732C34.5405 12.802 35 15.0766 35 17.4968C35 19.9173 34.5407 22.1925 33.6221 24.3222C32.7035 26.452 31.4569 28.3046 29.8822 29.8799C28.3075 31.4552 26.4557 32.7024 24.3268 33.6216C22.198 34.5405 19.9234 35 17.5032 35ZM16.1184 32.0881V25.6762C14.3825 25.3194 12.9053 24.5318 11.6868 23.3132C10.4682 22.0947 9.68057 20.6175 9.32382 18.8816H2.91191C3.20941 22.4052 4.60403 25.3928 7.09579 27.8443C9.58724 30.2956 12.5948 31.7102 16.1184 32.0881ZM18.8816 32.0881C22.4052 31.767 25.4128 30.3665 27.9042 27.8867C30.396 25.4069 31.7906 22.4052 32.0881 18.8816H25.6762C25.3194 20.6175 24.5318 22.0947 23.3132 23.3132C22.0947 24.5318 20.6175 25.3194 18.8816 25.6762V32.0881ZM2.91191 16.1184H9.21053L14.2054 11.0526H20.7946L25.7895 16.1184H32.0881C31.7338 12.3089 30.1632 9.1307 27.3764 6.58368C24.5896 4.03667 21.2975 2.76316 17.5 2.76316C13.7025 2.76316 10.4104 4.03667 7.62355 6.58368C4.83675 9.1307 3.26621 12.3089 2.91191 16.1184Z" fill="white"/>
</svg>
