<svg width="375" height="890" viewBox="0 0 375 890" fill="none" xmlns="http://www.w3.org/2000/svg">
<g clip-path="url(#clip0_14219_252)">
<path d="M0.00292969 808H0V0H375V808H374.76C380.578 850.789 280.623 918.946 205.956 876.704C131.289 834.462 132.95 845.751 80.29 855.008C14.4647 866.579 0.00292969 815.955 0.00292969 808Z" fill="#A93473"/>
<path d="M10.3905 37.5443C10.1449 38.2547 10.0041 38.9998 10.0041 39.7726C10.0041 44.0618 14.0416 47.5897 19.2266 48.038C18.0977 50.8959 17.4844 53.9398 17.4844 57.0981C17.4844 73.6126 34.1297 87 54.663 87C71.5323 87 85.7689 77.9607 90.3162 65.5783C92.3385 66.8028 94.8448 67.5363 97.5709 67.5363C104.248 67.5363 109.662 63.1824 109.662 57.812C109.662 57.7634 109.653 57.7172 109.653 57.6699C110.493 57.6063 111.315 57.4943 112.138 57.388C119.324 61.6356 128.028 64.2949 137.415 64.6865C151.277 65.2641 163.906 61.0176 172.959 53.8555C178.34 55.5998 184.276 56.4685 190.505 56.2097C198.701 55.8689 206.297 53.547 212.57 49.8389C213.288 49.9325 214.005 50.0306 214.738 50.0849C214.738 50.1265 214.731 50.1681 214.731 50.2097C214.731 54.8974 219.457 58.698 225.285 58.698C227.664 58.698 229.853 58.0569 231.618 56.9883C235.74 68.2156 248.99 76.2938 264.462 75.6503C280.739 74.9722 294.049 64.415 295.118 51.3348C295.394 47.9502 294.861 44.696 293.669 41.6775C298.195 41.2859 301.718 38.2062 301.718 34.4622C301.718 33.7876 301.594 33.1372 301.38 32.5169C305.623 32.2073 309.501 30.8996 312.671 28.8989C315.739 32.1865 320.612 34.3236 326.118 34.3236C327.861 34.3236 329.543 34.1099 331.125 33.7137C335.859 37.5847 342.444 39.9875 349.729 39.9875C363.22 39.9875 374.317 31.7545 375.686 21.1961C376.967 21.4895 378.316 21.6559 379.713 21.6559H383.297C391.419 21.6559 398.003 16.3605 398.003 9.82792C398.003 3.29536 391.419 -2 383.297 -2H348.715H317.889H208.13H171.76H106.157H69.52H12.6426C-0.964864 -2 -11.9971 6.87296 -11.9971 17.8172C-11.9956 28.1515 -2.15988 36.6282 10.3905 37.5443Z" fill="#F6F6F6"/>
<path d="M390.805 558.226C388.045 557.911 386.227 558.226 384.665 560.623C383.585 562.283 383.771 564.709 382.052 565.79C383.29 560.976 382.534 557.204 376.757 559.316C373.476 560.515 371.953 566.949 372.837 570.054C373.26 571.537 375.303 573.364 375.46 574.543C375.765 576.901 373.181 584.73 372.022 587.118C371.649 587.884 370.951 589.161 370.47 589.809C369.772 590.752 364.104 596.558 363.19 595.497C363.102 592.717 362.817 588.768 359.556 588.041C356.442 587.353 350.007 588.041 346.421 587.972C345.4 587.953 344.525 587.511 343.621 587.471C340.193 587.344 336.814 587.638 333.483 588.424C331.735 581.705 334.377 583.375 339.397 583.257C340.861 583.227 342.158 583.267 343.592 583.257C345.36 583.247 348.199 583.522 349.752 583.237C352.227 582.795 351.264 577.461 351.392 575.447C351.815 568.727 352.915 557.823 350.803 551.526C349.427 547.439 344.692 543.519 340.576 542.419C336.617 541.358 332.314 541.231 328.286 541.741C328.218 538.352 327.245 533.99 327.825 530.66C328.11 529.02 331.587 527.507 331.047 524.638C329.947 518.813 320.663 520.306 321.184 526.426C321.4 529.039 324.111 529.619 324.445 530.739C325.251 533.45 324.033 539.128 324.514 542.193C317.294 542.94 306.586 545.072 304.827 553.392C303.354 560.377 302.745 572.067 303.295 579.249C303.432 581.027 303.825 582.736 305.495 583.65C307.136 584.544 312.696 584.298 314.887 584.21C316.282 584.151 320.221 582.962 321.027 584.161C321.321 584.603 321.4 588.061 321.174 588.375C320.349 589.574 316.184 588.454 314.887 588.414C300.436 587.962 287.174 587.864 277.134 599.741C275.66 601.48 272.841 605.999 272.301 608.111C271.927 609.585 271.917 619.536 272.202 621.187C272.595 623.417 276.289 627.965 278.087 629.448C280.631 631.541 284.158 632.7 286.575 634.635C288.156 635.903 289.256 638.85 290.602 639.567C291.87 640.235 294.915 640.147 295.662 640.883C296.369 643.889 299.935 648.949 299.542 651.827C299.267 653.811 297.381 657.23 296.831 659.509C295.347 665.571 294.905 675.306 295.288 681.583C295.406 683.578 296.251 686.309 296.271 688.165C296.29 690.494 293.608 692.665 294.571 695.504C294.974 696.692 296.664 697.724 297.882 697.861C301.556 698.264 310.751 698.254 314.425 697.861C315.555 697.744 319.651 696.191 320.211 695.396C321.616 693.392 318.217 688.097 316.773 686.515C315.437 685.051 313.276 684.698 312.853 682.89C312.175 679.953 311.468 674.707 311.321 671.701C311.252 670.198 311.851 662.358 312.726 661.739C313.796 660.973 318.03 662.358 319.592 662.476C324.887 662.898 330.752 662.299 335.979 661.415C337.098 661.228 340.556 660.03 341.244 660.158C342.826 660.452 341.558 664.087 341.509 665.06C341.146 672.565 342.236 678.803 344.84 685.798C344.673 687.645 339.437 689.845 339.594 693.824C339.672 695.818 340.782 696.712 342.678 696.909C349.712 697.635 358.062 696.417 365.234 696.8C370.696 694.737 367.513 689.275 364.635 686.269C362.326 683.862 361.442 684.147 359.909 680.621C356.196 672.113 354.673 662.142 355.282 652.888C366.855 642.514 363.613 625.794 364.212 611.834C366.796 610.066 370.185 609.634 373.073 607.964C380.981 603.405 386.895 592.874 388.163 583.915C388.349 582.628 387.927 580.83 388.271 579.779C388.428 579.298 391.287 577.461 391.984 576.419C393.743 573.826 394.627 568.226 394.804 565.102C394.98 562.008 394.46 558.648 390.815 558.236L390.805 558.226ZM285.209 595.998C285.926 595.831 289.423 600.223 289.571 601.018C289.846 602.541 287.95 603.916 286.349 603.258C285.72 603.003 281.761 600.301 281.643 599.918C281.319 598.847 284.62 596.126 285.219 595.988L285.209 595.998ZM279.551 601.676C280.376 601.509 285.396 605.577 285.317 606.49C285.18 608.072 283.804 608.416 282.419 608.131C281.761 607.993 277.379 606.235 277.104 605.891C276.535 605.193 278.902 601.814 279.551 601.676ZM274.275 613.897C274.472 612.001 274.599 606.913 277.37 608.465C277.674 608.632 277.772 609.143 277.841 609.172C278.097 609.27 278.824 609.093 279.364 609.28C280.729 609.752 283.48 610.429 283.902 611.854C284.757 614.732 280.405 614.172 278.657 614.467C277.34 614.683 274 616.687 274.275 613.897ZM277.144 624.261C276.26 624.065 274.589 618.485 275.218 617.63C275.542 617.178 281.486 615.97 282.468 615.882C283.706 615.774 284.737 616.059 284.855 617.512C284.944 618.554 277.713 624.389 277.144 624.271V624.261ZM280.67 628.505C279.904 628.073 277.871 627.415 278.529 626.148C279.246 624.743 283.883 622.493 284.914 620.725C286.162 619.89 288.647 620.921 288.166 622.532L283.038 629.242C281.957 630.018 281.309 628.879 280.67 628.515V628.505ZM288.451 631.325C288.009 631.875 287.812 631.904 287.144 631.718C286.997 631.678 285.052 630.883 284.954 630.824C284.718 630.667 284.934 629.419 285.15 628.977C285.327 628.613 288.019 625.293 288.49 624.772C288.972 624.242 289.198 623.603 290.101 623.79C290.357 624.075 288.696 631.01 288.451 631.325ZM293.402 611.766C293.265 613.858 292.793 615.538 292.921 617.896C292.96 618.681 294.129 621.855 292.233 621.422C292.037 621.373 289.502 619.222 289.139 618.848C285.877 615.469 285.956 609.919 288.913 606.323C289.502 605.596 293.186 602.335 293.874 603.032C293.658 605.93 293.599 608.858 293.412 611.756L293.402 611.766ZM291.801 600.655C291.506 600.586 288.726 596.45 288.225 595.733C287.95 595.34 287.557 595.291 287.753 594.564C290.16 593.975 292.223 592.246 294.827 592.668C294.827 594.368 294.443 601.264 291.811 600.655H291.801ZM326.253 522.968C329.406 522.644 329.259 529.462 324.819 527.998C323.188 527.458 324.023 523.194 326.253 522.968ZM307.047 580.673C306.576 580.359 306.625 579.76 306.586 579.249C306.055 572.441 306.546 561.556 307.656 554.817C308.02 552.597 309.985 549.856 311.841 548.628C316.125 545.789 327.265 544.521 332.452 544.217C334.77 544.079 339.437 544.816 341.617 545.641C342.796 546.093 344.84 547.803 345.38 548.952C347.914 554.306 348.7 569.936 348.111 575.938C348.023 576.842 347.767 577.706 347.404 578.532L307.047 580.673ZM329.239 588.424H324.524V583.709C325.516 584.131 328.296 583.09 328.778 583.443C329.711 584.121 329.053 587.235 329.239 588.424ZM301.084 656.867C303.747 658.458 307.096 658.694 309.425 660.806C308.649 661.887 308.541 661.366 307.696 661.13C306.546 660.806 299.778 659.018 299.542 658.664C299.051 657.928 299.984 656.375 301.074 656.867H301.084ZM299.061 660.57C299.365 660.256 306.851 662.368 307.548 662.692C308.275 663.016 309.15 663.321 308.963 664.343C306.645 664.814 304.975 663.95 302.97 663.508C301.782 663.252 299.955 663.812 299.296 662.466C299.09 662.034 298.894 660.747 299.061 660.58V660.57ZM299.355 664.844C301.939 665.443 304.778 665.404 307.313 666.239C309.277 666.887 308.708 667.938 306.871 668.144C304.277 668.429 301.959 667.083 299.385 667.103C298.235 666.749 298.324 665.345 299.365 664.853L299.355 664.844ZM298.589 671.887C298.943 671.573 307.499 672.496 308.02 672.84C308.079 672.879 308.079 674.196 308.02 674.245C307.303 674.854 300.122 673.587 298.589 673.773C298.658 673.322 298.491 671.976 298.589 671.887ZM298.589 668.586C298.903 668.292 306.271 669.294 307.214 669.618C307.863 669.844 308.148 670.247 308.01 670.934L299.355 670.404L298.589 668.586ZM299.346 685.533C298.324 685.267 298.186 683.165 299.355 682.792C300.141 682.546 305.643 682.467 305.652 683.43L299.346 685.523V685.533ZM308.658 681.249C308.059 681.436 298.943 681.672 298.579 681.318C298.501 681.23 298.501 679.039 298.579 678.96C298.815 678.715 303.933 679.216 304.238 678.96C304.857 678.43 304.307 678.057 303.54 678.017C302.018 677.939 298.137 678.646 298.088 676.377C298.088 675.984 298.53 675.188 298.815 675.188H305.888C306.006 675.188 307.882 675.66 308.157 675.748C309.405 676.17 309.209 677.723 308.01 678.017C308 678.518 308.207 679.029 308.482 679.432C308.668 679.707 310.535 680.67 308.649 681.249H308.658ZM344.309 659.372C345.439 659.244 351.549 656.985 351.873 657.269C352.414 657.751 351.019 658.802 350.626 659.077C349.968 659.539 344.113 662.25 343.867 661.975C343.906 661.189 343.602 659.814 344.319 659.362L344.309 659.372ZM351.805 662.388C351.451 662.889 345.468 664.519 344.329 664.814C344.162 663.989 344.732 663.635 345.291 663.193C345.969 662.663 351.539 660.246 351.864 660.58C351.785 661.111 352.05 662.024 351.795 662.397L351.805 662.388ZM345.93 666.18C347.187 665.659 349.594 664.627 350.803 664.431C352.149 664.205 352.925 665.394 351.883 666.003C350.999 666.514 347.256 667.29 345.95 667.624C345.164 667.82 345.095 668.498 344.329 667.408C344.28 666.239 345.291 666.445 345.92 666.18H345.93ZM345.37 669.864C347.256 669.048 349.398 669.107 351.255 668.184C352.807 668.459 352.659 669.451 351.274 670.099C350.144 670.63 347.148 671.347 345.763 671.671C343.72 672.162 342.934 670.915 345.37 669.854V669.864ZM344.329 673.999C343.955 673.174 345.134 673.115 345.635 672.968C347.954 672.3 350.429 671.828 352.807 671.416C353.239 674.009 348.17 674.294 346.205 674.5C345.478 674.579 344.761 674.972 344.329 673.999ZM346.431 676.102C347.394 675.866 353.494 674.451 353.76 674.717C353.995 674.942 353.789 675.935 353.278 676.357C352.787 676.77 347.767 677.811 346.795 677.909C344.506 678.135 343.798 676.76 346.431 676.111V676.102ZM353.426 680.748C352.463 680.964 346.51 681.603 346.215 681.318L346.677 679.658C348.799 679.668 351.726 678.165 353.563 678.017C355.774 677.84 355.783 680.218 353.426 680.748ZM352.355 649.97C342.826 658.213 314.553 662.27 305.417 652.092C296.467 642.121 296.968 619.585 297.646 607.05L299.552 592.688C302.754 592.54 306.006 592.825 309.209 592.678C314.189 592.452 318.748 592 323.826 592.196C332.02 592.511 339.594 591.528 347.895 591.705C349.889 591.745 351.726 592.314 354.025 592.216C355.233 592.167 358.043 591.077 358.75 592.167L359.919 603.258C358.74 616.776 363.79 640.078 352.365 649.97H352.355ZM363.662 607.993C363.662 605.557 363.839 602.836 363.662 600.448C363.623 599.898 362.493 598.926 364.124 598.081C366.275 596.961 366.668 600.999 367.346 602.423C368.093 604.005 368.987 605.498 369.792 607.05C368.947 607.63 363.662 609.703 363.662 607.993ZM371.207 604.928C371.58 603.012 365.764 594.525 370.028 594.535C370.981 594.535 375.942 600.694 375.942 601.392C375.942 602.443 372.612 605.39 371.207 604.928ZM378.103 598.769C376.914 597.285 372.415 593.189 372.602 591.519C372.67 590.86 373.584 589.279 374.242 589.357C374.812 589.416 381.276 592.413 381.502 592.747C382.229 593.798 379.37 599.053 378.093 598.778L378.103 598.769ZM383.467 589.367C383.27 589.858 383.349 590.968 382.337 590.743C381.983 590.664 379.115 588.748 378.142 588.326C377.504 588.051 375.107 587.579 375.009 587.452C374.773 587.108 375.264 584.878 375.51 584.711C377.022 583.679 381.227 586.567 382.976 586.793C384.459 587.766 383.909 588.257 383.467 589.367ZM384.881 583.935C384.803 584.278 383.86 585.074 383.329 585.045C382.985 585.025 377.101 583.011 376.905 582.736C376.62 582.353 377.356 579.337 378.457 579.514C378.761 579.563 383.261 582.255 383.821 582.658C384.263 582.972 385.048 583.217 384.881 583.935ZM391.159 570.417C389.862 575.938 388.045 578.669 382.19 575.309C381.315 574.808 375.942 570.564 375.686 570.024C374.566 567.745 375.942 560.79 379.694 562.008C379.39 564.493 378.191 567.136 380.667 568.816C385.697 572.234 385.078 561.664 388.428 561.065C393.821 560.102 391.945 567.126 391.169 570.407L391.159 570.417Z" fill="#C3488A"/>
<path d="M342.806 602.669C333.238 603.77 331.224 616.148 338.189 621.678C342.168 624.842 348.583 623.466 351.412 619.321C355.528 613.289 350.567 601.775 342.806 602.669ZM343.858 620.961C343.307 620.45 345.302 614.026 345.302 612.699C345.302 610.833 343.867 610.538 343.16 612.012C342.816 612.729 342.964 613.603 342.688 614.369C342.374 615.224 340.616 619.94 340.311 620.018C335.743 619.006 335.242 611.55 337.521 608.259C341.205 602.944 347.414 604.398 349.87 609.998C352.149 615.175 349.978 621.148 343.858 620.961Z" fill="#C3488A"/>
<path d="M307.4 599.358C306.693 599.564 305.013 601.735 304.826 602.433C303.736 606.402 306.978 610.194 310.819 607.954C315.014 605.508 312.381 597.875 307.4 599.358ZM308.707 606.372C306.094 606.628 305.848 602.276 307.862 601.696C310.809 600.851 311.978 606.048 308.707 606.372Z" fill="#C3488A"/>
<path d="M309.659 612.827C307.89 612.827 306.456 614.261 306.456 616.03C306.456 617.798 307.89 619.232 309.659 619.232C311.427 619.232 312.861 617.798 312.861 616.03C312.861 614.261 311.427 612.827 309.659 612.827ZM310.14 617.189C308.637 617.621 307.772 615.725 309.207 614.841C310.13 614.625 311.378 616.835 310.14 617.189Z" fill="#C3488A"/>
<path d="M330.889 570.506C330.182 570.712 330.241 574.121 327.48 574.681C324.838 575.211 323.865 571.193 322.863 570.977C320.515 570.476 322.136 575.398 323.865 576.577C327.598 579.151 333.748 575.339 332.471 571.272C332.255 570.584 331.538 570.309 330.889 570.506Z" fill="#C3488A"/>
<path d="M324.311 565.338C326.089 559.12 321.698 554.591 315.43 555.986C312.562 556.625 309.909 561.753 310.479 564.513C311.403 568.963 316.206 571.076 320.411 569.936C321.865 569.543 323.898 566.763 324.311 565.338ZM320.293 566.979C316.383 570.191 311.884 565.466 313.79 561.419C313.937 561.104 315.028 559.503 315.224 559.326C319.517 555.603 325.411 562.774 320.283 566.979H320.293Z" fill="#C3488A"/>
<path d="M317.814 565.26C318.97 565.26 319.907 564.323 319.907 563.167C319.907 562.012 318.97 561.075 317.814 561.075C316.659 561.075 315.722 562.012 315.722 563.167C315.722 564.323 316.659 565.26 317.814 565.26Z" fill="#C3488A"/>
<path d="M335.715 554.11C328.593 555.357 326.206 564.022 332.051 568.403C338.937 573.571 348.27 564.523 343.594 557.804C341.659 555.014 339.193 553.501 335.715 554.11ZM338.358 566.655C330.184 570.398 329.114 557.774 336.678 556.929C342.975 556.232 343.545 564.277 338.358 566.655Z" fill="#C3488A"/>
<path d="M335.697 559.748C332.229 560.79 336.925 566.409 338.909 562.489C339.99 560.367 337.681 559.149 335.697 559.748Z" fill="#C3488A"/>
<path d="M323.482 515.934C320.21 517.211 316.841 521.043 317.46 524.756C319.729 525.139 319.13 522.978 320.073 521.475C322.057 518.282 328.757 516.032 332.048 517.948C333.011 518.508 334.101 520.512 335.133 520.532C338.168 520.591 334.524 515.551 331.744 514.962C329.956 514.579 325.24 515.256 323.492 515.934H323.482Z" fill="#C3488A"/>
<path d="M318.568 517.192C319.137 517.064 320.69 514.932 321.446 514.382C322.841 513.38 325.916 512.27 327.625 512.074C328.598 511.966 331.673 512.221 332.007 511.975C332.773 511.406 332.508 509.657 331.27 509.284C328.421 508.429 323.676 509.618 321.25 511.347C320.542 511.848 316.888 515.433 317.006 515.984C317.084 516.357 318.086 517.3 318.578 517.192H318.568Z" fill="#C3488A"/>
<path opacity="0.5" d="M48.9764 402.398C56.7687 402.945 63.8801 401.085 70.3106 396.818C76.7392 392.553 81.6053 386.883 84.9091 379.808L16.5915 375.009C18.8738 382.477 22.8933 388.771 28.6502 393.892C34.4087 399.015 41.1841 401.85 48.9764 402.398ZM27.425 360.736C31.2736 361.006 34.6311 359.886 37.4974 357.374C40.3638 354.863 41.9324 351.679 42.2034 347.82C42.4743 343.964 41.3577 340.6 38.8536 337.727C36.3477 334.855 33.1714 333.283 29.3245 333.013C25.4777 332.743 22.1211 333.863 19.2548 336.375C16.3885 338.886 14.8198 342.07 14.549 345.926C14.278 349.784 15.3945 353.149 17.8986 356.022C20.4028 358.894 23.5782 360.466 27.425 360.736ZM76.2249 364.164C80.0717 364.434 83.4283 363.313 86.2946 360.802C89.1609 358.291 90.7296 355.106 91.0006 351.248C91.2715 347.392 90.1549 344.027 87.6508 341.155C85.1467 338.282 81.9712 336.711 78.1244 336.441C74.2758 336.17 70.9183 337.291 68.052 339.802C65.1857 342.313 63.617 345.497 63.3462 349.353C63.0752 353.212 64.1917 356.577 66.6958 359.449C69.2017 362.322 72.378 363.893 76.2249 364.164ZM12.2678 304.547L44.23 268.069C46.2207 265.796 48.4781 264.178 51.002 263.214C53.5258 262.251 56.1472 261.865 58.8662 262.056C61.587 262.247 64.1235 262.995 66.4756 264.3C68.8294 265.607 70.8348 267.525 72.4917 270.054L99.0407 310.642L142.705 328.946C146.526 330.521 149.409 332.986 151.355 336.342C153.301 339.698 154.138 343.315 153.865 347.191C153.74 348.978 153.354 350.75 152.708 352.507C152.061 354.263 151.089 355.891 149.791 357.391L117.981 395.832L116.001 439.142C115.74 444.35 113.696 448.641 109.869 452.013C106.041 455.385 101.681 456.899 96.7894 456.556C96.6555 456.546 95.0189 456.199 91.8794 455.513L46.4291 438.926L-0.863807 448.988C-1.78959 449.285 -2.70288 449.429 -3.60367 449.421C-4.5027 449.413 -5.32668 449.383 -6.0756 449.33C-11.0203 448.983 -15.1271 446.868 -18.3962 442.987C-21.6653 439.106 -23.0257 434.522 -22.4774 429.237L-18.3763 385.979L-44.5254 343.632C-45.55 341.908 -46.2603 340.132 -46.6562 338.306C-47.0521 336.48 -47.1872 334.672 -47.0615 332.883C-46.7941 329.076 -45.456 325.644 -43.0472 322.588C-40.6402 319.531 -37.4298 317.492 -33.4161 316.471L12.2678 304.547ZM19.6371 316.6L-31.8482 330C-32.8888 330.267 -33.632 330.915 -34.0778 331.941C-34.5253 332.968 -34.4409 333.947 -33.8245 334.878L-4.61557 383.127L-9.35636 432.467C-9.50448 433.618 -9.16101 434.552 -8.32596 435.269C-7.49103 435.988 -6.52141 436.239 -5.41707 436.022L47.4061 425.017L98.1536 443.563C99.2168 443.933 100.212 443.82 101.139 443.225C102.066 442.631 102.537 441.754 102.551 440.594L104.773 390.811L140.403 347.648C141.144 346.813 141.364 345.855 141.064 344.776C140.766 343.697 140.121 342.953 139.128 342.542L90.0587 321.547L60.4155 276.19C59.866 275.264 59.0495 274.763 57.9657 274.687C56.882 274.611 56.0034 274.993 55.3299 275.833L19.6371 316.6Z" fill="#C3488A"/>
</g>
<defs>
<clipPath id="clip0_14219_252">
<rect width="375" height="890" fill="white"/>
</clipPath>
</defs>
</svg>
