<svg width="372" height="982" viewBox="0 0 372 982" fill="none" xmlns="http://www.w3.org/2000/svg">
<g clip-path="url(#clip0_14219_217)">
<path d="M375 0H0V982H375V0Z" fill="#FAB752"/>
<path d="M4.38757 942.456C4.14196 941.745 4.00121 941 4.00121 940.227C4.00121 935.938 8.03865 932.41 13.2237 931.962C12.0948 929.104 11.4815 926.06 11.4815 922.902C11.4815 906.387 28.1267 893 48.66 893C65.5294 893 79.766 902.039 84.3133 914.422C86.3356 913.197 88.8419 912.464 91.568 912.464C98.2454 912.464 103.659 916.818 103.659 922.188C103.659 922.237 103.65 922.283 103.65 922.33C104.49 922.394 105.312 922.506 106.135 922.612C113.321 918.364 122.025 915.705 131.412 915.314C145.274 914.736 157.903 918.982 166.956 926.145C172.337 924.4 178.273 923.532 184.502 923.79C192.698 924.131 200.294 926.453 206.567 930.161C207.285 930.068 208.002 929.969 208.736 929.915C208.736 929.873 208.728 929.832 208.728 929.79C208.728 925.103 213.454 921.302 219.282 921.302C221.661 921.302 223.85 921.943 225.615 923.012C229.737 911.784 242.987 903.706 258.459 904.35C274.736 905.028 288.046 915.585 289.115 928.665C289.391 932.05 288.858 935.304 287.666 938.322C292.192 938.714 295.715 941.794 295.715 945.538C295.715 946.212 295.591 946.863 295.377 947.483C299.62 947.793 303.498 949.1 306.668 951.101C309.736 947.813 314.609 945.676 320.115 945.676C321.858 945.676 323.54 945.89 325.122 946.286C329.856 942.415 336.441 940.013 343.726 940.013C357.217 940.013 368.314 948.246 369.683 958.804C370.964 958.51 372.313 958.344 373.71 958.344H377.294C385.416 958.344 392 963.64 392 970.172C392 976.705 385.416 982 377.294 982H342.712H311.886H202.127H165.757H100.154H63.5171H6.6397C-6.96779 982 -18 973.127 -18 962.183C-17.9986 951.849 -8.16281 943.372 4.38757 942.456Z" fill="#F6F6F6"/>
<path d="M59.7857 466.124L71.8657 475.664C72.6357 477.864 71.5057 478.614 69.5357 477.514C67.6157 476.434 62.9057 472.304 61.0557 470.634C59.5457 469.274 56.5757 467.054 59.7857 466.124Z" fill="#FFDAA1"/>
<path d="M80.4372 421.834C77.6372 423.494 72.3572 424.514 69.0972 425.374C67.5172 425.784 66.8472 427.134 65.3872 425.004C65.2172 424.244 66.0172 424.014 66.4872 423.714C68.1572 422.644 71.9372 422.204 74.0372 421.664C76.5972 421.004 78.9872 419.594 81.7072 419.974C81.8572 420.854 81.1072 421.434 80.4472 421.824L80.4372 421.834Z" fill="#FFDAA1"/>
<path d="M69.7259 448.994C71.4359 450.474 83.5359 453.844 84.0559 454.594C84.4559 455.174 84.0759 457.094 82.9859 456.884C78.5059 454.784 73.5159 453.244 69.0859 451.084C67.5559 450.334 68.2359 448.454 69.7259 448.994Z" fill="#FFDAA1"/>
<path d="M6.62841 439.694C3.55841 442.194 2.71841 435.974 2.04841 435.554C1.44841 435.164 0.308414 435.474 0.118416 435.334C0.0184174 435.264 0.0184135 433.024 0.108414 432.944C0.318413 432.734 2.34841 433.244 2.90841 432.854C3.20841 432.644 3.53841 431.264 4.73841 430.604C8.37841 428.614 9.67842 431.754 11.8984 431.994C13.1884 432.134 14.3884 430.774 15.7384 430.564C17.5684 430.274 20.8584 430.594 22.5484 431.394C23.6084 431.894 24.8584 433.544 25.9184 433.824C26.8984 434.094 28.0384 433.384 29.1584 433.374C34.4384 433.324 37.8484 438.254 37.0584 443.234C37.0084 443.554 36.2084 446.234 36.1184 446.374C36.0584 446.464 35.0684 446.424 34.6684 446.154C33.5584 445.404 34.6284 443.394 34.6984 442.294C34.9184 438.854 33.1884 436.114 29.5984 435.844C25.9384 435.574 28.7684 438.084 27.7284 440.134C26.8484 441.864 24.9384 442.884 23.7184 440.794C22.3684 438.474 23.9184 438.424 24.1484 436.994C24.7584 433.204 16.2084 431.374 14.7384 433.384C13.7084 434.794 17.1484 440.774 12.8484 440.164C10.8284 439.874 11.4084 436.554 11.1684 435.104C10.7084 432.334 4.67841 431.504 4.98841 433.594C5.19841 435.024 9.35841 437.494 6.65841 439.694H6.62841Z" fill="#FFDAA1"/>
<path d="M25.4228 388.424C25.1828 390.094 25.1728 390.514 23.3928 390.224C20.7728 389.804 22.8928 384.164 23.1028 382.254C23.2428 381.004 23.0328 379.754 23.1928 378.504C23.3428 377.364 24.2928 370.354 24.6428 370.114C24.8528 369.974 26.9028 369.974 26.9828 370.054C27.7528 370.834 26.1928 376.664 26.0628 378.034C25.7528 381.374 25.9028 384.964 25.4128 388.424H25.4228Z" fill="#FFDAA1"/>
<path d="M50.9159 400.224C50.2359 400.694 48.6859 400.084 48.3159 399.344C47.9559 398.634 48.7359 397.404 49.1459 396.784C50.7359 394.364 56.6259 386.664 58.6959 385.224C60.0859 384.254 61.0359 384.094 61.0859 386.144C58.9559 389.444 55.9259 392.244 53.6659 395.544C53.0559 396.424 51.5059 399.824 50.9159 400.224Z" fill="#FFDAA1"/>
<path d="M2.74108 449.274C1.70108 446.464 -0.40892 444.224 0.11108 441.104C1.76108 440.794 2.49108 442.384 3.19108 443.544C7.09108 450.024 10.9511 468.204 12.0911 475.924C12.2911 477.294 11.6711 480.374 13.0511 481.204C13.7111 481.604 19.7111 481.614 20.2911 481.224L20.6811 480.654C21.6611 469.264 21.8011 457.494 26.1711 446.784C26.6011 445.744 29.4411 438.994 31.0811 441.584C32.1011 443.194 29.7411 445.464 29.1411 446.874C25.9711 454.334 25.0411 461.744 24.1111 469.684C23.6511 473.594 22.8211 477.464 23.1411 481.434C27.7911 482.164 27.0711 479.914 28.6411 477.094C31.9511 471.144 39.5511 466.554 43.5211 460.774C51.2711 449.454 50.2711 428.784 43.5111 417.154C36.3311 404.814 15.6711 401.064 2.85108 404.264C1.94108 404.494 1.22108 405.374 0.11108 405.124C0.27108 401.934 -1.00892 400.924 2.39108 399.974C12.0311 397.264 25.1611 399.644 34.0311 404.084C54.5711 414.354 59.7111 448.684 45.9111 466.054C42.6111 470.214 37.3611 473.414 33.9411 477.604C32.9611 478.804 31.7011 480.334 31.7911 481.934C34.9211 481.824 38.1611 484.304 36.8111 487.684C36.4611 488.564 34.8111 489.954 34.7111 490.404C34.5511 491.144 36.8111 492.344 35.9011 494.924C35.6411 495.674 34.7411 496.214 34.6511 497.074C34.5311 498.254 35.6811 499.064 35.6211 500.364C35.4511 503.914 31.1911 505.074 29.3711 507.114C27.1711 509.584 27.2411 512.004 23.2811 513.504C22.4211 513.834 17.9011 515.034 17.2611 514.964C15.6011 514.764 11.9011 513.094 10.6911 511.904C9.94108 511.164 9.08108 508.734 8.63108 508.444C7.97108 508.014 4.59108 507.744 3.35108 507.244C2.19108 506.774 1.40108 505.604 0.101078 505.454V496.334C7.22108 498.054 14.5411 499.444 21.9411 498.734C24.0611 498.534 32.2211 496.164 32.2811 493.694C32.3311 491.534 28.5611 493.544 27.1011 493.804C22.5211 494.624 16.0511 494.724 11.3811 494.414C7.55108 494.154 3.98108 492.554 0.101078 492.974V488.174C0.361076 487.914 6.00108 489.884 7.09108 490.064C8.03107 490.214 9.01108 489.984 9.95108 490.084C16.2111 490.764 25.6311 491.404 31.1711 488.274C31.9911 487.814 32.6011 487.184 33.2211 486.494C32.9111 486.264 32.1811 485.294 32.0311 485.294H4.67108C3.72108 485.294 1.81108 482.514 0.11108 483.854C0.231079 483.154 -0.058918 480.184 0.11108 480.014C0.471081 479.644 2.73108 480.784 2.52108 479.294C2.30107 477.734 0.54108 476.534 0.211079 475.354C-0.24892 473.674 0.321079 471.254 0.11108 469.464C0.93108 469.264 1.07108 469.774 1.55107 470.184C3.14108 471.504 5.51108 474.494 6.45108 476.324C7.61108 478.594 6.62108 481.944 10.1911 481.464C10.1111 480.304 10.3511 479.014 10.1711 477.884C8.74108 468.604 6.01108 458.194 2.74108 449.324V449.274Z" fill="#FFDAA1"/>
<path d="M375.264 0H0C0 6.89471 14.4812 50.7702 80.3954 40.7415C133.127 32.7186 186.258 49.9344 206.232 59.5453C354.839 100.914 381.089 37.0852 375.264 0Z" fill="#F6F6F6"/>
<path d="M420.754 809.014C417.656 802.757 411.577 806.172 417.48 817.814C416.412 818.804 411.319 824.996 402.247 826.574C397.624 827.147 388.482 826.183 384.538 823.237C383.611 822.324 383.623 821.829 382.895 821.737C379.328 814.933 379.351 815.063 377.063 811.387C376.171 809.94 374.505 811.452 375.209 812.586C379.375 819.417 387.238 835.712 388.165 837.824C399.419 863.088 396.11 853.493 404.489 871.144C403.116 871.209 403.362 872.278 400.593 874.807C395.124 879.383 388.845 882.746 382.262 884.467C381.745 884.337 381.264 884.48 380.865 884.819C368.954 887.752 338.03 885.354 326.764 879.683C327.867 875.837 327.809 875.85 329.839 869.006C340.507 833.131 346.597 821.894 347.677 812.508C347.982 812.573 348.299 812.625 348.604 812.677C353.791 814.137 357.429 814.828 367.076 812.912C376.453 811.048 381.147 807.359 386.58 801.297C394.197 792.836 397.729 784.05 394.666 767.377C395.136 768.042 396.074 768.172 396.673 767.377C411.706 769.085 420.766 790.347 420.062 796.187C419.968 796.891 419.839 797.386 420.132 797.947C420.543 798.716 421.423 798.95 422.104 798.52C426.423 795.704 416.483 767.494 397.87 764.574C398.011 763.975 398.105 763.349 398.175 762.723C417.961 760.09 427.972 777.949 427.138 780.948C426.669 782.629 429.427 783.555 429.568 780.543C429.779 776.685 419.722 758.656 398.95 761.081C408.15 756.192 418.055 758.004 427.209 769.45C426.775 769.841 426.082 770.349 426.575 771.275C427.326 772.696 430.143 770.923 429.568 768.772C429.075 766.921 416.271 749.596 398.328 758.904C398.281 757.639 398.14 756.101 397.882 754.576C405.674 747.015 420.966 749.922 423.606 755.775C426.739 766.829 432.502 743.052 405.85 747.314C402.095 747.914 399.701 749.231 397.225 751.434C391.85 730.524 374.962 712.873 355.986 729.729C355.669 729.755 354.202 729.885 354.073 729.898C321.929 719.678 316.238 761.459 321.554 762.84C320.638 765.461 320.533 766.086 320.404 766.608C304.068 743.899 286.957 765.839 289.199 770.075C289.786 771.184 291.299 770.988 291.616 769.723C295.947 758.291 308.07 754.967 317.704 766.543C304.478 759.621 290.384 769.215 293.799 785.458C293.987 786.331 295.149 786.618 295.63 785.719C296.217 784.611 292.79 776.594 300.453 769.802C305.112 765.917 311.297 765.826 315.827 768.055C311.579 767.872 295.325 773.66 297.449 789.421C297.601 790.555 297.907 792.041 298.177 793.71C298.446 795.261 300.887 794.974 300.547 792.98C298.951 783.881 299.96 777.975 308.058 773.178C305.605 776.163 304.279 779.266 303.047 782.916C301.416 787.778 302.237 792.445 303.434 797.438C304.784 803.005 305.605 804.191 306.884 803.8C307.764 803.526 308.081 802.47 307.87 801.87C303.774 789.942 304.795 786.123 306.673 780.961C307.94 777.923 309.372 775.146 311.813 772.956C314.02 771.144 316.378 770.858 318.514 771.744C318.866 771.927 319.477 772.344 319.5 772.344C318.244 788.795 321.589 797.021 330.567 805.481C334.392 809.079 336.962 809.092 344.379 811.582C344.25 812.677 344.074 813.759 343.851 814.802C343.276 814.998 343.487 815.415 341.809 818.622C337.491 826.822 324.112 844.433 322.939 845.711C320.838 848.005 319.289 849.27 316.637 852.62C311.672 850.117 301.592 859.008 306.133 869.098C306.321 869.515 306.755 870.154 307.283 870.636C307.847 871.157 308.023 871.196 308.445 871.366C308.656 871.444 309.29 871.548 309.947 871.483C310.957 871.366 311.895 870.91 312.646 870.245C313.867 869.176 314.559 867.273 315.146 865.812C317.798 868.811 321.988 866.282 318.233 855.384C328.841 844.759 339.098 827.721 340.765 824.436C331.893 847.797 328.231 859.321 322.809 878.94C321.577 883.372 325.168 883.711 326.084 881.651C333.254 885.301 336.376 885.536 349.226 887.4C349.672 897.634 349.919 919.56 349.919 919.56C342.572 922.598 341.938 927.395 345.741 929.155C346.281 929.846 353.099 930.263 353.873 929.233C363.661 927.617 363.978 916.614 353.427 918.596C353.427 917.461 353.228 901.714 352.524 887.87C368.566 890.06 375.643 889.121 380.231 888.391C380.314 892.941 380.466 920.017 380.466 920.017C373.718 921.125 372.392 926.587 376.664 928.764C377.028 929.35 377.521 929.311 378.236 929.429C380.76 930.315 381.194 930.498 381.663 930.002C392.108 931.593 393.739 920.473 383.588 919.808C384.28 916.158 383.693 891.415 383.611 887.687C390.547 885.901 401.402 881.039 405.944 874.156C406.425 874.508 407 874.481 407.446 874.195C408.831 873.282 408.913 871.9 401.942 859.321C391.322 840.197 394.173 842.986 386.088 827.747C396.708 833.522 412.305 831.267 420.074 820.655C427.678 823.458 435.823 816.823 433.64 806.485C431.704 797.412 425.179 801.31 420.754 809.014ZM427.385 769.684C427.385 769.684 427.385 769.737 427.385 769.763C427.385 769.737 427.385 769.71 427.385 769.684ZM395.147 764.34C394.936 764.34 394.713 764.34 394.044 764.457C394.009 764.3 393.974 764.144 393.927 763.988C394.83 763.427 394.737 763.492 395.124 763.258C395.206 763.245 395.288 763.232 395.37 763.218C395.312 763.597 395.241 763.975 395.147 764.34ZM395.582 760.442C393.986 761.38 394.255 761.198 393.34 761.771C393.281 761.576 393.223 761.38 393.152 761.172C394.068 759.021 394.995 757.874 395.452 757.274C395.546 758.33 395.582 759.386 395.57 760.442H395.582ZM394.913 753.767C394.467 754.276 394.032 754.797 393.622 755.332C388.857 733.913 376.582 728.712 359.178 729.559C377.978 716.81 391.392 737.303 394.913 753.767ZM391.005 755.358C380.407 732.14 361.396 734.07 357.793 733.366C357.523 732.31 357.629 732.023 357.277 731.788C374.751 730.785 385.501 734.943 391.005 755.345V755.358ZM375.737 742.087C379.75 744.577 384.738 750.978 386.979 755.175C386.487 754.875 385.994 754.576 385.501 754.263C385.067 752.698 379.844 745.75 375.737 742.087ZM379.563 750.508C366.102 741.396 363.778 741.657 360.023 737.355C367.639 737.498 374.833 744.225 379.563 750.508ZM356.256 731.854C356.314 731.854 356.385 731.854 356.444 731.841C356.068 732.153 356.174 732.518 356.256 733.066C355.493 732.923 355.317 732.857 355.047 732.884C355.446 732.545 355.857 732.206 356.256 731.867V731.854ZM351.397 730.485C350.869 731.228 351.456 732.232 352.137 732.167C352.629 732.127 353.122 732.088 353.615 732.049C353.533 732.623 353.873 733.144 354.425 733.157C354.202 733.366 354.061 733.666 354.038 734.018C353.51 734.109 352.982 734.2 352.453 734.304C348.334 732.101 340.718 732.584 334.78 737.277C331.153 740.158 325.485 750.3 323.924 753.428C323.42 753.402 322.845 753.233 322.54 753.298C324.558 738.228 336.669 726.144 351.397 730.472V730.485ZM330.344 746.858C333.454 741.513 336.317 736.299 344.767 734.969C346.539 734.735 348.358 734.787 349.449 734.982C341.504 736.912 333.348 743.247 330.344 746.858ZM344.297 740.653C340.929 745.294 334.651 749.922 331.236 751.408C334.498 746.832 340.694 742.595 344.297 740.653ZM347.067 739.506C348.745 738.958 350.423 738.593 352.195 738.189C349.109 742.061 345.213 747.275 327.997 756.375C328.478 755.553 328.313 755.801 329.111 754.523C334.639 752.607 341.516 747.653 347.055 739.519L347.067 739.506ZM322.352 755.566C322.493 755.631 322.798 755.671 322.95 755.697C322.856 755.931 322.563 756.766 322.317 757.561C322.317 756.896 322.317 756.231 322.352 755.566ZM322.974 788.978C325.626 794.401 327.867 798.259 330.989 802.47C327.574 798.859 324.182 794.062 322.974 788.978ZM323.514 786.045C321.284 780.009 321.436 770.284 326.119 760.168C328.619 760.364 342.912 750.782 347.618 746.663C350.822 743.873 352.876 741.174 355.692 737.563C356.42 737.472 356.232 737.498 357.887 737.368C361.29 742.674 368.519 746.245 371.406 748.253C371.841 748.553 387.813 759.868 389.432 760.768C389.655 761.446 389.89 762.123 390.089 762.801C389.855 764.092 389.244 766.764 391.063 766.569C393.152 775.811 392.519 780.869 392.143 783.855C390.793 794.596 376.934 813.173 354.507 810.37C340.354 808.597 332.081 805.338 323.49 786.058L323.514 786.045ZM317.118 864.365C317.094 864.365 317.106 864.365 317.118 864.365V864.365ZM317.118 864.339C316.284 863.805 315.005 859.881 312.869 864.561C311.543 867.455 311.191 868.237 309.713 868.602C309.114 868.641 309.102 868.615 308.75 868.185C306.145 863.935 309.748 855.931 315.78 856.035C316.554 858.265 317.646 862.032 317.106 864.326L317.118 864.339ZM358.11 923.171C357.195 926.535 350.658 926.991 347.524 927.225C346.856 927.004 346.257 926.6 346.011 926.326C346.914 922.819 358.145 919.86 358.11 923.171ZM387.543 925.205C386.545 929.037 378.389 926.652 377.415 926.821C372.779 923.849 386.498 920.76 387.543 925.205ZM420.801 817.409C420.625 817.058 420.531 817.005 420.379 816.862C418.818 813.942 417.773 812.156 417.551 808.597C418.853 808.962 419.182 810.487 420.132 811.309C421.2 811.817 421.482 810.983 422.033 810.135C423.583 807.75 425.601 805.312 427.983 804.061C429.603 803.344 430.084 803.07 431.117 805.508C430.999 805.195 431.117 805.508 431.222 805.781C431.316 806.042 431.398 806.251 431.222 805.781C434.192 815.219 426.247 820.499 420.813 817.409H420.801Z" fill="#FFDAA1"/>
<path d="M376.984 778.536C375.881 778.875 376.374 780.165 376.527 781.3C377.336 790.294 365.425 800.423 353.384 798.911C343.327 797.243 340.146 784.311 338.562 783.242C337.424 782.499 335.041 783.45 336.778 786.918C338.738 790.855 341.813 795.652 345.24 798.559C357.48 808.91 381.514 794.701 378.216 779.305C378.087 778.718 377.501 778.379 376.984 778.536Z" fill="#FFDAA1"/>
<path d="M343.018 762.136C340.8 760.311 340.507 762.488 341.282 762.853C340.366 763.636 340.084 765.291 340.261 766.595C340.495 768.511 343.476 770.062 344.544 766.882C346.117 765.695 344.356 763.231 343.03 762.136H343.018ZM342.408 764.731C342.408 764.731 342.467 764.731 342.49 764.731C342.455 764.731 342.432 764.731 342.408 764.744V764.731ZM342.572 766.855C342.572 766.855 342.537 766.855 342.525 766.855C342.396 766.764 342.103 766.386 342.033 766.256C341.962 765.982 342.044 765.317 342.338 764.809C342.432 764.874 342.619 765.109 342.69 765.2C342.232 765.617 342.185 766.373 342.572 766.842V766.855Z" fill="#FFDAA1"/>
<path d="M368.719 757.352C368.155 757.352 367.815 758.056 368.249 758.617C366.419 759.151 365.679 763.44 368.05 764.196C369.611 765.839 371.676 763.701 370.925 760.676C370.702 759.751 369.352 757.352 368.719 757.352Z" fill="#FFDAA1"/>
<path d="M371.514 830.798C370.458 830.315 369.167 831.371 365.494 832.688C364.825 830.563 363.804 824.762 362.185 827.369C361.821 827.956 360.776 832.545 360.612 833.248C355.754 833.561 355.554 833.457 354.533 833.887C350.637 835.53 358.371 837.277 359.544 837.759C359.251 839.271 357.678 844.59 357.749 847.067C357.913 851.642 362.607 843.026 364.297 840.04C377.863 855.11 368.146 837.407 367.818 835.999C368.991 834.748 373.932 831.958 371.503 830.798H371.514ZM355.965 835.034C355.965 835.034 355.965 835.034 355.977 835.034L356.07 835.06C356.07 835.06 356 835.034 355.965 835.034ZM358.969 846.141C359.133 845.893 359.169 845.841 358.969 846.141V846.141ZM360.53 840.223C360.53 840.223 360.53 840.236 360.53 840.249C360.53 840.249 360.53 840.236 360.53 840.223ZM360.53 840.249C360.53 840.249 360.53 840.223 360.542 840.21C360.542 840.21 360.53 840.236 360.518 840.249H360.53ZM360.553 840.197C360.553 840.171 360.553 840.171 360.577 840.145L360.553 840.197ZM368.921 842.634L368.792 842.309C368.839 842.413 368.886 842.53 368.933 842.634H368.921ZM367.935 833.718C367.689 833.796 367.724 833.783 367.935 833.718V833.718Z" fill="#FFDAA1"/>
</g>
<defs>
<clipPath id="clip0_14219_217">
<rect width="372" height="982" fill="white"/>
</clipPath>
</defs>
</svg>
