<svg width="1916" height="1170" viewBox="0 0 1916 1170" fill="none" xmlns="http://www.w3.org/2000/svg">
<g clip-path="url(#clip0_8663_229)">
<path d="M1916 15H-4V1172H1916V15Z" fill="#FAB752"/>
<path d="M-11.12 694.043C-9.67308 688.79 0.038374 692.805 3.20353 692.371C5.19644 692.101 7.50259 689.268 10.0021 688.74C12.482 688.213 14.9707 688.859 17.2952 688.47C19.5806 688.082 21.4209 685.721 24.8425 685.578C27.8927 685.457 30.0973 687.338 32.327 687.34C34.1653 687.327 36.2672 685.942 38.1244 685.83C40.1381 685.717 43.1025 687.201 44.607 687.014C45.9358 686.847 47.4186 683.765 48.7632 683.11C50.6727 682.157 52.7716 682.982 54.7038 682.439C57.1238 681.737 57.2299 677.648 62.1491 678.98C63.1094 679.247 69.1843 683.426 69.9538 684.32C71.0586 685.602 72.6283 688.876 69.9431 688.114C67.8655 687.523 60.9427 679.811 59.0789 681.644C57.4093 683.299 62.5748 686.194 61.9478 688.644C61.6818 689.682 59.9659 690.38 58.7505 689.997C56.8881 689.425 56.4914 683.482 50.3071 685.563C47.6929 686.443 49.1407 691.713 48.8443 693.905C45.6369 693.929 44.8233 689.77 41.7686 689.284C40.1433 689.022 38.2883 689.428 36.6056 689.323C35.8869 689.993 41.0138 695.548 37.0977 694.952C34.239 694.524 34.6701 692.036 32.6082 690.937C29.6629 689.395 25.789 689.208 22.5243 689.409C21.4754 690.375 28.4174 695.428 23.8905 696.831C19.6563 698.154 19.4465 693.657 17.8552 692.71C15.5761 691.339 10.9892 692.566 8.47159 693.289L9.43984 699.814L-1.60444 695.419L-7.49272 695.248C-8.16165 697.326 -5.3187 700.864 -5.58236 702.216C-6.2613 705.565 -12.506 702.209 -14.5421 701.931C-18.1248 701.469 -20.0144 702.461 -23.0237 702.816C-28.7884 703.485 -28.623 699.455 -21.766 698.406C-19.5193 698.076 -11.556 698.486 -11.2265 698.092C-11.0521 697.876 -11.4238 695.258 -11.0809 694.042L-11.12 694.043Z" fill="#FFDAA1"/>
<path d="M10.095 732.647C6.32814 733.693 5.7963 727.986 4.28292 727C3.39829 726.4 -1.03114 725.162 -2.18501 725.171C-8.81455 725.259 -4.7797 733.854 -7.7465 734.659C-8.80052 734.941 -14.4975 731.6 -17.3755 731.211C-19.8421 730.897 -28.6737 732.058 -27.9557 728.709C-26.7459 723.125 -10.6847 728.853 -10.1231 728.105C-9.60038 727.397 -10.4057 724.333 -7.72007 722.552C-3.67204 719.881 0.339048 722.707 2.40886 722.261C4.12725 721.896 4.55283 716.064 9.19978 715.013C11.0937 714.588 14.5744 714.503 16.4934 714.801C18.2753 715.081 19.9104 716.653 21.2597 716.624C23.0782 716.571 23.6861 714.18 25.9127 713.772C29.5454 713.099 35.0757 715.072 36.9882 714.51C38.764 713.989 40.3798 710.378 41.9421 710.073C42.8796 709.89 47.0729 710.934 49.3994 710.818C51.2372 710.726 52.6976 709.874 53.5577 709.809C55.8846 707.132 60.111 709.975 62.4565 709.782C64.7629 709.588 65.4843 706.688 67.3186 706.127C71.0846 704.964 76.4702 705.921 77.0332 710.572L69.2556 708.831C69.2556 708.831 69.1581 708.871 69.1387 708.89L70.5028 713.437C72.9956 714.631 75.2922 715.729 75.9995 718.755C77.5563 725.53 71.8971 724.614 68.29 720.886C64.7222 717.197 66.6955 714.307 60.2314 712.986C58.6252 712.666 57.1172 712.403 55.4955 712.611C56.6439 714.48 66.1885 722.329 59.7782 722.964C55.3614 723.408 53.3078 715.6 50.1717 714.685C47.4472 713.904 43.426 714.931 40.4896 714.582C39.8314 718.088 43.6738 719.291 45.2556 721.567C49.0126 727.016 46.5352 733.097 41.5235 727.248C39.8662 725.324 38.0629 719.587 36.7858 718.815C35.6071 718.12 29.5387 717.402 27.857 717.454C23.6727 717.603 28.8285 721.808 29.1294 722.803C30.1921 726.277 29.3389 729.862 25.5456 727.387C23.816 726.266 23.7649 722.061 21.1131 720.536C17.4792 718.451 7.15583 716.299 7.67353 722.73C7.84643 724.919 14.2912 731.481 10.1144 732.628L10.095 732.647Z" fill="#FFDAA1"/>
<path d="M2.92895 625.675C1.3844 625.686 0.122883 624.444 0.111281 622.899C0.0996793 621.355 1.34238 620.093 2.88693 620.082C4.43149 620.07 5.693 621.313 5.7046 622.857C5.7162 624.402 4.4735 625.663 2.92895 625.675Z" fill="#FFDAA1"/>
<path d="M-40.0061 608.556C-40.6761 600.072 -37.9378 602.692 -32.3739 601.34C-12.2067 596.495 0.397564 576.842 22.7873 578.864C29.4415 579.459 38.5871 583.654 44.17 587.426C47.3938 589.593 49.2399 601.02 50.681 605.41C55.2846 619.418 60.1428 633.464 63.9466 647.752C64.6712 650.484 67.686 661.277 67.2104 663.061C65.9736 667.647 58.4152 663.85 54.6789 663.761C32.7888 663.163 6.7299 680.394 -16.5642 680.354C-18.1874 680.366 -19.7606 679.224 -21.2458 679.391C-23.6497 679.624 -26.8778 684.695 -28.2845 677.078C-30.3233 666.043 -31.4262 654.609 -33.4068 643.496C-35.3674 632.44 -39.161 619.521 -40.0254 608.595L-40.0061 608.556ZM-1.27048 589.117C-3.28487 591.734 -11.9512 594.067 -10.9251 597.874C-10.8648 598.088 -9.17986 601.088 -9.02252 601.204C-7.78396 602.055 0.0716874 598.554 0.709725 597.571C2.00507 595.566 0.541111 590.746 -1.27048 589.117ZM3.01857 587.286C2.47685 588.072 3.93416 594.613 4.79923 595.213C7.17827 596.877 13.823 593.6 17.0771 594.593C16.7157 590.742 17.2357 587.061 17.9312 583.321C16.7688 582.195 3.79291 586.224 3.03812 587.285L3.01857 587.286ZM35.514 585.927C35.7696 586.101 36.045 586.314 36.3009 586.527C36.1429 586.333 35.8872 586.139 35.514 585.927ZM34.3566 585.466C33.9646 585.352 33.5138 585.218 32.9651 585.085C28.8313 584.138 25.1032 582.543 20.7474 583.3C21.264 586.973 20.1484 592.086 20.8391 595.503C20.9408 596.03 21.3552 596.516 21.9256 596.942C25.3351 597.797 32.9758 602.12 33.5811 601.999C34.4989 601.796 34.8388 600.19 35.0668 599.288C35.4847 597.642 37.0878 589.748 37.0406 588.673C36.9684 586.874 35.4199 586.416 34.3566 585.466ZM41.4492 589.735C41.1476 588.642 39.6238 588.869 38.4287 588.604C38.7052 588.954 38.9228 589.285 39.0029 589.538C39.4242 590.943 37.4379 599.896 34.7228 602.968C36.6088 604.088 38.5358 605.462 40.1111 606.878C41.2409 606.263 41.5893 605.791 42.481 604.728C43.2372 603.843 45.2933 601.578 45.1495 600.66C43.2657 597.232 42.455 593.444 41.4295 589.716L41.4492 589.735ZM44.3923 606.611C43.6755 610.118 46.5291 612.482 49.1229 614.086C49.0216 611.016 48.7281 605.796 44.3923 606.611ZM57.7885 640.307C57.4277 639.136 56.5394 638.048 56.8216 636.559C56.6099 634.409 56.1028 632.008 55.325 629.999C55.0458 629.277 54.3986 626.446 53.0032 628.139C52.7901 628.414 53.0655 633.83 53.056 635.179C53.0602 635.727 53.2231 636.586 53.2087 637.271L53.6231 642.979C53.7605 643.036 53.8977 643.075 54.0546 643.132C54.3293 643.247 54.7382 643.01 54.9933 643.125C58.7427 644.955 58.8522 643.917 57.7884 640.288L57.7885 640.307ZM59.807 659.068C60.9069 659.685 64.0396 662.733 63.5851 659.509C63.3991 658.18 60.2337 648.171 59.7224 647.803C59.2595 646.066 57.5947 645.746 55.9534 645.954C55.6982 645.838 55.2891 646.056 55.0146 645.961C54.7596 645.865 54.5741 644.595 52.8961 645.136C52.2328 645.356 51.6876 645.673 51.0338 647.164C50.9073 648.554 51.214 650.331 51.4949 651.268C52.2779 653.961 56.6731 655.845 58.2782 658.629C58.9253 658.859 59.4731 658.875 59.8266 659.068L59.807 659.068ZM9.84281 626.136C10.2898 623.159 13.0383 621.926 10.744 618.521C8.6277 615.388 3.00528 614.159 -0.186498 616.256C-1.02334 616.81 -7.16405 627.3 -7.0026 627.964C-6.84071 628.686 -4.75606 630.216 -4.04142 631.618C0.264448 639.84 -0.560536 649.781 9.79424 653.517C29.3858 660.568 39.2543 638.627 35.1051 622.621C33.2413 621.853 31.5667 625.444 30.9018 625.449C30.2564 625.454 28.5675 621.927 26.6565 622.684C26.6138 624.817 27.6832 626.588 27.7193 628.779C27.9437 643.035 7.08425 644.248 9.82325 626.136L9.84281 626.136ZM23.8492 626.5C19.6885 627.196 14.0319 621.41 13.5136 627.927C12.5303 640.217 25.704 636.48 23.8492 626.5ZM18.4972 666.478C19.736 667.368 26.6237 665.185 26.8951 664.87C27.2829 664.417 27.0414 660.918 26.7604 659.961C25.5557 655.805 19.7746 659.486 16.6252 659.412C16.042 659.885 17.4355 665.742 18.4776 666.478L18.4972 666.478ZM13.6147 664.813C12.3406 656.628 11.2663 659.413 5.75002 656.697C0.0179135 653.884 -2.50829 648.251 -4.60424 642.614C-5.54222 640.118 -5.81011 635.7 -7.11512 633.812C-8.57821 631.711 -12.9965 631.959 -13.5982 629.969C-14.4406 627.179 -11.6054 627.079 -10.3829 625.799C-6.19114 621.425 -6.91251 613.92 -0.911262 610.902C10.2341 605.323 13.2627 620.555 20.7813 621.653C23.9727 622.118 23.4832 619.442 25.154 617.943C27.7963 615.596 28.5804 618.445 30.089 618.786C31.6563 619.146 33.9644 613.965 37.7609 619.472C43.4159 627.644 38.3816 644.814 32.511 652.212C31.6005 653.373 30.3331 653.891 29.732 654.58C28.103 656.431 29.3499 663.599 32.1496 663.989C37.3378 664.693 40.0231 660.253 42.389 660.177C43.4841 660.149 44.8597 661.019 46.1899 661.048C49.7892 661.138 53.4057 660.896 56.9854 660.967C57.5371 658.909 55.7968 658.961 55.0867 658.164C53.5681 656.474 53.0141 655.637 50.8729 654.382C49.8316 653.764 48.6181 653.636 47.9511 653.368C47.7339 653.095 47.5558 652.823 47.4563 652.589C47.5514 652.236 48.4381 650.508 49.1561 649.76C49.0519 648.9 49.1434 648.058 49.607 647.292C49.7574 646.489 50.1002 645.254 50.7899 643.333C50.9637 643.038 51.1966 642.801 51.3901 642.526C51.5852 642.466 51.8592 642.484 52.2118 642.559C51.9568 642.463 51.6829 642.446 51.3901 642.526L52.2005 638.452C52.2005 638.452 52.1614 638.452 52.1223 638.453C52.4557 635.966 51.3818 633.608 51.0898 631.185C51.0673 630.794 51.0449 630.422 51.0224 630.031C51.0213 629.875 51.0199 629.699 51.0188 629.542C51.2145 626.959 53.6669 625.376 52.9217 622.507L49.1668 622.535C48.6042 620.544 44.8972 613.942 43.4568 612.251C40.655 608.986 31.3952 602.602 27.4136 601.106C27.1391 601.01 26.7494 601.209 26.4749 601.113C25.5788 598.988 21.2733 598.629 19.3161 598.448C17.9657 598.322 16.5181 598.293 15.0121 598.285C8.59974 598.646 2.20162 600.904 -3.54362 604.155C-10.3992 608.001 -18.0442 618.717 -19.1 626.568C-20.0072 633.381 -16.904 645.523 -13.5526 651.659C-10.5582 657.132 1.41487 670.615 7.73194 670.588C12.3083 670.553 14.294 669.326 13.5951 664.813L13.6147 664.813ZM-2.50992 668.865C-6.5744 666.744 -8.16618 670.942 -8.62763 674.603C-4.07216 674.392 5.57976 673.088 -2.50992 668.865ZM-22.4789 674.061C-13.7981 678.866 -1.99598 666.984 -11.5496 660.543C-14.7221 659.999 -17.049 662.677 -19.0313 664.354C-23.0338 665.284 -26.9567 671.591 -22.4789 674.061ZM-26.3966 662.845C-24.5322 666.292 -23.2862 662.919 -21.2419 661.691C-19.4895 660.641 -14.2406 659.018 -14.5137 656.497C-14.5771 655.871 -19.597 646.326 -20.0886 645.977C-21.5829 644.932 -26.2973 647.412 -28.5528 646.569L-26.3967 662.825L-26.3966 662.845ZM-31.4622 631.59C-30.3648 634.476 -29.7746 637.542 -29.7114 640.749C-29.6767 645.365 -19.3023 643.898 -22.0184 639.029C-22.2538 636.332 -21.1295 632.392 -23.4317 630.532C-24.1402 629.95 -30.5903 627.887 -31.0398 627.929C-33.6977 628.203 -31.4834 631.375 -31.4622 631.59ZM-32.4345 624.517C-31.0582 625.484 -23.3966 627.402 -22.0545 626.414C-21.6072 626.078 -18.9057 615.986 -19.4562 615.599C-22.7659 615.017 -26.7957 612.309 -29.4912 610.178C-30.6127 609.287 -32.0609 609.161 -31.6455 607.182C-29.8579 605.624 -20.2407 612.71 -17.9855 613.514C-16.8656 611.589 -11.5422 606.855 -11.1421 605.444C-10.3417 602.641 -13.3992 599.183 -16.1739 599.517C-18.1476 599.747 -25.2937 603.966 -28.8074 604.873C-30.9156 605.417 -35.0658 604.9 -35.9556 606.217C-37.3675 608.321 -35.0201 613.584 -34.4918 616.22C-33.9836 618.778 -35.0887 622.679 -32.4344 624.536L-32.4345 624.517Z" fill="#FFDAA1"/>
<path d="M47.8124 654.524C48.3591 654.403 53.6266 657.844 53.8245 658.156C54.0225 658.487 54.1507 659.933 53.3692 660.037C50.575 660.39 47.3243 659.848 44.4512 660.104C43.7532 658.31 46.3871 654.848 47.8124 654.524Z" fill="#FFDAA1"/>
<path d="M-47.9879 689.389C-47.883 687.725 -48.1672 686.339 -46.572 685.192L-38.8793 751.143C-38.3374 752.978 -30.9224 755.915 -28.6467 756.836C-6.06557 766.113 9.25338 761.558 30.7024 752.909C49.7529 745.217 64.9805 733.7 86.8924 739.813C88.7347 740.328 98.3128 744.813 98.8947 744.163C96.027 726.915 91.4206 709.934 87.459 692.87C79.7385 659.679 71.6073 626.491 60.8998 594.027C59.0184 588.31 55.8016 576.658 52.5413 572.243C48.0557 566.135 32.0432 559.078 24.5063 558.137C-3.54674 554.651 -21.4286 582.538 -45.502 582.895C-48.8852 582.94 -49.0155 581.22 -48.8037 578.167C-27.4486 575.249 -13.3398 555.39 7.2929 550.032C17.9509 547.273 27.5586 547.885 37.5869 552.425C40.3147 553.657 48.4585 559.874 50.4235 558.49C50.657 558.332 51.1134 556.607 51.8897 555.799C64.3485 542.817 75.7231 536.512 93.5102 532.467C110.809 528.523 129.227 530.321 146.049 522.723C151.682 520.178 155.992 513.358 160.336 521.482C162.042 524.696 162.8 529.228 164.273 532.62C182.148 574.105 205.694 618.11 229.841 656.224C231.939 659.533 237.873 665.845 238.738 668.948C239.119 670.295 239.72 674.769 239.119 675.458C238.906 675.694 236.969 675.611 235.899 676.44C235.044 677.112 229.975 684.504 229.885 685.522C229.668 687.831 233.369 693.632 232.437 697.218C230.803 703.528 208.501 715.88 202.205 718.724C171.018 732.845 135.15 725.252 109.82 753.508C103.341 760.715 104.005 755.39 97.5258 754.598C65.7532 750.651 37.1651 780.086 7.59764 783.281C-1.95857 784.311 -21.2024 784.494 -29.3577 779.353C-35.0171 775.797 -32.5044 766.625 -34.9494 761.382C-36.5197 758.03 -44.6055 756.917 -46.3253 749.283C-46.8513 746.959 -47.4317 742.602 -47.6064 740.178C-48.6535 725.752 -48.8969 703.771 -47.9877 689.408L-47.9879 689.389ZM120.461 735.571L138.001 727.225C166.469 718.23 198.206 722.607 222.553 701.497C227.023 697.61 227.661 696.667 226.208 690.654L217.312 696.334C188.961 715.596 146.59 704.219 122.314 732.272C121.403 733.335 120.077 733.834 120.461 735.571ZM106.38 735.677C107.663 737.193 111.638 729.946 112.413 729.041C118.928 721.462 128.378 714.115 137.46 709.92C168.275 695.705 208.036 708.608 230.806 677.946C234.911 672.419 229.675 670.62 226.571 666.164C201.047 629.587 175.318 578.753 158.889 537.178C158.012 534.955 155.653 525.546 153.987 525.089C152.184 524.594 146.777 528.546 144.437 529.522C116.789 540.917 85.9987 534.909 61.8356 557.172C58.4558 560.287 55.3404 562.13 56.9409 566.91C60.2625 576.879 66.4654 587.687 70.1607 597.947C70.6402 599.293 70.4947 600.761 70.8947 601.931C86.2633 645.646 97.9407 690.072 106.4 735.677L106.38 735.677ZM-24.5105 776.324C-23.1953 776.96 -18.1388 778.35 -16.5523 778.651C20.6979 785.392 45.1037 753.779 78.8456 749.105C82.3623 748.609 86.1448 749.637 89.5784 748.497C78.3264 742.479 66.7186 746.38 55.5615 750.395C31.6283 759.004 13.359 771.757 -13.9371 767.502C-16.3847 767.13 -27.9333 763.285 -28.5934 763.936C-27.5694 767.468 -28.1613 774.591 -24.5103 776.344L-24.5105 776.324Z" fill="#FFDAA1"/>
<path d="M108.242 703.535C109.665 702.878 111.778 702.999 112.712 702.347C113.919 701.517 113.32 697.336 116.411 694.809C119.365 692.381 122.93 693.039 124.799 691.89C125.578 691.415 126.401 689.14 127.528 688.056C131.509 684.251 137.342 684.951 141.869 683.548C143.567 683.026 145.097 681.02 147.027 680.243C150.596 678.808 157.882 677.677 161.68 678.079C164.831 678.408 167.758 680.165 171.179 679.885C173.661 679.671 175.367 677.624 177.925 677.155C180.269 676.727 183.266 677.369 185.1 676.769C186.915 676.168 186.791 672.688 189.916 672.156C192.319 671.747 205.293 675.346 205.405 677.223C205.472 678.239 203.248 679.038 201.657 678.19C200.852 677.765 200.353 676.361 199.138 676.018C196.707 675.332 192.231 675.64 189.449 674.996C189.178 678.088 193.03 677.922 194.608 679.67C198.099 683.536 194.722 689.625 190.41 685.824C187.476 683.244 188.622 679.5 183.48 679.773C181.681 679.865 174.906 681.383 174.528 683.166C174.188 684.694 178.337 687.733 175.399 692.371C172.674 696.675 168.042 691.918 168.07 687.849C168.094 685.815 170.402 683.216 166.506 682.678C162.825 682.178 151.308 682.538 148.191 684.204L149.219 690.788C145.09 698.368 141.652 688.556 141.065 688.463C138.48 688.052 130.333 689.15 129.533 691.972C128.846 694.363 135.073 697.935 131.473 700.368C126.569 703.671 127.219 693.867 120.377 696.891C115.056 699.259 118.279 704.026 118.332 708.387C117.497 709.274 106.037 701.576 108.034 712.22C101.797 712.521 103.662 705.662 108.223 703.554L108.242 703.535Z" fill="#FFDAA1"/>
<path d="M81.715 578.619C82.6492 578.006 83.0077 576.263 84.0371 575.316C88.8745 570.977 90.9282 573.582 95.1232 572.26C96.4891 571.839 97.0025 569.879 99.0536 569.551C104.738 568.628 112.598 573.517 106.595 578.902C103.938 579.294 105.85 576.052 104.721 574.203C103.434 572.119 98.1283 571.338 98.607 575.187C102.814 575.39 103.806 582.522 99.9215 583.548C95.5102 584.716 96.0883 575.754 90.713 576.185C83.7739 576.726 86.5429 586.035 84.1413 586.581C82.4035 586.966 81.2556 582.554 76.7874 583.976C75.7533 584.297 72.4631 588.918 71.4578 585.268C70.11 580.291 79.7299 579.925 81.715 578.619Z" fill="#FFDAA1"/>
<path d="M101.803 626.829C101.663 623.818 103.602 621.632 106.454 621.161C107.362 619.707 109.578 620.433 111.117 619.698C111.254 619.639 111.39 619.54 111.526 619.421C111.584 619.382 111.662 619.323 111.721 619.283C112.906 618.257 113.946 616.117 115.487 615.636C120.951 613.933 130.201 618.988 128.061 625.693C125.071 626.087 121.567 625.624 121.461 621.987L125.213 621.49C122 618.247 116.114 615.769 114.89 622.036C116.505 623.511 121.468 625.468 122.33 628.259C123.292 631.381 120.519 634.531 117.276 632.384C113.364 629.793 111.338 620.44 105.914 624.842C102.571 627.547 107.182 632.186 104.16 633.363C101.39 634.46 101.739 631.328 99.8912 630.148C98.378 629.182 93.9281 627.827 92.827 629.654C91.7648 631.442 93.7631 634.497 90.098 633.469C88.1576 632.916 88.0614 627.929 89.556 626.412C93.4963 622.412 101.435 627.36 101.783 626.809L101.803 626.829Z" fill="#FFDAA1"/>
<path d="M151.589 603.658C146.107 605.459 135.843 611.267 130.452 609.586C129.491 609.28 129.035 608.462 128.677 607.604C125.406 596.54 119.693 585.865 115.993 575.077C114.054 569.419 109.528 560.594 116.293 557.726C122.22 555.198 133.262 551.458 139.508 549.846C143.081 548.92 148.646 547.704 152.213 548.734C153.507 549.115 154.771 550.846 155.543 551.975C160.447 559.155 169.223 581.816 170.793 590.409C172.873 601.757 159.452 601.095 151.589 603.697L151.589 603.658ZM160.047 571.01C157.795 565.375 154.21 559.495 151.84 553.802C151.522 553.159 151.088 552.634 150.382 552.405C146.305 551.105 120.696 560.607 116.402 564.414L131.696 605.919C132.505 606.911 144.907 601.948 146.933 600.954C150.577 599.167 146.731 597.455 145.269 595.452C143.095 592.456 141.74 589.102 139.488 586.185C137.448 588.02 135.832 591.533 132.88 589.11C130.341 587.017 132.346 583.207 131.062 581.496C130.153 580.251 126.48 580.787 125.258 576.924C123.936 572.748 128.802 572.145 129.389 569.637C129.863 567.677 126.381 562.384 131.026 560.999C135.436 559.695 136.829 565.513 137.514 565.586C140.078 565.821 141.736 562.601 144.025 562.642C145.57 562.67 149.137 566.222 149.246 567.786C149.334 569.076 148.23 570.551 148.413 571.45C148.698 572.856 153.694 574.011 154.011 577.158C154.582 582.943 148.805 581.891 147.876 583.247C147.566 583.699 146.58 587.834 146.566 588.577C146.507 591.1 151.184 596.581 153.848 597.147C156.492 597.714 166.588 595.526 167.116 592.921C167.342 591.785 161.064 573.623 160.027 571.01L160.047 571.01ZM141.817 578.638C145.059 577.949 150.036 581.745 150.252 576.717C147.313 575.956 141.959 574.099 141.817 578.638ZM144.53 567.372C142.043 566.999 138.218 573.345 141.313 573.967C143.918 574.476 145.23 569.44 144.53 567.372ZM132.135 578.554C135.462 578.705 139.879 567.895 133.277 566.517L135.204 573.074C128.876 571.655 124.212 578.183 132.155 578.554L132.135 578.554Z" fill="#FFDAA1"/>
<path d="M104.953 671.402C107.214 670.29 109.765 671.425 111.852 670.744C113.686 670.163 113.719 666.74 115.801 665.317C120.296 662.232 124.809 664.212 128.675 663.284C129.495 663.082 129.735 661.242 130.629 660.394C132.104 658.955 140.673 656.602 142.902 656.527C145.287 656.45 150.936 658.54 152.608 657.315C153.348 656.781 154.013 651.671 158.247 650.31C163.437 648.647 167.511 651.961 171.438 648.861C172.099 648.328 172.188 647.115 173.961 646.241C179.222 643.58 189.851 644.811 194.437 648.688C199.929 653.321 195.809 659.494 190.193 653.942C188.617 652.37 188.144 649.264 186.811 648.863C185.007 648.329 175.679 648.497 174.711 649.775C174.208 650.444 174.133 650.875 174.252 651.187L175.609 652.194C175.806 652.309 176.003 652.445 176.16 652.6C176.454 652.696 176.844 652.497 177.099 652.593C178.08 652.957 178.119 652.996 178.983 653.518C189.731 660.106 183.564 672.279 174.914 663.797C172.116 661.06 170.761 655.085 170.367 654.697C168.811 653.164 159.344 653.118 157.383 655.069C153.831 658.616 159.104 660.2 160.703 662.124C167.077 669.782 158.928 678.488 153.519 666.578C152.743 664.863 153.014 661.869 151.23 661.334C148.859 660.648 133.077 660.845 133.059 663.7C136.186 665.946 139.883 665.996 141.771 669.991C144.374 675.507 137.958 680.601 134.262 678.067C134.007 677.893 130.786 673.575 130.43 672.991C129.657 671.686 128.568 667.333 128.274 667.14C126.544 665.94 117.046 666.911 116.251 670.535C115.873 672.279 119.621 673.835 119.924 675.202C120.127 676.139 118.187 678.246 117.621 678.387C115.629 678.852 115.427 675.353 113.741 674.798C112.212 674.301 105.346 674.274 104.969 676.155C104.404 678.995 112.246 681.498 112.529 682.67C113.78 687.863 103.491 682.444 102.349 678.815C101.508 676.161 102.343 672.752 104.954 671.461L104.953 671.402ZM180.911 662.833C181.661 658.446 177.295 655.232 173.345 655.379C172.568 656.089 177.989 664.38 180.911 662.833ZM138.753 674.415C140.557 672.445 135.883 667.239 133.071 667.886C131.429 670.558 137.123 676.168 138.753 674.415Z" fill="#FFDAA1"/>
<path d="M102.678 646.769C105.78 645.67 109.89 646.128 112.564 645.325C114.106 644.884 115.455 642.311 116.973 641.283C121.935 637.901 127.368 639.875 131.302 637.694C133.405 636.524 132.912 633.32 135.145 631.23C138.738 627.839 143.809 628.545 146.868 626.937C148.231 626.223 148.646 624.186 149.636 623.142C154.216 618.413 159.917 622.243 164.658 620.702C164.74 615.987 172.057 616.324 175.406 616.885C178.872 617.485 188.831 623.141 186.807 627.107C184.532 631.564 175.982 625.878 181.58 623.86C180.941 622.085 167.423 616.534 167.488 622.558C168.846 623.604 172.351 624.184 174.395 625.479C179.779 628.861 184.364 637.863 174.848 636.408C167.466 635.271 168.018 628.05 164.658 625.904C161.769 624.068 151.877 622.049 151.483 626.922C151.196 630.347 154.228 630.344 155.766 632.093C159.83 636.678 154.046 642.608 151.168 639.598C147.836 636.122 148.877 626.316 138.895 633.099C131.053 638.439 139.484 641.212 139.504 643.91C139.522 646.257 136.486 648.236 134.262 646.356C131.86 644.34 132.756 641.184 127.831 641.69C126.502 641.818 118.753 643.89 118.308 644.5C116.856 646.447 122.133 651.238 118.404 652.049C116.861 652.393 115.923 649.857 114.472 649.438C110.964 648.428 104.148 649.711 101.073 651.749C98.9711 653.153 99.8915 655.923 96.3839 655.03C95.0607 650.718 99.0112 648.087 102.678 646.788L102.678 646.769ZM175.995 632.821C177.654 629.757 169.964 626.666 169.381 627.238C169.097 630.995 172.538 633.453 175.995 632.821Z" fill="#FFDAA1"/>
<path d="M83.2883 599.746C85.6907 599.317 90.2187 600.652 91.7299 598.744C93.2993 596.776 91.4687 595.225 95.9189 594.018C99.5971 591.585 105.005 590.332 109.335 591.297C110.275 591.505 114.814 594.209 115.19 594.813C115.724 595.708 115.966 599.188 115.675 599.522C115.578 599.621 113.195 600.05 112.854 598.898C111.99 595.893 112.064 595.247 108.638 594.842C107.346 594.695 106.544 594.643 106.39 595.016C106.687 595.522 106.965 596.087 107.225 596.769C114.128 601.822 110.015 608.933 105.441 606.679C102.202 605.08 98.4401 596.386 96.4487 596.85C95.7458 597.012 93.9505 600.155 94.1721 601.014C94.3939 601.892 97.0014 602.733 98.1303 604.602C102.468 611.924 96.5288 615.332 92.856 608.065C91.2678 604.928 92.5227 602.747 87.1032 602.495C81.9772 602.259 82.953 604.579 82.9251 608.687C82.9313 609.508 83.4187 611.91 81.5541 611.025C77.3342 609.042 78.8741 600.542 83.3471 599.765L83.2883 599.746ZM106.792 604.244C110.862 601.906 103.722 596.502 102.518 597.724C101.004 599.281 105.788 603.332 106.792 604.244Z" fill="#FFDAA1"/>
<path d="M1662.91 962.677C1666.82 946.374 1682.88 951.127 1675.27 981.531C1678.3 983.281 1693.52 995.06 1715.6 993.912C1726.74 992.788 1747.62 985.652 1755.28 976.65C1756.97 974.019 1756.68 972.866 1758.33 972.264C1763.05 954.429 1763.07 954.746 1766.46 944.919C1767.78 941.055 1772.49 943.706 1771.44 946.737C1765.33 964.953 1755.62 1007.3 1754.58 1012.74C1741.71 1077.89 1744.34 1053.66 1734.14 1099.46C1737.39 1098.88 1737.38 1101.51 1745.22 1105.95C1760.46 1113.75 1776.95 1118.27 1793.29 1118.79C1794.42 1118.21 1795.63 1118.29 1796.74 1118.87C1826.2 1119.38 1897.31 1097.26 1920.66 1077.97C1916.03 1069.56 1916.17 1069.56 1907.77 1054.62C1863.65 976.32 1843.39 953.262 1835.86 931.864C1835.18 932.179 1834.46 932.47 1833.78 932.755C1822.41 938.941 1814.26 942.5 1790.66 943.161C1767.71 943.8 1754.75 937.667 1738.8 926.375C1716.45 910.631 1703.49 891.946 1701.77 851.276C1701.02 853.083 1698.89 853.889 1697.07 852.347C1662.78 864.367 1652.92 918.979 1657.68 932.276C1658.28 933.874 1658.85 934.965 1658.46 936.434C1657.91 938.454 1655.97 939.473 1654.15 938.829C1642.53 934.541 1650.75 863.192 1692.77 846.424C1692.12 845.095 1691.57 843.68 1691.07 842.253C1643.34 846.646 1629.43 893.799 1632.98 900.374C1634.98 904.061 1629.02 907.699 1627.08 900.724C1624.53 891.803 1638.45 844.228 1688.38 838.821C1664.23 832.285 1642.01 841.812 1626.68 873.493C1627.91 874.177 1629.8 874.998 1629.14 877.428C1628.14 881.155 1620.6 878.507 1620.8 873.165C1620.97 868.568 1641.7 821.175 1688.67 833.392C1688.11 830.407 1687.62 826.73 1687.41 823.022C1665.13 809.478 1630.88 824.443 1627.82 839.555C1626.39 867.108 1600.21 814.514 1664.88 810.274C1673.99 809.674 1680.3 811.479 1687.27 815.316C1688.7 763.494 1718.82 713.159 1772.24 742.496C1772.99 742.388 1776.5 741.91 1776.81 741.872C1846.61 700.793 1882.23 795.572 1870.52 801.644C1874.06 807.29 1874.64 808.699 1875.22 809.851C1901.35 747.968 1953.11 790.204 1950.13 801.319C1949.34 804.226 1945.69 804.576 1944.28 801.784C1928.04 777.329 1897.88 776.015 1881.5 808.258C1908.77 784.995 1946.89 799.937 1947.56 839.787C1947.59 841.932 1945.02 843.223 1943.42 841.374C1941.45 839.093 1945.2 818.495 1923.63 806.683C1910.65 800.074 1896.12 803.16 1886.71 810.796C1896.56 808.102 1937.7 812.98 1941.13 851.012C1941.38 853.749 1941.46 857.391 1941.72 861.441C1941.91 865.217 1936.05 865.848 1935.78 860.997C1934.66 838.843 1929.15 825.556 1907.63 818.645C1914.96 824.325 1919.72 830.882 1924.56 838.77C1930.97 849.283 1931.54 860.648 1931.4 872.975C1931.21 886.728 1929.92 889.943 1926.72 889.71C1924.51 889.539 1923.2 887.236 1923.38 885.719C1926.6 855.608 1922.17 847.211 1915.02 836.127C1910.44 829.692 1905.6 823.955 1898.72 820.13C1892.59 817.065 1886.91 817.652 1882.38 820.867C1881.66 821.482 1880.45 822.785 1880.4 822.797C1892.11 860.643 1888.67 881.686 1872.17 906.284C1865.13 916.749 1859.12 918.15 1843.09 927.937C1843.97 930.432 1844.96 932.871 1846.04 935.194C1847.49 935.345 1847.22 936.434 1852.86 943.047C1867.34 959.939 1908.06 994.033 1911.49 996.398C1917.63 1000.65 1921.94 1002.78 1929.93 1009.21C1940.22 1000.7 1968.56 1016.14 1963.32 1042.18C1963.1 1043.26 1962.42 1044.99 1961.44 1046.4C1960.4 1047.92 1960.01 1048.11 1959.11 1048.73C1958.66 1049.02 1957.23 1049.61 1955.66 1049.8C1953.23 1050.07 1950.79 1049.5 1948.68 1048.34C1945.25 1046.49 1942.61 1042.41 1940.46 1039.3C1935.85 1047.74 1924.69 1044.05 1927.67 1016.53C1897.16 997.32 1864.06 962.903 1858.41 956.101C1891.64 1006.06 1906.36 1031.08 1929.53 1074.12C1934.77 1083.84 1926.55 1086.55 1923.31 1082.22C1908.47 1094.59 1901.28 1096.81 1872.19 1108.03C1876.61 1132.22 1887.73 1183.69 1887.73 1183.69C1906.55 1186.88 1910.6 1197.77 1902.63 1203.92C1901.74 1205.83 1886 1210.44 1883.63 1208.45C1859.86 1209.88 1853.24 1184.29 1879 1183.3C1878.4 1180.65 1870.46 1143.67 1864.72 1110.89C1828.33 1124.57 1811.26 1126.15 1800.13 1126.89C1802.37 1137.59 1816.46 1201.06 1816.46 1201.06C1832.85 1200.05 1838.87 1212.13 1830.03 1219.51C1829.49 1221.07 1828.31 1221.25 1826.7 1221.9C1821.27 1225.32 1820.35 1225.98 1818.98 1225.07C1795.38 1234.37 1785.63 1209.21 1809.04 1202.23C1805.47 1194.06 1793.64 1135.82 1791.84 1127.05C1774.65 1126.57 1746.64 1120.97 1732.34 1107.28C1731.4 1108.36 1730.04 1108.61 1728.84 1108.18C1725.11 1106.78 1724.18 1103.59 1733.79 1070.42C1748.45 1019.98 1743.26 1028.03 1754.06 988.037C1732.28 1007.22 1694.56 1010.27 1670.71 989.568C1654.4 1000.19 1631.8 988.999 1631.39 963.632C1631.08 941.357 1648.44 947.001 1662.91 962.677ZM1626.4 874.136C1626.4 874.136 1626.43 874.259 1626.44 874.32C1626.43 874.259 1626.41 874.197 1626.4 874.136ZM1699.02 844.422C1699.51 844.309 1700.04 844.19 1701.67 844.108C1701.66 843.723 1701.66 843.338 1701.69 842.947C1699.27 842.116 1699.53 842.219 1698.5 841.876C1698.3 841.89 1698.1 841.903 1697.9 841.916C1698.24 842.77 1698.61 843.617 1699.02 844.422ZM1695.92 835.528C1700.16 836.874 1699.43 836.591 1701.88 837.445C1701.91 836.956 1701.95 836.467 1702 835.941C1698.71 831.394 1695.93 829.203 1694.54 828.043C1694.88 830.565 1695.36 833.056 1695.95 835.522L1695.92 835.528ZM1693.93 819.545C1695.24 820.497 1696.54 821.486 1697.79 822.519C1697.51 769.832 1723.48 751.105 1764.67 743.802C1713.86 723.985 1693.39 779.12 1693.93 819.545ZM1703.93 821.183C1716.35 761.173 1761.89 755.546 1769.95 751.975C1770.01 749.359 1769.61 748.744 1770.31 748.007C1728.87 754.981 1705.92 770.452 1703.92 821.153L1703.93 821.183ZM1732.59 781.967C1724.52 789.938 1716.26 807.585 1713.25 818.608C1714.25 817.643 1715.24 816.678 1716.23 815.683C1716.41 811.789 1724.93 792.735 1732.59 781.967ZM1728.13 803.725C1754.78 775.209 1760.36 774.579 1766.85 762.504C1749.1 766.904 1735.85 786.49 1728.13 803.725ZM1772.74 747.614C1772.6 747.646 1772.44 747.683 1772.29 747.684C1773.34 748.216 1773.29 749.127 1773.39 750.453C1775.09 749.71 1775.47 749.464 1776.12 749.381C1775 748.8 1773.86 748.226 1772.75 747.645L1772.74 747.614ZM1783.38 741.817C1785.02 743.275 1784.18 745.938 1782.55 746.149C1781.37 746.32 1780.2 746.492 1779.02 746.663C1779.52 747.962 1779 749.365 1777.72 749.69C1778.35 750.059 1778.84 750.686 1779.09 751.497C1780.37 751.429 1781.66 751.361 1782.95 751.323C1791.42 743.968 1809.51 741.033 1825.91 748.852C1835.94 753.662 1854.62 774.382 1859.94 780.873C1861.11 780.543 1862.37 779.84 1863.12 779.829C1850.35 745.625 1815.55 723.796 1783.38 741.787L1783.38 741.817ZM1841.41 768.917C1831.28 758.063 1821.79 747.383 1801.3 748.778C1797.03 749.175 1792.79 750.267 1790.34 751.307C1809.97 751.585 1832.45 762.066 1841.41 768.917ZM1805.43 761.835C1815.79 770.902 1832.96 778.387 1841.75 780.044C1831.67 771.072 1814.9 764.46 1805.43 761.835ZM1798.33 760.627C1794.11 760.24 1789.99 760.281 1785.63 760.281C1794.92 767.698 1806.82 777.827 1851.98 789.944C1850.42 788.278 1850.93 788.77 1848.38 786.205C1834.42 784.668 1815.68 776.74 1798.37 760.651L1798.33 760.627ZM1864.77 785.04C1864.47 785.267 1863.78 785.522 1863.44 785.664C1863.78 786.163 1864.91 787.96 1865.91 789.69C1865.56 788.134 1865.2 786.577 1864.77 785.04ZM1881.14 863.594C1877.82 877.706 1874.63 887.935 1869.57 899.459C1875.64 889.183 1881.02 876.142 1881.14 863.594ZM1878.31 857.015C1880.31 841.695 1874.76 819.008 1858.4 797.823C1852.65 799.615 1814.08 784.81 1800.86 777.676C1791.87 772.855 1785.62 767.633 1777.1 760.682C1775.35 760.856 1775.81 760.817 1771.86 761.395C1766.73 775.632 1751.71 787.852 1746.02 794.093C1745.16 795.026 1713.81 830.04 1710.49 833.01C1710.33 834.716 1710.15 836.428 1710.04 838.122C1711.28 841.018 1714.13 846.949 1709.77 847.462C1709.81 870.215 1713.99 881.719 1716.47 888.507C1725.36 912.935 1767.72 949.031 1818.73 930.503C1850.92 918.8 1868.55 906.756 1878.37 857.033L1878.31 857.015ZM1935.07 1036.97C1935.13 1036.95 1935.1 1036.96 1935.07 1036.97V1036.97ZM1935.06 1036.9C1936.73 1035.21 1937.63 1025.34 1945.12 1035.16C1949.77 1041.22 1951.01 1042.87 1954.67 1042.93C1956.09 1042.71 1956.11 1042.64 1956.7 1041.44C1960.53 1030.1 1947.83 1013.29 1933.76 1016.75C1933.14 1022.38 1932.59 1031.78 1935.08 1036.87L1935.06 1036.9ZM1870.48 1196.51C1874.42 1203.9 1889.97 1201.48 1897.43 1200.36C1898.87 1199.48 1900.06 1198.22 1900.49 1197.44C1896.5 1189.72 1868.63 1188.78 1870.48 1196.51ZM1802.66 1216.98C1807.04 1225.42 1824.86 1215.48 1827.23 1215.36C1836.5 1205.93 1802.73 1206.02 1802.66 1216.98ZM1667.28 982.357C1667.5 981.439 1667.69 981.267 1667.97 980.85C1670.07 973.18 1671.56 968.442 1670.19 959.991C1667.33 961.541 1667.37 965.287 1665.59 967.717C1663.36 969.477 1662.25 967.674 1660.51 965.984C1655.61 961.226 1649.58 956.596 1643.34 954.937C1639.16 954.122 1637.89 953.738 1636.78 959.996C1636.88 959.201 1636.78 959.996 1636.67 960.694C1636.59 961.354 1636.51 961.886 1636.67 960.694C1634.76 984.374 1656.18 992.496 1667.25 982.363L1667.28 982.357Z" fill="#FFDAA1"/>
<path d="M1636.63 960.64C1636.55 961.3 1636.47 961.833 1636.63 960.64V960.64Z" fill="#FFDAA1"/>
<path d="M1749.12 867.967C1751.88 868.172 1751.42 871.457 1751.66 874.193C1754.57 895.684 1787.86 913.042 1815.24 903.077C1837.9 893.804 1838.44 861.832 1841.58 858.484C1843.85 856.136 1849.94 857.093 1847.72 866.138C1845.23 876.401 1840.59 889.273 1834.12 897.907C1810.99 928.671 1747.14 908.229 1746.64 870.425C1746.63 868.983 1747.82 867.876 1749.12 867.967Z" fill="#FFDAA1"/>
<path d="M1819.89 811.448C1824.11 805.991 1825.96 810.932 1824.34 812.199C1826.9 813.542 1828.44 817.268 1828.73 820.414C1829.2 825.025 1823.05 830.248 1818.85 823.371C1814.53 821.433 1817.34 814.725 1819.86 811.454L1819.89 811.448ZM1822.7 817.195C1822.7 817.195 1822.57 817.227 1822.51 817.239C1822.59 817.22 1822.65 817.208 1822.71 817.226L1822.7 817.195ZM1823.45 822.258C1823.45 822.258 1823.53 822.239 1823.56 822.233C1823.81 821.95 1824.3 820.909 1824.4 820.566C1824.41 819.887 1823.87 818.375 1822.91 817.341C1822.72 817.544 1822.41 818.193 1822.29 818.444C1823.59 819.177 1824.1 820.922 1823.44 822.227L1823.45 822.258Z" fill="#FFDAA1"/>
<path d="M1757.16 813.96C1758.48 813.659 1759.65 815.126 1758.93 816.67C1763.5 816.944 1767.52 826.591 1762.37 829.626C1759.6 834.304 1753.62 830.401 1753.76 822.92C1753.79 820.634 1755.67 814.298 1757.16 813.96Z" fill="#FFDAA1"/>
<path d="M1789.81 987.402C1792.02 985.709 1795.61 987.492 1804.91 988.615C1805.34 983.283 1804.64 969.157 1809.82 974.397C1810.99 975.576 1815.88 985.762 1816.64 987.322C1828.18 985.462 1828.59 985.112 1831.21 985.574C1841.21 987.341 1824.04 995.557 1821.55 997.312C1823.04 1000.7 1829.56 1012.31 1830.72 1018.15C1832.77 1028.95 1817.19 1011.28 1811.64 1005.19C1787.92 1047.71 1801.22 1001.08 1801.24 997.607C1797.82 995.303 1784.77 991.408 1789.84 987.396L1789.81 987.402ZM1828.47 989.024C1828.47 989.024 1828.47 989.024 1828.45 989.03L1828.24 989.141C1828.24 989.141 1828.39 989.043 1828.47 989.024ZM1827.37 1016.63C1826.85 1016.14 1826.74 1016.03 1827.37 1016.63V1016.63ZM1820.55 1003.61C1820.55 1003.61 1820.56 1003.64 1820.57 1003.67C1820.57 1003.67 1820.56 1003.64 1820.55 1003.61ZM1820.57 1003.67C1820.57 1003.67 1820.55 1003.61 1820.52 1003.58C1820.52 1003.58 1820.56 1003.64 1820.6 1003.66L1820.57 1003.67ZM1820.49 1003.56C1820.47 1003.5 1820.47 1003.5 1820.4 1003.45L1820.49 1003.56ZM1802.2 1013.73L1802.33 1012.9C1802.27 1013.17 1802.22 1013.47 1802.17 1013.74L1802.2 1013.73ZM1799.75 992.328C1800.37 992.38 1800.28 992.368 1799.75 992.328V992.328Z" fill="#FFDAA1"/>
<path d="M1813.7 366.839L1792.13 388.711C1791.14 393.258 1793.57 394.465 1797.2 391.801C1800.73 389.189 1809.04 379.848 1812.3 376.085C1814.95 373.019 1820.29 367.89 1813.7 366.839Z" fill="#FFDAA1"/>
<path d="M1761.88 284.211C1767.84 286.809 1778.55 287.527 1785.22 288.427C1788.45 288.85 1790.11 291.358 1792.47 286.78C1792.62 285.233 1790.98 284.974 1789.98 284.496C1786.4 282.788 1778.81 282.849 1774.52 282.297C1769.28 281.621 1764.2 279.417 1758.91 280.84C1758.83 282.62 1760.46 283.584 1761.86 284.194L1761.88 284.211Z" fill="#FFDAA1"/>
<path d="M1789.79 335.362C1786.77 338.714 1763.63 348.371 1762.79 349.985C1762.14 351.232 1763.37 354.941 1765.47 354.256C1773.83 348.993 1783.33 344.713 1791.57 339.343C1794.42 337.481 1792.61 333.925 1789.79 335.362Z" fill="#FFDAA1"/>
<path d="M1912.48 301.393C1919.17 305.588 1919.3 293.062 1920.53 292.065C1921.62 291.144 1923.95 291.477 1924.3 291.153C1924.48 290.99 1923.92 286.553 1923.73 286.417C1923.26 286.053 1919.36 287.563 1918.16 286.929C1917.51 286.587 1916.52 283.935 1913.98 282.924C1906.28 279.88 1904.48 286.419 1900.14 287.442C1897.62 288.037 1894.91 285.639 1892.18 285.556C1888.49 285.433 1882.05 286.877 1878.9 288.878C1876.93 290.13 1874.86 293.706 1872.83 294.522C1870.95 295.298 1868.52 294.173 1866.3 294.429C1855.83 295.631 1850.29 306.236 1853.08 315.904C1853.26 316.526 1855.5 321.636 1855.72 321.892C1855.86 322.055 1857.81 321.732 1858.53 321.098C1860.55 319.339 1857.93 315.622 1857.52 313.461C1856.24 306.702 1858.99 300.849 1866.04 299.429C1873.22 297.992 1868.23 303.661 1870.8 307.465C1872.97 310.674 1877 312.224 1878.9 307.784C1881 302.856 1877.92 303.139 1877.11 300.364C1874.97 293.008 1891.45 287.276 1894.86 290.895C1897.25 293.433 1891.91 306.125 1900.27 303.857C1904.2 302.785 1902.24 296.352 1902.35 293.421C1902.58 287.822 1914.32 284.692 1914.22 288.907C1914.16 291.791 1906.53 297.709 1912.42 301.4L1912.48 301.393Z" fill="#FFDAA1"/>
<path d="M1862.61 204.481C1863.5 207.73 1863.62 208.559 1867.08 207.546C1872.16 206.068 1866.57 195.421 1865.69 191.69C1865.1 189.248 1865.21 186.721 1864.59 184.285C1864.01 182.064 1860.4 168.414 1859.65 168.025C1859.2 167.8 1855.14 168.305 1855 168.483C1853.66 170.218 1858.19 181.38 1858.79 184.061C1860.22 190.6 1860.81 197.747 1862.63 204.479L1862.61 204.481Z" fill="#FFDAA1"/>
<path d="M1815.03 234.136C1816.49 234.899 1819.41 233.309 1819.96 231.752C1820.5 230.258 1818.65 228.014 1817.69 226.887C1813.94 222.486 1800.38 208.687 1795.92 206.345C1792.93 204.767 1791.01 204.684 1791.42 208.757C1796.45 214.767 1803.14 219.566 1808.43 225.545C1809.85 227.138 1813.76 233.489 1815.03 234.136Z" fill="#FFDAA1"/>
<path d="M1922.53 319.408C1923.9 313.586 1927.52 308.63 1925.72 302.578C1922.38 302.371 1921.33 305.7 1920.22 308.17C1914.1 321.965 1910.93 358.923 1910.58 374.494C1910.52 377.257 1912.51 383.204 1909.98 385.188C1908.77 386.143 1896.89 387.641 1895.64 387.012L1894.73 385.979C1889.98 363.662 1886.81 340.386 1875.51 320.251C1874.4 318.297 1867.11 305.629 1864.5 311.162C1862.88 314.602 1868.11 318.517 1869.65 321.161C1877.77 335.155 1881.44 349.602 1885.23 365.098C1887.11 372.728 1889.71 380.189 1890.05 388.13C1881.02 390.722 1881.89 386.088 1878.09 380.89C1870.07 369.922 1853.88 362.704 1844.6 352.235C1826.46 331.726 1823.34 290.541 1833.86 265.841C1845.04 239.632 1885.04 227.112 1911.22 230.29C1913.08 230.521 1914.72 232.087 1916.86 231.318C1915.75 225.04 1918.04 222.724 1911.07 221.68C1891.31 218.689 1865.89 226.639 1849.42 237.619C1811.27 263.022 1809.55 332.281 1841.16 363.282C1848.73 370.707 1859.91 375.751 1867.72 383.207C1869.95 385.342 1872.83 388.062 1873.04 391.253C1866.82 391.806 1861.01 397.517 1864.52 403.878C1865.43 405.535 1869.04 407.881 1869.35 408.748C1869.85 410.174 1865.67 413.107 1868.1 417.993C1868.8 419.414 1870.72 420.262 1871.11 421.943C1871.64 424.25 1869.56 426.138 1870 428.698C1871.21 435.687 1879.94 436.935 1884.04 440.526C1889.01 444.876 1889.47 449.686 1897.68 451.681C1899.46 452.123 1908.71 453.385 1909.96 453.089C1913.2 452.284 1920.12 448.064 1922.22 445.409C1923.52 443.759 1924.63 438.734 1925.45 438.049C1926.65 437.034 1933.28 435.666 1935.61 434.371C1937.79 433.154 1939.07 430.642 1941.6 430.024L1939.36 411.962C1925.68 417.123 1911.52 421.68 1896.69 422.098C1892.44 422.224 1875.7 419.542 1874.97 414.665C1874.34 410.399 1882.3 413.451 1885.26 413.606C1894.53 414.101 1907.37 412.704 1916.54 410.939C1924.06 409.48 1930.74 405.432 1938.53 405.307L1937.34 395.8C1936.77 395.35 1926.08 400.641 1923.97 401.267C1922.14 401.795 1920.14 401.581 1918.31 402.011C1906.08 404.901 1887.58 408.49 1875.83 403.656C1874.1 402.947 1872.73 401.85 1871.34 400.636C1871.89 400.104 1873.1 398.003 1873.4 397.966L1927.58 391.223C1929.47 390.989 1932.56 385.012 1936.26 387.247C1935.85 385.89 1935.69 379.936 1935.31 379.642C1934.51 378.998 1930.31 381.812 1930.36 378.81C1930.41 375.666 1933.6 372.855 1933.97 370.437C1934.46 366.996 1932.74 362.344 1932.71 358.747C1931.04 358.553 1930.89 359.597 1930.04 360.528C1927.22 363.534 1923.26 370.04 1921.85 373.896C1920.11 378.678 1922.9 385.069 1915.71 384.998C1915.58 382.681 1914.79 380.185 1914.86 377.903C1915.41 359.171 1918.25 337.88 1922.54 319.507L1922.53 319.408Z" fill="#FFDAA1"/>
<path d="M-2.97375 -11H521.367C521.367 -1.36629 501.133 59.9391 409.034 45.9265C335.354 34.7163 261.117 58.7714 233.208 72.2002C25.5654 130.002 -11.1139 40.8177 -2.97375 -11Z" fill="#F6F6F6"/>
<path d="M1914.62 0H1213C1213 12.8449 1240.08 94.5855 1363.31 75.902C1461.9 60.9551 1561.24 93.0285 1598.59 110.934C1876.43 188.003 1925.52 69.0902 1914.62 0Z" fill="#F6F6F6"/>
<path d="M477.029 4.95388L999.525 -38.9992C1000.33 -29.3994 984.789 45.7636 892.508 33.0013C798.508 20.0013 746.157 55.9381 692.503 78.5C530 138.5 295.008 -20.4986 477.029 4.95388Z" fill="#F6F6F6"/>
<path d="M1324.56 -39.2227H655C655 -26.9208 680.838 51.3635 798.445 33.4699C892.53 19.1551 987.328 49.8723 1022.97 67.0203C1288.12 140.831 1334.95 26.9462 1324.56 -39.2227Z" fill="#F6F6F6"/>
<path d="M-16.197 1109.69C-16.6008 1108.51 -16.8322 1107.28 -16.8322 1106C-16.8322 1098.92 -10.195 1093.09 -1.6713 1092.35C-3.52715 1087.63 -4.53535 1082.61 -4.53535 1077.39C-4.53535 1050.11 22.8278 1028 56.5826 1028C84.3141 1028 107.718 1042.93 115.193 1063.38C118.518 1061.36 122.638 1060.15 127.119 1060.15C138.096 1060.15 146.995 1067.34 146.995 1076.21C146.995 1076.29 146.981 1076.37 146.981 1076.44C148.362 1076.55 149.713 1076.73 151.066 1076.91C162.878 1069.89 177.187 1065.5 192.619 1064.85C215.407 1063.9 236.168 1070.91 251.05 1082.74C259.895 1079.86 269.654 1078.43 279.894 1078.86C293.367 1079.42 305.855 1083.25 316.166 1089.38C317.346 1089.22 318.525 1089.06 319.731 1088.97C319.731 1088.9 319.719 1088.83 319.719 1088.77C319.719 1081.02 327.487 1074.75 337.069 1074.75C340.979 1074.75 344.577 1075.8 347.479 1077.57C354.256 1059.03 376.037 1045.68 401.471 1046.75C428.23 1047.87 450.111 1065.3 451.867 1086.91C452.321 1092.5 451.445 1097.87 449.485 1102.86C456.925 1103.51 462.717 1108.59 462.717 1114.78C462.717 1115.89 462.514 1116.96 462.162 1117.99C469.137 1118.5 475.512 1120.66 480.723 1123.96C485.766 1118.53 493.777 1115 502.828 1115C505.694 1115 508.459 1115.36 511.058 1116.01C518.841 1109.62 529.667 1105.65 541.642 1105.65C563.82 1105.65 582.062 1119.25 584.313 1136.69C586.419 1136.2 588.636 1135.93 590.933 1135.93H596.824C610.177 1135.93 621 1144.67 621 1155.46C621 1166.25 610.177 1175 596.824 1175H539.975H489.301H308.867H249.079H141.234H81.0062H-12.4947C-34.8641 1175 -53 1160.34 -53 1142.27C-52.9976 1125.2 -36.8286 1111.2 -16.197 1109.69Z" fill="#F6F6F6"/>
<path d="M549.803 1106.69C549.399 1105.51 549.168 1104.28 549.168 1103C549.168 1095.92 555.805 1090.09 564.329 1089.35C562.473 1084.63 561.465 1079.61 561.465 1074.39C561.465 1047.11 588.828 1025 622.583 1025C650.314 1025 673.718 1039.93 681.193 1060.38C684.518 1058.36 688.638 1057.15 693.119 1057.15C704.096 1057.15 712.995 1064.34 712.995 1073.21C712.995 1073.29 712.981 1073.37 712.981 1073.44C714.362 1073.55 715.713 1073.73 717.066 1073.91C728.878 1066.89 743.187 1062.5 758.619 1061.85C781.407 1060.9 802.168 1067.91 817.05 1079.74C825.895 1076.86 835.654 1075.43 845.894 1075.86C859.367 1076.42 871.855 1080.25 882.166 1086.38C883.346 1086.22 884.525 1086.06 885.731 1085.97C885.731 1085.9 885.719 1085.83 885.719 1085.77C885.719 1078.02 893.487 1071.75 903.069 1071.75C906.979 1071.75 910.577 1072.8 913.479 1074.57C920.256 1056.03 942.037 1042.68 967.471 1043.75C994.23 1044.87 1016.11 1062.3 1017.87 1083.91C1018.32 1089.5 1017.44 1094.87 1015.48 1099.86C1022.92 1100.51 1028.72 1105.59 1028.72 1111.78C1028.72 1112.89 1028.51 1113.96 1028.16 1114.99C1035.14 1115.5 1041.51 1117.66 1046.72 1120.96C1051.77 1115.53 1059.78 1112 1068.83 1112C1071.69 1112 1074.46 1112.36 1077.06 1113.01C1084.84 1106.62 1095.67 1102.65 1107.64 1102.65C1129.82 1102.65 1148.06 1116.25 1150.31 1133.69C1152.42 1133.2 1154.64 1132.93 1156.93 1132.93H1162.82C1176.18 1132.93 1187 1141.67 1187 1152.46C1187 1163.25 1176.18 1172 1162.82 1172H1105.98H1055.3H874.867H815.079H707.234H647.006H553.505C531.136 1172 513 1157.34 513 1139.27C513.002 1122.2 529.171 1108.2 549.803 1106.69Z" fill="#F6F6F6"/>
<path d="M1136.62 1153.35C1136.21 1152.16 1135.97 1150.9 1135.97 1149.6C1135.97 1142.37 1142.76 1136.42 1151.47 1135.67C1149.57 1130.85 1148.54 1125.72 1148.54 1120.4C1148.54 1092.56 1176.52 1070 1211.02 1070C1239.37 1070 1263.29 1085.23 1270.94 1106.1C1274.33 1104.04 1278.55 1102.8 1283.13 1102.8C1294.35 1102.8 1303.45 1110.14 1303.45 1119.19C1303.45 1119.28 1303.43 1119.35 1303.43 1119.43C1304.84 1119.54 1306.22 1119.73 1307.61 1119.91C1319.68 1112.75 1334.31 1108.27 1350.09 1107.61C1373.38 1106.63 1394.6 1113.79 1409.82 1125.86C1418.86 1122.92 1428.83 1121.46 1439.3 1121.89C1453.08 1122.47 1465.84 1126.38 1476.38 1132.63C1477.59 1132.47 1478.79 1132.31 1480.03 1132.22C1480.03 1132.15 1480.01 1132.08 1480.01 1132.01C1480.01 1124.11 1487.96 1117.7 1497.75 1117.7C1501.75 1117.7 1505.43 1118.78 1508.39 1120.58C1515.32 1101.66 1537.59 1088.04 1563.59 1089.13C1590.94 1090.27 1613.31 1108.06 1615.1 1130.11C1615.57 1135.81 1614.67 1141.3 1612.67 1146.39C1620.27 1147.05 1626.19 1152.24 1626.19 1158.55C1626.19 1159.68 1625.99 1160.78 1625.63 1161.83C1632.76 1162.35 1639.27 1164.55 1644.6 1167.92C1649.76 1162.38 1657.95 1158.78 1667.2 1158.78C1670.13 1158.78 1672.95 1159.14 1675.61 1159.81C1683.57 1153.28 1694.63 1149.23 1706.88 1149.23C1729.55 1149.23 1748.2 1163.11 1750.5 1180.91C1752.65 1180.41 1754.92 1180.13 1757.26 1180.13H1763.29C1776.94 1180.13 1788 1189.06 1788 1200.07C1788 1211.08 1776.94 1220 1763.29 1220H1705.17H1653.37H1468.92H1407.8H1297.56H1235.99H1140.41C1117.54 1220 1099 1205.05 1099 1186.6C1099 1169.18 1115.53 1154.9 1136.62 1153.35Z" fill="#F6F6F6"/>
<path d="M2205.14 1104.69C2205.55 1103.51 2205.78 1102.28 2205.78 1101C2205.78 1093.92 2199.13 1088.09 2190.6 1087.35C2192.45 1082.63 2193.46 1077.61 2193.46 1072.39C2193.46 1045.11 2166.06 1023 2132.25 1023C2104.48 1023 2081.04 1037.93 2073.56 1058.38C2070.23 1056.36 2066.1 1055.15 2061.61 1055.15C2050.62 1055.15 2041.71 1062.34 2041.71 1071.21C2041.71 1071.29 2041.72 1071.37 2041.72 1071.44C2040.34 1071.55 2038.99 1071.73 2037.63 1071.91C2025.8 1064.89 2011.47 1060.5 1996.02 1059.85C1973.2 1058.9 1952.4 1065.91 1937.5 1077.74C1928.64 1074.86 1918.87 1073.43 1908.61 1073.86C1895.12 1074.42 1882.61 1078.25 1872.29 1084.38C1871.1 1084.22 1869.92 1084.06 1868.72 1083.97C1868.72 1083.9 1868.73 1083.83 1868.73 1083.77C1868.73 1076.02 1860.95 1069.75 1851.35 1069.75C1847.44 1069.75 1843.83 1070.8 1840.93 1072.57C1834.14 1054.03 1812.33 1040.68 1786.85 1041.75C1760.06 1042.87 1738.14 1060.3 1736.38 1081.91C1735.93 1087.5 1736.81 1092.87 1738.77 1097.86C1731.32 1098.51 1725.52 1103.59 1725.52 1109.78C1725.52 1110.89 1725.72 1111.96 1726.07 1112.99C1719.09 1113.5 1712.7 1115.66 1707.49 1118.96C1702.43 1113.53 1694.41 1110 1685.35 1110C1682.48 1110 1679.71 1110.36 1677.1 1111.01C1669.31 1104.62 1658.47 1100.65 1646.48 1100.65C1624.26 1100.65 1606 1114.25 1603.74 1131.69C1601.63 1131.2 1599.41 1130.93 1597.11 1130.93H1591.21C1577.84 1130.93 1567 1139.67 1567 1150.46C1567 1161.25 1577.84 1170 1591.21 1170H1648.14H1698.89H1879.6H1939.47H2047.48H2107.8H2201.43C2223.84 1170 2242 1155.34 2242 1137.27C2242 1120.2 2225.8 1106.2 2205.14 1104.69Z" fill="#F6F6F6"/>
</g>
<defs>
<clipPath id="clip0_8663_229">
<rect width="1916" height="1170" fill="white"/>
</clipPath>
</defs>
</svg>
